<?xml version="1.0" encoding="UTF-8" standalone="no"?>
<!DOCTYPE svg PUBLIC "-//W3C//DTD SVG 1.1//EN"
 "http://www.w3.org/Graphics/SVG/1.1/DTD/svg11.dtd">
<!-- Generated by graphviz version 2.49.3 (20211023.0002)
 -->
<!-- Pages: 1 -->
<svg width="322pt" height="578pt"
 viewBox="0.00 0.00 321.50 578.00" xmlns="http://www.w3.org/2000/svg" xmlns:xlink="http://www.w3.org/1999/xlink">
<g id="graph0" class="graph" transform="scale(1 1) rotate(0) translate(4 574)">
<polygon fill="white" stroke="transparent" points="-4,4 -4,-574 317.5,-574 317.5,4 -4,4"/>
<text text-anchor="middle" x="70" y="-18" font-family="Times,serif" font-size="10.00">num tasks: 1546</text>
<text text-anchor="middle" x="70" y="-7" font-family="Times,serif" font-size="10.00">max required memory: 3.0 GB</text>
<!-- array&#45;001 -->
<g id="node1" class="node">
<title>array&#45;001</title>
<g id="a_node1"><a xlink:title="shape: (5000, 1, 987, 1920)&#10;chunks: (10, 1, 987, 1920)&#10;dtype: float64&#10;chunk memory: 151.6 MB&#10;&#10;calls: &lt;module&gt; &#45;&gt; random &#45;&gt; map_direct &#45;&gt; empty &#45;&gt; full&#10;line: 3 in &lt;module&gt;">
<polygon fill="none" stroke="black" points="59,-498 0,-498 0,-462 59,-462 59,-498"/>
<text text-anchor="middle" x="29.5" y="-483" font-family="Helvetica,sans-Serif" font-size="10.00">array&#45;001</text>
<text text-anchor="middle" x="29.5" y="-472" font-family="Helvetica,sans-Serif" font-size="10.00">random </text>
</a>
</g>
</g>
<!-- array&#45;004 -->
<g id="node4" class="node">
<title>array&#45;004</title>
<g id="a_node4"><a xlink:title="shape: (5000, 1, 987, 1920)&#10;chunks: (10, 1, 987, 1920)&#10;dtype: float64&#10;chunk memory: 151.6 MB&#10;&#10;task memory: 606.4 MB&#10;tasks: 500&#10;calls: &lt;module&gt; &#45;&gt; random &#45;&gt; map_direct &#45;&gt; map_blocks &#45;&gt; _map_blocks &#45;&gt; blockwise&#10;line: 3 in &lt;module&gt;">
<polygon fill="#dcbeff" stroke="black" points="145,-426 72,-426 72,-390 145,-390 145,-426"/>
<text text-anchor="middle" x="108.5" y="-411" font-family="Helvetica,sans-Serif" font-size="10.00">array&#45;004</text>
<text text-anchor="middle" x="108.5" y="-400" font-family="Helvetica,sans-Serif" font-size="10.00">random (bw)</text>
</a>
</g>
</g>
<!-- array&#45;001&#45;&gt;array&#45;004 -->
<g id="edge1" class="edge">
<title>array&#45;001&#45;&gt;array&#45;004</title>
<path fill="none" stroke="black" d="M49.03,-461.7C58.88,-452.97 70.99,-442.24 81.7,-432.75"/>
<polygon fill="black" stroke="black" points="84.03,-435.36 89.2,-426.1 79.39,-430.12 84.03,-435.36"/>
</g>
<!-- array&#45;002 -->
<g id="node2" class="node">
<title>array&#45;002</title>
<g id="a_node2"><a xlink:title="shape: (500, 1, 1, 1)&#10;chunks: (500, 1, 1, 1)&#10;dtype: int32&#10;chunk memory: 2.0 KB&#10;&#10;calls: &lt;module&gt; &#45;&gt; random &#45;&gt; map_direct &#45;&gt; map_blocks &#45;&gt; asarray&#10;line: 3 in &lt;module&gt;">
<polygon fill="none" stroke="black" points="141,-570 82,-570 82,-534 141,-534 141,-570"/>
<text text-anchor="middle" x="111.5" y="-555" font-family="Helvetica,sans-Serif" font-size="10.00">array&#45;002</text>
<text text-anchor="middle" x="111.5" y="-544" font-family="Helvetica,sans-Serif" font-size="10.00">random </text>
</a>
</g>
</g>
<!-- array&#45;003 -->
<g id="node3" class="node">
<title>array&#45;003</title>
<g id="a_node3"><a xlink:title="shape: (500, 1, 1, 1)&#10;chunks: (1, 1, 1, 1)&#10;dtype: int32&#10;chunk memory: 4 bytes&#10;&#10;task memory: 3.0 GB&#10;tasks: 1&#10;calls: &lt;module&gt; &#45;&gt; random &#45;&gt; map_direct &#45;&gt; map_blocks &#45;&gt; rechunk&#10;line: 3 in &lt;module&gt;">
<polygon fill="#aaffc3" stroke="black" points="145.5,-498 77.5,-498 77.5,-462 145.5,-462 145.5,-498"/>
<text text-anchor="middle" x="111.5" y="-483" font-family="Helvetica,sans-Serif" font-size="10.00">array&#45;003</text>
<text text-anchor="middle" x="111.5" y="-472" font-family="Helvetica,sans-Serif" font-size="10.00">random (rc)</text>
</a>
</g>
</g>
<!-- array&#45;002&#45;&gt;array&#45;003 -->
<g id="edge2" class="edge">
<title>array&#45;002&#45;&gt;array&#45;003</title>
<path fill="none" stroke="black" d="M111.5,-533.7C111.5,-525.98 111.5,-516.71 111.5,-508.11"/>
<polygon fill="black" stroke="black" points="115,-508.1 111.5,-498.1 108,-508.1 115,-508.1"/>
</g>
<!-- array&#45;003&#45;&gt;array&#45;004 -->
<g id="edge3" class="edge">
<title>array&#45;003&#45;&gt;array&#45;004</title>
<path fill="none" stroke="black" d="M110.76,-461.7C110.43,-453.98 110.03,-444.71 109.66,-436.11"/>
<polygon fill="black" stroke="black" points="113.16,-435.95 109.23,-426.1 106.16,-436.25 113.16,-435.95"/>
</g>
<!-- array&#45;028 -->
<g id="node9" class="node">
<title>array&#45;028</title>
<g id="a_node9"><a xlink:title="shape: (500, 1, 987, 1920)&#10;chunks: (1, 1, 987, 1920)&#10;dtype: [(&#39;n&#39;, &#39;&lt;i8&#39;), (&#39;total&#39;, &#39;&lt;f8&#39;)]&#10;chunk memory: 30.3 MB&#10;&#10;task memory: 909.6 MB&#10;tasks: 500&#10;calls: &lt;module&gt; &#45;&gt; mean &#45;&gt; reduce &#45;&gt; reduce &#45;&gt; mean &#45;&gt; f &#45;&gt; mean &#45;&gt; reduction &#45;&gt; blockwise&#10;line: 379 in f">
<polygon fill="#dcbeff" stroke="black" points="185.5,-354 121.5,-354 121.5,-318 185.5,-318 185.5,-354"/>
<text text-anchor="middle" x="153.5" y="-339" font-family="Helvetica,sans-Serif" font-size="10.00">array&#45;028</text>
<text text-anchor="middle" x="153.5" y="-328" font-family="Helvetica,sans-Serif" font-size="10.00">mean (bw)</text>
</a>
</g>
</g>
<!-- array&#45;004&#45;&gt;array&#45;028 -->
<g id="edge4" class="edge">
<title>array&#45;004&#45;&gt;array&#45;028</title>
<path fill="none" stroke="black" d="M119.62,-389.7C124.86,-381.56 131.2,-371.69 136.98,-362.7"/>
<polygon fill="black" stroke="black" points="140.04,-364.41 142.5,-354.1 134.15,-360.62 140.04,-364.41"/>
</g>
<!-- array&#45;005 -->
<g id="node5" class="node">
<title>array&#45;005</title>
<g id="a_node5"><a xlink:title="shape: (5000, 1, 987, 1920)&#10;chunks: (10, 1, 987, 1920)&#10;dtype: float64&#10;chunk memory: 151.6 MB&#10;&#10;calls: &lt;module&gt; &#45;&gt; random &#45;&gt; map_direct &#45;&gt; empty &#45;&gt; full&#10;line: 8 in &lt;module&gt;">
<polygon fill="none" stroke="black" points="227,-498 168,-498 168,-462 227,-462 227,-498"/>
<text text-anchor="middle" x="197.5" y="-483" font-family="Helvetica,sans-Serif" font-size="10.00">array&#45;005</text>
<text text-anchor="middle" x="197.5" y="-472" font-family="Helvetica,sans-Serif" font-size="10.00">random </text>
</a>
</g>
</g>
<!-- array&#45;008 -->
<g id="node8" class="node">
<title>array&#45;008</title>
<g id="a_node8"><a xlink:title="shape: (5000, 1, 987, 1920)&#10;chunks: (10, 1, 987, 1920)&#10;dtype: float64&#10;chunk memory: 151.6 MB&#10;&#10;task memory: 606.4 MB&#10;tasks: 500&#10;calls: &lt;module&gt; &#45;&gt; random &#45;&gt; map_direct &#45;&gt; map_blocks &#45;&gt; _map_blocks &#45;&gt; blockwise&#10;line: 8 in &lt;module&gt;">
<polygon fill="#dcbeff" stroke="black" points="236,-426 163,-426 163,-390 236,-390 236,-426"/>
<text text-anchor="middle" x="199.5" y="-411" font-family="Helvetica,sans-Serif" font-size="10.00">array&#45;008</text>
<text text-anchor="middle" x="199.5" y="-400" font-family="Helvetica,sans-Serif" font-size="10.00">random (bw)</text>
</a>
</g>
</g>
<!-- array&#45;005&#45;&gt;array&#45;008 -->
<g id="edge5" class="edge">
<title>array&#45;005&#45;&gt;array&#45;008</title>
<path fill="none" stroke="black" d="M197.99,-461.7C198.21,-453.98 198.48,-444.71 198.73,-436.11"/>
<polygon fill="black" stroke="black" points="202.22,-436.2 199.01,-426.1 195.23,-436 202.22,-436.2"/>
</g>
<!-- array&#45;006 -->
<g id="node6" class="node">
<title>array&#45;006</title>
<g id="a_node6"><a xlink:title="shape: (500, 1, 1, 1)&#10;chunks: (500, 1, 1, 1)&#10;dtype: int32&#10;chunk memory: 2.0 KB&#10;&#10;calls: &lt;module&gt; &#45;&gt; random &#45;&gt; map_direct &#45;&gt; map_blocks &#45;&gt; asarray&#10;line: 8 in &lt;module&gt;">
<polygon fill="none" stroke="black" points="309,-570 250,-570 250,-534 309,-534 309,-570"/>
<text text-anchor="middle" x="279.5" y="-555" font-family="Helvetica,sans-Serif" font-size="10.00">array&#45;006</text>
<text text-anchor="middle" x="279.5" y="-544" font-family="Helvetica,sans-Serif" font-size="10.00">random </text>
</a>
</g>
</g>
<!-- array&#45;007 -->
<g id="node7" class="node">
<title>array&#45;007</title>
<g id="a_node7"><a xlink:title="shape: (500, 1, 1, 1)&#10;chunks: (1, 1, 1, 1)&#10;dtype: int32&#10;chunk memory: 4 bytes&#10;&#10;task memory: 3.0 GB&#10;tasks: 1&#10;calls: &lt;module&gt; &#45;&gt; random &#45;&gt; map_direct &#45;&gt; map_blocks &#45;&gt; rechunk&#10;line: 8 in &lt;module&gt;">
<polygon fill="#aaffc3" stroke="black" points="313.5,-498 245.5,-498 245.5,-462 313.5,-462 313.5,-498"/>
<text text-anchor="middle" x="279.5" y="-483" font-family="Helvetica,sans-Serif" font-size="10.00">array&#45;007</text>
<text text-anchor="middle" x="279.5" y="-472" font-family="Helvetica,sans-Serif" font-size="10.00">random (rc)</text>
</a>
</g>
</g>
<!-- array&#45;006&#45;&gt;array&#45;007 -->
<g id="edge6" class="edge">
<title>array&#45;006&#45;&gt;array&#45;007</title>
<path fill="none" stroke="black" d="M279.5,-533.7C279.5,-525.98 279.5,-516.71 279.5,-508.11"/>
<polygon fill="black" stroke="black" points="283,-508.1 279.5,-498.1 276,-508.1 283,-508.1"/>
</g>
<!-- array&#45;007&#45;&gt;array&#45;008 -->
<g id="edge7" class="edge">
<title>array&#45;007&#45;&gt;array&#45;008</title>
<path fill="none" stroke="black" d="M259.72,-461.7C249.75,-452.97 237.49,-442.24 226.64,-432.75"/>
<polygon fill="black" stroke="black" points="228.88,-430.06 219.05,-426.1 224.27,-435.32 228.88,-430.06"/>
</g>
<!-- array&#45;008&#45;&gt;array&#45;028 -->
<g id="edge8" class="edge">
<title>array&#45;008&#45;&gt;array&#45;028</title>
<path fill="none" stroke="black" d="M188.13,-389.7C182.78,-381.56 176.3,-371.69 170.39,-362.7"/>
<polygon fill="black" stroke="black" points="173.16,-360.54 164.74,-354.1 167.31,-364.38 173.16,-360.54"/>
</g>
<!-- array&#45;029 -->
<g id="node10" class="node">
<title>array&#45;029</title>
<g id="a_node10"><a xlink:title="shape: (500, 1, 987, 1920)&#10;chunks: (24, 1, 987, 1920)&#10;dtype: [(&#39;n&#39;, &#39;&lt;i8&#39;), (&#39;total&#39;, &#39;&lt;f8&#39;)]&#10;chunk memory: 727.7 MB&#10;&#10;task memory: 3.0 GB&#10;tasks: 21&#10;calls: &lt;module&gt; &#45;&gt; mean &#45;&gt; reduce &#45;&gt; reduce &#45;&gt; mean &#45;&gt; f &#45;&gt; mean &#45;&gt; reduction &#45;&gt; rechunk&#10;line: 379 in f">
<polygon fill="#aaffc3" stroke="black" points="183,-282 124,-282 124,-246 183,-246 183,-282"/>
<text text-anchor="middle" x="153.5" y="-267" font-family="Helvetica,sans-Serif" font-size="10.00">array&#45;029</text>
<text text-anchor="middle" x="153.5" y="-256" font-family="Helvetica,sans-Serif" font-size="10.00">mean (rc)</text>
</a>
</g>
</g>
<!-- array&#45;028&#45;&gt;array&#45;029 -->
<g id="edge9" class="edge">
<title>array&#45;028&#45;&gt;array&#45;029</title>
<path fill="none" stroke="black" d="M153.5,-317.7C153.5,-309.98 153.5,-300.71 153.5,-292.11"/>
<polygon fill="black" stroke="black" points="157,-292.1 153.5,-282.1 150,-292.1 157,-292.1"/>
</g>
<!-- array&#45;030 -->
<g id="node11" class="node">
<title>array&#45;030</title>
<g id="a_node11"><a xlink:title="shape: (21, 1, 987, 1920)&#10;chunks: (1, 1, 987, 1920)&#10;dtype: [(&#39;n&#39;, &#39;&lt;i8&#39;), (&#39;total&#39;, &#39;&lt;f8&#39;)]&#10;chunk memory: 30.3 MB&#10;&#10;task memory: 1.5 GB&#10;tasks: 21&#10;calls: &lt;module&gt; &#45;&gt; mean &#45;&gt; reduce &#45;&gt; reduce &#45;&gt; mean &#45;&gt; f &#45;&gt; mean &#45;&gt; reduction &#45;&gt; blockwise&#10;line: 379 in f">
<polygon fill="#dcbeff" stroke="black" points="185.5,-210 121.5,-210 121.5,-174 185.5,-174 185.5,-210"/>
<text text-anchor="middle" x="153.5" y="-195" font-family="Helvetica,sans-Serif" font-size="10.00">array&#45;030</text>
<text text-anchor="middle" x="153.5" y="-184" font-family="Helvetica,sans-Serif" font-size="10.00">mean (bw)</text>
</a>
</g>
</g>
<!-- array&#45;029&#45;&gt;array&#45;030 -->
<g id="edge10" class="edge">
<title>array&#45;029&#45;&gt;array&#45;030</title>
<path fill="none" stroke="black" d="M153.5,-245.7C153.5,-237.98 153.5,-228.71 153.5,-220.11"/>
<polygon fill="black" stroke="black" points="157,-220.1 153.5,-210.1 150,-220.1 157,-220.1"/>
</g>
<!-- array&#45;031 -->
<g id="node12" class="node">
<title>array&#45;031</title>
<g id="a_node12"><a xlink:title="shape: (21, 1, 987, 1920)&#10;chunks: (21, 1, 987, 1920)&#10;dtype: [(&#39;n&#39;, &#39;&lt;i8&#39;), (&#39;total&#39;, &#39;&lt;f8&#39;)]&#10;chunk memory: 636.7 MB&#10;&#10;task memory: 3.0 GB&#10;tasks: 1&#10;calls: &lt;module&gt; &#45;&gt; mean &#45;&gt; reduce &#45;&gt; reduce &#45;&gt; mean &#45;&gt; f &#45;&gt; mean &#45;&gt; reduction &#45;&gt; rechunk&#10;line: 379 in f">
<polygon fill="#aaffc3" stroke="black" points="183,-138 124,-138 124,-102 183,-102 183,-138"/>
<text text-anchor="middle" x="153.5" y="-123" font-family="Helvetica,sans-Serif" font-size="10.00">array&#45;031</text>
<text text-anchor="middle" x="153.5" y="-112" font-family="Helvetica,sans-Serif" font-size="10.00">mean (rc)</text>
</a>
</g>
</g>
<!-- array&#45;030&#45;&gt;array&#45;031 -->
<g id="edge11" class="edge">
<title>array&#45;030&#45;&gt;array&#45;031</title>
<path fill="none" stroke="black" d="M153.5,-173.7C153.5,-165.98 153.5,-156.71 153.5,-148.11"/>
<polygon fill="black" stroke="black" points="157,-148.1 153.5,-138.1 150,-148.1 157,-148.1"/>
</g>
<!-- array&#45;034 -->
<g id="node13" class="node">
<title>array&#45;034</title>
<g id="a_node13"><a xlink:title="shape: (1, 987, 1920)&#10;chunks: (1, 987, 1920)&#10;dtype: float64&#10;chunk memory: 15.2 MB&#10;&#10;task memory: 1.3 GB&#10;tasks: 1&#10;calls: reduce &#45;&gt; reduce &#45;&gt; mean &#45;&gt; f &#45;&gt; mean &#45;&gt; reduction &#45;&gt; squeeze &#45;&gt; map_blocks &#45;&gt; _map_blocks &#45;&gt; blockwise&#10;line: 379 in f">
<polygon fill="#dcbeff" stroke="black" points="185.5,-66 121.5,-66 121.5,-30 185.5,-30 185.5,-66"/>
<text text-anchor="middle" x="153.5" y="-51" font-family="Helvetica,sans-Serif" font-size="10.00">array&#45;034</text>
<text text-anchor="middle" x="153.5" y="-40" font-family="Helvetica,sans-Serif" font-size="10.00">mean (bw)</text>
</a>
</g>
</g>
<!-- array&#45;031&#45;&gt;array&#45;034 -->
<g id="edge12" class="edge">
<title>array&#45;031&#45;&gt;array&#45;034</title>
<path fill="none" stroke="black" d="M153.5,-101.7C153.5,-93.98 153.5,-84.71 153.5,-76.11"/>
<polygon fill="black" stroke="black" points="157,-76.1 153.5,-66.1 150,-76.1 157,-76.1"/>
</g>
</g>
</svg>
