<?xml version="1.0" encoding="UTF-8" standalone="no"?>
<!DOCTYPE svg PUBLIC "-//W3C//DTD SVG 1.1//EN"
 "http://www.w3.org/Graphics/SVG/1.1/DTD/svg11.dtd">
<!-- Generated by graphviz version 2.49.3 (20211023.0002)
 -->
<!-- Pages: 1 -->
<svg width="157pt" height="146pt"
 viewBox="0.00 0.00 157.00 146.00" xmlns="http://www.w3.org/2000/svg" xmlns:xlink="http://www.w3.org/1999/xlink">
<g id="graph0" class="graph" transform="scale(1 1) rotate(0) translate(4 142)">
<polygon fill="white" stroke="transparent" points="-4,4 -4,-142 153,-142 153,4 -4,4"/>
<text text-anchor="middle" x="74.5" y="-18" font-family="Times,serif" font-size="10.00">num tasks: 4</text>
<text text-anchor="middle" x="74.5" y="-7" font-family="Times,serif" font-size="10.00">max required memory: 192 bytes</text>
<!-- array&#45;001 -->
<g id="node1" class="node">
<title>array&#45;001</title>
<g id="a_node1"><a xlink:title="shape: (3, 3)&#10;chunks: (2, 2)&#10;dtype: int64&#10;chunk memory: 32 bytes&#10;&#10;calls: &lt;module&gt; &#45;&gt; asarray&#10;line: 2 in &lt;module&gt;">
<polygon fill="none" stroke="black" points="65.5,-138 6.5,-138 6.5,-102 65.5,-102 65.5,-138"/>
<text text-anchor="middle" x="36" y="-123" font-family="Helvetica,sans-Serif" font-size="10.00">array&#45;001</text>
<text text-anchor="middle" x="36" y="-112" font-family="Helvetica,sans-Serif" font-size="10.00">asarray </text>
</a>
</g>
</g>
<!-- array&#45;004 -->
<g id="node3" class="node">
<title>array&#45;004</title>
<g id="a_node3"><a xlink:title="shape: (3, 3)&#10;chunks: (2, 2)&#10;dtype: int64&#10;chunk memory: 32 bytes&#10;&#10;task memory: 192 bytes&#10;tasks: 4&#10;calls: &lt;module&gt; &#45;&gt; add &#45;&gt; elemwise &#45;&gt; blockwise&#10;line: 1 in &lt;module&gt;">
<polygon fill="#dcbeff" stroke="black" points="103.5,-66 44.5,-66 44.5,-30 103.5,-30 103.5,-66"/>
<text text-anchor="middle" x="74" y="-51" font-family="Helvetica,sans-Serif" font-size="10.00">array&#45;004</text>
<text text-anchor="middle" x="74" y="-40" font-family="Helvetica,sans-Serif" font-size="10.00">add (bw)</text>
</a>
</g>
</g>
<!-- array&#45;001&#45;&gt;array&#45;004 -->
<g id="edge1" class="edge">
<title>array&#45;001&#45;&gt;array&#45;004</title>
<path fill="none" stroke="black" d="M45.39,-101.7C49.76,-93.64 55.06,-83.89 59.9,-74.98"/>
<polygon fill="black" stroke="black" points="63.02,-76.56 64.71,-66.1 56.87,-73.22 63.02,-76.56"/>
</g>
<!-- array&#45;002 -->
<g id="node2" class="node">
<title>array&#45;002</title>
<g id="a_node2"><a xlink:title="shape: (3, 3)&#10;chunks: (2, 2)&#10;dtype: int64&#10;chunk memory: 32 bytes&#10;&#10;calls: &lt;module&gt; &#45;&gt; asarray&#10;line: 1 in &lt;module&gt;">
<polygon fill="none" stroke="black" points="142.5,-138 83.5,-138 83.5,-102 142.5,-102 142.5,-138"/>
<text text-anchor="middle" x="113" y="-123" font-family="Helvetica,sans-Serif" font-size="10.00">array&#45;002</text>
<text text-anchor="middle" x="113" y="-112" font-family="Helvetica,sans-Serif" font-size="10.00">asarray </text>
</a>
</g>
</g>
<!-- array&#45;002&#45;&gt;array&#45;004 -->
<g id="edge2" class="edge">
<title>array&#45;002&#45;&gt;array&#45;004</title>
<path fill="none" stroke="black" d="M103.36,-101.7C98.87,-93.64 93.44,-83.89 88.48,-74.98"/>
<polygon fill="black" stroke="black" points="91.45,-73.14 83.53,-66.1 85.34,-76.54 91.45,-73.14"/>
</g>
</g>
</svg>
