<?xml version="1.0" encoding="UTF-8" standalone="no"?>
<!DOCTYPE svg PUBLIC "-//W3C//DTD SVG 1.1//EN"
 "http://www.w3.org/Graphics/SVG/1.1/DTD/svg11.dtd">
<!-- Generated by graphviz version 2.50.0 (20211204.2007)
 -->
<!-- Pages: 1 -->
<svg width="290pt" height="116pt"
 viewBox="0.00 0.00 290.00 116.00" xmlns="http://www.w3.org/2000/svg" xmlns:xlink="http://www.w3.org/1999/xlink">
<g id="graph0" class="graph" transform="scale(1 1) rotate(0) translate(4 112)">
<polygon fill="white" stroke="transparent" points="-4,4 -4,-112 286,-112 286,4 -4,4"/>
<!-- array&#45;001 -->
<g id="node1" class="node">
<title>array&#45;001</title>
<g id="a_node1"><a xlink:title="shape: (3, 3)&#10;chunks: (2, 2)&#10;dtype: int64&#10;chunk memory: 32 bytes&#10;&#10;calls: &lt;cell line: 2&gt; &#45;&gt; asarray" target="zarr.core.Array (3, 3) int64">
<polygon fill="none" stroke="black" points="132,-108 0,-108 0,-72 132,-72 132,-108"/>
<text text-anchor="middle" x="66" y="-86.3" font-family="Helvetica,sans-Serif" font-size="14.00">array&#45;001 (asarray)</text>
</a>
</g>
</g>
<!-- array&#45;003 -->
<g id="node3" class="node">
<title>array&#45;003</title>
<g id="a_node3"><a xlink:title="shape: (3, 3)&#10;chunks: (2, 2)&#10;dtype: int64&#10;chunk memory: 32 bytes&#10;&#10;task memory: 192 bytes&#10;tasks: 4&#10;calls: &lt;cell line: 2&gt; &#45;&gt; add &#45;&gt; elemwise &#45;&gt; blockwise" target="zarr.core.Array (3, 3) int64">
<polygon fill="none" stroke="black" points="214,-36 68,-36 68,0 214,0 214,-36"/>
<text text-anchor="middle" x="141" y="-14.3" font-family="Helvetica,sans-Serif" font-size="14.00">array&#45;003 (blockwise)</text>
</a>
</g>
</g>
<!-- array&#45;001&#45;&gt;array&#45;003 -->
<g id="edge1" class="edge">
<title>array&#45;001&#45;&gt;array&#45;003</title>
<path fill="none" stroke="black" d="M84.54,-71.7C93.8,-63.05 105.16,-52.45 115.26,-43.03"/>
<polygon fill="black" stroke="black" points="117.75,-45.49 122.67,-36.1 112.98,-40.37 117.75,-45.49"/>
</g>
<!-- array&#45;002 -->
<g id="node2" class="node">
<title>array&#45;002</title>
<g id="a_node2"><a xlink:title="shape: (3, 3)&#10;chunks: (2, 2)&#10;dtype: int64&#10;chunk memory: 32 bytes&#10;&#10;calls: &lt;cell line: 1&gt; &#45;&gt; asarray" target="zarr.core.Array (3, 3) int64">
<polygon fill="none" stroke="black" points="282,-108 150,-108 150,-72 282,-72 282,-108"/>
<text text-anchor="middle" x="216" y="-86.3" font-family="Helvetica,sans-Serif" font-size="14.00">array&#45;002 (asarray)</text>
</a>
</g>
</g>
<!-- array&#45;002&#45;&gt;array&#45;003 -->
<g id="edge2" class="edge">
<title>array&#45;002&#45;&gt;array&#45;003</title>
<path fill="none" stroke="black" d="M197.46,-71.7C188.2,-63.05 176.84,-52.45 166.74,-43.03"/>
<polygon fill="black" stroke="black" points="169.02,-40.37 159.33,-36.1 164.25,-45.49 169.02,-40.37"/>
</g>
</g>
</svg>
