<?xml version="1.0" encoding="UTF-8" standalone="no"?>
<!DOCTYPE svg PUBLIC "-//W3C//DTD SVG 1.1//EN"
 "http://www.w3.org/Graphics/SVG/1.1/DTD/svg11.dtd">
<!-- Generated by graphviz version 2.49.3 (20211023.0002)
 -->
<!-- Pages: 1 -->
<svg width="971pt" height="578pt"
 viewBox="0.00 0.00 971.00 578.00" xmlns="http://www.w3.org/2000/svg" xmlns:xlink="http://www.w3.org/1999/xlink">
<g id="graph0" class="graph" transform="scale(1 1) rotate(0) translate(4 574)">
<polygon fill="white" stroke="transparent" points="-4,4 -4,-574 967,-574 967,4 -4,4"/>
<text text-anchor="middle" x="75.5" y="-18" font-family="Times,serif" font-size="10.00">num tasks: 5192</text>
<text text-anchor="middle" x="75.5" y="-7" font-family="Times,serif" font-size="10.00">max required memory: 100.0 MB</text>
<!-- array&#45;017 -->
<g id="node1" class="node">
<title>array&#45;017</title>
<g id="a_node1"><a xlink:title="shape: (999, 900, 800)&#10;chunks: (100, 100, 100)&#10;dtype: float64&#10;chunk memory: 8.0 MB&#10;&#10;calls: &lt;module&gt; &#45;&gt; __getitem__ &#45;&gt; index &#45;&gt; map_direct &#45;&gt; empty &#45;&gt; full&#10;line: 6 in &lt;module&gt;">
<polygon fill="none" stroke="black" points="692,-426 618,-426 618,-390 692,-390 692,-426"/>
<text text-anchor="middle" x="655" y="-411" font-family="Helvetica,sans-Serif" font-size="10.00">array&#45;017</text>
<text text-anchor="middle" x="655" y="-400" font-family="Helvetica,sans-Serif" font-size="10.00">__getitem__ </text>
</a>
</g>
</g>
<!-- array&#45;020 -->
<g id="node8" class="node">
<title>array&#45;020</title>
<g id="a_node8"><a xlink:title="shape: (999, 900, 800)&#10;chunks: (100, 100, 100)&#10;dtype: float64&#10;chunk memory: 8.0 MB&#10;&#10;task memory: 32.0 MB&#10;tasks: 720&#10;calls: &lt;module&gt; &#45;&gt; __getitem__ &#45;&gt; index &#45;&gt; map_direct &#45;&gt; map_blocks &#45;&gt; _map_blocks &#45;&gt; blockwise&#10;line: 6 in &lt;module&gt;">
<polygon fill="#dcbeff" stroke="black" points="752,-354 658,-354 658,-318 752,-318 752,-354"/>
<text text-anchor="middle" x="705" y="-339" font-family="Helvetica,sans-Serif" font-size="10.00">array&#45;020</text>
<text text-anchor="middle" x="705" y="-328" font-family="Helvetica,sans-Serif" font-size="10.00">__getitem__ (bw)</text>
</a>
</g>
</g>
<!-- array&#45;017&#45;&gt;array&#45;020 -->
<g id="edge1" class="edge">
<title>array&#45;017&#45;&gt;array&#45;020</title>
<path fill="none" stroke="black" d="M667.36,-389.7C673.23,-381.47 680.37,-371.48 686.84,-362.42"/>
<polygon fill="black" stroke="black" points="689.82,-364.28 692.78,-354.1 684.12,-360.21 689.82,-364.28"/>
</g>
<!-- array&#45;018 -->
<g id="node2" class="node">
<title>array&#45;018</title>
<g id="a_node2"><a xlink:title="shape: (10, 9, 8)&#10;chunks: (10, 9, 8)&#10;dtype: int32&#10;chunk memory: 2.9 KB&#10;&#10;calls: &lt;module&gt; &#45;&gt; __getitem__ &#45;&gt; index &#45;&gt; map_direct &#45;&gt; map_blocks &#45;&gt; asarray&#10;line: 6 in &lt;module&gt;">
<polygon fill="none" stroke="black" points="792,-498 718,-498 718,-462 792,-462 792,-498"/>
<text text-anchor="middle" x="755" y="-483" font-family="Helvetica,sans-Serif" font-size="10.00">array&#45;018</text>
<text text-anchor="middle" x="755" y="-472" font-family="Helvetica,sans-Serif" font-size="10.00">__getitem__ </text>
</a>
</g>
</g>
<!-- array&#45;019 -->
<g id="node3" class="node">
<title>array&#45;019</title>
<g id="a_node3"><a xlink:title="shape: (10, 9, 8)&#10;chunks: (1, 1, 1)&#10;dtype: int32&#10;chunk memory: 4 bytes&#10;&#10;task memory: 100.0 MB&#10;tasks: 1&#10;calls: &lt;module&gt; &#45;&gt; __getitem__ &#45;&gt; index &#45;&gt; map_direct &#45;&gt; map_blocks &#45;&gt; rechunk&#10;line: 6 in &lt;module&gt;">
<polygon fill="#aaffc3" stroke="black" points="799.5,-426 710.5,-426 710.5,-390 799.5,-390 799.5,-426"/>
<text text-anchor="middle" x="755" y="-411" font-family="Helvetica,sans-Serif" font-size="10.00">array&#45;019</text>
<text text-anchor="middle" x="755" y="-400" font-family="Helvetica,sans-Serif" font-size="10.00">__getitem__ (rc)</text>
</a>
</g>
</g>
<!-- array&#45;018&#45;&gt;array&#45;019 -->
<g id="edge2" class="edge">
<title>array&#45;018&#45;&gt;array&#45;019</title>
<path fill="none" stroke="black" d="M755,-461.7C755,-453.98 755,-444.71 755,-436.11"/>
<polygon fill="black" stroke="black" points="758.5,-436.1 755,-426.1 751.5,-436.1 758.5,-436.1"/>
</g>
<!-- array&#45;019&#45;&gt;array&#45;020 -->
<g id="edge3" class="edge">
<title>array&#45;019&#45;&gt;array&#45;020</title>
<path fill="none" stroke="black" d="M742.64,-389.7C736.77,-381.47 729.63,-371.48 723.16,-362.42"/>
<polygon fill="black" stroke="black" points="725.88,-360.21 717.22,-354.1 720.18,-364.28 725.88,-360.21"/>
</g>
<!-- array&#45;001 -->
<g id="node4" class="node">
<title>array&#45;001</title>
<g id="a_node4"><a xlink:title="shape: (1000, 900, 800)&#10;chunks: (100, 100, 100)&#10;dtype: float64&#10;chunk memory: 8.0 MB&#10;&#10;calls: &lt;module&gt; &#45;&gt; random &#45;&gt; map_direct &#45;&gt; empty &#45;&gt; full&#10;line: 1 in &lt;module&gt;">
<polygon fill="none" stroke="black" points="876.5,-498 817.5,-498 817.5,-462 876.5,-462 876.5,-498"/>
<text text-anchor="middle" x="847" y="-483" font-family="Helvetica,sans-Serif" font-size="10.00">array&#45;001</text>
<text text-anchor="middle" x="847" y="-472" font-family="Helvetica,sans-Serif" font-size="10.00">random </text>
</a>
</g>
</g>
<!-- array&#45;004 -->
<g id="node7" class="node">
<title>array&#45;004</title>
<g id="a_node7"><a xlink:title="shape: (1000, 900, 800)&#10;chunks: (100, 100, 100)&#10;dtype: float64&#10;chunk memory: 8.0 MB&#10;&#10;task memory: 32.0 MB&#10;tasks: 720&#10;calls: &lt;module&gt; &#45;&gt; random &#45;&gt; map_direct &#45;&gt; map_blocks &#45;&gt; _map_blocks &#45;&gt; blockwise&#10;line: 1 in &lt;module&gt;">
<polygon fill="#dcbeff" stroke="black" points="890.5,-426 817.5,-426 817.5,-390 890.5,-390 890.5,-426"/>
<text text-anchor="middle" x="854" y="-411" font-family="Helvetica,sans-Serif" font-size="10.00">array&#45;004</text>
<text text-anchor="middle" x="854" y="-400" font-family="Helvetica,sans-Serif" font-size="10.00">random (bw)</text>
</a>
</g>
</g>
<!-- array&#45;001&#45;&gt;array&#45;004 -->
<g id="edge4" class="edge">
<title>array&#45;001&#45;&gt;array&#45;004</title>
<path fill="none" stroke="black" d="M848.73,-461.7C849.5,-453.98 850.43,-444.71 851.29,-436.11"/>
<polygon fill="black" stroke="black" points="854.78,-436.4 852.29,-426.1 847.81,-435.71 854.78,-436.4"/>
</g>
<!-- array&#45;002 -->
<g id="node5" class="node">
<title>array&#45;002</title>
<g id="a_node5"><a xlink:title="shape: (10, 9, 8)&#10;chunks: (10, 9, 8)&#10;dtype: int32&#10;chunk memory: 2.9 KB&#10;&#10;calls: &lt;module&gt; &#45;&gt; random &#45;&gt; map_direct &#45;&gt; map_blocks &#45;&gt; asarray&#10;line: 1 in &lt;module&gt;">
<polygon fill="none" stroke="black" points="958.5,-570 899.5,-570 899.5,-534 958.5,-534 958.5,-570"/>
<text text-anchor="middle" x="929" y="-555" font-family="Helvetica,sans-Serif" font-size="10.00">array&#45;002</text>
<text text-anchor="middle" x="929" y="-544" font-family="Helvetica,sans-Serif" font-size="10.00">random </text>
</a>
</g>
</g>
<!-- array&#45;003 -->
<g id="node6" class="node">
<title>array&#45;003</title>
<g id="a_node6"><a xlink:title="shape: (10, 9, 8)&#10;chunks: (1, 1, 1)&#10;dtype: int32&#10;chunk memory: 4 bytes&#10;&#10;task memory: 100.0 MB&#10;tasks: 1&#10;calls: &lt;module&gt; &#45;&gt; random &#45;&gt; map_direct &#45;&gt; map_blocks &#45;&gt; rechunk&#10;line: 1 in &lt;module&gt;">
<polygon fill="#aaffc3" stroke="black" points="963,-498 895,-498 895,-462 963,-462 963,-498"/>
<text text-anchor="middle" x="929" y="-483" font-family="Helvetica,sans-Serif" font-size="10.00">array&#45;003</text>
<text text-anchor="middle" x="929" y="-472" font-family="Helvetica,sans-Serif" font-size="10.00">random (rc)</text>
</a>
</g>
</g>
<!-- array&#45;002&#45;&gt;array&#45;003 -->
<g id="edge5" class="edge">
<title>array&#45;002&#45;&gt;array&#45;003</title>
<path fill="none" stroke="black" d="M929,-533.7C929,-525.98 929,-516.71 929,-508.11"/>
<polygon fill="black" stroke="black" points="932.5,-508.1 929,-498.1 925.5,-508.1 932.5,-508.1"/>
</g>
<!-- array&#45;003&#45;&gt;array&#45;004 -->
<g id="edge6" class="edge">
<title>array&#45;003&#45;&gt;array&#45;004</title>
<path fill="none" stroke="black" d="M910.46,-461.7C901.2,-453.05 889.84,-442.45 879.74,-433.03"/>
<polygon fill="black" stroke="black" points="882.02,-430.37 872.33,-426.1 877.25,-435.49 882.02,-430.37"/>
</g>
<!-- array&#45;004&#45;&gt;array&#45;020 -->
<g id="edge7" class="edge">
<title>array&#45;004&#45;&gt;array&#45;020</title>
<path fill="none" stroke="black" d="M817.55,-389.88C797.36,-380.39 772.08,-368.51 750.59,-358.42"/>
<polygon fill="black" stroke="black" points="751.87,-355.15 741.33,-354.07 748.89,-361.49 751.87,-355.15"/>
</g>
<!-- array&#45;021 -->
<g id="node13" class="node">
<title>array&#45;021</title>
<g id="a_node13"><a xlink:title="shape: (999, 900, 800)&#10;chunks: (100, 100, 100)&#10;dtype: float64&#10;chunk memory: 8.0 MB&#10;&#10;task memory: 32.2 MB&#10;tasks: 720&#10;calls: &lt;module&gt; &#45;&gt; __mul__ &#45;&gt; elemwise &#45;&gt; blockwise&#10;line: 6 in &lt;module&gt;">
<polygon fill="#dcbeff" stroke="black" points="541.5,-282 464.5,-282 464.5,-246 541.5,-246 541.5,-282"/>
<text text-anchor="middle" x="503" y="-267" font-family="Helvetica,sans-Serif" font-size="10.00">array&#45;021</text>
<text text-anchor="middle" x="503" y="-256" font-family="Helvetica,sans-Serif" font-size="10.00">__mul__ (bw)</text>
</a>
</g>
</g>
<!-- array&#45;020&#45;&gt;array&#45;021 -->
<g id="edge8" class="edge">
<title>array&#45;020&#45;&gt;array&#45;021</title>
<path fill="none" stroke="black" d="M657.89,-318.68C625.88,-307.58 583.65,-292.95 551.38,-281.76"/>
<polygon fill="black" stroke="black" points="552.3,-278.38 541.7,-278.41 550,-284.99 552.3,-278.38"/>
</g>
<!-- array&#45;009 -->
<g id="node9" class="node">
<title>array&#45;009</title>
<g id="a_node9"><a xlink:title="shape: (900, 800)&#10;chunks: (100, 100)&#10;dtype: float64&#10;chunk memory: 80.0 KB&#10;&#10;calls: &lt;module&gt; &#45;&gt; random &#45;&gt; map_direct &#45;&gt; empty &#45;&gt; full&#10;line: 3 in &lt;module&gt;">
<polygon fill="none" stroke="black" points="513.5,-426 454.5,-426 454.5,-390 513.5,-390 513.5,-426"/>
<text text-anchor="middle" x="484" y="-411" font-family="Helvetica,sans-Serif" font-size="10.00">array&#45;009</text>
<text text-anchor="middle" x="484" y="-400" font-family="Helvetica,sans-Serif" font-size="10.00">random </text>
</a>
</g>
</g>
<!-- array&#45;012 -->
<g id="node12" class="node">
<title>array&#45;012</title>
<g id="a_node12"><a xlink:title="shape: (900, 800)&#10;chunks: (100, 100)&#10;dtype: float64&#10;chunk memory: 80.0 KB&#10;&#10;task memory: 320.0 KB&#10;tasks: 72&#10;calls: &lt;module&gt; &#45;&gt; random &#45;&gt; map_direct &#45;&gt; map_blocks &#45;&gt; _map_blocks &#45;&gt; blockwise&#10;line: 3 in &lt;module&gt;">
<polygon fill="#dcbeff" stroke="black" points="539.5,-354 466.5,-354 466.5,-318 539.5,-318 539.5,-354"/>
<text text-anchor="middle" x="503" y="-339" font-family="Helvetica,sans-Serif" font-size="10.00">array&#45;012</text>
<text text-anchor="middle" x="503" y="-328" font-family="Helvetica,sans-Serif" font-size="10.00">random (bw)</text>
</a>
</g>
</g>
<!-- array&#45;009&#45;&gt;array&#45;012 -->
<g id="edge9" class="edge">
<title>array&#45;009&#45;&gt;array&#45;012</title>
<path fill="none" stroke="black" d="M488.7,-389.7C490.81,-381.9 493.36,-372.51 495.72,-363.83"/>
<polygon fill="black" stroke="black" points="499.12,-364.67 498.36,-354.1 492.36,-362.84 499.12,-364.67"/>
</g>
<!-- array&#45;010 -->
<g id="node10" class="node">
<title>array&#45;010</title>
<g id="a_node10"><a xlink:title="shape: (9, 8)&#10;chunks: (9, 8)&#10;dtype: int32&#10;chunk memory: 288 bytes&#10;&#10;calls: &lt;module&gt; &#45;&gt; random &#45;&gt; map_direct &#45;&gt; map_blocks &#45;&gt; asarray&#10;line: 3 in &lt;module&gt;">
<polygon fill="none" stroke="black" points="595.5,-498 536.5,-498 536.5,-462 595.5,-462 595.5,-498"/>
<text text-anchor="middle" x="566" y="-483" font-family="Helvetica,sans-Serif" font-size="10.00">array&#45;010</text>
<text text-anchor="middle" x="566" y="-472" font-family="Helvetica,sans-Serif" font-size="10.00">random </text>
</a>
</g>
</g>
<!-- array&#45;011 -->
<g id="node11" class="node">
<title>array&#45;011</title>
<g id="a_node11"><a xlink:title="shape: (9, 8)&#10;chunks: (1, 1)&#10;dtype: int32&#10;chunk memory: 4 bytes&#10;&#10;task memory: 100.0 MB&#10;tasks: 1&#10;calls: &lt;module&gt; &#45;&gt; random &#45;&gt; map_direct &#45;&gt; map_blocks &#45;&gt; rechunk&#10;line: 3 in &lt;module&gt;">
<polygon fill="#aaffc3" stroke="black" points="600,-426 532,-426 532,-390 600,-390 600,-426"/>
<text text-anchor="middle" x="566" y="-411" font-family="Helvetica,sans-Serif" font-size="10.00">array&#45;011</text>
<text text-anchor="middle" x="566" y="-400" font-family="Helvetica,sans-Serif" font-size="10.00">random (rc)</text>
</a>
</g>
</g>
<!-- array&#45;010&#45;&gt;array&#45;011 -->
<g id="edge10" class="edge">
<title>array&#45;010&#45;&gt;array&#45;011</title>
<path fill="none" stroke="black" d="M566,-461.7C566,-453.98 566,-444.71 566,-436.11"/>
<polygon fill="black" stroke="black" points="569.5,-436.1 566,-426.1 562.5,-436.1 569.5,-436.1"/>
</g>
<!-- array&#45;011&#45;&gt;array&#45;012 -->
<g id="edge11" class="edge">
<title>array&#45;011&#45;&gt;array&#45;012</title>
<path fill="none" stroke="black" d="M550.43,-389.7C542.8,-381.22 533.48,-370.86 525.12,-361.58"/>
<polygon fill="black" stroke="black" points="527.69,-359.2 518.39,-354.1 522.48,-363.88 527.69,-359.2"/>
</g>
<!-- array&#45;012&#45;&gt;array&#45;021 -->
<g id="edge12" class="edge">
<title>array&#45;012&#45;&gt;array&#45;021</title>
<path fill="none" stroke="black" d="M503,-317.7C503,-309.98 503,-300.71 503,-292.11"/>
<polygon fill="black" stroke="black" points="506.5,-292.1 503,-282.1 499.5,-292.1 506.5,-292.1"/>
</g>
<!-- array&#45;028 -->
<g id="node27" class="node">
<title>array&#45;028</title>
<g id="a_node27"><a xlink:title="shape: (10, 9, 8)&#10;chunks: (1, 1, 1)&#10;dtype: [(&#39;n&#39;, &#39;&lt;i8&#39;), (&#39;total&#39;, &#39;&lt;f8&#39;)]&#10;chunk memory: 16 bytes&#10;&#10;task memory: 48.0 MB&#10;tasks: 720&#10;calls: &lt;module&gt; &#45;&gt; mean &#45;&gt; reduction &#45;&gt; blockwise&#10;line: 7 in &lt;module&gt;">
<polygon fill="#dcbeff" stroke="black" points="462,-210 398,-210 398,-174 462,-174 462,-210"/>
<text text-anchor="middle" x="430" y="-195" font-family="Helvetica,sans-Serif" font-size="10.00">array&#45;028</text>
<text text-anchor="middle" x="430" y="-184" font-family="Helvetica,sans-Serif" font-size="10.00">mean (bw)</text>
</a>
</g>
</g>
<!-- array&#45;021&#45;&gt;array&#45;028 -->
<g id="edge13" class="edge">
<title>array&#45;021&#45;&gt;array&#45;028</title>
<path fill="none" stroke="black" d="M484.96,-245.7C475.94,-237.05 464.88,-226.45 455.06,-217.03"/>
<polygon fill="black" stroke="black" points="457.48,-214.5 447.84,-210.1 452.63,-219.55 457.48,-214.5"/>
</g>
<!-- array&#45;022 -->
<g id="node14" class="node">
<title>array&#45;022</title>
<g id="a_node14"><a xlink:title="shape: (999, 900, 800)&#10;chunks: (100, 100, 100)&#10;dtype: float64&#10;chunk memory: 8.0 MB&#10;&#10;calls: &lt;module&gt; &#45;&gt; __getitem__ &#45;&gt; index &#45;&gt; map_direct &#45;&gt; empty &#45;&gt; full&#10;line: 6 in &lt;module&gt;">
<polygon fill="none" stroke="black" points="74,-426 0,-426 0,-390 74,-390 74,-426"/>
<text text-anchor="middle" x="37" y="-411" font-family="Helvetica,sans-Serif" font-size="10.00">array&#45;022</text>
<text text-anchor="middle" x="37" y="-400" font-family="Helvetica,sans-Serif" font-size="10.00">__getitem__ </text>
</a>
</g>
</g>
<!-- array&#45;025 -->
<g id="node21" class="node">
<title>array&#45;025</title>
<g id="a_node21"><a xlink:title="shape: (999, 900, 800)&#10;chunks: (100, 100, 100)&#10;dtype: float64&#10;chunk memory: 8.0 MB&#10;&#10;task memory: 32.0 MB&#10;tasks: 720&#10;calls: &lt;module&gt; &#45;&gt; __getitem__ &#45;&gt; index &#45;&gt; map_direct &#45;&gt; map_blocks &#45;&gt; _map_blocks &#45;&gt; blockwise&#10;line: 6 in &lt;module&gt;">
<polygon fill="#dcbeff" stroke="black" points="234,-354 140,-354 140,-318 234,-318 234,-354"/>
<text text-anchor="middle" x="187" y="-339" font-family="Helvetica,sans-Serif" font-size="10.00">array&#45;025</text>
<text text-anchor="middle" x="187" y="-328" font-family="Helvetica,sans-Serif" font-size="10.00">__getitem__ (bw)</text>
</a>
</g>
</g>
<!-- array&#45;022&#45;&gt;array&#45;025 -->
<g id="edge14" class="edge">
<title>array&#45;022&#45;&gt;array&#45;025</title>
<path fill="none" stroke="black" d="M73.69,-389.88C94.02,-380.39 119.47,-368.51 141.1,-358.42"/>
<polygon fill="black" stroke="black" points="142.84,-361.47 150.43,-354.07 139.88,-355.13 142.84,-361.47"/>
</g>
<!-- array&#45;023 -->
<g id="node15" class="node">
<title>array&#45;023</title>
<g id="a_node15"><a xlink:title="shape: (10, 9, 8)&#10;chunks: (10, 9, 8)&#10;dtype: int32&#10;chunk memory: 2.9 KB&#10;&#10;calls: &lt;module&gt; &#45;&gt; __getitem__ &#45;&gt; index &#45;&gt; map_direct &#45;&gt; map_blocks &#45;&gt; asarray&#10;line: 6 in &lt;module&gt;">
<polygon fill="none" stroke="black" points="174,-498 100,-498 100,-462 174,-462 174,-498"/>
<text text-anchor="middle" x="137" y="-483" font-family="Helvetica,sans-Serif" font-size="10.00">array&#45;023</text>
<text text-anchor="middle" x="137" y="-472" font-family="Helvetica,sans-Serif" font-size="10.00">__getitem__ </text>
</a>
</g>
</g>
<!-- array&#45;024 -->
<g id="node16" class="node">
<title>array&#45;024</title>
<g id="a_node16"><a xlink:title="shape: (10, 9, 8)&#10;chunks: (1, 1, 1)&#10;dtype: int32&#10;chunk memory: 4 bytes&#10;&#10;task memory: 100.0 MB&#10;tasks: 1&#10;calls: &lt;module&gt; &#45;&gt; __getitem__ &#45;&gt; index &#45;&gt; map_direct &#45;&gt; map_blocks &#45;&gt; rechunk&#10;line: 6 in &lt;module&gt;">
<polygon fill="#aaffc3" stroke="black" points="181.5,-426 92.5,-426 92.5,-390 181.5,-390 181.5,-426"/>
<text text-anchor="middle" x="137" y="-411" font-family="Helvetica,sans-Serif" font-size="10.00">array&#45;024</text>
<text text-anchor="middle" x="137" y="-400" font-family="Helvetica,sans-Serif" font-size="10.00">__getitem__ (rc)</text>
</a>
</g>
</g>
<!-- array&#45;023&#45;&gt;array&#45;024 -->
<g id="edge15" class="edge">
<title>array&#45;023&#45;&gt;array&#45;024</title>
<path fill="none" stroke="black" d="M137,-461.7C137,-453.98 137,-444.71 137,-436.11"/>
<polygon fill="black" stroke="black" points="140.5,-436.1 137,-426.1 133.5,-436.1 140.5,-436.1"/>
</g>
<!-- array&#45;024&#45;&gt;array&#45;025 -->
<g id="edge16" class="edge">
<title>array&#45;024&#45;&gt;array&#45;025</title>
<path fill="none" stroke="black" d="M149.36,-389.7C155.23,-381.47 162.37,-371.48 168.84,-362.42"/>
<polygon fill="black" stroke="black" points="171.82,-364.28 174.78,-354.1 166.12,-360.21 171.82,-364.28"/>
</g>
<!-- array&#45;005 -->
<g id="node17" class="node">
<title>array&#45;005</title>
<g id="a_node17"><a xlink:title="shape: (1000, 900, 800)&#10;chunks: (100, 100, 100)&#10;dtype: float64&#10;chunk memory: 8.0 MB&#10;&#10;calls: &lt;module&gt; &#45;&gt; random &#45;&gt; map_direct &#45;&gt; empty &#45;&gt; full&#10;line: 2 in &lt;module&gt;">
<polygon fill="none" stroke="black" points="258.5,-498 199.5,-498 199.5,-462 258.5,-462 258.5,-498"/>
<text text-anchor="middle" x="229" y="-483" font-family="Helvetica,sans-Serif" font-size="10.00">array&#45;005</text>
<text text-anchor="middle" x="229" y="-472" font-family="Helvetica,sans-Serif" font-size="10.00">random </text>
</a>
</g>
</g>
<!-- array&#45;008 -->
<g id="node20" class="node">
<title>array&#45;008</title>
<g id="a_node20"><a xlink:title="shape: (1000, 900, 800)&#10;chunks: (100, 100, 100)&#10;dtype: float64&#10;chunk memory: 8.0 MB&#10;&#10;task memory: 32.0 MB&#10;tasks: 720&#10;calls: &lt;module&gt; &#45;&gt; random &#45;&gt; map_direct &#45;&gt; map_blocks &#45;&gt; _map_blocks &#45;&gt; blockwise&#10;line: 2 in &lt;module&gt;">
<polygon fill="#dcbeff" stroke="black" points="272.5,-426 199.5,-426 199.5,-390 272.5,-390 272.5,-426"/>
<text text-anchor="middle" x="236" y="-411" font-family="Helvetica,sans-Serif" font-size="10.00">array&#45;008</text>
<text text-anchor="middle" x="236" y="-400" font-family="Helvetica,sans-Serif" font-size="10.00">random (bw)</text>
</a>
</g>
</g>
<!-- array&#45;005&#45;&gt;array&#45;008 -->
<g id="edge17" class="edge">
<title>array&#45;005&#45;&gt;array&#45;008</title>
<path fill="none" stroke="black" d="M230.73,-461.7C231.5,-453.98 232.43,-444.71 233.29,-436.11"/>
<polygon fill="black" stroke="black" points="236.78,-436.4 234.29,-426.1 229.81,-435.71 236.78,-436.4"/>
</g>
<!-- array&#45;006 -->
<g id="node18" class="node">
<title>array&#45;006</title>
<g id="a_node18"><a xlink:title="shape: (10, 9, 8)&#10;chunks: (10, 9, 8)&#10;dtype: int32&#10;chunk memory: 2.9 KB&#10;&#10;calls: &lt;module&gt; &#45;&gt; random &#45;&gt; map_direct &#45;&gt; map_blocks &#45;&gt; asarray&#10;line: 2 in &lt;module&gt;">
<polygon fill="none" stroke="black" points="340.5,-570 281.5,-570 281.5,-534 340.5,-534 340.5,-570"/>
<text text-anchor="middle" x="311" y="-555" font-family="Helvetica,sans-Serif" font-size="10.00">array&#45;006</text>
<text text-anchor="middle" x="311" y="-544" font-family="Helvetica,sans-Serif" font-size="10.00">random </text>
</a>
</g>
</g>
<!-- array&#45;007 -->
<g id="node19" class="node">
<title>array&#45;007</title>
<g id="a_node19"><a xlink:title="shape: (10, 9, 8)&#10;chunks: (1, 1, 1)&#10;dtype: int32&#10;chunk memory: 4 bytes&#10;&#10;task memory: 100.0 MB&#10;tasks: 1&#10;calls: &lt;module&gt; &#45;&gt; random &#45;&gt; map_direct &#45;&gt; map_blocks &#45;&gt; rechunk&#10;line: 2 in &lt;module&gt;">
<polygon fill="#aaffc3" stroke="black" points="345,-498 277,-498 277,-462 345,-462 345,-498"/>
<text text-anchor="middle" x="311" y="-483" font-family="Helvetica,sans-Serif" font-size="10.00">array&#45;007</text>
<text text-anchor="middle" x="311" y="-472" font-family="Helvetica,sans-Serif" font-size="10.00">random (rc)</text>
</a>
</g>
</g>
<!-- array&#45;006&#45;&gt;array&#45;007 -->
<g id="edge18" class="edge">
<title>array&#45;006&#45;&gt;array&#45;007</title>
<path fill="none" stroke="black" d="M311,-533.7C311,-525.98 311,-516.71 311,-508.11"/>
<polygon fill="black" stroke="black" points="314.5,-508.1 311,-498.1 307.5,-508.1 314.5,-508.1"/>
</g>
<!-- array&#45;007&#45;&gt;array&#45;008 -->
<g id="edge19" class="edge">
<title>array&#45;007&#45;&gt;array&#45;008</title>
<path fill="none" stroke="black" d="M292.46,-461.7C283.2,-453.05 271.84,-442.45 261.74,-433.03"/>
<polygon fill="black" stroke="black" points="264.02,-430.37 254.33,-426.1 259.25,-435.49 264.02,-430.37"/>
</g>
<!-- array&#45;008&#45;&gt;array&#45;025 -->
<g id="edge20" class="edge">
<title>array&#45;008&#45;&gt;array&#45;025</title>
<path fill="none" stroke="black" d="M223.89,-389.7C218.13,-381.47 211.14,-371.48 204.79,-362.42"/>
<polygon fill="black" stroke="black" points="207.58,-360.29 198.97,-354.1 201.84,-364.3 207.58,-360.29"/>
</g>
<!-- array&#45;026 -->
<g id="node26" class="node">
<title>array&#45;026</title>
<g id="a_node26"><a xlink:title="shape: (999, 900, 800)&#10;chunks: (100, 100, 100)&#10;dtype: float64&#10;chunk memory: 8.0 MB&#10;&#10;task memory: 32.2 MB&#10;tasks: 720&#10;calls: &lt;module&gt; &#45;&gt; __mul__ &#45;&gt; elemwise &#45;&gt; blockwise&#10;line: 6 in &lt;module&gt;">
<polygon fill="#dcbeff" stroke="black" points="421.5,-282 344.5,-282 344.5,-246 421.5,-246 421.5,-282"/>
<text text-anchor="middle" x="383" y="-267" font-family="Helvetica,sans-Serif" font-size="10.00">array&#45;026</text>
<text text-anchor="middle" x="383" y="-256" font-family="Helvetica,sans-Serif" font-size="10.00">__mul__ (bw)</text>
</a>
</g>
</g>
<!-- array&#45;025&#45;&gt;array&#45;026 -->
<g id="edge21" class="edge">
<title>array&#45;025&#45;&gt;array&#45;026</title>
<path fill="none" stroke="black" d="M234.45,-318.05C264.81,-307.21 304.09,-293.18 334.63,-282.28"/>
<polygon fill="black" stroke="black" points="335.97,-285.51 344.21,-278.85 333.62,-278.92 335.97,-285.51"/>
</g>
<!-- array&#45;013 -->
<g id="node22" class="node">
<title>array&#45;013</title>
<g id="a_node22"><a xlink:title="shape: (900, 800)&#10;chunks: (100, 100)&#10;dtype: float64&#10;chunk memory: 80.0 KB&#10;&#10;calls: &lt;module&gt; &#45;&gt; random &#45;&gt; map_direct &#45;&gt; empty &#45;&gt; full&#10;line: 4 in &lt;module&gt;">
<polygon fill="none" stroke="black" points="349.5,-426 290.5,-426 290.5,-390 349.5,-390 349.5,-426"/>
<text text-anchor="middle" x="320" y="-411" font-family="Helvetica,sans-Serif" font-size="10.00">array&#45;013</text>
<text text-anchor="middle" x="320" y="-400" font-family="Helvetica,sans-Serif" font-size="10.00">random </text>
</a>
</g>
</g>
<!-- array&#45;016 -->
<g id="node25" class="node">
<title>array&#45;016</title>
<g id="a_node25"><a xlink:title="shape: (900, 800)&#10;chunks: (100, 100)&#10;dtype: float64&#10;chunk memory: 80.0 KB&#10;&#10;task memory: 320.0 KB&#10;tasks: 72&#10;calls: &lt;module&gt; &#45;&gt; random &#45;&gt; map_direct &#45;&gt; map_blocks &#45;&gt; _map_blocks &#45;&gt; blockwise&#10;line: 4 in &lt;module&gt;">
<polygon fill="#dcbeff" stroke="black" points="419.5,-354 346.5,-354 346.5,-318 419.5,-318 419.5,-354"/>
<text text-anchor="middle" x="383" y="-339" font-family="Helvetica,sans-Serif" font-size="10.00">array&#45;016</text>
<text text-anchor="middle" x="383" y="-328" font-family="Helvetica,sans-Serif" font-size="10.00">random (bw)</text>
</a>
</g>
</g>
<!-- array&#45;013&#45;&gt;array&#45;016 -->
<g id="edge22" class="edge">
<title>array&#45;013&#45;&gt;array&#45;016</title>
<path fill="none" stroke="black" d="M335.57,-389.7C343.2,-381.22 352.52,-370.86 360.88,-361.58"/>
<polygon fill="black" stroke="black" points="363.52,-363.88 367.61,-354.1 358.31,-359.2 363.52,-363.88"/>
</g>
<!-- array&#45;014 -->
<g id="node23" class="node">
<title>array&#45;014</title>
<g id="a_node23"><a xlink:title="shape: (9, 8)&#10;chunks: (9, 8)&#10;dtype: int32&#10;chunk memory: 288 bytes&#10;&#10;calls: &lt;module&gt; &#45;&gt; random &#45;&gt; map_direct &#45;&gt; map_blocks &#45;&gt; asarray&#10;line: 4 in &lt;module&gt;">
<polygon fill="none" stroke="black" points="431.5,-498 372.5,-498 372.5,-462 431.5,-462 431.5,-498"/>
<text text-anchor="middle" x="402" y="-483" font-family="Helvetica,sans-Serif" font-size="10.00">array&#45;014</text>
<text text-anchor="middle" x="402" y="-472" font-family="Helvetica,sans-Serif" font-size="10.00">random </text>
</a>
</g>
</g>
<!-- array&#45;015 -->
<g id="node24" class="node">
<title>array&#45;015</title>
<g id="a_node24"><a xlink:title="shape: (9, 8)&#10;chunks: (1, 1)&#10;dtype: int32&#10;chunk memory: 4 bytes&#10;&#10;task memory: 100.0 MB&#10;tasks: 1&#10;calls: &lt;module&gt; &#45;&gt; random &#45;&gt; map_direct &#45;&gt; map_blocks &#45;&gt; rechunk&#10;line: 4 in &lt;module&gt;">
<polygon fill="#aaffc3" stroke="black" points="436,-426 368,-426 368,-390 436,-390 436,-426"/>
<text text-anchor="middle" x="402" y="-411" font-family="Helvetica,sans-Serif" font-size="10.00">array&#45;015</text>
<text text-anchor="middle" x="402" y="-400" font-family="Helvetica,sans-Serif" font-size="10.00">random (rc)</text>
</a>
</g>
</g>
<!-- array&#45;014&#45;&gt;array&#45;015 -->
<g id="edge23" class="edge">
<title>array&#45;014&#45;&gt;array&#45;015</title>
<path fill="none" stroke="black" d="M402,-461.7C402,-453.98 402,-444.71 402,-436.11"/>
<polygon fill="black" stroke="black" points="405.5,-436.1 402,-426.1 398.5,-436.1 405.5,-436.1"/>
</g>
<!-- array&#45;015&#45;&gt;array&#45;016 -->
<g id="edge24" class="edge">
<title>array&#45;015&#45;&gt;array&#45;016</title>
<path fill="none" stroke="black" d="M397.3,-389.7C395.19,-381.9 392.64,-372.51 390.28,-363.83"/>
<polygon fill="black" stroke="black" points="393.64,-362.84 387.64,-354.1 386.88,-364.67 393.64,-362.84"/>
</g>
<!-- array&#45;016&#45;&gt;array&#45;026 -->
<g id="edge25" class="edge">
<title>array&#45;016&#45;&gt;array&#45;026</title>
<path fill="none" stroke="black" d="M383,-317.7C383,-309.98 383,-300.71 383,-292.11"/>
<polygon fill="black" stroke="black" points="386.5,-292.1 383,-282.1 379.5,-292.1 386.5,-292.1"/>
</g>
<!-- array&#45;026&#45;&gt;array&#45;028 -->
<g id="edge26" class="edge">
<title>array&#45;026&#45;&gt;array&#45;028</title>
<path fill="none" stroke="black" d="M394.62,-245.7C400.14,-237.47 406.85,-227.48 412.93,-218.42"/>
<polygon fill="black" stroke="black" points="415.85,-220.36 418.52,-210.1 410.04,-216.46 415.85,-220.36"/>
</g>
<!-- array&#45;029 -->
<g id="node28" class="node">
<title>array&#45;029</title>
<g id="a_node28"><a xlink:title="shape: (10, 9, 8)&#10;chunks: (10, 9, 8)&#10;dtype: [(&#39;n&#39;, &#39;&lt;i8&#39;), (&#39;total&#39;, &#39;&lt;f8&#39;)]&#10;chunk memory: 11.5 KB&#10;&#10;task memory: 100.0 MB&#10;tasks: 1&#10;calls: &lt;module&gt; &#45;&gt; mean &#45;&gt; reduction &#45;&gt; rechunk&#10;line: 7 in &lt;module&gt;">
<polygon fill="#aaffc3" stroke="black" points="459.5,-138 400.5,-138 400.5,-102 459.5,-102 459.5,-138"/>
<text text-anchor="middle" x="430" y="-123" font-family="Helvetica,sans-Serif" font-size="10.00">array&#45;029</text>
<text text-anchor="middle" x="430" y="-112" font-family="Helvetica,sans-Serif" font-size="10.00">mean (rc)</text>
</a>
</g>
</g>
<!-- array&#45;028&#45;&gt;array&#45;029 -->
<g id="edge27" class="edge">
<title>array&#45;028&#45;&gt;array&#45;029</title>
<path fill="none" stroke="black" d="M430,-173.7C430,-165.98 430,-156.71 430,-148.11"/>
<polygon fill="black" stroke="black" points="433.5,-148.1 430,-138.1 426.5,-148.1 433.5,-148.1"/>
</g>
<!-- array&#45;032 -->
<g id="node29" class="node">
<title>array&#45;032</title>
<g id="a_node29"><a xlink:title="shape: ()&#10;chunks: ()&#10;dtype: float64&#10;chunk memory: 8 bytes&#10;&#10;task memory: 23.1 KB&#10;tasks: 1&#10;calls: &lt;module&gt; &#45;&gt; mean &#45;&gt; reduction &#45;&gt; squeeze &#45;&gt; map_blocks &#45;&gt; _map_blocks &#45;&gt; blockwise&#10;line: 7 in &lt;module&gt;">
<polygon fill="#dcbeff" stroke="black" points="462,-66 398,-66 398,-30 462,-30 462,-66"/>
<text text-anchor="middle" x="430" y="-51" font-family="Helvetica,sans-Serif" font-size="10.00">array&#45;032</text>
<text text-anchor="middle" x="430" y="-40" font-family="Helvetica,sans-Serif" font-size="10.00">mean (bw)</text>
</a>
</g>
</g>
<!-- array&#45;029&#45;&gt;array&#45;032 -->
<g id="edge28" class="edge">
<title>array&#45;029&#45;&gt;array&#45;032</title>
<path fill="none" stroke="black" d="M430,-101.7C430,-93.98 430,-84.71 430,-76.11"/>
<polygon fill="black" stroke="black" points="433.5,-76.1 430,-66.1 426.5,-76.1 433.5,-76.1"/>
</g>
</g>
</svg>
