<svg version="1.1" viewBox="0.0 0.0 548.7979002624672 186.41994750656167" fill="none" stroke="none" stroke-linecap="square" stroke-miterlimit="10" xmlns:xlink="http://www.w3.org/1999/xlink" xmlns="http://www.w3.org/2000/svg"><clipPath id="p.0"><path d="m0 0l548.7979 0l0 186.41995l-548.7979 0l0 -186.41995z" clip-rule="nonzero"/></clipPath><g clip-path="url(#p.0)"><path fill="#000000" fill-opacity="0.0" d="m0 0l548.7979 0l0 186.41995l-548.7979 0z" fill-rule="evenodd"/><path fill="#d9d2e9" d="m77.04199 61.824146l27.590553 0l0 27.59055l-27.590553 0z" fill-rule="evenodd"/><path stroke="#000000" stroke-width="1.0" stroke-linejoin="round" stroke-linecap="butt" d="m77.04199 61.824146l27.590553 0l0 27.59055l-27.590553 0z" fill-rule="evenodd"/><path fill="#d9d2e9" d="m104.632545 61.824146l27.590553 0l0 27.59055l-27.590553 0z" fill-rule="evenodd"/><path stroke="#000000" stroke-width="1.0" stroke-linejoin="round" stroke-linecap="butt" d="m104.632545 61.824146l27.590553 0l0 27.59055l-27.590553 0z" fill-rule="evenodd"/><path fill="#d9d2e9" d="m77.04199 89.414696l27.590553 0l0 27.590553l-27.590553 0z" fill-rule="evenodd"/><path stroke="#000000" stroke-width="1.0" stroke-linejoin="round" stroke-linecap="butt" d="m77.04199 89.414696l27.590553 0l0 27.590553l-27.590553 0z" fill-rule="evenodd"/><path fill="#d9d2e9" d="m104.632545 89.414696l27.590553 0l0 27.590553l-27.590553 0z" fill-rule="evenodd"/><path stroke="#000000" stroke-width="1.0" stroke-linejoin="round" stroke-linecap="butt" d="m104.632545 89.414696l27.590553 0l0 27.590553l-27.590553 0z" fill-rule="evenodd"/><path fill="#d9d2e9" d="m77.04199 117.00525l27.590553 0l0 27.590546l-27.590553 0z" fill-rule="evenodd"/><path stroke="#000000" stroke-width="1.0" stroke-linejoin="round" stroke-linecap="butt" d="m77.04199 117.00525l27.590553 0l0 27.590546l-27.590553 0z" fill-rule="evenodd"/><path fill="#d9d2e9" d="m104.632545 117.00525l27.590553 0l0 27.590546l-27.590553 0z" fill-rule="evenodd"/><path stroke="#000000" stroke-width="1.0" stroke-linejoin="round" stroke-linecap="butt" d="m104.632545 117.00525l27.590553 0l0 27.590546l-27.590553 0z" fill-rule="evenodd"/><path fill="#ead1dc" d="m246.17323 61.824146l27.59056 0l0 27.59055l-27.59056 0z" fill-rule="evenodd"/><path stroke="#000000" stroke-width="1.0" stroke-linejoin="round" stroke-linecap="butt" d="m246.17323 61.824146l27.59056 0l0 27.59055l-27.59056 0z" fill-rule="evenodd"/><path fill="#ead1dc" d="m273.7638 61.824146l27.590546 0l0 27.59055l-27.590546 0z" fill-rule="evenodd"/><path stroke="#000000" stroke-width="1.0" stroke-linejoin="round" stroke-linecap="butt" d="m273.7638 61.824146l27.590546 0l0 27.59055l-27.590546 0z" fill-rule="evenodd"/><path fill="#ead1dc" d="m246.17323 89.414696l27.59056 0l0 27.590553l-27.59056 0z" fill-rule="evenodd"/><path stroke="#000000" stroke-width="1.0" stroke-linejoin="round" stroke-linecap="butt" d="m246.17323 89.414696l27.59056 0l0 27.590553l-27.59056 0z" fill-rule="evenodd"/><path fill="#ead1dc" d="m273.7638 89.414696l27.590546 0l0 27.590553l-27.590546 0z" fill-rule="evenodd"/><path stroke="#000000" stroke-width="1.0" stroke-linejoin="round" stroke-linecap="butt" d="m273.7638 89.414696l27.590546 0l0 27.590553l-27.590546 0z" fill-rule="evenodd"/><path fill="#ead1dc" d="m246.17323 117.00525l27.59056 0l0 27.590546l-27.59056 0z" fill-rule="evenodd"/><path stroke="#000000" stroke-width="1.0" stroke-linejoin="round" stroke-linecap="butt" d="m246.17323 117.00525l27.59056 0l0 27.590546l-27.59056 0z" fill-rule="evenodd"/><path fill="#ead1dc" d="m273.7638 117.00525l27.590546 0l0 27.590546l-27.590546 0z" fill-rule="evenodd"/><path stroke="#000000" stroke-width="1.0" stroke-linejoin="round" stroke-linecap="butt" d="m273.7638 117.00525l27.590546 0l0 27.590546l-27.590546 0z" fill-rule="evenodd"/><path fill="#000000" fill-opacity="0.0" d="m132.22047 103.20998l113.95276 0" fill-rule="evenodd"/><path stroke="#000000" stroke-width="2.0" stroke-linejoin="round" stroke-linecap="butt" d="m132.22047 103.20998l101.95276 0" fill-rule="evenodd"/><path fill="#000000" stroke="#000000" stroke-width="2.0" stroke-linecap="butt" d="m234.17323 106.513435l9.076187 -3.3034592l-9.076187 -3.3034668z" fill-rule="evenodd"/><path fill="#d9ead3" d="m415.3071 61.824146l27.590546 0l0 27.59055l-27.590546 0z" fill-rule="evenodd"/><path stroke="#000000" stroke-width="1.0" stroke-linejoin="round" stroke-linecap="butt" d="m415.3071 61.824146l27.590546 0l0 27.59055l-27.590546 0z" fill-rule="evenodd"/><path fill="#d9ead3" d="m442.89764 61.824146l27.590546 0l0 27.59055l-27.590546 0z" fill-rule="evenodd"/><path stroke="#000000" stroke-width="1.0" stroke-linejoin="round" stroke-linecap="butt" d="m442.89764 61.824146l27.590546 0l0 27.59055l-27.590546 0z" fill-rule="evenodd"/><path fill="#d9ead3" d="m415.3071 89.414696l27.590546 0l0 27.590553l-27.590546 0z" fill-rule="evenodd"/><path stroke="#000000" stroke-width="1.0" stroke-linejoin="round" stroke-linecap="butt" d="m415.3071 89.414696l27.590546 0l0 27.590553l-27.590546 0z" fill-rule="evenodd"/><path fill="#d9ead3" d="m442.89764 89.414696l27.590546 0l0 27.590553l-27.590546 0z" fill-rule="evenodd"/><path stroke="#000000" stroke-width="1.0" stroke-linejoin="round" stroke-linecap="butt" d="m442.89764 89.414696l27.590546 0l0 27.590553l-27.590546 0z" fill-rule="evenodd"/><path fill="#d9ead3" d="m415.3071 117.00525l27.590546 0l0 27.590546l-27.590546 0z" fill-rule="evenodd"/><path stroke="#000000" stroke-width="1.0" stroke-linejoin="round" stroke-linecap="butt" d="m415.3071 117.00525l27.590546 0l0 27.590546l-27.590546 0z" fill-rule="evenodd"/><path fill="#d9ead3" d="m442.89764 117.00525l27.590546 0l0 27.590546l-27.590546 0z" fill-rule="evenodd"/><path stroke="#000000" stroke-width="1.0" stroke-linejoin="round" stroke-linecap="butt" d="m442.89764 117.00525l27.590546 0l0 27.590546l-27.590546 0z" fill-rule="evenodd"/><path fill="#000000" fill-opacity="0.0" d="m301.35434 103.20998l113.95276 0" fill-rule="evenodd"/><path stroke="#000000" stroke-width="2.0" stroke-linejoin="round" stroke-linecap="butt" d="m301.35434 103.20998l101.95276 0" fill-rule="evenodd"/><path fill="#000000" stroke="#000000" stroke-width="2.0" stroke-linecap="butt" d="m403.3071 106.513435l9.076172 -3.3034592l-9.076172 -3.3034668z" fill-rule="evenodd"/><path fill="#000000" fill-opacity="0.0" d="m63.27034 11.246719l79.87402 0l0 40.409447l-79.87402 0z" fill-rule="evenodd"/><path fill="#000000" d="m80.4441 36.88672l0 -1.515625l6.359375 -7.953125q0.671875 -0.84375 1.28125 -1.46875l-6.921875 0l0 -1.46875l8.890625 0l0 1.46875l-6.96875 8.609375l-0.75 0.859375l7.921875 0l0 1.46875l-9.8125 0zm17.240967 -1.109375q-0.84375 0.71875 -1.625 1.015625q-0.78125 0.296875 -1.671875 0.296875q-1.484375 0 -2.28125 -0.71875q-0.796875 -0.734375 -0.796875 -1.859375q0 -0.65625 0.296875 -1.203125q0.3125 -0.546875 0.796875 -0.875q0.484375 -0.328125 1.09375 -0.5q0.4375 -0.109375 1.34375 -0.21875q1.84375 -0.21875 2.71875 -0.53125q0.015625 -0.3125 0.015625 -0.390625q0 -0.9375 -0.4375 -1.3125q-0.578125 -0.515625 -1.734375 -0.515625q-1.078125 0 -1.59375 0.375q-0.5 0.375 -0.75 1.328125l-1.484375 -0.203125q0.203125 -0.953125 0.65625 -1.53125q0.46875 -0.59375 1.34375 -0.90625q0.890625 -0.328125 2.046875 -0.328125q1.15625 0 1.875 0.28125q0.71875 0.265625 1.046875 0.671875q0.34375 0.40625 0.484375 1.03125q0.078125 0.390625 0.078125 1.40625l0 2.03125q0 2.125 0.09375 2.6875q0.09375 0.5625 0.390625 1.078125l-1.59375 0q-0.234375 -0.46875 -0.3125 -1.109375zm-0.125 -3.40625q-0.828125 0.34375 -2.484375 0.578125q-0.9375 0.140625 -1.328125 0.3125q-0.390625 0.171875 -0.609375 0.5q-0.203125 0.3125 -0.203125 0.71875q0 0.609375 0.453125 1.015625q0.46875 0.40625 1.359375 0.40625q0.875 0 1.5625 -0.390625q0.6875 -0.390625 1.015625 -1.046875q0.234375 -0.515625 0.234375 -1.53125l0 -0.5625zm3.887085 4.515625l0 -8.984375l1.375 0l0 1.359375q0.515625 -0.953125 0.953125 -1.25q0.453125 -0.3125 0.984375 -0.3125q0.78125 0 1.5625 0.484375l-0.515625 1.421875q-0.5625 -0.328125 -1.125 -0.328125q-0.5 0 -0.890625 0.296875q-0.390625 0.296875 -0.5625 0.828125q-0.265625 0.8125 -0.265625 1.78125l0 4.703125l-1.515625 0zm5.770401 0l0 -8.984375l1.375 0l0 1.359375q0.515625 -0.953125 0.953125 -1.25q0.453125 -0.3125 0.984375 -0.3125q0.78125 0 1.5625 0.484375l-0.515625 1.421875q-0.5625 -0.328125 -1.125 -0.328125q-0.5 0 -0.890625 0.296875q-0.390625 0.296875 -0.5625 0.828125q-0.265625 0.8125 -0.265625 1.78125l0 4.703125l-1.515625 0zm15.912842 0l-1.515625 0l0 -9.703125q-0.5625 0.515625 -1.453125 1.046875q-0.890625 0.53125 -1.59375 0.78125l0 -1.46875q1.28125 -0.59375 2.234375 -1.453125q0.953125 -0.859375 1.34375 -1.65625l0.984375 0l0 12.453125z" fill-rule="nonzero"/><path fill="#000000" fill-opacity="0.0" d="m232.40158 11.246719l79.87402 0l0 40.409447l-79.87402 0z" fill-rule="evenodd"/><path fill="#000000" d="m249.57533 36.88672l0 -1.515625l6.359375 -7.953125q0.67185974 -0.84375 1.2812347 -1.46875l-6.9218597 0l0 -1.46875l8.89061 0l0 1.46875l-6.9687347 8.609375l-0.75 0.859375l7.9218597 0l0 1.46875l-9.812485 0zm17.240952 -1.109375q-0.84375 0.71875 -1.625 1.015625q-0.78125 0.296875 -1.671875 0.296875q-1.484375 0 -2.28125 -0.71875q-0.796875 -0.734375 -0.796875 -1.859375q0 -0.65625 0.296875 -1.203125q0.3125 -0.546875 0.796875 -0.875q0.484375 -0.328125 1.09375 -0.5q0.4375 -0.109375 1.34375 -0.21875q1.84375 -0.21875 2.71875 -0.53125q0.015625 -0.3125 0.015625 -0.390625q0 -0.9375 -0.4375 -1.3125q-0.578125 -0.515625 -1.734375 -0.515625q-1.078125 0 -1.59375 0.375q-0.5 0.375 -0.75 1.328125l-1.484375 -0.203125q0.203125 -0.953125 0.65625 -1.53125q0.46875 -0.59375 1.34375 -0.90625q0.890625 -0.328125 2.046875 -0.328125q1.15625 0 1.875 0.28125q0.71875 0.265625 1.046875 0.671875q0.34375 0.40625 0.484375 1.03125q0.078125 0.390625 0.078125 1.40625l0 2.03125q0 2.125 0.09375 2.6875q0.09375 0.5625 0.390625 1.078125l-1.59375 0q-0.234375 -0.46875 -0.3125 -1.109375zm-0.125 -3.40625q-0.828125 0.34375 -2.484375 0.578125q-0.9375 0.140625 -1.328125 0.3125q-0.390625 0.171875 -0.609375 0.5q-0.203125 0.3125 -0.203125 0.71875q0 0.609375 0.453125 1.015625q0.46875 0.40625 1.359375 0.40625q0.875 0 1.5625 -0.390625q0.6875 -0.390625 1.015625 -1.046875q0.234375 -0.515625 0.234375 -1.53125l0 -0.5625zm3.887085 4.515625l0 -8.984375l1.375 0l0 1.359375q0.515625 -0.953125 0.953125 -1.25q0.453125 -0.3125 0.984375 -0.3125q0.78125 0 1.5625 0.484375l-0.515625 1.421875q-0.5625 -0.328125 -1.125 -0.328125q-0.5 0 -0.890625 0.296875q-0.390625 0.296875 -0.5625 0.828125q-0.265625 0.8125 -0.265625 1.78125l0 4.703125l-1.515625 0zm5.7704163 0l0 -8.984375l1.375 0l0 1.359375q0.515625 -0.953125 0.953125 -1.25q0.453125 -0.3125 0.984375 -0.3125q0.78125 0 1.5625 0.484375l-0.515625 1.421875q-0.5625 -0.328125 -1.125 -0.328125q-0.5 0 -0.890625 0.296875q-0.390625 0.296875 -0.5625 0.828125q-0.265625 0.8125 -0.265625 1.78125l0 4.703125l-1.515625 0zm18.178467 -1.46875l0 1.46875l-8.1875 0q-0.03125 -0.546875 0.171875 -1.0625q0.3125 -0.828125 1.0 -1.640625q0.6875 -0.8125 2.0 -1.875q2.015625 -1.671875 2.71875 -2.640625q0.71875 -0.96875 0.71875 -1.828125q0 -0.90625 -0.65625 -1.515625q-0.640625 -0.625 -1.671875 -0.625q-1.109375 0 -1.765625 0.65625q-0.65625 0.65625 -0.671875 1.828125l-1.5625 -0.15625q0.15625 -1.765625 1.203125 -2.671875q1.0625 -0.921875 2.828125 -0.921875q1.78125 0 2.8125 1.0q1.046875 0.984375 1.046875 2.4375q0 0.75 -0.3125 1.46875q-0.296875 0.71875 -1.0 1.515625q-0.703125 0.796875 -2.34375 2.1875q-1.375 1.140625 -1.765625 1.5625q-0.390625 0.40625 -0.640625 0.8125l6.078125 0z" fill-rule="nonzero"/><path fill="#000000" fill-opacity="0.0" d="m401.5328 11.246719l79.87402 0l0 40.409447l-79.87402 0z" fill-rule="evenodd"/><path fill="#000000" d="m418.70657 36.88672l0 -1.515625l6.359375 -7.953125q0.671875 -0.84375 1.28125 -1.46875l-6.921875 0l0 -1.46875l8.890625 0l0 1.46875l-6.96875 8.609375l-0.75 0.859375l7.921875 0l0 1.46875l-9.8125 0zm17.240967 -1.109375q-0.84375 0.71875 -1.625 1.015625q-0.78125 0.296875 -1.671875 0.296875q-1.484375 0 -2.28125 -0.71875q-0.796875 -0.734375 -0.796875 -1.859375q0 -0.65625 0.296875 -1.203125q0.3125 -0.546875 0.796875 -0.875q0.484375 -0.328125 1.09375 -0.5q0.4375 -0.109375 1.34375 -0.21875q1.84375 -0.21875 2.71875 -0.53125q0.015625 -0.3125 0.015625 -0.390625q0 -0.9375 -0.4375 -1.3125q-0.578125 -0.515625 -1.734375 -0.515625q-1.078125 0 -1.59375 0.375q-0.5 0.375 -0.75 1.328125l-1.484375 -0.203125q0.203125 -0.953125 0.65625 -1.53125q0.46875 -0.59375 1.34375 -0.90625q0.890625 -0.328125 2.046875 -0.328125q1.15625 0 1.875 0.28125q0.71875 0.265625 1.046875 0.671875q0.34375 0.40625 0.484375 1.03125q0.078125 0.390625 0.078125 1.40625l0 2.03125q0 2.125 0.09375 2.6875q0.09375 0.5625 0.390625 1.078125l-1.59375 0q-0.234375 -0.46875 -0.3125 -1.109375zm-0.125 -3.40625q-0.828125 0.34375 -2.484375 0.578125q-0.9375 0.140625 -1.328125 0.3125q-0.390625 0.171875 -0.609375 0.5q-0.203125 0.3125 -0.203125 0.71875q0 0.609375 0.453125 1.015625q0.46875 0.40625 1.359375 0.40625q0.875 0 1.5625 -0.390625q0.6875 -0.390625 1.015625 -1.046875q0.234375 -0.515625 0.234375 -1.53125l0 -0.5625zm3.887085 4.515625l0 -8.984375l1.375 0l0 1.359375q0.515625 -0.953125 0.953125 -1.25q0.453125 -0.3125 0.984375 -0.3125q0.78125 0 1.5625 0.484375l-0.515625 1.421875q-0.5625 -0.328125 -1.125 -0.328125q-0.5 0 -0.890625 0.296875q-0.390625 0.296875 -0.5625 0.828125q-0.265625 0.8125 -0.265625 1.78125l0 4.703125l-1.515625 0zm5.7703857 0l0 -8.984375l1.375 0l0 1.359375q0.515625 -0.953125 0.953125 -1.25q0.453125 -0.3125 0.984375 -0.3125q0.78125 0 1.5625 0.484375l-0.515625 1.421875q-0.5625 -0.328125 -1.125 -0.328125q-0.5 0 -0.890625 0.296875q-0.390625 0.296875 -0.5625 0.828125q-0.265625 0.8125 -0.265625 1.78125l0 4.703125l-1.515625 0zm10.194092 -3.28125l1.515625 -0.203125q0.265625 1.296875 0.890625 1.875q0.640625 0.5625 1.53125 0.5625q1.078125 0 1.8125 -0.734375q0.75 -0.75 0.75 -1.84375q0 -1.046875 -0.6875 -1.734375q-0.6875 -0.6875 -1.734375 -0.6875q-0.4375 0 -1.078125 0.171875l0.171875 -1.328125q0.140625 0.015625 0.234375 0.015625q0.984375 0 1.75 -0.5q0.78125 -0.515625 0.78125 -1.578125q0 -0.84375 -0.5625 -1.390625q-0.5625 -0.546875 -1.46875 -0.546875q-0.890625 0 -1.484375 0.5625q-0.578125 0.5625 -0.75 1.671875l-1.53125 -0.265625q0.28125 -1.53125 1.265625 -2.375q1.0 -0.84375 2.46875 -0.84375q1.015625 0 1.859375 0.4375q0.859375 0.4375 1.3125 1.1875q0.453125 0.75 0.453125 1.59375q0 0.8125 -0.4375 1.46875q-0.421875 0.65625 -1.265625 1.046875q1.09375 0.25 1.703125 1.0625q0.609375 0.796875 0.609375 2.0q0 1.609375 -1.1875 2.75q-1.171875 1.125 -2.984375 1.125q-1.640625 0 -2.71875 -0.96875q-1.078125 -0.96875 -1.21875 -2.53125z" fill-rule="nonzero"/><path fill="#000000" fill-opacity="0.0" d="m143.14436 62.800526l79.87401 0l0 40.40945l-79.87401 0z" fill-rule="evenodd"/><path fill="#000000" d="m165.14168 82.39365q0 -3.078125 1.65625 -4.828125q1.65625 -1.75 4.28125 -1.75q1.71875 0 3.09375 0.828125q1.375 0.8125 2.09375 2.28125q0.734375 1.46875 0.734375 3.328125q0 1.890625 -0.765625 3.390625q-0.765625 1.484375 -2.15625 2.25q-1.390625 0.765625 -3.015625 0.765625q-1.75 0 -3.125 -0.84375q-1.375 -0.859375 -2.09375 -2.3125q-0.703125 -1.46875 -0.703125 -3.109375zm1.6875 0.03125q0 2.234375 1.203125 3.53125q1.203125 1.296875 3.03125 1.296875q1.84375 0 3.03125 -1.296875q1.203125 -1.3125 1.203125 -3.703125q0 -1.515625 -0.515625 -2.640625q-0.5 -1.140625 -1.484375 -1.75q-0.984375 -0.625 -2.21875 -0.625q-1.734375 0 -3.0 1.203125q-1.25 1.1875 -1.25 3.984375zm12.087753 9.453125l0 -12.421875l1.390625 0l0 1.171875q0.484375 -0.6875 1.09375 -1.03125q0.625 -0.34375 1.515625 -0.34375q1.140625 0 2.015625 0.59375q0.890625 0.59375 1.328125 1.671875q0.453125 1.078125 0.453125 2.359375q0 1.375 -0.5 2.484375q-0.484375 1.109375 -1.4375 1.703125q-0.9375 0.578125 -1.96875 0.578125q-0.765625 0 -1.375 -0.3125q-0.609375 -0.328125 -0.984375 -0.828125l0 4.375l-1.53125 0zm1.375 -7.875q0 1.734375 0.703125 2.5625q0.703125 0.828125 1.703125 0.828125q1.015625 0 1.734375 -0.859375q0.734375 -0.859375 0.734375 -2.65625q0 -1.71875 -0.71875 -2.578125q-0.703125 -0.859375 -1.6875 -0.859375q-0.96875 0 -1.71875 0.921875q-0.75 0.90625 -0.75 2.640625zm18.3889 4.4375l-1.515625 0l0 -9.703125q-0.5625 0.515625 -1.453125 1.046875q-0.890625 0.53125 -1.59375 0.78125l0 -1.46875q1.28125 -0.59375 2.234375 -1.453125q0.953125 -0.859375 1.34375 -1.65625l0.984375 0l0 12.453125z" fill-rule="nonzero"/><path fill="#000000" fill-opacity="0.0" d="m318.3937 62.800526l79.87402 0l0 40.40945l-79.87402 0z" fill-rule="evenodd"/><path fill="#000000" d="m340.39102 82.39365q0 -3.078125 1.65625 -4.828125q1.65625 -1.75 4.28125 -1.75q1.71875 0 3.09375 0.828125q1.375 0.8125 2.09375 2.28125q0.734375 1.46875 0.734375 3.328125q0 1.890625 -0.765625 3.390625q-0.765625 1.484375 -2.15625 2.25q-1.390625 0.765625 -3.015625 0.765625q-1.75 0 -3.125 -0.84375q-1.375 -0.859375 -2.09375 -2.3125q-0.703125 -1.46875 -0.703125 -3.109375zm1.6875 0.03125q0 2.234375 1.203125 3.53125q1.203125 1.296875 3.03125 1.296875q1.84375 0 3.03125 -1.296875q1.203125 -1.3125 1.203125 -3.703125q0 -1.515625 -0.515625 -2.640625q-0.5 -1.140625 -1.484375 -1.75q-0.984375 -0.625 -2.21875 -0.625q-1.734375 0 -3.0 1.203125q-1.25 1.1875 -1.25 3.984375zm12.087769 9.453125l0 -12.421875l1.390625 0l0 1.171875q0.484375 -0.6875 1.09375 -1.03125q0.625 -0.34375 1.515625 -0.34375q1.140625 0 2.015625 0.59375q0.890625 0.59375 1.328125 1.671875q0.453125 1.078125 0.453125 2.359375q0 1.375 -0.5 2.484375q-0.484375 1.109375 -1.4375 1.703125q-0.9375 0.578125 -1.96875 0.578125q-0.765625 0 -1.375 -0.3125q-0.609375 -0.328125 -0.984375 -0.828125l0 4.375l-1.53125 0zm1.375 -7.875q0 1.734375 0.703125 2.5625q0.703125 0.828125 1.703125 0.828125q1.015625 0 1.734375 -0.859375q0.734375 -0.859375 0.734375 -2.65625q0 -1.71875 -0.71875 -2.578125q-0.703125 -0.859375 -1.6875 -0.859375q-0.96875 0 -1.71875 0.921875q-0.75 0.90625 -0.75 2.640625zm20.65451 2.96875l0 1.46875l-8.1875 0q-0.03125 -0.546875 0.171875 -1.0625q0.3125 -0.828125 1.0 -1.640625q0.6875 -0.8125 2.0 -1.875q2.015625 -1.671875 2.71875 -2.640625q0.71875 -0.96875 0.71875 -1.828125q0 -0.90625 -0.65625 -1.515625q-0.640625 -0.625 -1.671875 -0.625q-1.109375 0 -1.765625 0.65625q-0.65625 0.65625 -0.671875 1.828125l-1.5625 -0.15625q0.15625 -1.765625 1.203125 -2.671875q1.0625 -0.921875 2.828125 -0.921875q1.78125 0 2.8125 1.0q1.046875 0.984375 1.046875 2.4375q0 0.75 -0.3125 1.46875q-0.296875 0.71875 -1.0 1.515625q-0.703125 0.796875 -2.34375 2.1875q-1.375 1.140625 -1.765625 1.5625q-0.390625 0.40625 -0.640625 0.8125l6.078125 0z" fill-rule="nonzero"/></g></svg>
