<?xml version="1.0" encoding="UTF-8" standalone="no"?>
<svg
   width="284.3996"
   height="67.172508"
   version="1.1"
   id="svg2"
   sodipodi:docname="cubed.svg"
   inkscape:version="1.4.2 (ebf0e940, 2025-05-08)"
   inkscape:export-filename="cubed.png"
   inkscape:export-xdpi="96"
   inkscape:export-ydpi="96"
   xmlns:inkscape="http://www.inkscape.org/namespaces/inkscape"
   xmlns:sodipodi="http://sodipodi.sourceforge.net/DTD/sodipodi-0.dtd"
   xmlns="http://www.w3.org/2000/svg"
   xmlns:svg="http://www.w3.org/2000/svg">
  <sodipodi:namedview
     id="namedview2"
     pagecolor="#ffffff"
     bordercolor="#000000"
     borderopacity="0.25"
     inkscape:showpageshadow="2"
     inkscape:pageopacity="0.0"
     inkscape:pagecheckerboard="0"
     inkscape:deskcolor="#d1d1d1"
     inkscape:zoom="1"
     inkscape:cx="145.5"
     inkscape:cy="76"
     inkscape:window-width="1856"
     inkscape:window-height="997"
     inkscape:window-x="0"
     inkscape:window-y="25"
     inkscape:window-maximized="0"
     inkscape:current-layer="svg2" />
  <defs
     id="defs1">
    <path
       id="C"
       d="M 2.1,0 H 35 q 2.1,0 2.1,1.96 V 7.84 Q 37.1,9.8 35,9.8 H 14.7 q -2.1,0 -2.1,1.96 v 11.48 q 0,1.96 2.1,1.96 H 35 q 2.1,0 2.1,1.96 v 5.88 Q 37.1,35 35,35 H 4.2 Q 2.1,35 2.1,33.04 V 1.96 Q 2.1,0 4.2,0 Z"
       fill-opacity="1"
       stroke="none"
       stroke-linejoin="round" />
  </defs>
  <use
     href="#C"
     fill="#6c8da7"
     transform="rotate(-90,43.309391,18.178008)"
     id="use1" />
  <use
     href="#C"
     fill="#ff0088"
     id="use2"
     transform="translate(7.6313819,8.9874001)" />
  <!--   <text x="" y="45" style="font: bold 64px Baskerville" fill="">Cubed</text> -->
  <!-- Kanit https://fonts.google.com/specimen/Kanit -->
  <g
     id="svgGroup"
     stroke-linecap="round"
     fill-rule="evenodd"
     font-size="12px"
     stroke="#6c8da7"
     stroke-width="0.25mm"
     fill="#6c8da7"
     style="fill:#6c8da7;stroke:#6c8da7;stroke-width:0.25mm"
     transform="translate(77.631383,8.9874001)">
    <path
       d="m 36.751,3.64 v 8.26 q -5.95,-2.45 -12.74,-2.45 -7.7,0 -11.06,3.85 -3.36,3.85 -3.36,11.76 0,14.84 14.56,14.84 3.29,0 6.51,-0.595 3.22,-0.595 6.16,-1.785 v 8.33 q -2.87,0.91 -6.125,1.47 -3.255,0.56 -7.315,0.56 -11.34,0 -17.36,-6.125 -6.02,-6.125 -6.02,-16.695 0,-11.2 5.845,-17.43 5.845,-6.23 17.465,-6.23 4.06,0 7.315,0.595 3.255,0.595 6.125,1.645 z m 6.3,31.15 V 14 h 9.45 v 20.58 q 0,3.36 1.61,4.865 1.61,1.505 4.83,1.505 2.45,0 4.515,-0.98 2.065,-0.98 3.535,-2.45 V 14 h 9.45 v 33.18 h -8.75 l -0.35,-3.15 q -2.1,1.68 -4.935,2.765 -2.835,1.085 -6.755,1.085 -5.95,0 -9.275,-3.325 -3.325,-3.325 -3.325,-9.765 z m 50.12,9.31 -0.49,3.08 h -8.19 V 0 h 9.45 v 15.82 q 2.03,-1.26 4.55,-1.89 2.52,-0.63 5.25,-0.63 7.14,0 11.305,4.025 4.165,4.025 4.165,12.985 0,8.96 -4.095,13.265 -4.095,4.305 -11.095,4.305 -3.5,0 -6.09,-0.945 -2.59,-0.945 -4.76,-2.835 z m 94.43,-28.28 V 0 h 9.45 v 47.18 h -8.12 l -0.56,-3.08 q -2.17,1.89 -4.725,2.835 -2.555,0.945 -6.055,0.945 -4.41,0 -7.875,-1.575 -3.465,-1.575 -5.425,-5.18 -1.96,-3.605 -1.96,-9.555 0,-5.95 2.17,-10.01 2.17,-4.06 5.81,-6.16 3.64,-2.1 7.98,-2.1 5.46,0 9.31,2.52 z m -30.45,12.04 v 6.02 h -24.01 q 0.77,3.99 3.675,5.46 2.905,1.47 8.225,1.47 2.66,0 5.425,-0.49 2.765,-0.49 4.725,-1.26 v 6.72 q -2.31,1.05 -5.39,1.575 -3.08,0.525 -6.72,0.525 -8.61,0 -13.65,-4.305 -5.04,-4.305 -5.04,-13.055 0,-7.91 4.235,-12.565 4.235,-4.655 12.635,-4.655 7.7,0 11.795,4.025 4.095,4.025 4.095,10.535 z m -63.21,-5.18 v 15.26 q 1.4,1.47 3.325,2.24 1.925,0.77 4.095,0.77 4.55,0 6.405,-2.66 1.855,-2.66 1.855,-7.98 0,-5.53 -1.995,-7.805 -1.995,-2.275 -6.335,-2.275 -2.17,0 -4.095,0.63 -1.925,0.63 -3.255,1.82 z m 93.66,15.26 V 22.82 q -2.94,-2.59 -6.86,-2.59 -8.82,0 -8.82,11.34 0,5.32 2.17,7.35 2.17,2.03 6.09,2.03 4.41,0 7.42,-3.01 z m -54.46,-9.87 h 15.75 v -1.82 q 0,-2.87 -1.68,-4.515 -1.68,-1.645 -5.67,-1.645 -4.69,0 -6.545,1.89 -1.855,1.89 -1.855,6.09 z"
       vector-effect="non-scaling-stroke"
       id="path2" />
  </g>
</svg>
