<svg version="1.1" viewBox="0.0 0.0 951.7139107611548 304.1469816272966" fill="none" stroke="none" stroke-linecap="square" stroke-miterlimit="10" xmlns:xlink="http://www.w3.org/1999/xlink" xmlns="http://www.w3.org/2000/svg"><clipPath id="p.0"><path d="m0 0l951.7139 0l0 304.14697l-951.7139 0l0 -304.14697z" clip-rule="nonzero"/></clipPath><g clip-path="url(#p.0)"><path fill="#000000" fill-opacity="0.0" d="m0 0l951.7139 0l0 304.14697l-951.7139 0z" fill-rule="evenodd"/><path fill="#d9d2e9" d="m7.0 96.13522l57.574806 0l0 42.86615l-57.574806 0z" fill-rule="evenodd"/><path stroke="#ffffff" stroke-width="1.0" stroke-linejoin="round" stroke-linecap="butt" d="m7.0 96.13522l57.574806 0l0 42.86615l-57.574806 0z" fill-rule="evenodd"/><path fill="#8e7cc3" d="m7.0 52.732285l57.574806 0l0 42.866142l-57.574806 0z" fill-rule="evenodd"/><path stroke="#ffffff" stroke-width="1.0" stroke-linejoin="round" stroke-linecap="butt" d="m7.0 52.732285l57.574806 0l0 42.866142l-57.574806 0z" fill-rule="evenodd"/><path fill="#8e7cc3" d="m7.0 139.53816l57.574806 0l0 28.37796l-57.574806 0z" fill-rule="evenodd"/><path stroke="#ffffff" stroke-width="1.0" stroke-linejoin="round" stroke-linecap="butt" d="m7.0 139.53816l57.574806 0l0 28.37796l-57.574806 0z" fill-rule="evenodd"/><path fill="#d9d2e9" d="m7.0 247.06152l57.574806 0l0 14.173218l-57.574806 0z" fill-rule="evenodd"/><path stroke="#ffffff" stroke-width="1.0" stroke-linejoin="round" stroke-linecap="butt" d="m7.0 247.06152l57.574806 0l0 14.173218l-57.574806 0z" fill-rule="evenodd"/><path fill="#8e7cc3" d="m7.0 203.51706l57.574806 0l0 14.173233l-57.574806 0z" fill-rule="evenodd"/><path fill="#d9d2e9" d="m171.0 96.02915l57.5748 0l0 42.51969l-57.5748 0z" fill-rule="evenodd"/><path stroke="#ffffff" stroke-width="1.0" stroke-linejoin="round" stroke-linecap="butt" d="m171.0 96.02915l57.5748 0l0 42.51969l-57.5748 0z" fill-rule="evenodd"/><path fill="#8e7cc3" d="m171.0 52.732285l57.5748 0l0 42.519684l-57.5748 0z" fill-rule="evenodd"/><path stroke="#ffffff" stroke-width="1.0" stroke-linejoin="round" stroke-linecap="butt" d="m171.0 52.732285l57.5748 0l0 42.519684l-57.5748 0z" fill-rule="evenodd"/><path fill="#8e7cc3" d="m171.0 139.32602l57.5748 0l0 42.519684l-57.5748 0z" fill-rule="evenodd"/><path stroke="#ffffff" stroke-width="1.0" stroke-linejoin="round" stroke-linecap="butt" d="m171.0 139.32602l57.5748 0l0 42.519684l-57.5748 0z" fill-rule="evenodd"/><path fill="#000000" fill-opacity="0.0" d="m64.57481 74.16535c26.606293 0 39.909447 -0.039367676 53.212593 -0.07873535c13.303146 -0.039375305 26.606308 -0.07874298 53.2126 -0.07874298" fill-rule="evenodd"/><path stroke="#000000" stroke-width="1.0" stroke-linejoin="round" stroke-linecap="butt" d="m64.57481 74.16535c26.606293 0 39.909447 -0.039367676 53.212593 -0.07873535c6.651581 -0.019683838 13.303146 -0.039375305 21.617615 -0.054138184c4.157242 -0.0073776245 8.730194 -0.013534546 13.926743 -0.017837524l11.668243 -0.004470825" fill-rule="evenodd"/><path fill="#000000" stroke="#000000" stroke-width="1.0" stroke-linecap="butt" d="m165.00064 75.6619l4.5374603 -1.6534729l-4.538727 -1.6499939z" fill-rule="evenodd"/><path fill="#000000" fill-opacity="0.0" d="m64.57481 153.72714c26.606293 0 39.909447 1.7165375 53.212593 3.433075c13.303146 1.7165375 26.606308 3.433075 53.2126 3.433075" fill-rule="evenodd"/><path stroke="#000000" stroke-width="1.0" stroke-linejoin="round" stroke-linecap="butt" d="m64.57481 153.72714c26.606293 0 39.909447 1.7165375 53.212593 3.433075c6.651581 0.8582611 13.303146 1.7165375 21.617615 2.3602295c4.157242 0.32185364 8.730194 0.59007263 13.926743 0.7778168c2.5982666 0.09387207 5.3524475 0.16763306 8.288483 0.21791077c0.7340088 0.012573242 1.4794006 0.02368164 2.2365417 0.03326416l1.1432953 0.011978149" fill-rule="evenodd"/><path fill="#000000" stroke="#000000" stroke-width="1.0" stroke-linecap="butt" d="m164.9913 162.21312l4.546814 -1.627594l-4.529251 -1.675827z" fill-rule="evenodd"/><path fill="#000000" fill-opacity="0.0" d="m0 0l288.0 0l0 45.259842l-288.0 0z" fill-rule="evenodd"/><path fill="#000000" d="m12.109375 20.026875l0 0.59375q0.515625 -0.5 0.9375 -0.6875q0.421875 -0.203125 0.96875 -0.203125q0.46875 0 0.921875 0.234375q0.46875 0.21875 0.90625 0.6875q0.546875 -0.46875 1.109375 -0.6875q0.578125 -0.21875 1.171875 -0.21875q1.1875 0 1.921875 0.625q0.984375 0.84375 0.984375 2.1875l0 4.78125q0.65625 0 0.984375 0.3125q0.328125 0.296875 0.328125 0.765625q0 0.46875 -0.328125 0.765625q-0.328125 0.296875 -1.09375 0.296875l-2.03125 0l0 -6.734375q0 -0.5 -0.171875 -0.6875q-0.171875 -0.1875 -0.546875 -0.1875q-0.34375 0 -0.65625 0.1875q-0.375 0.265625 -0.9375 0.984375l0 4.296875q0.671875 0 0.984375 0.3125q0.328125 0.296875 0.328125 0.765625q0 0.46875 -0.328125 0.765625q-0.3125 0.296875 -1.078125 0.296875l-2.03125 0l0 -6.734375q0 -0.484375 -0.1875 -0.671875q-0.1875 -0.203125 -0.546875 -0.203125q-0.375 0 -0.75 0.234375q-0.359375 0.234375 -0.859375 0.9375l0 4.296875q0.65625 0 0.984375 0.3125q0.328125 0.296875 0.328125 0.765625q0 0.46875 -0.328125 0.765625q-0.328125 0.296875 -1.09375 0.296875l-1.921875 0q-0.78125 0 -1.109375 -0.296875q-0.328125 -0.296875 -0.328125 -0.78125q0 -0.46875 0.328125 -0.765625q0.328125 -0.296875 1.0 -0.296875l0 -5.1875q-0.671875 0 -1.0 -0.296875q-0.328125 -0.296875 -0.328125 -0.765625q0 -0.46875 0.328125 -0.765625q0.328125 -0.296875 1.109375 -0.296875l2.03125 0zm18.017715 9.453125l0 -0.5q-0.8125 0.421875 -1.78125 0.640625q-0.96875 0.21875 -1.75 0.21875q-1.71875 0 -2.796875 -0.90625q-1.078125 -0.921875 -1.078125 -2.03125q0 -1.34375 1.375 -2.484375q1.375 -1.15625 3.78125 -1.15625q0.96875 0 2.25 0.203125l0 -0.5q0 -0.484375 -0.421875 -0.78125q-0.40625 -0.3125 -1.5625 -0.3125q-0.953125 0 -2.453125 0.375q-0.5625 0.140625 -0.875 0.140625q-0.4375 0 -0.734375 -0.296875q-0.296875 -0.3125 -0.296875 -0.796875q0 -0.265625 0.109375 -0.46875q0.109375 -0.203125 0.296875 -0.3125q0.1875 -0.125 0.78125 -0.296875q0.78125 -0.21875 1.609375 -0.34375q0.828125 -0.125 1.484375 -0.125q2.0 0 3.09375 0.859375q1.09375 0.859375 1.09375 2.34375l0 4.390625l0.359375 0q0.78125 0 1.109375 0.296875q0.328125 0.296875 0.328125 0.78125q0 0.46875 -0.328125 0.765625q-0.328125 0.296875 -1.109375 0.296875l-2.484375 0zm0 -3.828125q-1.28125 -0.25 -2.375 -0.25q-1.296875 0 -2.234375 0.640625q-0.578125 0.40625 -0.578125 0.828125q0 0.296875 0.28125 0.484375q0.515625 0.34375 1.421875 0.34375q0.765625 0 1.734375 -0.296875q0.984375 -0.3125 1.75 -0.828125l0 -0.921875zm8.22084 2.65625l0 3.5l1.28125 0q0.765625 0 1.09375 0.296875q0.328125 0.296875 0.328125 0.765625q0 0.46875 -0.328125 0.765625q-0.328125 0.296875 -1.09375 0.296875l-3.78125 0q-0.765625 0 -1.09375 -0.296875q-0.328125 -0.296875 -0.328125 -0.765625q0 -0.46875 0.328125 -0.765625q0.328125 -0.296875 1.09375 -0.296875l0.359375 0l0 -9.65625l-0.359375 0q-0.765625 0 -1.09375 -0.296875q-0.328125 -0.296875 -0.328125 -0.765625q0 -0.46875 0.328125 -0.765625q0.328125 -0.296875 1.09375 -0.296875l2.5 0l0 0.71875q0.75 -0.5 1.546875 -0.75q0.8125 -0.25 1.65625 -0.25q2.1875 0 3.71875 1.484375q1.546875 1.484375 1.546875 3.390625q0 2.125 -1.828125 3.5q-1.515625 1.140625 -3.421875 1.140625q-0.828125 0 -1.625 -0.234375q-0.796875 -0.25 -1.59375 -0.71875zm6.328125 -3.671875q0 -0.453125 -0.359375 -1.140625q-0.34375 -0.6875 -1.078125 -1.15625q-0.734375 -0.46875 -1.71875 -0.46875q-1.59375 0 -2.53125 1.203125q-0.640625 0.828125 -0.640625 1.578125q0 0.859375 0.90625 1.671875q0.921875 0.796875 2.265625 0.796875q1.34375 0 2.25 -0.796875q0.90625 -0.796875 0.90625 -1.6875zm15.03334 11.25l-11.734375 0q-0.765625 0 -1.09375 -0.296875q-0.328125 -0.28125 -0.328125 -0.765625q0 -0.484375 0.328125 -0.78125q0.328125 -0.296875 1.09375 -0.296875l11.734375 0q0.75 0 1.078125 0.296875q0.328125 0.296875 0.328125 0.78125q0 0.46875 -0.328125 0.765625q-0.3125 0.296875 -1.078125 0.296875zm11.78334 -19.90625l0 11.359375l0.359375 0q0.765625 0 1.09375 0.296875q0.34375 0.296875 0.34375 0.78125q0 0.46875 -0.328125 0.765625q-0.328125 0.296875 -1.109375 0.296875l-2.484375 0l0 -0.515625q-0.734375 0.421875 -1.53125 0.640625q-0.796875 0.21875 -1.65625 0.21875q-2.40625 0 -3.875 -1.390625q-1.46875 -1.390625 -1.46875 -3.46875q0 -2.15625 1.546875 -3.6875q1.546875 -1.53125 3.765625 -1.53125q0.828125 0 1.625 0.25q0.8125 0.25 1.59375 0.765625l0 -2.65625l-0.375 0q-0.765625 0 -1.09375 -0.296875q-0.328125 -0.296875 -0.328125 -0.765625q0 -0.46875 0.328125 -0.765625q0.328125 -0.296875 1.09375 -0.296875l2.5 0zm-2.125 9.046875q0 -1.3125 -0.9375 -2.234375q-0.921875 -0.921875 -2.265625 -0.921875q-1.328125 0 -2.265625 0.921875q-0.921875 0.921875 -0.921875 2.203125q0 1.1875 0.828125 1.9375q0.84375 0.75 2.359375 0.75q1.515625 0 2.359375 -0.75q0.84375 -0.75 0.84375 -1.90625zm10.798965 -9.046875l0 2.25l-2.546875 0l0 -2.25l2.546875 0zm0.28125 4.046875l0 7.3125l2.5625 0q0.765625 0 1.09375 0.296875q0.328125 0.296875 0.328125 0.78125q0 0.46875 -0.328125 0.765625q-0.328125 0.296875 -1.09375 0.296875l-7.25 0q-0.78125 0 -1.109375 -0.296875q-0.328125 -0.296875 -0.328125 -0.78125q0 -0.46875 0.328125 -0.765625q0.328125 -0.296875 1.109375 -0.296875l2.5625 0l0 -5.1875l-1.71875 0q-0.765625 0 -1.109375 -0.296875q-0.328125 -0.296875 -0.328125 -0.765625q0 -0.46875 0.328125 -0.765625q0.328125 -0.296875 1.109375 -0.296875l3.84375 0zm11.298965 0l0 1.328125q1.34375 -0.96875 2.125 -1.28125q0.78125 -0.328125 1.453125 -0.328125q1.046875 0 2.015625 0.765625q0.671875 0.515625 0.671875 1.0625q0 0.453125 -0.328125 0.78125q-0.3125 0.3125 -0.765625 0.3125q-0.390625 0 -0.828125 -0.390625q-0.4375 -0.40625 -0.78125 -0.40625q-0.4375 0 -1.328125 0.5625q-0.890625 0.5625 -2.234375 1.6875l0 3.21875l3.046875 0q0.765625 0 1.09375 0.296875q0.328125 0.296875 0.328125 0.78125q0 0.46875 -0.328125 0.765625q-0.328125 0.296875 -1.09375 0.296875l-6.453125 0q-0.765625 0 -1.09375 -0.296875q-0.328125 -0.296875 -0.328125 -0.78125q0 -0.46875 0.328125 -0.765625q0.328125 -0.296875 1.09375 -0.296875l1.28125 0l0 -5.1875l-0.78125 0q-0.765625 0 -1.09375 -0.296875q-0.328125 -0.296875 -0.328125 -0.765625q0 -0.46875 0.328125 -0.765625q0.328125 -0.296875 1.09375 -0.296875l2.90625 0zm18.59584 5.8125l-8.75 0q0.328125 0.828125 1.171875 1.34375q0.859375 0.5 2.3125 0.5q1.1875 0 3.15625 -0.5q0.8125 -0.21875 1.109375 -0.21875q0.4375 0 0.71875 0.3125q0.296875 0.296875 0.296875 0.75q0 0.421875 -0.3125 0.71875q-0.421875 0.375 -2.03125 0.734375q-1.609375 0.34375 -3.09375 0.34375q-2.5625 0 -4.109375 -1.4375q-1.53125 -1.453125 -1.53125 -3.578125q0 -2.25 1.65625 -3.65625q1.671875 -1.40625 3.828125 -1.40625q1.3125 0 2.390625 0.453125q1.09375 0.453125 1.625 0.984375q0.75 0.78125 1.234375 1.90625q0.328125 0.796875 0.328125 1.84375l0 0.90625zm-2.359375 -2.140625q-0.484375 -0.921875 -1.28125 -1.375q-0.78125 -0.453125 -1.875 -0.453125q-1.09375 0 -1.890625 0.453125q-0.78125 0.453125 -1.28125 1.375l6.328125 0zm13.142715 -3.296875q0.375 -0.359375 0.78125 -0.359375q0.453125 0 0.75 0.328125q0.296875 0.328125 0.296875 1.09375l0 1.375q0 0.765625 -0.296875 1.09375q-0.296875 0.3125 -0.765625 0.3125q-0.4375 0 -0.734375 -0.25q-0.21875 -0.1875 -0.34375 -0.765625q-0.125 -0.578125 -0.609375 -0.859375q-0.84375 -0.5 -2.15625 -0.5q-1.515625 0 -2.421875 0.890625q-0.90625 0.890625 -0.90625 2.234375q0 1.25 0.875 1.984375q0.875 0.71875 2.90625 0.71875q1.328125 0 2.171875 -0.265625q0.5 -0.171875 0.9375 -0.5625q0.453125 -0.40625 0.8125 -0.40625q0.4375 0 0.75 0.328125q0.328125 0.3125 0.328125 0.75q0 0.703125 -0.96875 1.34375q-1.4375 0.953125 -4.203125 0.953125q-2.484375 0 -3.875 -1.03125q-1.875 -1.390625 -1.875 -3.796875q0 -2.28125 1.515625 -3.765625q1.53125 -1.5 3.96875 -1.5q0.890625 0 1.640625 0.171875q0.765625 0.15625 1.421875 0.484375zm8.93959 1.75l0 4.28125q0 0.6875 0.28125 0.90625q0.4375 0.34375 1.5625 0.34375q1.640625 0 3.015625 -0.6875q0.53125 -0.28125 0.828125 -0.28125q0.421875 0 0.71875 0.3125q0.3125 0.3125 0.3125 0.765625q0 0.421875 -0.328125 0.71875q-0.515625 0.484375 -2.015625 0.90625q-1.5 0.40625 -2.53125 0.40625q-1.984375 0 -2.984375 -0.859375q-1.0 -0.859375 -1.0 -2.109375l0 -4.703125l-0.765625 0q-0.765625 0 -1.09375 -0.296875q-0.328125 -0.296875 -0.328125 -0.765625q0 -0.46875 0.328125 -0.765625q0.328125 -0.296875 1.09375 -0.296875l0.765625 0l0 -1.921875q0 -0.78125 0.296875 -1.109375q0.296875 -0.328125 0.78125 -0.328125q0.46875 0 0.765625 0.328125q0.296875 0.328125 0.296875 1.109375l0 1.921875l3.953125 0q0.765625 0 1.09375 0.296875q0.328125 0.296875 0.328125 0.765625q0 0.46875 -0.328125 0.765625q-0.328125 0.296875 -1.09375 0.296875l-3.953125 0zm25.363556 2.140625q0 -1.828125 0.59375 -3.6875q0.453125 -1.375 1.390625 -3.0625q0.671875 -1.203125 1.0 -1.46875q0.328125 -0.28125 0.71875 -0.28125q0.453125 0 0.765625 0.3125q0.3125 0.3125 0.3125 0.75q0 0.296875 -0.25 0.71875q-1.125 1.828125 -1.640625 3.453125q-0.515625 1.609375 -0.515625 3.265625q0 1.671875 0.515625 3.28125q0.515625 1.609375 1.640625 3.453125q0.25 0.40625 0.25 0.71875q0 0.4375 -0.3125 0.75q-0.3125 0.3125 -0.765625 0.3125q-0.390625 0 -0.671875 -0.25q-0.421875 -0.359375 -1.109375 -1.625q-0.984375 -1.84375 -1.359375 -3.046875q-0.5625 -1.828125 -0.5625 -3.59375zm16.892715 -3.890625q0.375 -0.359375 0.78125 -0.359375q0.453125 0 0.75 0.328125q0.296875 0.328125 0.296875 1.09375l0 1.375q0 0.765625 -0.296875 1.09375q-0.296875 0.3125 -0.765625 0.3125q-0.4375 0 -0.734375 -0.25q-0.21875 -0.1875 -0.34375 -0.765625q-0.125 -0.578125 -0.609375 -0.859375q-0.84375 -0.5 -2.15625 -0.5q-1.515625 0 -2.421875 0.890625q-0.90625 0.890625 -0.90625 2.234375q0 1.25 0.875 1.984375q0.875 0.71875 2.90625 0.71875q1.328125 0 2.171875 -0.265625q0.5 -0.171875 0.9375 -0.5625q0.453125 -0.40625 0.8125 -0.40625q0.4375 0 0.75 0.328125q0.328125 0.3125 0.328125 0.75q0 0.703125 -0.96875 1.34375q-1.4375 0.953125 -4.203125 0.953125q-2.484375 0 -3.875 -1.03125q-1.875 -1.390625 -1.875 -3.796875q0 -2.28125 1.515625 -3.765625q1.53125 -1.5 3.96875 -1.5q0.890625 0 1.640625 0.171875q0.765625 0.15625 1.421875 0.484375zm15.00209 4.53125q0 1.21875 -0.6875 2.375q-0.671875 1.15625 -2.015625 1.84375q-1.34375 0.671875 -2.8125 0.671875q-1.46875 0 -2.796875 -0.671875q-1.328125 -0.671875 -2.03125 -1.828125q-0.703125 -1.15625 -0.703125 -2.421875q0 -1.28125 0.703125 -2.515625q0.71875 -1.234375 2.046875 -1.9375q1.328125 -0.703125 2.78125 -0.703125q1.453125 0 2.796875 0.71875q1.359375 0.71875 2.03125 1.953125q0.6875 1.21875 0.6875 2.515625zm-2.125 0q0 -1.03125 -0.734375 -1.890625q-1.015625 -1.171875 -2.65625 -1.171875q-1.453125 0 -2.421875 0.9375q-0.96875 0.921875 -0.96875 2.140625q0 1.0 0.96875 1.875q0.984375 0.859375 2.421875 0.859375q1.4375 0 2.40625 -0.859375q0.984375 -0.875 0.984375 -1.890625zm7.2208405 -4.90625l0 0.71875q0.59375 -0.5 1.296875 -0.75q0.703125 -0.25 1.515625 -0.25q1.90625 0 3.0 1.171875q0.875 0.9375 0.875 2.453125l0 3.96875q0.671875 0 1.0 0.296875q0.328125 0.296875 0.328125 0.78125q0 0.46875 -0.328125 0.765625q-0.328125 0.296875 -1.109375 0.296875l-1.921875 0q-0.765625 0 -1.09375 -0.296875q-0.328125 -0.296875 -0.328125 -0.78125q0 -0.46875 0.3125 -0.765625q0.328125 -0.296875 1.015625 -0.296875l0 -4.03125q0 -0.6875 -0.375 -1.015625q-0.5 -0.421875 -1.46875 -0.421875q-0.75 0 -1.3125 0.296875q-0.546875 0.28125 -1.40625 1.203125l0 3.96875q0.828125 0 1.0625 0.15625q0.515625 0.3125 0.515625 0.921875q0 0.46875 -0.328125 0.765625q-0.328125 0.296875 -1.09375 0.296875l-2.4375 0q-0.765625 0 -1.09375 -0.296875q-0.328125 -0.296875 -0.328125 -0.78125q0 -0.578125 0.5 -0.90625q0.25 -0.15625 1.078125 -0.15625l0 -5.1875q-0.6875 0 -1.015625 -0.296875q-0.3125 -0.296875 -0.3125 -0.765625q0 -0.46875 0.328125 -0.765625q0.328125 -0.296875 1.09375 -0.296875l2.03125 0zm18.298965 0.375q0.375 -0.359375 0.78125 -0.359375q0.453125 0 0.75 0.328125q0.296875 0.328125 0.296875 1.09375l0 1.375q0 0.765625 -0.296875 1.09375q-0.296875 0.3125 -0.765625 0.3125q-0.4375 0 -0.734375 -0.25q-0.21875 -0.1875 -0.34375 -0.765625q-0.125 -0.578125 -0.609375 -0.859375q-0.84375 -0.5 -2.15625 -0.5q-1.515625 0 -2.421875 0.890625q-0.90625 0.890625 -0.90625 2.234375q0 1.25 0.875 1.984375q0.875 0.71875 2.90625 0.71875q1.328125 0 2.171875 -0.265625q0.5 -0.171875 0.9375 -0.5625q0.453125 -0.40625 0.8125 -0.40625q0.4375 0 0.75 0.328125q0.328125 0.3125 0.328125 0.75q0 0.703125 -0.96875 1.34375q-1.4375 0.953125 -4.203125 0.953125q-2.484375 0 -3.875 -1.03125q-1.875 -1.390625 -1.875 -3.796875q0 -2.28125 1.515625 -3.765625q1.53125 -1.5 3.96875 -1.5q0.890625 0 1.640625 0.171875q0.765625 0.15625 1.421875 0.484375zm11.392715 9.078125l0 -0.5q-0.8125 0.421875 -1.78125 0.640625q-0.96875 0.21875 -1.75 0.21875q-1.71875 0 -2.796875 -0.90625q-1.078125 -0.921875 -1.078125 -2.03125q0 -1.34375 1.375 -2.484375q1.375 -1.15625 3.78125 -1.15625q0.96875 0 2.25 0.203125l0 -0.5q0 -0.484375 -0.421875 -0.78125q-0.40625 -0.3125 -1.5625 -0.3125q-0.953125 0 -2.453125 0.375q-0.5625 0.140625 -0.875 0.140625q-0.4375 0 -0.734375 -0.296875q-0.296875 -0.3125 -0.296875 -0.796875q0 -0.265625 0.109375 -0.46875q0.109375 -0.203125 0.296875 -0.3125q0.1875 -0.125 0.78125 -0.296875q0.78125 -0.21875 1.609375 -0.34375q0.828125 -0.125 1.484375 -0.125q2.0 0 3.09375 0.859375q1.09375 0.859375 1.09375 2.34375l0 4.390625l0.359375 0q0.78125 0 1.109375 0.296875q0.328125 0.296875 0.328125 0.78125q0 0.46875 -0.328125 0.765625q-0.328125 0.296875 -1.109375 0.296875l-2.484375 0zm0 -3.828125q-1.28125 -0.25 -2.375 -0.25q-1.296875 0 -2.234375 0.640625q-0.578125 0.40625 -0.578125 0.828125q0 0.296875 0.28125 0.484375q0.515625 0.34375 1.421875 0.34375q0.765625 0 1.734375 -0.296875q0.984375 -0.3125 1.75 -0.828125l0 -0.921875zm10.34584 -3.5l0 4.28125q0 0.6875 0.28125 0.90625q0.4375 0.34375 1.5625 0.34375q1.640625 0 3.015625 -0.6875q0.53125 -0.28125 0.828125 -0.28125q0.421875 0 0.71875 0.3125q0.3125 0.3125 0.3125 0.765625q0 0.421875 -0.328125 0.71875q-0.515625 0.484375 -2.015625 0.90625q-1.5 0.40625 -2.53125 0.40625q-1.984375 0 -2.984375 -0.859375q-1.0 -0.859375 -1.0 -2.109375l0 -4.703125l-0.765625 0q-0.765625 0 -1.09375 -0.296875q-0.328125 -0.296875 -0.328125 -0.765625q0 -0.46875 0.328125 -0.765625q0.328125 -0.296875 1.09375 -0.296875l0.765625 0l0 -1.921875q0 -0.78125 0.296875 -1.109375q0.296875 -0.328125 0.78125 -0.328125q0.46875 0 0.765625 0.328125q0.296875 0.328125 0.296875 1.109375l0 1.921875l3.953125 0q0.765625 0 1.09375 0.296875q0.328125 0.296875 0.328125 0.765625q0 0.46875 -0.328125 0.765625q-0.328125 0.296875 -1.09375 0.296875l-3.953125 0zm14.236465 2.140625q0 1.828125 -0.609375 3.703125q-0.4375 1.375 -1.375 3.046875q-0.6875 1.203125 -1.015625 1.484375q-0.3125 0.28125 -0.703125 0.28125q-0.46875 0 -0.78125 -0.3125q-0.3125 -0.3125 -0.3125 -0.75q0 -0.3125 0.25 -0.71875q1.125 -1.84375 1.640625 -3.453125q0.515625 -1.609375 0.515625 -3.28125q0 -1.65625 -0.515625 -3.265625q-0.515625 -1.625 -1.640625 -3.453125q-0.25 -0.421875 -0.25 -0.71875q0 -0.4375 0.3125 -0.75q0.3125 -0.3125 0.78125 -0.3125q0.375 0 0.671875 0.25q0.421875 0.34375 1.109375 1.625q0.984375 1.84375 1.34375 3.03125q0.578125 1.84375 0.578125 3.59375z" fill-rule="nonzero"/><path fill="#d9d2e9" d="m7.0 218.00012l57.574806 0l0 28.661423l-57.574806 0z" fill-rule="evenodd"/><path fill="#000000" fill-opacity="0.0" d="m64.57481 210.60367c26.606293 0 39.909447 -12.503937 53.212593 -25.007874c13.303146 -12.503937 26.606308 -25.007874 53.2126 -25.007874" fill-rule="evenodd"/><path stroke="#000000" stroke-width="1.0" stroke-linejoin="round" stroke-linecap="butt" d="m64.57481 210.60367c26.606293 0 39.909447 -12.503937 53.212593 -25.007874c6.651581 -6.2519684 13.303146 -12.503937 21.617615 -17.192902c4.157242 -2.3444977 8.730194 -4.298233 13.926743 -5.665848c2.5982666 -0.6838074 5.3524475 -1.2210846 8.288483 -1.5874176c0.7340088 -0.09158325 1.4794006 -0.17248535 2.2365417 -0.24230957c0.37858582 -0.03491211 0.7601013 -0.06706238 1.1446075 -0.09638977l0.002746582 -2.1362305E-4" fill-rule="evenodd"/><path fill="#000000" stroke="#000000" stroke-width="1.0" stroke-linecap="butt" d="m165.06548 162.46132l4.473633 -1.819107l-4.596298 -1.4820862z" fill-rule="evenodd"/><path fill="#d9d2e9" d="m171.0 182.6229l57.5748 0l0 42.519684l-57.5748 0z" fill-rule="evenodd"/><path stroke="#ffffff" stroke-width="1.0" stroke-linejoin="round" stroke-linecap="butt" d="m171.0 182.6229l57.5748 0l0 42.519684l-57.5748 0z" fill-rule="evenodd"/><path fill="#8e7cc3" d="m171.0 225.91977l57.5748 0l0 28.34645l-57.5748 0z" fill-rule="evenodd"/><path stroke="#ffffff" stroke-width="1.0" stroke-linejoin="round" stroke-linecap="butt" d="m171.0 225.91977l57.5748 0l0 28.34645l-57.5748 0z" fill-rule="evenodd"/><path fill="#000000" fill-opacity="0.0" d="m7.0 203.51706l57.574806 0l0 42.803146l-57.574806 0z" fill-rule="evenodd"/><path stroke="#ffffff" stroke-width="1.0" stroke-linejoin="round" stroke-linecap="butt" d="m7.0 203.51706l57.574806 0l0 42.803146l-57.574806 0z" fill-rule="evenodd"/><path fill="#8e7cc3" d="m7.0 259.85333l57.574806 0l0 28.661407l-57.574806 0z" fill-rule="evenodd"/><path fill="#000000" fill-opacity="0.0" d="m7.0 247.06152l57.574806 0l0 42.80316l-57.574806 0z" fill-rule="evenodd"/><path stroke="#ffffff" stroke-width="1.0" stroke-linejoin="round" stroke-linecap="butt" d="m7.0 247.06152l57.574806 0l0 42.80316l-57.574806 0z" fill-rule="evenodd"/><path fill="#000000" fill-opacity="0.0" d="m64.57481 274.18402l106.42519 -34.078735" fill-rule="evenodd"/><path stroke="#000000" stroke-width="1.0" stroke-linejoin="round" stroke-linecap="butt" d="m64.57481 274.18402l100.711006 -32.248962" fill-rule="evenodd"/><path fill="#000000" stroke="#000000" stroke-width="1.0" stroke-linecap="butt" d="m165.78952 243.5081l3.818222 -2.9569855l-4.825638 -0.18911743z" fill-rule="evenodd"/><path fill="#000000" fill-opacity="0.0" d="m64.57481 117.5683c26.606293 0 39.909447 -0.070869446 53.212593 -0.14173889c13.303146 -0.07086182 26.606308 -0.14173126 53.2126 -0.14173126" fill-rule="evenodd"/><path stroke="#000000" stroke-width="1.0" stroke-linejoin="round" stroke-linecap="butt" d="m64.57481 117.56829c26.606293 0 39.909447 -0.07086182 53.212593 -0.14173126c6.651581 -0.03543091 13.303146 -0.07086182 21.617615 -0.09744263c4.157242 -0.013282776 8.730194 -0.024360657 13.926743 -0.03211212c2.5982666 -0.003868103 5.3524475 -0.006919861 8.288483 -0.008987427l3.3797607 -0.0011520386" fill-rule="evenodd"/><path fill="#000000" stroke="#000000" stroke-width="1.0" stroke-linecap="butt" d="m165.00056 118.9386l4.5375366 -1.6532745l-4.538666 -1.6501923z" fill-rule="evenodd"/><path fill="#000000" fill-opacity="0.0" d="m64.57481 254.14813c26.606293 0 39.909447 -12.566925 53.212593 -25.13385c13.303146 -12.56694 26.606308 -25.133865 53.2126 -25.133865" fill-rule="evenodd"/><path stroke="#000000" stroke-width="1.0" stroke-linejoin="round" stroke-linecap="butt" d="m64.57481 254.14813c26.606293 0 39.909447 -12.566925 53.212593 -25.133865c6.651581 -6.2834625 13.303146 -12.566925 21.617615 -17.279526c4.157242 -2.3562927 8.730194 -4.3198853 13.926743 -5.6943817c2.5982666 -0.68725586 5.3524475 -1.2272491 8.288483 -1.5954132c0.7340088 -0.092056274 1.4794006 -0.1733551 2.2365417 -0.24353027c0.37858582 -0.035095215 0.7601013 -0.06741333 1.1446075 -0.09687805l0.0027923584 -2.1362305E-4" fill-rule="evenodd"/><path fill="#000000" stroke="#000000" stroke-width="1.0" stroke-linecap="butt" d="m165.06583 205.75491l4.473297 -1.8199463l-4.596588 -1.4812164z" fill-rule="evenodd"/><path fill="#000000" fill-opacity="0.0" d="m64.57481 232.33083c26.606293 0 39.909447 -7.1102295 53.212593 -14.220474c13.303146 -7.1102295 26.606308 -14.220459 53.2126 -14.220459" fill-rule="evenodd"/><path stroke="#000000" stroke-width="1.0" stroke-linejoin="round" stroke-linecap="butt" d="m64.57481 232.33083c26.606293 0 39.909447 -7.1102295 53.212593 -14.220459c6.651581 -3.55513 13.303146 -7.1102448 21.617615 -9.776581c4.157242 -1.3331757 8.730194 -2.4441528 13.926743 -3.2218323c2.5982666 -0.38883972 5.3524475 -0.6943512 8.288483 -0.9026642c0.7340088 -0.052078247 1.4794006 -0.09806824 2.2365417 -0.13778687l1.1445618 -0.05480957" fill-rule="evenodd"/><path fill="#000000" stroke="#000000" stroke-width="1.0" stroke-linecap="butt" d="m165.03625 205.66806l4.5021667 -1.7472839l-4.571991 -1.5554504z" fill-rule="evenodd"/></g></svg>
