<?xml version="1.0" encoding="UTF-8" standalone="no"?>
<!DOCTYPE svg PUBLIC "-//W3C//DTD SVG 1.1//EN"
 "http://www.w3.org/Graphics/SVG/1.1/DTD/svg11.dtd">
<!-- Generated by graphviz version 12.1.2 (20240928.0832)
 -->
<!-- Pages: 1 -->
<svg width="875pt" height="260pt"
 viewBox="0.00 0.00 874.88 260.00" xmlns="http://www.w3.org/2000/svg" xmlns:xlink="http://www.w3.org/1999/xlink">
<g id="graph0" class="graph" transform="scale(1 1) rotate(0) translate(4 256)">
<polygon fill="white" stroke="none" points="-4,4 -4,-256 870.88,-256 870.88,4 -4,4"/>
<!-- blockwise -->
<g id="node1" class="node">
<title>blockwise</title>
<polygon fill="#dcbeff" stroke="black" points="477.12,-36 386.88,-36 386.88,0 477.12,0 477.12,-36"/>
<text text-anchor="middle" x="432" y="-12.95" font-family="Courier,monospace" font-size="14.00">blockwise</text>
</g>
<!-- rechunk -->
<g id="node2" class="node">
<title>rechunk</title>
<polygon fill="#aaffc3" stroke="black" points="866.88,-36 793.12,-36 793.12,0 866.88,0 866.88,-36"/>
<text text-anchor="middle" x="830" y="-12.95" font-family="Courier,monospace" font-size="14.00">rechunk</text>
</g>
<!-- elemwise -->
<g id="node3" class="node">
<title>elemwise</title>
<polygon fill="#ffd8b1" stroke="black" points="146,-108 64,-108 64,-72 146,-72 146,-108"/>
<text text-anchor="middle" x="105" y="-84.95" font-family="Courier,monospace" font-size="14.00">elemwise</text>
</g>
<!-- elemwise&#45;&gt;blockwise -->
<g id="edge1" class="edge">
<title>elemwise&#45;&gt;blockwise</title>
<path fill="none" stroke="black" d="M146.34,-74.45C149.25,-73.58 152.16,-72.75 155,-72 230.29,-52.1 318.94,-36.47 375.29,-27.49"/>
<polygon fill="black" stroke="black" points="375.64,-30.97 384.97,-25.96 374.55,-24.06 375.64,-30.97"/>
</g>
<!-- map_blocks -->
<g id="node4" class="node">
<title>map_blocks</title>
<polygon fill="#ffd8b1" stroke="black" points="262.25,-108 163.75,-108 163.75,-72 262.25,-72 262.25,-108"/>
<text text-anchor="middle" x="213" y="-84.95" font-family="Courier,monospace" font-size="14.00">map_blocks</text>
</g>
<!-- map_blocks&#45;&gt;blockwise -->
<g id="edge2" class="edge">
<title>map_blocks&#45;&gt;blockwise</title>
<path fill="none" stroke="black" d="M262.69,-73.12C296.43,-62.33 341.1,-48.06 376.08,-36.87"/>
<polygon fill="black" stroke="black" points="376.7,-40.35 385.16,-33.97 374.57,-33.68 376.7,-40.35"/>
</g>
<!-- map_selection -->
<g id="node5" class="node">
<title>map_selection</title>
<polygon fill="#ffd8b1" stroke="black" points="403.62,-108 280.38,-108 280.38,-72 403.62,-72 403.62,-108"/>
<text text-anchor="middle" x="342" y="-84.95" font-family="Courier,monospace" font-size="14.00">map_selection</text>
</g>
<!-- map_selection&#45;&gt;blockwise -->
<g id="edge3" class="edge">
<title>map_selection&#45;&gt;blockwise</title>
<path fill="none" stroke="black" d="M364.25,-71.7C375.28,-63.11 388.79,-52.61 400.84,-43.24"/>
<polygon fill="black" stroke="black" points="402.76,-46.18 408.5,-37.28 398.46,-40.65 402.76,-46.18"/>
</g>
<!-- reduction -->
<g id="node6" class="node">
<title>reduction</title>
<polygon fill="#ffd8b1" stroke="black" points="619.12,-108 528.88,-108 528.88,-72 619.12,-72 619.12,-108"/>
<text text-anchor="middle" x="574" y="-84.95" font-family="Courier,monospace" font-size="14.00">reduction</text>
</g>
<!-- reduction&#45;&gt;blockwise -->
<g id="edge4" class="edge">
<title>reduction&#45;&gt;blockwise</title>
<path fill="none" stroke="black" d="M538.53,-71.52C519.93,-62.34 496.93,-51.01 477.07,-41.22"/>
<polygon fill="black" stroke="black" points="478.89,-38.21 468.37,-36.93 475.79,-44.49 478.89,-38.21"/>
</g>
<!-- arg_reduction -->
<g id="node7" class="node">
<title>arg_reduction</title>
<polygon fill="#ffd8b1" stroke="black" points="763.62,-180 640.38,-180 640.38,-144 763.62,-144 763.62,-180"/>
<text text-anchor="middle" x="702" y="-156.95" font-family="Courier,monospace" font-size="14.00">arg_reduction</text>
</g>
<!-- arg_reduction&#45;&gt;reduction -->
<g id="edge5" class="edge">
<title>arg_reduction&#45;&gt;reduction</title>
<path fill="none" stroke="black" d="M670.03,-143.52C653.57,-134.51 633.29,-123.42 615.62,-113.76"/>
<polygon fill="black" stroke="black" points="617.34,-110.71 606.89,-108.99 613.98,-116.86 617.34,-110.71"/>
</g>
<!-- __getitem__ -->
<g id="node8" class="node">
<title>__getitem__</title>
<polygon fill="none" stroke="black" points="370.38,-252 263.62,-252 263.62,-216 370.38,-216 370.38,-252"/>
<text text-anchor="middle" x="317" y="-228.95" font-family="Courier,monospace" font-size="14.00">__getitem__</text>
</g>
<!-- __getitem__&#45;&gt;map_selection -->
<g id="edge6" class="edge">
<title>__getitem__&#45;&gt;map_selection</title>
<path fill="none" stroke="black" d="M320.07,-215.59C324.29,-191.61 331.94,-148.14 337,-119.42"/>
<polygon fill="black" stroke="black" points="340.44,-120.06 338.73,-109.6 333.54,-118.84 340.44,-120.06"/>
</g>
<!-- concat -->
<g id="node12" class="node">
<title>concat</title>
<polygon fill="none" stroke="black" points="453.75,-252 388.25,-252 388.25,-216 453.75,-216 453.75,-252"/>
<text text-anchor="middle" x="421" y="-228.95" font-family="Courier,monospace" font-size="14.00">concat</text>
</g>
<!-- __getitem__&#45;&gt;concat -->
<!-- add -->
<g id="node9" class="node">
<title>add</title>
<polygon fill="none" stroke="black" points="54,-252 0,-252 0,-216 54,-216 54,-252"/>
<text text-anchor="middle" x="27" y="-228.95" font-family="Courier,monospace" font-size="14.00">add</text>
</g>
<!-- add&#45;&gt;elemwise -->
<g id="edge7" class="edge">
<title>add&#45;&gt;elemwise</title>
<path fill="none" stroke="black" d="M36.56,-215.59C49.97,-191.18 74.47,-146.58 90.23,-117.89"/>
<polygon fill="black" stroke="black" points="93.13,-119.89 94.87,-109.44 86.99,-116.52 93.13,-119.89"/>
</g>
<!-- negative -->
<g id="node10" class="node">
<title>negative</title>
<polygon fill="none" stroke="black" points="154,-252 72,-252 72,-216 154,-216 154,-252"/>
<text text-anchor="middle" x="113" y="-228.95" font-family="Courier,monospace" font-size="14.00">negative</text>
</g>
<!-- add&#45;&gt;negative -->
<!-- negative&#45;&gt;elemwise -->
<g id="edge8" class="edge">
<title>negative&#45;&gt;elemwise</title>
<path fill="none" stroke="black" d="M112.02,-215.59C110.67,-191.61 108.22,-148.14 106.6,-119.42"/>
<polygon fill="black" stroke="black" points="110.11,-119.41 106.05,-109.62 103.12,-119.8 110.11,-119.41"/>
</g>
<!-- squeeze -->
<g id="node14" class="node">
<title>squeeze</title>
<polygon fill="none" stroke="black" points="245.88,-252 172.12,-252 172.12,-216 245.88,-216 245.88,-252"/>
<text text-anchor="middle" x="209" y="-228.95" font-family="Courier,monospace" font-size="14.00">squeeze</text>
</g>
<!-- negative&#45;&gt;squeeze -->
<!-- matmul -->
<g id="node11" class="node">
<title>matmul</title>
<polygon fill="none" stroke="black" points="537.75,-252 472.25,-252 472.25,-216 537.75,-216 537.75,-252"/>
<text text-anchor="middle" x="505" y="-228.95" font-family="Courier,monospace" font-size="14.00">matmul</text>
</g>
<!-- matmul&#45;&gt;blockwise -->
<g id="edge9" class="edge">
<title>matmul&#45;&gt;blockwise</title>
<path fill="none" stroke="black" d="M499.15,-215.85C486.58,-178.99 456.87,-91.92 441.54,-46.96"/>
<polygon fill="black" stroke="black" points="444.91,-46 438.37,-37.66 438.28,-48.26 444.91,-46"/>
</g>
<!-- matmul&#45;&gt;reduction -->
<g id="edge10" class="edge">
<title>matmul&#45;&gt;reduction</title>
<path fill="none" stroke="black" d="M513.46,-215.59C525.27,-191.29 546.8,-146.97 560.75,-118.27"/>
<polygon fill="black" stroke="black" points="563.8,-120 565.02,-109.47 557.51,-116.94 563.8,-120"/>
</g>
<!-- sum -->
<g id="node16" class="node">
<title>sum</title>
<polygon fill="none" stroke="black" points="610,-252 556,-252 556,-216 610,-216 610,-252"/>
<text text-anchor="middle" x="583" y="-228.95" font-family="Courier,monospace" font-size="14.00">sum</text>
</g>
<!-- matmul&#45;&gt;sum -->
<!-- concat&#45;&gt;blockwise -->
<g id="edge11" class="edge">
<title>concat&#45;&gt;blockwise</title>
<path fill="none" stroke="black" d="M421.88,-215.85C423.77,-179.14 428.21,-92.66 430.53,-47.53"/>
<polygon fill="black" stroke="black" points="434.02,-47.91 431.04,-37.74 427.03,-47.55 434.02,-47.91"/>
</g>
<!-- concat&#45;&gt;matmul -->
<!-- reshape -->
<g id="node13" class="node">
<title>reshape</title>
<polygon fill="none" stroke="black" points="857.88,-252 784.12,-252 784.12,-216 857.88,-216 857.88,-252"/>
<text text-anchor="middle" x="821" y="-228.95" font-family="Courier,monospace" font-size="14.00">reshape</text>
</g>
<!-- reshape&#45;&gt;blockwise -->
<g id="edge13" class="edge">
<title>reshape&#45;&gt;blockwise</title>
<path fill="none" stroke="black" d="M815.27,-215.6C808.08,-196.04 794.08,-164.38 773,-144 693.45,-67.09 562.72,-36.88 488.36,-25.49"/>
<polygon fill="black" stroke="black" points="489.27,-22.09 478.87,-24.1 488.25,-29.01 489.27,-22.09"/>
</g>
<!-- reshape&#45;&gt;rechunk -->
<g id="edge12" class="edge">
<title>reshape&#45;&gt;rechunk</title>
<path fill="none" stroke="black" d="M821.72,-215.85C823.26,-179.14 826.9,-92.66 828.8,-47.53"/>
<polygon fill="black" stroke="black" points="832.29,-47.88 829.21,-37.74 825.29,-47.59 832.29,-47.88"/>
</g>
<!-- squeeze&#45;&gt;map_blocks -->
<g id="edge14" class="edge">
<title>squeeze&#45;&gt;map_blocks</title>
<path fill="none" stroke="black" d="M209.49,-215.59C210.17,-191.61 211.39,-148.14 212.2,-119.42"/>
<polygon fill="black" stroke="black" points="215.69,-119.72 212.48,-109.62 208.7,-119.52 215.69,-119.72"/>
</g>
<!-- squeeze&#45;&gt;__getitem__ -->
<!-- argmax -->
<g id="node15" class="node">
<title>argmax</title>
<polygon fill="none" stroke="black" points="765.75,-252 700.25,-252 700.25,-216 765.75,-216 765.75,-252"/>
<text text-anchor="middle" x="733" y="-228.95" font-family="Courier,monospace" font-size="14.00">argmax</text>
</g>
<!-- argmax&#45;&gt;arg_reduction -->
<g id="edge15" class="edge">
<title>argmax&#45;&gt;arg_reduction</title>
<path fill="none" stroke="black" d="M725.34,-215.7C721.96,-208.07 717.91,-198.92 714.13,-190.4"/>
<polygon fill="black" stroke="black" points="717.44,-189.21 710.19,-181.49 711.04,-192.05 717.44,-189.21"/>
</g>
<!-- argmax&#45;&gt;reshape -->
<!-- sum&#45;&gt;reduction -->
<g id="edge16" class="edge">
<title>sum&#45;&gt;reduction</title>
<path fill="none" stroke="black" d="M581.9,-215.59C580.38,-191.61 577.62,-148.14 575.8,-119.42"/>
<polygon fill="black" stroke="black" points="579.31,-119.38 575.18,-109.62 572.32,-119.82 579.31,-119.38"/>
</g>
<!-- all -->
<g id="node17" class="node">
<title>all</title>
<polygon fill="none" stroke="black" points="682,-252 628,-252 628,-216 682,-216 682,-252"/>
<text text-anchor="middle" x="655" y="-228.95" font-family="Courier,monospace" font-size="14.00">all</text>
</g>
<!-- sum&#45;&gt;all -->
<!-- all&#45;&gt;reduction -->
<g id="edge17" class="edge">
<title>all&#45;&gt;reduction</title>
<path fill="none" stroke="black" d="M645.07,-215.59C631.15,-191.18 605.71,-146.58 589.34,-117.89"/>
<polygon fill="black" stroke="black" points="592.51,-116.38 584.51,-109.43 586.43,-119.85 592.51,-116.38"/>
</g>
<!-- all&#45;&gt;argmax -->
</g>
</svg>
