<?xml version="1.0" encoding="UTF-8" standalone="no"?>
<!DOCTYPE svg PUBLIC "-//W3C//DTD SVG 1.1//EN"
 "http://www.w3.org/Graphics/SVG/1.1/DTD/svg11.dtd">
<!-- Generated by graphviz version 10.0.1 (20240210.2158)
 -->
<!-- Pages: 1 -->
<svg width="305pt" height="319pt"
 viewBox="0.00 0.00 304.75 318.75" xmlns="http://www.w3.org/2000/svg" xmlns:xlink="http://www.w3.org/1999/xlink">
<g id="graph0" class="graph" transform="scale(1 1) rotate(0) translate(4 314.75)">
<polygon fill="white" stroke="none" points="-4,4 -4,-314.75 300.75,-314.75 300.75,4 -4,4"/>
<text text-anchor="start" x="8" y="-39.5" font-family="Times,serif" font-size="10.00">num tasks: 5</text>
<text text-anchor="start" x="8" y="-28.25" font-family="Times,serif" font-size="10.00">max projected memory: 100.0 MB</text>
<text text-anchor="start" x="8" y="-17" font-family="Times,serif" font-size="10.00">total nbytes written: 72 bytes</text>
<text text-anchor="start" x="8" y="-5.75" font-family="Times,serif" font-size="10.00">optimized: True</text>
<!-- op&#45;004 -->
<g id="node1" class="node">
<title>op&#45;004</title>
<g id="a_node1"><a xlink:title="name: op&#45;004&#10;op: full&#10;calls: &lt;module&gt; &#45;&gt; ones &#45;&gt; full&#10;line: 1 in &lt;module&gt;">
<path fill="none" stroke="black" d="M43.25,-310.75C43.25,-310.75 13.25,-310.75 13.25,-310.75 7.25,-310.75 1.25,-304.75 1.25,-298.75 1.25,-298.75 1.25,-286.75 1.25,-286.75 1.25,-280.75 7.25,-274.75 13.25,-274.75 13.25,-274.75 43.25,-274.75 43.25,-274.75 49.25,-274.75 55.25,-280.75 55.25,-286.75 55.25,-286.75 55.25,-298.75 55.25,-298.75 55.25,-304.75 49.25,-310.75 43.25,-310.75"/>
<text text-anchor="middle" x="28.25" y="-294.5" font-family="Helvetica,sans-Serif" font-size="10.00">op&#45;004</text>
<text text-anchor="middle" x="28.25" y="-283.25" font-family="Helvetica,sans-Serif" font-size="10.00">ones</text>
</a>
</g>
</g>
<!-- array&#45;004 -->
<g id="node2" class="node">
<title>array&#45;004</title>
<g id="a_node2"><a xlink:title="name: array&#45;004&#10;variable: a&#10;shape: (3, 3)&#10;chunks: (2, 2)&#10;dtype: float64&#10;chunk memory: 8 bytes">
<polygon fill="none" stroke="black" points="56.5,-238.75 0,-238.75 0,-202.75 56.5,-202.75 56.5,-238.75"/>
<text text-anchor="middle" x="28.25" y="-222.5" font-family="Helvetica,sans-Serif" font-size="10.00">array&#45;004</text>
<text text-anchor="middle" x="28.25" y="-211.25" font-family="Helvetica,sans-Serif" font-size="10.00">a</text>
</a>
</g>
</g>
<!-- op&#45;004&#45;&gt;array&#45;004 -->
<g id="edge1" class="edge">
<title>op&#45;004&#45;&gt;array&#45;004</title>
<path fill="none" stroke="black" d="M28.25,-274.45C28.25,-267.16 28.25,-258.48 28.25,-250.29"/>
<polygon fill="black" stroke="black" points="31.75,-250.37 28.25,-240.37 24.75,-250.37 31.75,-250.37"/>
</g>
<!-- op&#45;008 -->
<g id="node7" class="node">
<title>op&#45;008</title>
<g id="a_node7"><a xlink:title="name: op&#45;008&#10;op: blockwise&#10;projected memory: 100.0 MB&#10;tasks: 4&#10;num input blocks: (1, 1, 1)&#10;calls: &lt;module&gt; &#45;&gt; add &#45;&gt; elemwise &#45;&gt; blockwise&#10;line: 1 in &lt;module&gt;">
<path fill="#dcbeff" stroke="black" d="M118.25,-166.75C118.25,-166.75 88.25,-166.75 88.25,-166.75 82.25,-166.75 76.25,-160.75 76.25,-154.75 76.25,-154.75 76.25,-137 76.25,-137 76.25,-131 82.25,-125 88.25,-125 88.25,-125 118.25,-125 118.25,-125 124.25,-125 130.25,-131 130.25,-137 130.25,-137 130.25,-154.75 130.25,-154.75 130.25,-160.75 124.25,-166.75 118.25,-166.75"/>
<text text-anchor="middle" x="103.25" y="-153.25" font-family="Helvetica,sans-Serif" font-size="10.00">op&#45;008</text>
<text text-anchor="middle" x="103.25" y="-142" font-family="Helvetica,sans-Serif" font-size="10.00">add</text>
<text text-anchor="middle" x="103.25" y="-130.75" font-family="Helvetica,sans-Serif" font-size="10.00">tasks: 4</text>
</a>
</g>
</g>
<!-- array&#45;004&#45;&gt;op&#45;008 -->
<g id="edge2" class="edge">
<title>array&#45;004&#45;&gt;op&#45;008</title>
<path fill="none" stroke="black" d="M46.02,-202.48C54.47,-194.28 64.77,-184.26 74.3,-175"/>
<polygon fill="black" stroke="black" points="76.59,-177.66 81.33,-168.18 71.71,-172.64 76.59,-177.66"/>
</g>
<!-- op&#45;005 -->
<g id="node3" class="node">
<title>op&#45;005</title>
<g id="a_node3"><a xlink:title="name: op&#45;005&#10;op: full&#10;calls: &lt;module&gt; &#45;&gt; ones &#45;&gt; full&#10;line: 1 in &lt;module&gt;">
<path fill="none" stroke="black" d="M118.25,-310.75C118.25,-310.75 88.25,-310.75 88.25,-310.75 82.25,-310.75 76.25,-304.75 76.25,-298.75 76.25,-298.75 76.25,-286.75 76.25,-286.75 76.25,-280.75 82.25,-274.75 88.25,-274.75 88.25,-274.75 118.25,-274.75 118.25,-274.75 124.25,-274.75 130.25,-280.75 130.25,-286.75 130.25,-286.75 130.25,-298.75 130.25,-298.75 130.25,-304.75 124.25,-310.75 118.25,-310.75"/>
<text text-anchor="middle" x="103.25" y="-294.5" font-family="Helvetica,sans-Serif" font-size="10.00">op&#45;005</text>
<text text-anchor="middle" x="103.25" y="-283.25" font-family="Helvetica,sans-Serif" font-size="10.00">ones</text>
</a>
</g>
</g>
<!-- array&#45;005 -->
<g id="node4" class="node">
<title>array&#45;005</title>
<g id="a_node4"><a xlink:title="name: array&#45;005&#10;variable: b&#10;shape: (3, 3)&#10;chunks: (2, 2)&#10;dtype: float64&#10;chunk memory: 8 bytes">
<polygon fill="none" stroke="black" points="131.5,-238.75 75,-238.75 75,-202.75 131.5,-202.75 131.5,-238.75"/>
<text text-anchor="middle" x="103.25" y="-222.5" font-family="Helvetica,sans-Serif" font-size="10.00">array&#45;005</text>
<text text-anchor="middle" x="103.25" y="-211.25" font-family="Helvetica,sans-Serif" font-size="10.00">b</text>
</a>
</g>
</g>
<!-- op&#45;005&#45;&gt;array&#45;005 -->
<g id="edge3" class="edge">
<title>op&#45;005&#45;&gt;array&#45;005</title>
<path fill="none" stroke="black" d="M103.25,-274.45C103.25,-267.16 103.25,-258.48 103.25,-250.29"/>
<polygon fill="black" stroke="black" points="106.75,-250.37 103.25,-240.37 99.75,-250.37 106.75,-250.37"/>
</g>
<!-- array&#45;005&#45;&gt;op&#45;008 -->
<g id="edge4" class="edge">
<title>array&#45;005&#45;&gt;op&#45;008</title>
<path fill="none" stroke="black" d="M103.25,-202.48C103.25,-195.27 103.25,-186.66 103.25,-178.4"/>
<polygon fill="black" stroke="black" points="106.75,-178.64 103.25,-168.64 99.75,-178.64 106.75,-178.64"/>
</g>
<!-- op&#45;006 -->
<g id="node5" class="node">
<title>op&#45;006</title>
<g id="a_node5"><a xlink:title="name: op&#45;006&#10;op: full&#10;calls: &lt;module&gt; &#45;&gt; ones &#45;&gt; full&#10;line: 1 in &lt;module&gt;">
<path fill="none" stroke="black" d="M193.25,-310.75C193.25,-310.75 163.25,-310.75 163.25,-310.75 157.25,-310.75 151.25,-304.75 151.25,-298.75 151.25,-298.75 151.25,-286.75 151.25,-286.75 151.25,-280.75 157.25,-274.75 163.25,-274.75 163.25,-274.75 193.25,-274.75 193.25,-274.75 199.25,-274.75 205.25,-280.75 205.25,-286.75 205.25,-286.75 205.25,-298.75 205.25,-298.75 205.25,-304.75 199.25,-310.75 193.25,-310.75"/>
<text text-anchor="middle" x="178.25" y="-294.5" font-family="Helvetica,sans-Serif" font-size="10.00">op&#45;006</text>
<text text-anchor="middle" x="178.25" y="-283.25" font-family="Helvetica,sans-Serif" font-size="10.00">ones</text>
</a>
</g>
</g>
<!-- array&#45;006 -->
<g id="node6" class="node">
<title>array&#45;006</title>
<g id="a_node6"><a xlink:title="name: array&#45;006&#10;variable: c&#10;shape: (3, 3)&#10;chunks: (2, 2)&#10;dtype: float64&#10;chunk memory: 8 bytes">
<polygon fill="none" stroke="black" points="206.5,-238.75 150,-238.75 150,-202.75 206.5,-202.75 206.5,-238.75"/>
<text text-anchor="middle" x="178.25" y="-222.5" font-family="Helvetica,sans-Serif" font-size="10.00">array&#45;006</text>
<text text-anchor="middle" x="178.25" y="-211.25" font-family="Helvetica,sans-Serif" font-size="10.00">c</text>
</a>
</g>
</g>
<!-- op&#45;006&#45;&gt;array&#45;006 -->
<g id="edge5" class="edge">
<title>op&#45;006&#45;&gt;array&#45;006</title>
<path fill="none" stroke="black" d="M178.25,-274.45C178.25,-267.16 178.25,-258.48 178.25,-250.29"/>
<polygon fill="black" stroke="black" points="181.75,-250.37 178.25,-240.37 174.75,-250.37 181.75,-250.37"/>
</g>
<!-- array&#45;006&#45;&gt;op&#45;008 -->
<g id="edge6" class="edge">
<title>array&#45;006&#45;&gt;op&#45;008</title>
<path fill="none" stroke="black" d="M160.48,-202.48C152.03,-194.28 141.73,-184.26 132.2,-175"/>
<polygon fill="black" stroke="black" points="134.79,-172.64 125.17,-168.18 129.91,-177.66 134.79,-172.64"/>
</g>
<!-- array&#45;008 -->
<g id="node8" class="node">
<title>array&#45;008</title>
<g id="a_node8"><a xlink:title="name: array&#45;008&#10;variable: e&#10;shape: (3, 3)&#10;chunks: (2, 2)&#10;dtype: float64&#10;chunk memory: 32 bytes&#10;nbytes: 72 bytes">
<polygon fill="#ffd8b1" stroke="black" points="131.5,-89 75,-89 75,-53 131.5,-53 131.5,-89"/>
<text text-anchor="middle" x="103.25" y="-72.75" font-family="Helvetica,sans-Serif" font-size="10.00">array&#45;008</text>
<text text-anchor="middle" x="103.25" y="-61.5" font-family="Helvetica,sans-Serif" font-size="10.00">e</text>
</a>
</g>
</g>
<!-- op&#45;008&#45;&gt;array&#45;008 -->
<g id="edge7" class="edge">
<title>op&#45;008&#45;&gt;array&#45;008</title>
<path fill="none" stroke="black" d="M103.25,-124.58C103.25,-117.19 103.25,-108.7 103.25,-100.73"/>
<polygon fill="black" stroke="black" points="106.75,-100.74 103.25,-90.74 99.75,-100.74 106.75,-100.74"/>
</g>
<!-- create&#45;arrays -->
<g id="node9" class="node">
<title>create&#45;arrays</title>
<g id="a_node9"><a xlink:title="name: create&#45;arrays&#10;op: create&#45;arrays&#10;projected memory: 100.0 MB&#10;tasks: 1">
<path fill="none" stroke="black" d="M284.75,-310.75C284.75,-310.75 235.75,-310.75 235.75,-310.75 229.75,-310.75 223.75,-304.75 223.75,-298.75 223.75,-298.75 223.75,-286.75 223.75,-286.75 223.75,-280.75 229.75,-274.75 235.75,-274.75 235.75,-274.75 284.75,-274.75 284.75,-274.75 290.75,-274.75 296.75,-280.75 296.75,-286.75 296.75,-286.75 296.75,-298.75 296.75,-298.75 296.75,-304.75 290.75,-310.75 284.75,-310.75"/>
<text text-anchor="middle" x="260.25" y="-294.5" font-family="Helvetica,sans-Serif" font-size="10.00">create&#45;arrays</text>
<text text-anchor="middle" x="260.25" y="-283.25" font-family="Helvetica,sans-Serif" font-size="10.00">tasks: 1</text>
</a>
</g>
</g>
<!-- arrays -->
<g id="node10" class="node">
<title>arrays</title>
<g id="a_node10"><a xlink:title="name: arrays" target="None">
<polygon fill="none" stroke="black" points="287.25,-238.75 233.25,-238.75 233.25,-202.75 287.25,-202.75 287.25,-238.75"/>
<text text-anchor="middle" x="260.25" y="-216.88" font-family="Helvetica,sans-Serif" font-size="10.00">arrays</text>
</a>
</g>
</g>
<!-- create&#45;arrays&#45;&gt;arrays -->
<g id="edge8" class="edge">
<title>create&#45;arrays&#45;&gt;arrays</title>
<path fill="none" stroke="black" d="M260.25,-274.45C260.25,-267.16 260.25,-258.48 260.25,-250.29"/>
<polygon fill="black" stroke="black" points="263.75,-250.37 260.25,-240.37 256.75,-250.37 263.75,-250.37"/>
</g>
</g>
</svg>
