<svg version="1.1" viewBox="0.0 0.0 958.98687664042 329.6929133858268" fill="none" stroke="none" stroke-linecap="square" stroke-miterlimit="10" xmlns:xlink="http://www.w3.org/1999/xlink" xmlns="http://www.w3.org/2000/svg"><clipPath id="p.0"><path d="m0 0l958.9869 0l0 329.6929l-958.9869 0l0 -329.6929z" clip-rule="nonzero"/></clipPath><g clip-path="url(#p.0)"><path fill="#000000" fill-opacity="0.0" d="m0 0l958.9869 0l0 329.6929l-958.9869 0z" fill-rule="evenodd"/><path fill="#d9d2e9" d="m7.0 96.109474l57.574806 0l0 42.803154l-57.574806 0z" fill-rule="evenodd"/><path stroke="#ffffff" stroke-width="1.0" stroke-linejoin="round" stroke-linecap="butt" d="m7.0 96.109474l57.574806 0l0 42.803154l-57.574806 0z" fill-rule="evenodd"/><path fill="#d9d2e9" d="m7.0 52.732285l57.574806 0l0 42.803146l-57.574806 0z" fill-rule="evenodd"/><path stroke="#ffffff" stroke-width="1.0" stroke-linejoin="round" stroke-linecap="butt" d="m7.0 52.732285l57.574806 0l0 42.803146l-57.574806 0z" fill-rule="evenodd"/><path fill="#d9d2e9" d="m7.0 139.48671l57.574806 0l0 42.803146l-57.574806 0z" fill-rule="evenodd"/><path stroke="#ffffff" stroke-width="1.0" stroke-linejoin="round" stroke-linecap="butt" d="m7.0 139.48671l57.574806 0l0 42.803146l-57.574806 0z" fill-rule="evenodd"/><path fill="#d9d2e9" d="m132.25197 110.37411l57.5748 0l0 14.20472l-57.5748 0z" fill-rule="evenodd"/><path stroke="#ffffff" stroke-width="1.0" stroke-linejoin="round" stroke-linecap="butt" d="m132.25197 110.37411l57.5748 0l0 14.20472l-57.5748 0z" fill-rule="evenodd"/><path fill="#d9d2e9" d="m257.50394 160.34908l57.5748 0l0 14.204727l-57.5748 0z" fill-rule="evenodd"/><path stroke="#ffffff" stroke-width="1.0" stroke-linejoin="round" stroke-linecap="butt" d="m257.50394 160.34908l57.5748 0l0 14.204727l-57.5748 0z" fill-rule="evenodd"/><path fill="#d9d2e9" d="m132.25197 220.28285l57.5748 0l0 14.204727l-57.5748 0z" fill-rule="evenodd"/><path stroke="#ffffff" stroke-width="1.0" stroke-linejoin="round" stroke-linecap="butt" d="m132.25197 220.28285l57.5748 0l0 14.204727l-57.5748 0z" fill-rule="evenodd"/><path fill="#000000" fill-opacity="0.0" d="m64.57481 74.13386c16.590546 0 24.885826 10.629921 33.1811 21.259842c8.295273 10.629921 16.590553 21.259842 33.181107 21.259842" fill-rule="evenodd"/><path stroke="#000000" stroke-width="1.0" stroke-linejoin="round" stroke-linecap="butt" d="m64.57481 74.13386c16.590546 0 24.885826 10.629921 33.1811 21.259842c4.1476364 5.3149643 8.295273 10.629921 13.47982 14.616142c2.5922775 1.9931107 5.443779 3.6540375 8.68412 4.816681c0.8100815 0.29066467 1.6444702 0.5501785 2.505188 0.7759628c0.43036652 0.11289215 0.86730194 0.21735382 1.3110733 0.31305695c0.22188568 0.047843933 0.44548798 0.09349823 0.67082214 0.13693237l0.5510483 0.09993744" fill-rule="evenodd"/><path fill="#000000" stroke="#000000" stroke-width="1.0" stroke-linecap="butt" d="m124.820015 117.79837l4.6601944 -1.2669296l-4.3842773 -2.024994z" fill-rule="evenodd"/><path fill="#000000" fill-opacity="0.0" d="m64.57481 204.26361c16.919228 0 25.377823 5.7795258 33.838455 11.5590515c8.460632 5.7795258 16.923294 11.559067 33.84658 11.559067" fill-rule="evenodd"/><path stroke="#000000" stroke-width="1.0" stroke-linejoin="round" stroke-linecap="butt" d="m64.57481 204.26361c16.919228 0 25.377823 5.7795258 33.838455 11.559067c4.230316 2.8897552 8.4611435 5.7795258 13.749794 7.9468384c2.6443253 1.083664 5.553108 1.9867249 8.858528 2.6188507c0.82634735 0.15803528 1.6774902 0.2991333 2.5554886 0.42190552c0.43899536 0.06137085 0.8847046 0.11816406 1.3373871 0.17018127c0.22634125 0.026031494 0.454422 0.050857544 0.6842804 0.07446289l0.6668472 0.064468384" fill-rule="evenodd"/><path fill="#000000" stroke="#000000" stroke-width="1.0" stroke-linecap="butt" d="m126.19336 228.76953l4.6059723 -1.4517212l-4.4615326 -1.848587z" fill-rule="evenodd"/><path fill="#000000" fill-opacity="0.0" d="m0 0l288.0 0l0 45.259842l-288.0 0z" fill-rule="evenodd"/><path fill="#000000" d="m14.953125 20.026875l0 1.328125q1.34375 -0.96875 2.125 -1.28125q0.78125 -0.328125 1.453125 -0.328125q1.046875 0 2.015625 0.765625q0.671875 0.515625 0.671875 1.0625q0 0.453125 -0.328125 0.78125q-0.3125 0.3125 -0.765625 0.3125q-0.390625 0 -0.828125 -0.390625q-0.4375 -0.40625 -0.78125 -0.40625q-0.4375 0 -1.328125 0.5625q-0.890625 0.5625 -2.234375 1.6875l0 3.21875l3.046875 0q0.765625 0 1.09375 0.296875q0.328125 0.296875 0.328125 0.78125q0 0.46875 -0.328125 0.765625q-0.328125 0.296875 -1.09375 0.296875l-6.453125 0q-0.765625 0 -1.09375 -0.296875q-0.328125 -0.296875 -0.328125 -0.78125q0 -0.46875 0.328125 -0.765625q0.328125 -0.296875 1.09375 -0.296875l1.28125 0l0 -5.1875l-0.78125 0q-0.765625 0 -1.09375 -0.296875q-0.328125 -0.296875 -0.328125 -0.765625q0 -0.46875 0.328125 -0.765625q0.328125 -0.296875 1.09375 -0.296875l2.90625 0zm18.59584 5.8125l-8.75 0q0.328125 0.828125 1.171875 1.34375q0.859375 0.5 2.3125 0.5q1.1875 0 3.15625 -0.5q0.8125 -0.21875 1.109375 -0.21875q0.4375 0 0.71875 0.3125q0.296875 0.296875 0.296875 0.75q0 0.421875 -0.3125 0.71875q-0.421875 0.375 -2.03125 0.734375q-1.609375 0.34375 -3.09375 0.34375q-2.5625 0 -4.109375 -1.4375q-1.53125 -1.453125 -1.53125 -3.578125q0 -2.25 1.65625 -3.65625q1.671875 -1.40625 3.828125 -1.40625q1.3125 0 2.390625 0.453125q1.09375 0.453125 1.625 0.984375q0.75 0.78125 1.234375 1.90625q0.328125 0.796875 0.328125 1.84375l0 0.90625zm-2.359375 -2.140625q-0.484375 -0.921875 -1.28125 -1.375q-0.78125 -0.453125 -1.875 -0.453125q-1.09375 0 -1.890625 0.453125q-0.78125 0.453125 -1.28125 1.375l6.328125 0zm14.705215 -7.71875l0 11.359375l0.359375 0q0.765625 0 1.09375 0.296875q0.34375 0.296875 0.34375 0.78125q0 0.46875 -0.328125 0.765625q-0.328125 0.296875 -1.109375 0.296875l-2.484375 0l0 -0.515625q-0.734375 0.421875 -1.53125 0.640625q-0.796875 0.21875 -1.65625 0.21875q-2.40625 0 -3.875 -1.390625q-1.46875 -1.390625 -1.46875 -3.46875q0 -2.15625 1.546875 -3.6875q1.546875 -1.53125 3.765625 -1.53125q0.828125 0 1.625 0.25q0.8125 0.25 1.59375 0.765625l0 -2.65625l-0.375 0q-0.765625 0 -1.09375 -0.296875q-0.328125 -0.296875 -0.328125 -0.765625q0 -0.46875 0.328125 -0.765625q0.328125 -0.296875 1.09375 -0.296875l2.5 0zm-2.125 9.046875q0 -1.3125 -0.9375 -2.234375q-0.921875 -0.921875 -2.265625 -0.921875q-1.328125 0 -2.265625 0.921875q-0.921875 0.921875 -0.921875 2.203125q0 1.1875 0.828125 1.9375q0.84375 0.75 2.359375 0.75q1.515625 0 2.359375 -0.75q0.84375 -0.75 0.84375 -1.90625zm14.56459 -5.0l0 7.3125q0.671875 0 0.984375 0.3125q0.328125 0.296875 0.328125 0.765625q0 0.46875 -0.328125 0.765625q-0.328125 0.296875 -1.09375 0.296875l-2.03125 0l0 -0.484375q-0.90625 0.40625 -1.75 0.609375q-0.828125 0.21875 -1.578125 0.21875q-1.046875 0 -1.828125 -0.4375q-0.765625 -0.453125 -1.21875 -1.234375q-0.3125 -0.5625 -0.3125 -1.40625l0 -4.59375l-0.375 0q-0.765625 0 -1.09375 -0.296875q-0.328125 -0.296875 -0.328125 -0.765625q0 -0.46875 0.328125 -0.765625q0.328125 -0.296875 1.09375 -0.296875l2.5 0l0 6.34375q0 0.6875 0.328125 1.0q0.328125 0.3125 1.015625 0.3125q0.640625 0 1.375 -0.25q0.75 -0.25 1.84375 -0.921875l0 -4.359375l-0.765625 0q-0.765625 0 -1.09375 -0.296875q-0.328125 -0.296875 -0.328125 -0.765625q0 -0.46875 0.328125 -0.765625q0.328125 -0.296875 1.09375 -0.296875l2.90625 0zm11.59584 0.375q0.375 -0.359375 0.78125 -0.359375q0.453125 0 0.75 0.328125q0.296875 0.328125 0.296875 1.09375l0 1.375q0 0.765625 -0.296875 1.09375q-0.296875 0.3125 -0.765625 0.3125q-0.4375 0 -0.734375 -0.25q-0.21875 -0.1875 -0.34375 -0.765625q-0.125 -0.578125 -0.609375 -0.859375q-0.84375 -0.5 -2.15625 -0.5q-1.515625 0 -2.421875 0.890625q-0.90625 0.890625 -0.90625 2.234375q0 1.25 0.875 1.984375q0.875 0.71875 2.90625 0.71875q1.328125 0 2.171875 -0.265625q0.5 -0.171875 0.9375 -0.5625q0.453125 -0.40625 0.8125 -0.40625q0.4375 0 0.75 0.328125q0.328125 0.3125 0.328125 0.75q0 0.703125 -0.96875 1.34375q-1.4375 0.953125 -4.203125 0.953125q-2.484375 0 -3.875 -1.03125q-1.875 -1.390625 -1.875 -3.796875q0 -2.28125 1.515625 -3.765625q1.53125 -1.5 3.96875 -1.5q0.890625 0 1.640625 0.171875q0.765625 0.15625 1.421875 0.484375zm8.93959 1.75l0 4.28125q0 0.6875 0.28125 0.90625q0.4375 0.34375 1.5625 0.34375q1.640625 0 3.015625 -0.6875q0.53125 -0.28125 0.828125 -0.28125q0.421875 0 0.71875 0.3125q0.3125 0.3125 0.3125 0.765625q0 0.421875 -0.328125 0.71875q-0.515625 0.484375 -2.015625 0.90625q-1.5 0.40625 -2.53125 0.40625q-1.984375 0 -2.984375 -0.859375q-1.0 -0.859375 -1.0 -2.109375l0 -4.703125l-0.765625 0q-0.765625 0 -1.09375 -0.296875q-0.328125 -0.296875 -0.328125 -0.765625q0 -0.46875 0.328125 -0.765625q0.328125 -0.296875 1.09375 -0.296875l0.765625 0l0 -1.921875q0 -0.78125 0.296875 -1.109375q0.296875 -0.328125 0.78125 -0.328125q0.46875 0 0.765625 0.328125q0.296875 0.328125 0.296875 1.109375l0 1.921875l3.953125 0q0.765625 0 1.09375 0.296875q0.328125 0.296875 0.328125 0.765625q0 0.46875 -0.328125 0.765625q-0.328125 0.296875 -1.09375 0.296875l-3.953125 0zm14.09584 -6.171875l0 2.25l-2.546875 0l0 -2.25l2.546875 0zm0.28125 4.046875l0 7.3125l2.5625 0q0.765625 0 1.09375 0.296875q0.328125 0.296875 0.328125 0.78125q0 0.46875 -0.328125 0.765625q-0.328125 0.296875 -1.09375 0.296875l-7.25 0q-0.78125 0 -1.109375 -0.296875q-0.328125 -0.296875 -0.328125 -0.78125q0 -0.46875 0.328125 -0.765625q0.328125 -0.296875 1.109375 -0.296875l2.5625 0l0 -5.1875l-1.71875 0q-0.765625 0 -1.109375 -0.296875q-0.328125 -0.296875 -0.328125 -0.765625q0 -0.46875 0.328125 -0.765625q0.328125 -0.296875 1.109375 -0.296875l3.84375 0zm17.28334 4.90625q0 1.21875 -0.6875 2.375q-0.671875 1.15625 -2.015625 1.84375q-1.34375 0.671875 -2.8125 0.671875q-1.46875 0 -2.796875 -0.671875q-1.328125 -0.671875 -2.03125 -1.828125q-0.703125 -1.15625 -0.703125 -2.421875q0 -1.28125 0.703125 -2.515625q0.71875 -1.234375 2.046875 -1.9375q1.328125 -0.703125 2.78125 -0.703125q1.453125 0 2.796875 0.71875q1.359375 0.71875 2.03125 1.953125q0.6875 1.21875 0.6875 2.515625zm-2.125 0q0 -1.03125 -0.734375 -1.890625q-1.015625 -1.171875 -2.65625 -1.171875q-1.453125 0 -2.421875 0.9375q-0.96875 0.921875 -0.96875 2.140625q0 1.0 0.96875 1.875q0.984375 0.859375 2.421875 0.859375q1.4375 0 2.40625 -0.859375q0.984375 -0.875 0.984375 -1.890625zm7.2208405 -4.90625l0 0.71875q0.59375 -0.5 1.296875 -0.75q0.703125 -0.25 1.515625 -0.25q1.90625 0 3.0 1.171875q0.875 0.9375 0.875 2.453125l0 3.96875q0.671875 0 1.0 0.296875q0.328125 0.296875 0.328125 0.78125q0 0.46875 -0.328125 0.765625q-0.328125 0.296875 -1.109375 0.296875l-1.921875 0q-0.765625 0 -1.09375 -0.296875q-0.328125 -0.296875 -0.328125 -0.78125q0 -0.46875 0.3125 -0.765625q0.328125 -0.296875 1.015625 -0.296875l0 -4.03125q0 -0.6875 -0.375 -1.015625q-0.5 -0.421875 -1.46875 -0.421875q-0.75 0 -1.3125 0.296875q-0.546875 0.28125 -1.40625 1.203125l0 3.96875q0.828125 0 1.0625 0.15625q0.515625 0.3125 0.515625 0.921875q0 0.46875 -0.328125 0.765625q-0.328125 0.296875 -1.09375 0.296875l-2.4375 0q-0.765625 0 -1.09375 -0.296875q-0.328125 -0.296875 -0.328125 -0.78125q0 -0.578125 0.5 -0.90625q0.25 -0.15625 1.078125 -0.15625l0 -5.1875q-0.6875 0 -1.015625 -0.296875q-0.3125 -0.296875 -0.3125 -0.765625q0 -0.46875 0.328125 -0.765625q0.328125 -0.296875 1.09375 -0.296875l2.03125 0zm27.00418 4.265625q0 -1.828125 0.59375 -3.6875q0.453125 -1.375 1.390625 -3.0625q0.671875 -1.203125 1.0 -1.46875q0.328125 -0.28125 0.71875 -0.28125q0.453125 0 0.765625 0.3125q0.3125 0.3125 0.3125 0.75q0 0.296875 -0.25 0.71875q-1.125 1.828125 -1.640625 3.453125q-0.515625 1.609375 -0.515625 3.265625q0 1.671875 0.515625 3.28125q0.515625 1.609375 1.640625 3.453125q0.25 0.40625 0.25 0.71875q0 0.4375 -0.3125 0.75q-0.3125 0.3125 -0.765625 0.3125q-0.390625 0 -0.671875 -0.25q-0.421875 -0.359375 -1.109375 -1.625q-0.984375 -1.84375 -1.359375 -3.046875q-0.5625 -1.828125 -0.5625 -3.59375zm15.861465 -1.765625q-0.515625 -0.328125 -1.09375 -0.484375q-0.5625 -0.171875 -1.1875 -0.171875q-1.25 0 -1.96875 0.40625q-0.328125 0.1875 -0.328125 0.390625q0 0.234375 0.4375 0.46875q0.328125 0.171875 1.484375 0.328125q2.125 0.28125 2.96875 0.578125q1.09375 0.390625 1.671875 1.15625q0.59375 0.75 0.59375 1.59375q0 1.140625 -1.0 1.921875q-1.453125 1.109375 -3.765625 1.109375q-0.921875 0 -1.71875 -0.171875q-0.78125 -0.15625 -1.4375 -0.46875q-0.15625 0.140625 -0.328125 0.21875q-0.171875 0.0625 -0.359375 0.0625q-0.5 0 -0.796875 -0.328125q-0.296875 -0.328125 -0.296875 -1.09375l0 -0.71875q0 -0.765625 0.296875 -1.09375q0.296875 -0.328125 0.765625 -0.328125q0.390625 0 0.640625 0.21875q0.265625 0.203125 0.421875 0.71875q0.484375 0.421875 1.171875 0.640625q0.6875 0.203125 1.578125 0.203125q1.46875 0 2.28125 -0.453125q0.390625 -0.234375 0.390625 -0.484375q0 -0.40625 -0.546875 -0.6875q-0.5625 -0.265625 -2.28125 -0.453125q-2.578125 -0.265625 -3.4375 -1.046875q-0.875 -0.75 -0.875 -1.875q0 -1.140625 0.96875 -1.90625q1.3125 -1.03125 3.4375 -1.03125q0.75 0 1.421875 0.140625q0.6875 0.140625 1.3125 0.421875q0.203125 -0.140625 0.375 -0.203125q0.171875 -0.078125 0.3125 -0.078125q0.4375 0 0.71875 0.328125q0.296875 0.328125 0.296875 1.09375l0 0.515625q0 0.703125 -0.15625 0.953125q-0.34375 0.484375 -0.90625 0.484375q-0.390625 0 -0.6875 -0.234375q-0.28125 -0.25 -0.375 -0.640625zm15.03334 -2.5l0 7.3125q0.671875 0 0.984375 0.3125q0.328125 0.296875 0.328125 0.765625q0 0.46875 -0.328125 0.765625q-0.328125 0.296875 -1.09375 0.296875l-2.03125 0l0 -0.484375q-0.90625 0.40625 -1.75 0.609375q-0.828125 0.21875 -1.578125 0.21875q-1.046875 0 -1.828125 -0.4375q-0.765625 -0.453125 -1.21875 -1.234375q-0.3125 -0.5625 -0.3125 -1.40625l0 -4.59375l-0.375 0q-0.765625 0 -1.09375 -0.296875q-0.328125 -0.296875 -0.328125 -0.765625q0 -0.46875 0.328125 -0.765625q0.328125 -0.296875 1.09375 -0.296875l2.5 0l0 6.34375q0 0.6875 0.328125 1.0q0.328125 0.3125 1.015625 0.3125q0.640625 0 1.375 -0.25q0.75 -0.25 1.84375 -0.921875l0 -4.359375l-0.765625 0q-0.765625 0 -1.09375 -0.296875q-0.328125 -0.296875 -0.328125 -0.765625q0 -0.46875 0.328125 -0.765625q0.328125 -0.296875 1.09375 -0.296875l2.90625 0zm4.9708405 0l0 0.59375q0.515625 -0.5 0.9375 -0.6875q0.421875 -0.203125 0.96875 -0.203125q0.46875 0 0.921875 0.234375q0.46875 0.21875 0.90625 0.6875q0.546875 -0.46875 1.109375 -0.6875q0.578125 -0.21875 1.171875 -0.21875q1.1875 0 1.921875 0.625q0.984375 0.84375 0.984375 2.1875l0 4.78125q0.65625 0 0.984375 0.3125q0.328125 0.296875 0.328125 0.765625q0 0.46875 -0.328125 0.765625q-0.328125 0.296875 -1.09375 0.296875l-2.03125 0l0 -6.734375q0 -0.5 -0.171875 -0.6875q-0.171875 -0.1875 -0.546875 -0.1875q-0.34375 0 -0.65625 0.1875q-0.375 0.265625 -0.9375 0.984375l0 4.296875q0.671875 0 0.984375 0.3125q0.328125 0.296875 0.328125 0.765625q0 0.46875 -0.328125 0.765625q-0.3125 0.296875 -1.078125 0.296875l-2.03125 0l0 -6.734375q0 -0.484375 -0.1875 -0.671875q-0.1875 -0.203125 -0.546875 -0.203125q-0.375 0 -0.75 0.234375q-0.359375 0.234375 -0.859375 0.9375l0 4.296875q0.65625 0 0.984375 0.3125q0.328125 0.296875 0.328125 0.765625q0 0.46875 -0.328125 0.765625q-0.328125 0.296875 -1.09375 0.296875l-1.921875 0q-0.78125 0 -1.109375 -0.296875q-0.328125 -0.296875 -0.328125 -0.78125q0 -0.46875 0.328125 -0.765625q0.328125 -0.296875 1.0 -0.296875l0 -5.1875q-0.671875 0 -1.0 -0.296875q-0.328125 -0.296875 -0.328125 -0.765625q0 -0.46875 0.328125 -0.765625q0.328125 -0.296875 1.109375 -0.296875l2.03125 0zm17.00209 4.265625q0 1.828125 -0.609375 3.703125q-0.4375 1.375 -1.375 3.046875q-0.6875 1.203125 -1.015625 1.484375q-0.3125 0.28125 -0.703125 0.28125q-0.46875 0 -0.78125 -0.3125q-0.3125 -0.3125 -0.3125 -0.75q0 -0.3125 0.25 -0.71875q1.125 -1.84375 1.640625 -3.453125q0.515625 -1.609375 0.515625 -3.28125q0 -1.65625 -0.515625 -3.265625q-0.515625 -1.625 -1.640625 -3.453125q-0.25 -0.421875 -0.25 -0.71875q0 -0.4375 0.3125 -0.75q0.3125 -0.3125 0.78125 -0.3125q0.375 0 0.671875 0.25q0.421875 0.34375 1.109375 1.625q0.984375 1.84375 1.34375 3.03125q0.578125 1.84375 0.578125 3.59375z" fill-rule="nonzero"/><path fill="#000000" fill-opacity="0.0" d="m64.57481 117.511055c16.919228 0 25.377823 0.01574707 33.838455 0.03149414c8.460632 0.01574707 16.923294 0.03149414 33.84658 0.03149414" fill-rule="evenodd"/><path stroke="#000000" stroke-width="1.0" stroke-linejoin="round" stroke-linecap="butt" d="m64.57481 117.511055c16.919228 0 25.377823 0.01574707 33.838455 0.03149414c4.230316 0.007873535 8.4611435 0.01574707 13.749794 0.021652222c2.6443253 0.0029525757 5.553108 0.00541687 8.858528 0.007133484l5.2382584 0.0012664795" fill-rule="evenodd"/><path fill="#000000" stroke="#000000" stroke-width="1.0" stroke-linecap="butt" d="m126.259445 119.224335l4.538498 -1.6506424l-4.5377045 -1.6528244z" fill-rule="evenodd"/><path fill="#000000" fill-opacity="0.0" d="m189.82677 227.38521c16.919235 0 25.377838 -14.984253 33.83847 -29.968506c8.460617 -14.984253 16.923279 -29.968506 33.846573 -29.968506" fill-rule="evenodd"/><path stroke="#000000" stroke-width="1.0" stroke-linejoin="round" stroke-linecap="butt" d="m189.82677 227.38521c16.919235 0 25.377838 -14.984253 33.83847 -29.968506c4.230316 -7.4921265 8.461136 -14.984253 13.749786 -20.603348c2.6443176 -2.8095398 5.553116 -5.150833 8.8585205 -6.789734c1.6526947 -0.81944275 3.4045715 -1.4633026 5.2720947 -1.902298l0.0039367676 -9.0026855E-4" fill-rule="evenodd"/><path fill="#000000" stroke="#000000" stroke-width="1.0" stroke-linecap="butt" d="m251.73465 169.76176l4.324463 -2.1497803l-4.69458 -1.1328888z" fill-rule="evenodd"/><path fill="#000000" fill-opacity="0.0" d="m189.82677 117.47647c16.919235 0 25.377838 12.496063 33.83847 24.992126c8.460617 12.496063 16.923279 24.992126 33.846573 24.992126" fill-rule="evenodd"/><path stroke="#000000" stroke-width="1.0" stroke-linejoin="round" stroke-linecap="butt" d="m189.82677 117.47647c16.919235 0 25.377838 12.496063 33.83847 24.992126c4.230316 6.2480316 8.461136 12.496063 13.749786 17.182083c2.6443176 2.3430176 5.553116 4.295517 8.8585205 5.662277c0.826355 0.34169006 1.6774902 0.6467743 2.555481 0.91218567c0.43899536 0.13272095 0.88471985 0.25550842 1.3374023 0.36801147c0.22634888 0.056243896 0.45443726 0.10992432 0.68429565 0.16098022c0.11491394 0.025512695 0.23028564 0.05038452 0.34609985 0.07460022l0.34144592 0.06915283" fill-rule="evenodd"/><path fill="#000000" stroke="#000000" stroke-width="1.0" stroke-linecap="butt" d="m251.38333 168.54233l4.6730347 -1.2187347l-4.363159 -2.07016z" fill-rule="evenodd"/><path fill="#d9d2e9" d="m382.7638 160.23885l57.5748 0l0 14.425201l-57.5748 0z" fill-rule="evenodd"/><path stroke="#ffffff" stroke-width="1.0" stroke-linejoin="round" stroke-linecap="butt" d="m382.7638 160.23885l57.5748 0l0 14.425201l-57.5748 0z" fill-rule="evenodd"/><path fill="#000000" fill-opacity="0.0" d="m315.07874 167.45145c16.921265 0 25.381897 0.01574707 33.84253 0.03149414c8.460632 0.01574707 16.921265 0.03149414 33.84253 0.03149414" fill-rule="evenodd"/><path stroke="#000000" stroke-width="1.0" stroke-linejoin="round" stroke-linecap="butt" d="m315.07874 167.45145c16.921265 0 25.381897 0.01574707 33.84253 0.03149414c4.230316 0.007873535 8.460632 0.01574707 13.748505 0.021652222c2.6439514 0.002960205 5.552307 0.00541687 8.857208 0.0071411133l5.2368164 0.0012512207" fill-rule="evenodd"/><path fill="#000000" stroke="#000000" stroke-width="1.0" stroke-linecap="butt" d="m376.7634 169.16472l4.5384827 -1.6506348l-4.537689 -1.652832z" fill-rule="evenodd"/><path fill="#000000" fill-opacity="0.0" d="m141.62993 283.39896l133.98424 0l0 38.771637l-133.98424 0z" fill-rule="evenodd"/><path fill="#000000" d="m160.21971 302.25894l0 3.21875q0 0.515625 0.21875 0.671875q0.328125 0.265625 1.171875 0.265625q1.21875 0 2.265625 -0.53125q0.390625 -0.203125 0.625 -0.203125q0.3125 0 0.53125 0.234375q0.234375 0.234375 0.234375 0.578125q0 0.3125 -0.25 0.53125q-0.375 0.375 -1.515625 0.6875q-1.125 0.3125 -1.890625 0.3125q-1.5 0 -2.25 -0.640625q-0.734375 -0.65625 -0.734375 -1.59375l0 -3.53125l-0.578125 0q-0.578125 0 -0.828125 -0.21875q-0.25 -0.21875 -0.25 -0.578125q0 -0.359375 0.25 -0.578125q0.25 -0.21875 0.828125 -0.21875l0.578125 0l0 -1.453125q0 -0.578125 0.21875 -0.8125q0.21875 -0.25 0.578125 -0.25q0.359375 0 0.578125 0.25q0.21875 0.234375 0.21875 0.8125l0 1.453125l2.96875 0q0.578125 0 0.8125 0.21875q0.25 0.21875 0.25 0.578125q0 0.359375 -0.25 0.578125q-0.234375 0.21875 -0.8125 0.21875l-2.96875 0zm9.6640625 -1.59375l0 1.0q1.015625 -0.734375 1.59375 -0.96875q0.578125 -0.25 1.09375 -0.25q0.78125 0 1.515625 0.578125q0.5 0.390625 0.5 0.796875q0 0.34375 -0.25 0.59375q-0.234375 0.234375 -0.5625 0.234375q-0.296875 0 -0.625 -0.296875q-0.328125 -0.296875 -0.59375 -0.296875q-0.328125 0 -1.0 0.421875q-0.671875 0.421875 -1.671875 1.265625l0 2.40625l2.28125 0q0.578125 0 0.828125 0.234375q0.25 0.21875 0.25 0.578125q0 0.34375 -0.25 0.578125q-0.25 0.21875 -0.828125 0.21875l-4.828125 0q-0.578125 0 -0.828125 -0.21875q-0.25 -0.234375 -0.25 -0.59375q0 -0.34375 0.25 -0.5625q0.25 -0.234375 0.828125 -0.234375l0.953125 0l0 -3.890625l-0.578125 0q-0.578125 0 -0.828125 -0.21875q-0.25 -0.21875 -0.25 -0.578125q0 -0.359375 0.25 -0.578125q0.25 -0.21875 0.828125 -0.21875l2.171875 0zm13.9609375 4.359375l-6.578125 0q0.25 0.625 0.890625 1.015625q0.640625 0.375 1.71875 0.375q0.890625 0 2.375 -0.390625q0.609375 -0.15625 0.84375 -0.15625q0.3125 0 0.53125 0.234375q0.21875 0.21875 0.21875 0.5625q0 0.3125 -0.234375 0.53125q-0.3125 0.296875 -1.53125 0.5625q-1.203125 0.265625 -2.3125 0.265625q-1.921875 0 -3.078125 -1.09375q-1.15625 -1.09375 -1.15625 -2.671875q0 -1.6875 1.25 -2.75q1.25 -1.0625 2.875 -1.0625q0.96875 0 1.78125 0.34375q0.828125 0.34375 1.21875 0.75q0.5625 0.578125 0.9375 1.421875q0.25 0.59375 0.25 1.375l0 0.6875zm-1.78125 -1.609375q-0.359375 -0.6875 -0.953125 -1.015625q-0.59375 -0.34375 -1.421875 -0.34375q-0.8125 0 -1.40625 0.34375q-0.59375 0.328125 -0.96875 1.015625l4.75 0zm11.3828125 1.609375l-6.578125 0q0.25 0.625 0.890625 1.015625q0.640625 0.375 1.71875 0.375q0.890625 0 2.375 -0.390625q0.609375 -0.15625 0.84375 -0.15625q0.3125 0 0.53125 0.234375q0.21875 0.21875 0.21875 0.5625q0 0.3125 -0.234375 0.53125q-0.3125 0.296875 -1.53125 0.5625q-1.203125 0.265625 -2.3125 0.265625q-1.921875 0 -3.078125 -1.09375q-1.15625 -1.09375 -1.15625 -2.671875q0 -1.6875 1.25 -2.75q1.25 -1.0625 2.875 -1.0625q0.96875 0 1.78125 0.34375q0.828125 0.34375 1.21875 0.75q0.5625 0.578125 0.9375 1.421875q0.25 0.59375 0.25 1.375l0 0.6875zm-1.78125 -1.609375q-0.359375 -0.6875 -0.953125 -1.015625q-0.59375 -0.34375 -1.421875 -0.34375q-0.8125 0 -1.40625 0.34375q-0.59375 0.328125 -0.96875 1.015625l4.75 0zm16.625 -2.75l0 1.0q1.015625 -0.734375 1.59375 -0.96875q0.578125 -0.25 1.09375 -0.25q0.78125 0 1.515625 0.578125q0.5 0.390625 0.5 0.796875q0 0.34375 -0.25 0.59375q-0.234375 0.234375 -0.5625 0.234375q-0.296875 0 -0.625 -0.296875q-0.328125 -0.296875 -0.59375 -0.296875q-0.328125 0 -1.0 0.421875q-0.671875 0.421875 -1.671875 1.265625l0 2.40625l2.28125 0q0.578125 0 0.828125 0.234375q0.25 0.21875 0.25 0.578125q0 0.34375 -0.25 0.578125q-0.25 0.21875 -0.828125 0.21875l-4.828125 0q-0.578125 0 -0.828125 -0.21875q-0.25 -0.234375 -0.25 -0.59375q0 -0.34375 0.25 -0.5625q0.25 -0.234375 0.828125 -0.234375l0.953125 0l0 -3.890625l-0.578125 0q-0.578125 0 -0.828125 -0.21875q-0.25 -0.21875 -0.25 -0.578125q0 -0.359375 0.25 -0.578125q0.25 -0.21875 0.828125 -0.21875l2.171875 0zm13.9609375 4.359375l-6.578125 0q0.25 0.625 0.890625 1.015625q0.640625 0.375 1.71875 0.375q0.890625 0 2.375 -0.390625q0.609375 -0.15625 0.84375 -0.15625q0.3125 0 0.53125 0.234375q0.21875 0.21875 0.21875 0.5625q0 0.3125 -0.234375 0.53125q-0.3125 0.296875 -1.53125 0.5625q-1.203125 0.265625 -2.3125 0.265625q-1.921875 0 -3.078125 -1.09375q-1.15625 -1.09375 -1.15625 -2.671875q0 -1.6875 1.25 -2.75q1.25 -1.0625 2.875 -1.0625q0.96875 0 1.78125 0.34375q0.828125 0.34375 1.21875 0.75q0.5625 0.578125 0.9375 1.421875q0.25 0.59375 0.25 1.375l0 0.6875zm-1.78125 -1.609375q-0.359375 -0.6875 -0.953125 -1.015625q-0.59375 -0.34375 -1.421875 -0.34375q-0.8125 0 -1.40625 0.34375q-0.59375 0.328125 -0.96875 1.015625l4.75 0zm11.0390625 -5.796875l0 8.53125l0.265625 0q0.578125 0 0.828125 0.234375q0.25 0.21875 0.25 0.578125q0 0.34375 -0.25 0.578125q-0.25 0.21875 -0.828125 0.21875l-1.875 0l0 -0.390625q-0.546875 0.3125 -1.140625 0.484375q-0.59375 0.171875 -1.234375 0.171875q-1.8125 0 -2.921875 -1.046875q-1.09375 -1.046875 -1.09375 -2.609375q0 -1.625 1.15625 -2.765625q1.15625 -1.15625 2.828125 -1.15625q0.625 0 1.21875 0.203125q0.609375 0.1875 1.1875 0.5625l0 -1.984375l-0.265625 0q-0.578125 0 -0.828125 -0.21875q-0.25 -0.234375 -0.25 -0.578125q0 -0.359375 0.25 -0.578125q0.25 -0.234375 0.828125 -0.234375l1.875 0zm-1.609375 6.796875q0 -0.984375 -0.703125 -1.671875q-0.6875 -0.6875 -1.6875 -0.6875q-1.0 0 -1.703125 0.6875q-0.6875 0.6875 -0.6875 1.65625q0 0.875 0.625 1.453125q0.625 0.5625 1.765625 0.5625q1.125 0 1.75 -0.5625q0.640625 -0.578125 0.640625 -1.4375zm10.9296875 -3.75l0 5.484375q0.515625 0 0.75 0.234375q0.25 0.21875 0.25 0.578125q0 0.34375 -0.25 0.578125q-0.25 0.21875 -0.828125 0.21875l-1.515625 0l0 -0.375q-0.6875 0.3125 -1.3125 0.46875q-0.625 0.171875 -1.1875 0.171875q-0.796875 0 -1.375 -0.328125q-0.578125 -0.34375 -0.90625 -0.9375q-0.25 -0.421875 -0.25 -1.046875l0 -3.453125l-0.265625 0q-0.578125 0 -0.828125 -0.21875q-0.25 -0.21875 -0.25 -0.578125q0 -0.359375 0.25 -0.578125q0.25 -0.21875 0.828125 -0.21875l1.875 0l0 4.765625q0 0.5 0.234375 0.75q0.25 0.234375 0.765625 0.234375q0.484375 0 1.03125 -0.1875q0.5625 -0.203125 1.390625 -0.703125l0 -3.265625l-0.578125 0q-0.578125 0 -0.828125 -0.21875q-0.25 -0.21875 -0.25 -0.578125q0 -0.359375 0.25 -0.578125q0.25 -0.21875 0.828125 -0.21875l2.171875 0zm8.6953125 0.28125q0.296875 -0.265625 0.59375 -0.265625q0.34375 0 0.5625 0.25q0.234375 0.234375 0.234375 0.8125l0 1.03125q0 0.578125 -0.234375 0.828125q-0.21875 0.234375 -0.578125 0.234375q-0.328125 0 -0.546875 -0.1875q-0.171875 -0.140625 -0.265625 -0.578125q-0.09375 -0.4375 -0.453125 -0.640625q-0.625 -0.375 -1.609375 -0.375q-1.140625 0 -1.828125 0.671875q-0.671875 0.65625 -0.671875 1.671875q0 0.9375 0.65625 1.484375q0.65625 0.53125 2.171875 0.53125q1.0 0 1.640625 -0.203125q0.375 -0.125 0.703125 -0.421875q0.34375 -0.296875 0.609375 -0.296875q0.328125 0 0.5625 0.25q0.25 0.234375 0.25 0.5625q0 0.53125 -0.734375 1.0q-1.078125 0.71875 -3.15625 0.71875q-1.859375 0 -2.90625 -0.78125q-1.40625 -1.03125 -1.40625 -2.84375q0 -1.703125 1.140625 -2.828125q1.140625 -1.125 2.984375 -1.125q0.65625 0 1.21875 0.125q0.578125 0.125 1.0625 0.375zm11.132797 4.078125l-6.5781097 0q0.25 0.625 0.890625 1.015625q0.640625 0.375 1.7187347 0.375q0.890625 0 2.375 -0.390625q0.609375 -0.15625 0.84375 -0.15625q0.3125 0 0.53125 0.234375q0.21875 0.21875 0.21875 0.5625q0 0.3125 -0.234375 0.53125q-0.3125 0.296875 -1.53125 0.5625q-1.203125 0.265625 -2.3125 0.265625q-1.9218597 0 -3.0781097 -1.09375q-1.15625 -1.09375 -1.15625 -2.671875q0 -1.6875 1.25 -2.75q1.25 -1.0625 2.8749847 -1.0625q0.96875 0 1.78125 0.34375q0.828125 0.34375 1.21875 0.75q0.5625 0.578125 0.9375 1.421875q0.25 0.59375 0.25 1.375l0 0.6875zm-1.78125 -1.609375q-0.359375 -0.6875 -0.953125 -1.015625q-0.59375 -0.34375 -1.421875 -0.34375q-0.81248474 0 -1.4062347 0.34375q-0.59375 0.328125 -0.96875 1.015625l4.7499847 0z" fill-rule="nonzero"/><path fill="#000000" fill-opacity="0.0" d="m294.33597 186.07217l114.48819 0l0 38.771652l-114.48819 0z" fill-rule="evenodd"/><path fill="#000000" d="m314.62302 210.43217l0 -0.375q-0.609375 0.3125 -1.34375 0.46875q-0.71875 0.171875 -1.3125 0.171875q-1.28125 0 -2.09375 -0.6875q-0.796875 -0.6875 -0.796875 -1.515625q0 -1.0 1.015625 -1.859375q1.03125 -0.875 2.84375 -0.875q0.734375 0 1.6875 0.15625l0 -0.375q0 -0.359375 -0.3125 -0.578125q-0.3125 -0.234375 -1.171875 -0.234375q-0.71875 0 -1.84375 0.28125q-0.421875 0.09375 -0.65625 0.09375q-0.328125 0 -0.546875 -0.21875q-0.21875 -0.234375 -0.21875 -0.59375q0 -0.203125 0.078125 -0.34375q0.078125 -0.15625 0.21875 -0.25q0.140625 -0.09375 0.578125 -0.21875q0.59375 -0.15625 1.203125 -0.25q0.625 -0.109375 1.125 -0.109375q1.5 0 2.3125 0.65625q0.828125 0.640625 0.828125 1.75l0 3.296875l0.28125 0q0.578125 0 0.8125 0.234375q0.25 0.21875 0.25 0.578125q0 0.34375 -0.25 0.578125q-0.234375 0.21875 -0.8125 0.21875l-1.875 0zm0 -2.875q-0.96875 -0.1875 -1.78125 -0.1875q-0.96875 0 -1.671875 0.484375q-0.4375 0.296875 -0.4375 0.609375q0 0.234375 0.203125 0.375q0.390625 0.25 1.078125 0.25q0.578125 0 1.296875 -0.21875q0.734375 -0.234375 1.3125 -0.625l0 -0.6875zm9.9140625 -3.75l0 -0.46875l1.875 0q0.578125 0 0.828125 0.21875q0.25 0.21875 0.25 0.578125q0 0.359375 -0.25 0.578125q-0.25 0.21875 -0.828125 0.21875l-0.265625 0l0 5.84375q0 0.84375 -0.359375 1.46875q-0.359375 0.625 -1.09375 1.078125q-0.734375 0.453125 -1.65625 0.453125l-1.8125 0q-0.578125 0 -0.828125 -0.21875q-0.234375 -0.21875 -0.234375 -0.578125q0 -0.359375 0.234375 -0.578125q0.25 -0.21875 0.828125 -0.21875l1.765625 0q0.734375 0 1.140625 -0.40625q0.40625 -0.390625 0.40625 -1.0l0 -0.796875q-0.53125 0.34375 -1.078125 0.515625q-0.546875 0.1875 -1.125 0.1875q-1.640625 0 -2.75 -1.09375q-1.09375 -1.09375 -1.09375 -2.703125q0 -1.609375 1.09375 -2.6875q1.109375 -1.09375 2.75 -1.09375q0.609375 0 1.15625 0.171875q0.546875 0.171875 1.046875 0.53125zm0 3.078125q0 -0.890625 -0.65625 -1.53125q-0.65625 -0.65625 -1.5625 -0.65625q-0.921875 0 -1.578125 0.65625q-0.640625 0.640625 -0.640625 1.53125q0 0.890625 0.640625 1.53125q0.65625 0.640625 1.578125 0.640625q0.90625 0 1.5625 -0.640625q0.65625 -0.640625 0.65625 -1.53125zm9.6015625 -3.078125l0 -0.46875l1.875 0q0.578125 0 0.828125 0.21875q0.25 0.21875 0.25 0.578125q0 0.359375 -0.25 0.578125q-0.25 0.21875 -0.828125 0.21875l-0.265625 0l0 5.84375q0 0.84375 -0.359375 1.46875q-0.359375 0.625 -1.09375 1.078125q-0.734375 0.453125 -1.65625 0.453125l-1.8125 0q-0.578125 0 -0.828125 -0.21875q-0.234375 -0.21875 -0.234375 -0.578125q0 -0.359375 0.234375 -0.578125q0.25 -0.21875 0.828125 -0.21875l1.765625 0q0.734375 0 1.140625 -0.40625q0.40625 -0.390625 0.40625 -1.0l0 -0.796875q-0.53125 0.34375 -1.078125 0.515625q-0.546875 0.1875 -1.125 0.1875q-1.640625 0 -2.75 -1.09375q-1.09375 -1.09375 -1.09375 -2.703125q0 -1.609375 1.09375 -2.6875q1.109375 -1.09375 2.75 -1.09375q0.609375 0 1.15625 0.171875q0.546875 0.171875 1.046875 0.53125zm0 3.078125q0 -0.890625 -0.65625 -1.53125q-0.65625 -0.65625 -1.5625 -0.65625q-0.921875 0 -1.578125 0.65625q-0.640625 0.640625 -0.640625 1.53125q0 0.890625 0.640625 1.53125q0.65625 0.640625 1.578125 0.640625q0.90625 0 1.5625 -0.640625q0.65625 -0.640625 0.65625 -1.53125zm7.5078125 -3.546875l0 1.0q1.015625 -0.734375 1.59375 -0.96875q0.578125 -0.25 1.09375 -0.25q0.78125 0 1.515625 0.578125q0.5 0.390625 0.5 0.796875q0 0.34375 -0.25 0.59375q-0.234375 0.234375 -0.5625 0.234375q-0.296875 0 -0.625 -0.296875q-0.328125 -0.296875 -0.59375 -0.296875q-0.328125 0 -1.0 0.421875q-0.671875 0.421875 -1.671875 1.265625l0 2.40625l2.28125 0q0.578125 0 0.828125 0.234375q0.25 0.21875 0.25 0.578125q0 0.34375 -0.25 0.578125q-0.25 0.21875 -0.828125 0.21875l-4.828125 0q-0.578125 0 -0.828125 -0.21875q-0.25 -0.234375 -0.25 -0.59375q0 -0.34375 0.25 -0.5625q0.25 -0.234375 0.828125 -0.234375l0.953125 0l0 -3.890625l-0.578125 0q-0.578125 0 -0.828125 -0.21875q-0.25 -0.21875 -0.25 -0.578125q0 -0.359375 0.25 -0.578125q0.25 -0.21875 0.828125 -0.21875l2.171875 0zm13.9609375 4.359375l-6.578125 0q0.25 0.625 0.890625 1.015625q0.640625 0.375 1.71875 0.375q0.890625 0 2.375 -0.390625q0.609375 -0.15625 0.84375 -0.15625q0.3125 0 0.53125 0.234375q0.21875 0.21875 0.21875 0.5625q0 0.3125 -0.234375 0.53125q-0.3125 0.296875 -1.53125 0.5625q-1.203125 0.265625 -2.3125 0.265625q-1.921875 0 -3.078125 -1.09375q-1.15625 -1.09375 -1.15625 -2.671875q0 -1.6875 1.25 -2.75q1.25 -1.0625 2.875 -1.0625q0.96875 0 1.78125 0.34375q0.828125 0.34375 1.21875 0.75q0.5625 0.578125 0.9375 1.421875q0.25 0.59375 0.25 1.375l0 0.6875zm-1.78125 -1.609375q-0.359375 -0.6875 -0.953125 -1.015625q-0.59375 -0.34375 -1.421875 -0.34375q-0.8125 0 -1.40625 0.34375q-0.59375 0.328125 -0.96875 1.015625l4.75 0zm9.1171875 -2.28125l0 -0.46875l1.875 0q0.578125 0 0.828125 0.21875q0.25 0.21875 0.25 0.578125q0 0.359375 -0.25 0.578125q-0.25 0.21875 -0.828125 0.21875l-0.265625 0l0 5.84375q0 0.84375 -0.359375 1.46875q-0.359375 0.625 -1.09375 1.078125q-0.734375 0.453125 -1.65625 0.453125l-1.8125 0q-0.578125 0 -0.828125 -0.21875q-0.234375 -0.21875 -0.234375 -0.578125q0 -0.359375 0.234375 -0.578125q0.25 -0.21875 0.828125 -0.21875l1.765625 0q0.734375 0 1.140625 -0.40625q0.40625 -0.390625 0.40625 -1.0l0 -0.796875q-0.53125 0.34375 -1.078125 0.515625q-0.546875 0.1875 -1.125 0.1875q-1.640625 0 -2.75 -1.09375q-1.09375 -1.09375 -1.09375 -2.703125q0 -1.609375 1.09375 -2.6875q1.109375 -1.09375 2.75 -1.09375q0.609375 0 1.15625 0.171875q0.546875 0.171875 1.046875 0.53125zm0 3.078125q0 -0.890625 -0.65625 -1.53125q-0.65625 -0.65625 -1.5625 -0.65625q-0.921875 0 -1.578125 0.65625q-0.640625 0.640625 -0.640625 1.53125q0 0.890625 0.640625 1.53125q0.65625 0.640625 1.578125 0.640625q0.90625 0 1.5625 -0.640625q0.65625 -0.640625 0.65625 -1.53125zm9.2890625 3.546875l0 -0.375q-0.609375 0.3125 -1.34375 0.46875q-0.71875 0.171875 -1.3125 0.171875q-1.28125 0 -2.09375 -0.6875q-0.796875 -0.6875 -0.796875 -1.515625q0 -1.0 1.015625 -1.859375q1.03125 -0.875 2.84375 -0.875q0.734375 0 1.6875 0.15625l0 -0.375q0 -0.359375 -0.3125 -0.578125q-0.3125 -0.234375 -1.171875 -0.234375q-0.71875 0 -1.84375 0.28125q-0.421875 0.09375 -0.65625 0.09375q-0.328125 0 -0.546875 -0.21875q-0.21875 -0.234375 -0.21875 -0.59375q0 -0.203125 0.078125 -0.34375q0.078125 -0.15625 0.21875 -0.25q0.140625 -0.09375 0.578125 -0.21875q0.59375 -0.15625 1.203125 -0.25q0.625 -0.109375 1.125 -0.109375q1.5 0 2.3125 0.65625q0.828125 0.640625 0.828125 1.75l0 3.296875l0.28125 0q0.578125 0 0.8125 0.234375q0.25 0.21875 0.25 0.578125q0 0.34375 -0.25 0.578125q-0.234375 0.21875 -0.8125 0.21875l-1.875 0zm0 -2.875q-0.96875 -0.1875 -1.78125 -0.1875q-0.96875 0 -1.671875 0.484375q-0.4375 0.296875 -0.4375 0.609375q0 0.234375 0.203125 0.375q0.390625 0.25 1.078125 0.25q0.578125 0 1.296875 -0.21875q0.734375 -0.234375 1.3125 -0.625l0 -0.6875zm7.7578125 -2.625l0 3.21875q0 0.515625 0.21875 0.671875q0.328125 0.265625 1.171875 0.265625q1.21875 0 2.265625 -0.53125q0.390625 -0.203125 0.625 -0.203125q0.3125 0 0.53125 0.234375q0.234375 0.234375 0.234375 0.578125q0 0.3125 -0.25 0.53125q-0.375 0.375 -1.515625 0.6875q-1.125 0.3125 -1.890625 0.3125q-1.5 0 -2.25 -0.640625q-0.734375 -0.65625 -0.734375 -1.59375l0 -3.53125l-0.578125 0q-0.578125 0 -0.828125 -0.21875q-0.25 -0.21875 -0.25 -0.578125q0 -0.359375 0.25 -0.578125q0.25 -0.21875 0.828125 -0.21875l0.578125 0l0 -1.453125q0 -0.578125 0.21875 -0.8125q0.21875 -0.25 0.578125 -0.25q0.359375 0 0.578125 0.25q0.21875 0.234375 0.21875 0.8125l0 1.453125l2.96875 0q0.578125 0 0.8125 0.21875q0.25 0.21875 0.25 0.578125q0 0.359375 -0.25 0.578125q-0.234375 0.21875 -0.8125 0.21875l-2.96875 0zm14.0234375 2.765625l-6.578125 0q0.25 0.625 0.890625 1.015625q0.640625 0.375 1.71875 0.375q0.890625 0 2.375 -0.390625q0.609375 -0.15625 0.84375 -0.15625q0.3125 0 0.53125 0.234375q0.21875 0.21875 0.21875 0.5625q0 0.3125 -0.234375 0.53125q-0.3125 0.296875 -1.53125 0.5625q-1.203125 0.265625 -2.3125 0.265625q-1.921875 0 -3.078125 -1.09375q-1.15625 -1.09375 -1.15625 -2.671875q0 -1.6875 1.25 -2.75q1.25 -1.0625 2.875 -1.0625q0.96875 0 1.78125 0.34375q0.828125 0.34375 1.21875 0.75q0.5625 0.578125 0.9375 1.421875q0.25 0.59375 0.25 1.375l0 0.6875zm-1.78125 -1.609375q-0.359375 -0.6875 -0.953125 -1.015625q-0.59375 -0.34375 -1.421875 -0.34375q-0.8125 0 -1.40625 0.34375q-0.59375 0.328125 -0.96875 1.015625l4.75 0z" fill-rule="nonzero"/><path fill="#000000" fill-opacity="0.0" d="m97.93433 258.4042l0 19.307495l221.37527 0l0 -19.307495" fill-rule="evenodd"/><path stroke="#000000" stroke-width="1.0" stroke-linejoin="round" stroke-linecap="butt" d="m97.93433 258.4042l0 19.307495l221.37527 0l0 -19.307495" fill-rule="evenodd"/><path fill="#d9d2e9" d="m7.0 182.86203l57.574806 0l0 42.80316l-57.574806 0z" fill-rule="evenodd"/><path stroke="#ffffff" stroke-width="1.0" stroke-linejoin="round" stroke-linecap="butt" d="m7.0 182.86203l57.574806 0l0 42.80316l-57.574806 0z" fill-rule="evenodd"/><path fill="#d9d2e9" d="m7.0 226.23737l57.574806 0l0 42.80316l-57.574806 0z" fill-rule="evenodd"/><path stroke="#ffffff" stroke-width="1.0" stroke-linejoin="round" stroke-linecap="butt" d="m7.0 226.23737l57.574806 0l0 42.80316l-57.574806 0z" fill-rule="evenodd"/><path fill="#000000" fill-opacity="0.0" d="m64.57481 160.88829c16.919228 0 25.377823 -10.850403 33.838455 -21.70079c8.460632 -10.850403 16.923294 -21.70079 33.84658 -21.70079" fill-rule="evenodd"/><path stroke="#000000" stroke-width="1.0" stroke-linejoin="round" stroke-linecap="butt" d="m64.57481 160.88829c16.919228 0 25.377823 -10.850403 33.838455 -21.70079c4.230316 -5.4252014 8.4611435 -10.850388 13.749794 -14.919289c2.6443253 -2.0344543 5.553108 -3.729828 8.858528 -4.916588c0.82634735 -0.2966919 1.6774902 -0.56159973 2.5554886 -0.7920532c0.43899536 -0.115234375 0.8847046 -0.2218628 1.3373871 -0.31954956c0.22634125 -0.048828125 0.454422 -0.095436096 0.6842804 -0.13977051l0.6811371 -0.12361908" fill-rule="evenodd"/><path fill="#000000" stroke="#000000" stroke-width="1.0" stroke-linecap="butt" d="m126.41475 119.622856l4.388077 -2.0167694l-4.6578217 -1.2756653z" fill-rule="evenodd"/><path fill="#000000" fill-opacity="0.0" d="m64.57481 247.63895c16.866142 0 25.29921 -4.826782 33.732277 -9.653549c8.433075 -4.826767 16.866142 -9.653549 33.732285 -9.653549" fill-rule="evenodd"/><path stroke="#000000" stroke-width="1.0" stroke-linejoin="round" stroke-linecap="butt" d="m64.57481 247.63895c16.866142 0 25.29921 -4.826782 33.732277 -9.653549c4.2165375 -2.4133759 8.433075 -4.826767 13.703743 -6.6368103c2.6353378 -0.90501404 5.5342026 -1.659195 8.828369 -2.1871338c0.82354736 -0.13197327 1.6717987 -0.2498169 2.5468063 -0.3523407c0.43750763 -0.051254272 0.88170624 -0.09869385 1.3328476 -0.14213562c0.22557831 -0.021743774 0.45289612 -0.04246521 0.6819687 -0.062194824l0.6426239 -0.05204773" fill-rule="evenodd"/><path fill="#000000" stroke="#000000" stroke-width="1.0" stroke-linecap="butt" d="m126.10424 230.20334l4.4742203 -1.8176727l-4.595825 -1.483551z" fill-rule="evenodd"/></g></svg>
