<svg version="1.1" viewBox="0.0 0.0 921.2729658792651 340.66141732283467" fill="none" stroke="none" stroke-linecap="square" stroke-miterlimit="10" xmlns:xlink="http://www.w3.org/1999/xlink" xmlns="http://www.w3.org/2000/svg"><clipPath id="p.0"><path d="m0 0l921.27295 0l0 340.6614l-921.27295 0l0 -340.6614z" clip-rule="nonzero"/></clipPath><g clip-path="url(#p.0)"><path fill="#000000" fill-opacity="0.0" d="m0 0l921.27295 0l0 340.6614l-921.27295 0z" fill-rule="evenodd"/><path fill="#d9d2e9" d="m9.293963 99.81239l14.425197 0l0 42.866135l-14.425197 0z" fill-rule="evenodd"/><path stroke="#ffffff" stroke-width="1.0" stroke-linejoin="round" stroke-linecap="butt" d="m9.293963 99.81239l14.425197 0l0 42.866135l-14.425197 0z" fill-rule="evenodd"/><path fill="#8e7cc3" d="m9.293963 56.40945l14.425197 0l0 42.86614l-14.425197 0z" fill-rule="evenodd"/><path stroke="#ffffff" stroke-width="1.0" stroke-linejoin="round" stroke-linecap="butt" d="m9.293963 56.40945l14.425197 0l0 42.86614l-14.425197 0z" fill-rule="evenodd"/><path fill="#d9d2e9" d="m9.293963 143.21533l14.425197 0l0 28.37796l-14.425197 0z" fill-rule="evenodd"/><path stroke="#ffffff" stroke-width="1.0" stroke-linejoin="round" stroke-linecap="butt" d="m9.293963 143.21533l14.425197 0l0 28.37796l-14.425197 0z" fill-rule="evenodd"/><path fill="#d9d2e9" d="m145.83727 157.38719l42.86615 0l0 42.86615l-42.86615 0z" fill-rule="evenodd"/><path stroke="#ffffff" stroke-width="1.0" stroke-linejoin="round" stroke-linecap="butt" d="m145.83727 157.38719l42.86615 0l0 42.86615l-42.86615 0z" fill-rule="evenodd"/><path fill="#8e7cc3" d="m145.83727 113.98425l42.86615 0l0 42.866135l-42.86615 0z" fill-rule="evenodd"/><path stroke="#ffffff" stroke-width="1.0" stroke-linejoin="round" stroke-linecap="butt" d="m145.83727 113.98425l42.86615 0l0 42.866135l-42.86615 0z" fill-rule="evenodd"/><path fill="#d9d2e9" d="m232.64316 200.79013l28.37796 0l0 28.37796l-28.37796 0z" fill-rule="evenodd"/><path stroke="#ffffff" stroke-width="1.0" stroke-linejoin="round" stroke-linecap="butt" d="m232.64316 200.79013l28.37796 0l0 28.37796l-28.37796 0z" fill-rule="evenodd"/><path fill="#d9d2e9" d="m232.64316 157.38719l28.37796 0l0 42.86615l-28.37796 0z" fill-rule="evenodd"/><path stroke="#ffffff" stroke-width="1.0" stroke-linejoin="round" stroke-linecap="butt" d="m232.64316 157.38719l28.37796 0l0 42.86615l-28.37796 0z" fill-rule="evenodd"/><path fill="#d9d2e9" d="m145.83727 200.79013l42.86615 0l0 28.37796l-42.86615 0z" fill-rule="evenodd"/><path stroke="#ffffff" stroke-width="1.0" stroke-linejoin="round" stroke-linecap="butt" d="m145.83727 200.79013l42.86615 0l0 28.37796l-42.86615 0z" fill-rule="evenodd"/><path fill="#d9d2e9" d="m189.2402 200.79013l42.86615 0l0 28.37796l-42.86615 0z" fill-rule="evenodd"/><path stroke="#ffffff" stroke-width="1.0" stroke-linejoin="round" stroke-linecap="butt" d="m189.2402 200.79013l42.86615 0l0 28.37796l-42.86615 0z" fill-rule="evenodd"/><path fill="#000000" fill-opacity="0.0" d="m23.71916 77.84252c71.779526 0 143.55905 18.078735 143.55905 36.15748" fill-rule="evenodd"/><path stroke="#000000" stroke-width="1.0" stroke-linejoin="round" stroke-linecap="butt" d="m23.71916 77.84252c35.889763 0 71.779526 4.519684 98.696846 11.29921c13.458656 3.3897629 24.674217 7.34449 32.52511 11.581696c3.9254303 2.118599 7.0097046 4.307823 9.112625 6.5323563c0.26286316 0.27806854 0.5104065 0.5566864 0.7423248 0.8357849c0.0579834 0.06977844 0.114974976 0.13957977 0.17100525 0.20941925l0.09663391 0.12264252" fill-rule="evenodd"/><path fill="#000000" stroke="#000000" stroke-width="1.0" stroke-linecap="butt" d="m163.5286 109.03326l3.2100525 3.608055l-0.13983154 -4.8273163z" fill-rule="evenodd"/><path fill="#000000" fill-opacity="0.0" d="m23.71916 226.27559c30.52939 0 45.795 -22.716537 61.058777 -45.433075c15.263779 -22.716522 30.525726 -45.43306 61.051453 -45.43306" fill-rule="evenodd"/><path stroke="#000000" stroke-width="1.0" stroke-linejoin="round" stroke-linecap="butt" d="m23.71916 226.27559c30.52939 0 45.795006 -22.716537 61.058784 -45.433075c7.6318817 -11.358261 15.263321 -22.716522 24.802498 -31.23523c4.769577 -4.2593536 10.016106 -7.8088074 15.978088 -10.2934265c2.9809875 -1.2423096 6.140854 -2.2184143 9.509384 -2.8839417c0.84213257 -0.16638184 1.6973114 -0.31333923 2.5660095 -0.44021606c0.43434143 -0.063430786 0.87205505 -0.12184143 1.3132172 -0.17512512c0.2205658 -0.026657104 0.44200134 -0.05203247 0.66430664 -0.07609558l0.22575378 -0.02305603" fill-rule="evenodd"/><path fill="#000000" stroke="#000000" stroke-width="1.0" stroke-linecap="butt" d="m139.92143 137.365l4.4479675 -1.881012l-4.6164246 -1.4181519z" fill-rule="evenodd"/><path fill="#000000" fill-opacity="0.0" d="m0 0l288.0 0l0 45.259842l-288.0 0z" fill-rule="evenodd"/><path fill="#000000" d="m12.703125 15.98l0 4.78125q0.78125 -0.515625 1.59375 -0.765625q0.8125 -0.25 1.625 -0.25q2.21875 0 3.75 1.53125q1.546875 1.53125 1.546875 3.6875q0 2.078125 -1.46875 3.46875q-1.453125 1.390625 -3.859375 1.390625q-0.859375 0 -1.65625 -0.21875q-0.78125 -0.21875 -1.53125 -0.640625l0 0.515625l-2.5 0q-0.765625 0 -1.09375 -0.296875q-0.328125 -0.296875 -0.328125 -0.78125q0 -0.46875 0.328125 -0.765625q0.34375 -0.296875 1.09375 -0.296875l0.375 0l0 -9.234375l-0.375 0q-0.765625 0 -1.09375 -0.296875q-0.328125 -0.296875 -0.328125 -0.765625q0 -0.46875 0.328125 -0.765625q0.328125 -0.296875 1.09375 -0.296875l2.5 0zm6.390625 9.046875q0 -1.3125 -0.9375 -2.234375q-0.921875 -0.921875 -2.265625 -0.921875q-1.328125 0 -2.265625 0.921875q-0.921875 0.921875 -0.921875 2.203125q0 1.1875 0.828125 1.9375q0.84375 0.75 2.359375 0.75q1.53125 0 2.359375 -0.75q0.84375 -0.75 0.84375 -1.90625zm10.173965 -9.046875l0 11.359375l2.5625 0q0.765625 0 1.09375 0.296875q0.328125 0.296875 0.328125 0.78125q0 0.46875 -0.328125 0.765625q-0.328125 0.296875 -1.09375 0.296875l-7.265625 0q-0.765625 0 -1.09375 -0.296875q-0.328125 -0.296875 -0.328125 -0.78125q0 -0.46875 0.328125 -0.765625q0.328125 -0.296875 1.09375 -0.296875l2.5625 0l0 -9.234375l-1.71875 0q-0.75 0 -1.09375 -0.296875q-0.328125 -0.296875 -0.328125 -0.765625q0 -0.46875 0.328125 -0.765625q0.328125 -0.296875 1.09375 -0.296875l3.859375 0zm17.267715 8.953125q0 1.21875 -0.6875 2.375q-0.671875 1.15625 -2.015625 1.84375q-1.34375 0.671875 -2.8125 0.671875q-1.46875 0 -2.796875 -0.671875q-1.328125 -0.671875 -2.03125 -1.828125q-0.703125 -1.15625 -0.703125 -2.421875q0 -1.28125 0.703125 -2.515625q0.71875 -1.234375 2.046875 -1.9375q1.328125 -0.703125 2.78125 -0.703125q1.453125 0 2.796875 0.71875q1.359375 0.71875 2.03125 1.953125q0.6875 1.21875 0.6875 2.515625zm-2.125 0q0 -1.03125 -0.734375 -1.890625q-1.015625 -1.171875 -2.65625 -1.171875q-1.453125 0 -2.421875 0.9375q-0.96875 0.921875 -0.96875 2.140625q0 1.0 0.96875 1.875q0.984375 0.859375 2.421875 0.859375q1.4375 0 2.40625 -0.859375q0.984375 -0.875 0.984375 -1.890625zm12.72084 -4.53125q0.375 -0.359375 0.78125 -0.359375q0.453125 0 0.75 0.328125q0.296875 0.328125 0.296875 1.09375l0 1.375q0 0.765625 -0.296875 1.09375q-0.296875 0.3125 -0.765625 0.3125q-0.4375 0 -0.734375 -0.25q-0.21875 -0.1875 -0.34375 -0.765625q-0.125 -0.578125 -0.609375 -0.859375q-0.84375 -0.5 -2.15625 -0.5q-1.515625 0 -2.421875 0.890625q-0.90625 0.890625 -0.90625 2.234375q0 1.25 0.875 1.984375q0.875 0.71875 2.90625 0.71875q1.328125 0 2.171875 -0.265625q0.5 -0.171875 0.9375 -0.5625q0.453125 -0.40625 0.8125 -0.40625q0.4375 0 0.75 0.328125q0.328125 0.3125 0.328125 0.75q0 0.703125 -0.96875 1.34375q-1.4375 0.953125 -4.203125 0.953125q-2.484375 0 -3.875 -1.03125q-1.875 -1.390625 -1.875 -3.796875q0 -2.28125 1.515625 -3.765625q1.53125 -1.5 3.96875 -1.5q0.890625 0 1.640625 0.171875q0.765625 0.15625 1.421875 0.484375zm7.7052155 5.53125l0 3.546875l-2.5 0q-0.765625 0 -1.09375 -0.296875q-0.328125 -0.296875 -0.328125 -0.78125q0 -0.46875 0.328125 -0.765625q0.34375 -0.296875 1.09375 -0.296875l0.375 0l0 -9.234375l-0.375 0q-0.765625 0 -1.09375 -0.296875q-0.328125 -0.296875 -0.328125 -0.765625q0 -0.46875 0.328125 -0.765625q0.328125 -0.296875 1.09375 -0.296875l2.5 0l0 7.1875l1.671875 -1.34375q-0.265625 -0.453125 -0.265625 -0.734375q0 -0.46875 0.328125 -0.765625q0.328125 -0.296875 1.09375 -0.296875l2.4375 0q0.765625 0 1.09375 0.296875q0.328125 0.296875 0.328125 0.765625q0 0.46875 -0.328125 0.765625q-0.328125 0.296875 -1.09375 0.296875l-0.59375 0l-2.59375 2.109375l3.484375 3.078125l0.625 0q0.765625 0 1.09375 0.296875q0.328125 0.296875 0.328125 0.78125q0 0.46875 -0.328125 0.765625q-0.328125 0.296875 -1.09375 0.296875l-2.453125 0q-0.765625 0 -1.09375 -0.296875q-0.328125 -0.296875 -0.328125 -0.78125q0 -0.40625 0.34375 -0.796875l-2.25 -2.0l-0.40625 0.328125zm14.580215 -0.390625l-1.484375 3.9375l-2.015625 0l-1.78125 -7.328125q-0.59375 -0.03125 -0.890625 -0.328125q-0.296875 -0.296875 -0.296875 -0.734375q0 -0.46875 0.328125 -0.765625q0.328125 -0.296875 1.109375 -0.296875l1.984375 0q0.765625 0 1.09375 0.296875q0.328125 0.296875 0.328125 0.765625q0 0.484375 -0.375 0.8125q-0.28125 0.25 -1.09375 0.25l0.8125 3.390625l1.3125 -3.46875l1.90625 0l1.328125 3.46875l0.828125 -3.390625q-0.78125 0 -1.03125 -0.15625q-0.5 -0.3125 -0.5 -0.90625q0 -0.46875 0.328125 -0.765625q0.328125 -0.296875 1.09375 -0.296875l2.0 0q0.78125 0 1.109375 0.296875q0.328125 0.296875 0.328125 0.765625q0 0.4375 -0.296875 0.734375q-0.28125 0.296875 -0.84375 0.328125l-1.75 7.328125l-1.96875 0l-1.5625 -3.9375zm13.548965 -9.5625l0 2.25l-2.546875 0l0 -2.25l2.546875 0zm0.28125 4.046875l0 7.3125l2.5625 0q0.765625 0 1.09375 0.296875q0.328125 0.296875 0.328125 0.78125q0 0.46875 -0.328125 0.765625q-0.328125 0.296875 -1.09375 0.296875l-7.25 0q-0.78125 0 -1.109375 -0.296875q-0.328125 -0.296875 -0.328125 -0.78125q0 -0.46875 0.328125 -0.765625q0.328125 -0.296875 1.109375 -0.296875l2.5625 0l0 -5.1875l-1.71875 0q-0.765625 0 -1.109375 -0.296875q-0.328125 -0.296875 -0.328125 -0.765625q0 -0.46875 0.328125 -0.765625q0.328125 -0.296875 1.109375 -0.296875l3.84375 0zm14.048965 2.5q-0.515625 -0.328125 -1.09375 -0.484375q-0.5625 -0.171875 -1.1875 -0.171875q-1.25 0 -1.96875 0.40625q-0.328125 0.1875 -0.328125 0.390625q0 0.234375 0.4375 0.46875q0.328125 0.171875 1.484375 0.328125q2.125 0.28125 2.96875 0.578125q1.09375 0.390625 1.671875 1.15625q0.59375 0.75 0.59375 1.59375q0 1.140625 -1.0 1.921875q-1.453125 1.109375 -3.765625 1.109375q-0.921875 0 -1.71875 -0.171875q-0.78125 -0.15625 -1.4375 -0.46875q-0.15625 0.140625 -0.328125 0.21875q-0.171875 0.0625 -0.359375 0.0625q-0.5 0 -0.796875 -0.328125q-0.296875 -0.328125 -0.296875 -1.09375l0 -0.71875q0 -0.765625 0.296875 -1.09375q0.296875 -0.328125 0.765625 -0.328125q0.390625 0 0.640625 0.21875q0.265625 0.203125 0.421875 0.71875q0.484375 0.421875 1.171875 0.640625q0.6875 0.203125 1.578125 0.203125q1.46875 0 2.28125 -0.453125q0.390625 -0.234375 0.390625 -0.484375q0 -0.40625 -0.546875 -0.6875q-0.5625 -0.265625 -2.28125 -0.453125q-2.578125 -0.265625 -3.4375 -1.046875q-0.875 -0.75 -0.875 -1.875q0 -1.140625 0.96875 -1.90625q1.3125 -1.03125 3.4375 -1.03125q0.75 0 1.421875 0.140625q0.6875 0.140625 1.3125 0.421875q0.203125 -0.140625 0.375 -0.203125q0.171875 -0.078125 0.3125 -0.078125q0.4375 0 0.71875 0.328125q0.296875 0.328125 0.296875 1.09375l0 0.515625q0 0.703125 -0.15625 0.953125q-0.34375 0.484375 -0.90625 0.484375q-0.390625 0 -0.6875 -0.234375q-0.28125 -0.25 -0.375 -0.640625zm15.84584 3.3125l-8.75 0q0.328125 0.828125 1.171875 1.34375q0.859375 0.5 2.3125 0.5q1.1875 0 3.15625 -0.5q0.8125 -0.21875 1.109375 -0.21875q0.4375 0 0.71875 0.3125q0.296875 0.296875 0.296875 0.75q0 0.421875 -0.3125 0.71875q-0.421875 0.375 -2.03125 0.734375q-1.609375 0.34375 -3.09375 0.34375q-2.5625 0 -4.109375 -1.4375q-1.53125 -1.453125 -1.53125 -3.578125q0 -2.25 1.65625 -3.65625q1.671875 -1.40625 3.828125 -1.40625q1.3125 0 2.390625 0.453125q1.09375 0.453125 1.625 0.984375q0.75 0.78125 1.234375 1.90625q0.328125 0.796875 0.328125 1.84375l0 0.90625zm-2.359375 -2.140625q-0.484375 -0.921875 -1.28125 -1.375q-0.78125 -0.453125 -1.875 -0.453125q-1.09375 0 -1.890625 0.453125q-0.78125 0.453125 -1.28125 1.375l6.328125 0zm21.84793 0.59375q0 -1.828125 0.59375 -3.6875q0.453125 -1.375 1.390625 -3.0625q0.671875 -1.203125 1.0 -1.46875q0.328125 -0.28125 0.71875 -0.28125q0.453125 0 0.765625 0.3125q0.3125 0.3125 0.3125 0.75q0 0.296875 -0.25 0.71875q-1.125 1.828125 -1.640625 3.453125q-0.515625 1.609375 -0.515625 3.265625q0 1.671875 0.515625 3.28125q0.515625 1.609375 1.640625 3.453125q0.25 0.40625 0.25 0.71875q0 0.4375 -0.3125 0.75q-0.3125 0.3125 -0.765625 0.3125q-0.390625 0 -0.671875 -0.25q-0.421875 -0.359375 -1.109375 -1.625q-0.984375 -1.84375 -1.359375 -3.046875q-0.5625 -1.828125 -0.5625 -3.59375zm19.09584 0.640625q0 1.21875 -0.6875 2.375q-0.671875 1.15625 -2.015625 1.84375q-1.34375 0.671875 -2.8125 0.671875q-1.46875 0 -2.796875 -0.671875q-1.328125 -0.671875 -2.03125 -1.828125q-0.703125 -1.15625 -0.703125 -2.421875q0 -1.28125 0.703125 -2.515625q0.71875 -1.234375 2.046875 -1.9375q1.328125 -0.703125 2.78125 -0.703125q1.453125 0 2.796875 0.71875q1.359375 0.71875 2.03125 1.953125q0.6875 1.21875 0.6875 2.515625zm-2.125 0q0 -1.03125 -0.734375 -1.890625q-1.015625 -1.171875 -2.65625 -1.171875q-1.453125 0 -2.421875 0.9375q-0.96875 0.921875 -0.96875 2.140625q0 1.0 0.96875 1.875q0.984375 0.859375 2.421875 0.859375q1.4375 0 2.40625 -0.859375q0.984375 -0.875 0.984375 -1.890625zm13.923965 -4.90625l0 7.3125q0.671875 0 0.984375 0.3125q0.328125 0.296875 0.328125 0.765625q0 0.46875 -0.328125 0.765625q-0.328125 0.296875 -1.09375 0.296875l-2.03125 0l0 -0.484375q-0.90625 0.40625 -1.75 0.609375q-0.828125 0.21875 -1.578125 0.21875q-1.046875 0 -1.828125 -0.4375q-0.765625 -0.453125 -1.21875 -1.234375q-0.3125 -0.5625 -0.3125 -1.40625l0 -4.59375l-0.375 0q-0.765625 0 -1.09375 -0.296875q-0.328125 -0.296875 -0.328125 -0.765625q0 -0.46875 0.328125 -0.765625q0.328125 -0.296875 1.09375 -0.296875l2.5 0l0 6.34375q0 0.6875 0.328125 1.0q0.328125 0.3125 1.015625 0.3125q0.640625 0 1.375 -0.25q0.75 -0.25 1.84375 -0.921875l0 -4.359375l-0.765625 0q-0.765625 0 -1.09375 -0.296875q-0.328125 -0.296875 -0.328125 -0.765625q0 -0.46875 0.328125 -0.765625q0.328125 -0.296875 1.09375 -0.296875l2.90625 0zm7.7364655 2.125l0 4.28125q0 0.6875 0.28125 0.90625q0.4375 0.34375 1.5625 0.34375q1.640625 0 3.015625 -0.6875q0.53125 -0.28125 0.828125 -0.28125q0.421875 0 0.71875 0.3125q0.3125 0.3125 0.3125 0.765625q0 0.421875 -0.328125 0.71875q-0.515625 0.484375 -2.015625 0.90625q-1.5 0.40625 -2.53125 0.40625q-1.984375 0 -2.984375 -0.859375q-1.0 -0.859375 -1.0 -2.109375l0 -4.703125l-0.765625 0q-0.765625 0 -1.09375 -0.296875q-0.328125 -0.296875 -0.328125 -0.765625q0 -0.46875 0.328125 -0.765625q0.328125 -0.296875 1.09375 -0.296875l0.765625 0l0 -1.921875q0 -0.78125 0.296875 -1.109375q0.296875 -0.328125 0.78125 -0.328125q0.46875 0 0.765625 0.328125q0.296875 0.328125 0.296875 1.109375l0 1.921875l3.953125 0q0.765625 0 1.09375 0.296875q0.328125 0.296875 0.328125 0.765625q0 0.46875 -0.328125 0.765625q-0.328125 0.296875 -1.09375 0.296875l-3.953125 0zm18.673965 3.6875l-8.75 0q0.328125 0.828125 1.171875 1.34375q0.859375 0.5 2.3125 0.5q1.1875 0 3.15625 -0.5q0.8125 -0.21875 1.109375 -0.21875q0.4375 0 0.71875 0.3125q0.296875 0.296875 0.296875 0.75q0 0.421875 -0.3125 0.71875q-0.421875 0.375 -2.03125 0.734375q-1.609375 0.34375 -3.09375 0.34375q-2.5625 0 -4.109375 -1.4375q-1.53125 -1.453125 -1.53125 -3.578125q0 -2.25 1.65625 -3.65625q1.671875 -1.40625 3.828125 -1.40625q1.3125 0 2.390625 0.453125q1.09375 0.453125 1.625 0.984375q0.75 0.78125 1.234375 1.90625q0.328125 0.796875 0.328125 1.84375l0 0.90625zm-2.359375 -2.140625q-0.484375 -0.921875 -1.28125 -1.375q-0.78125 -0.453125 -1.875 -0.453125q-1.09375 0 -1.890625 0.453125q-0.78125 0.453125 -1.28125 1.375l6.328125 0zm9.361465 -3.671875l0 1.328125q1.34375 -0.96875 2.125 -1.28125q0.78125 -0.328125 1.453125 -0.328125q1.046875 0 2.015625 0.765625q0.671875 0.515625 0.671875 1.0625q0 0.453125 -0.328125 0.78125q-0.3125 0.3125 -0.765625 0.3125q-0.390625 0 -0.828125 -0.390625q-0.4375 -0.40625 -0.78125 -0.40625q-0.4375 0 -1.328125 0.5625q-0.890625 0.5625 -2.234375 1.6875l0 3.21875l3.046875 0q0.765625 0 1.09375 0.296875q0.328125 0.296875 0.328125 0.78125q0 0.46875 -0.328125 0.765625q-0.328125 0.296875 -1.09375 0.296875l-6.453125 0q-0.765625 0 -1.09375 -0.296875q-0.328125 -0.296875 -0.328125 -0.78125q0 -0.46875 0.328125 -0.765625q0.328125 -0.296875 1.09375 -0.296875l1.28125 0l0 -5.1875l-0.78125 0q-0.765625 0 -1.09375 -0.296875q-0.328125 -0.296875 -0.328125 -0.765625q0 -0.46875 0.328125 -0.765625q0.328125 -0.296875 1.09375 -0.296875l2.90625 0zm14.15834 4.265625q0 1.828125 -0.609375 3.703125q-0.4375 1.375 -1.375 3.046875q-0.6875 1.203125 -1.015625 1.484375q-0.3125 0.28125 -0.703125 0.28125q-0.46875 0 -0.78125 -0.3125q-0.3125 -0.3125 -0.3125 -0.75q0 -0.3125 0.25 -0.71875q1.125 -1.84375 1.640625 -3.453125q0.515625 -1.609375 0.515625 -3.28125q0 -1.65625 -0.515625 -3.265625q-0.515625 -1.625 -1.640625 -3.453125q-0.25 -0.421875 -0.25 -0.71875q0 -0.4375 0.3125 -0.75q0.3125 -0.3125 0.78125 -0.3125q0.375 0 0.671875 0.25q0.421875 0.34375 1.109375 1.625q0.984375 1.84375 1.34375 3.03125q0.578125 1.84375 0.578125 3.59375z" fill-rule="nonzero"/><path fill="#d9d2e9" d="m9.293963 248.24547l14.425197 0l0 42.866135l-14.425197 0z" fill-rule="evenodd"/><path stroke="#ffffff" stroke-width="1.0" stroke-linejoin="round" stroke-linecap="butt" d="m9.293963 248.24547l14.425197 0l0 42.866135l-14.425197 0z" fill-rule="evenodd"/><path fill="#8e7cc3" d="m9.293963 204.84251l14.425197 0l0 42.86615l-14.425197 0z" fill-rule="evenodd"/><path stroke="#ffffff" stroke-width="1.0" stroke-linejoin="round" stroke-linecap="butt" d="m9.293963 204.84251l14.425197 0l0 42.86615l-14.425197 0z" fill-rule="evenodd"/><path fill="#d9d2e9" d="m9.293963 291.6484l14.425197 0l0 28.37796l-14.425197 0z" fill-rule="evenodd"/><path stroke="#ffffff" stroke-width="1.0" stroke-linejoin="round" stroke-linecap="butt" d="m9.293963 291.6484l14.425197 0l0 28.37796l-14.425197 0z" fill-rule="evenodd"/><path fill="#d9d2e9" d="m189.2402 113.98425l42.86615 0l0 42.866135l-42.86615 0z" fill-rule="evenodd"/><path stroke="#ffffff" stroke-width="1.0" stroke-linejoin="round" stroke-linecap="butt" d="m189.2402 113.98425l42.86615 0l0 42.866135l-42.86615 0z" fill-rule="evenodd"/><path fill="#d9d2e9" d="m189.2402 157.38719l42.86615 0l0 42.86615l-42.86615 0z" fill-rule="evenodd"/><path stroke="#ffffff" stroke-width="1.0" stroke-linejoin="round" stroke-linecap="butt" d="m189.2402 157.38719l42.86615 0l0 42.86615l-42.86615 0z" fill-rule="evenodd"/><path fill="#d9d2e9" d="m232.64316 113.98425l28.37796 0l0 42.866135l-28.37796 0z" fill-rule="evenodd"/><path stroke="#ffffff" stroke-width="1.0" stroke-linejoin="round" stroke-linecap="butt" d="m232.64316 113.98425l28.37796 0l0 42.866135l-28.37796 0z" fill-rule="evenodd"/><path fill="#000000" fill-opacity="0.0" d="m23.71916 226.27559c30.52939 0 45.795 -11.866135 61.058777 -23.732285c15.263779 -11.866135 30.525726 -23.732285 61.051453 -23.732285" fill-rule="evenodd"/><path stroke="#000000" stroke-width="1.0" stroke-linejoin="round" stroke-linecap="butt" d="m23.71916 226.27559c30.52939 0 45.795006 -11.866135 61.058784 -23.732285c7.6318817 -5.933075 15.263321 -11.866135 24.802498 -16.315948c4.769577 -2.2248993 10.016106 -4.0789795 15.978088 -5.3768463c2.9809875 -0.6489258 6.140854 -1.158783 9.509384 -1.506424c0.84213257 -0.08692932 1.6973114 -0.16369629 2.5660095 -0.22994995c0.43434143 -0.03314209 0.87205505 -0.06364441 1.3132172 -0.0914917c0.2205658 -0.013931274 0.44200134 -0.027175903 0.66430664 -0.039749146l0.22007751 -0.011749268" fill-rule="evenodd"/><path fill="#000000" stroke="#000000" stroke-width="1.0" stroke-linecap="butt" d="m139.87561 180.6223l4.492401 -1.7722626l-4.5805664 -1.5300293z" fill-rule="evenodd"/><path fill="#000000" fill-opacity="0.0" d="m23.71916 226.27559c30.52939 0 45.795 -2.826767 61.058777 -5.653549c15.263779 -2.826767 30.525726 -5.653534 61.051453 -5.653534" fill-rule="evenodd"/><path stroke="#000000" stroke-width="1.0" stroke-linejoin="round" stroke-linecap="butt" d="m23.71916 226.27559c30.52939 0 45.795006 -2.826767 61.058784 -5.653549c7.6318817 -1.4133759 15.263321 -2.826767 24.802498 -3.8868103c4.769577 -0.53001404 10.016106 -0.97169495 15.978088 -1.2808685c2.9809875 -0.15460205 6.140854 -0.27604675 9.509384 -0.35887146c0.84213257 -0.020706177 1.6973114 -0.039001465 2.5660095 -0.054779053c0.43434143 -0.007904053 0.87205505 -0.015167236 1.3132172 -0.02180481l0.88237 -0.011871338" fill-rule="evenodd"/><path fill="#000000" stroke="#000000" stroke-width="1.0" stroke-linecap="butt" d="m139.84012 216.65872l4.527405 -1.6808319l-4.5486145 -1.6225586z" fill-rule="evenodd"/><path fill="#000000" fill-opacity="0.0" d="m23.71916 77.84252c93.480316 0 186.96063 18.078735 186.96063 36.15748" fill-rule="evenodd"/><path stroke="#000000" stroke-width="1.0" stroke-linejoin="round" stroke-linecap="butt" d="m23.71916 77.84252c46.740158 0 93.480316 4.519684 128.53543 11.29921c17.527557 3.3897629 32.133865 7.34449 42.35826 11.581696c5.112213 2.118599 9.128937 4.307823 11.86763 6.5323563c0.34233093 0.27806854 0.6646881 0.5566864 0.96673584 0.8357849c0.15101624 0.13954926 0.2969513 0.27922058 0.4377594 0.41899872l0.11817932 0.11955261" fill-rule="evenodd"/><path fill="#000000" stroke="#000000" stroke-width="1.0" stroke-linecap="butt" d="m206.5249 109.36696l3.5027313 3.324669l-0.5462036 -4.798355z" fill-rule="evenodd"/><path fill="#000000" fill-opacity="0.0" d="m23.71916 77.84252c111.55905 0 223.1181 18.078735 223.1181 36.15748" fill-rule="evenodd"/><path stroke="#000000" stroke-width="1.0" stroke-linejoin="round" stroke-linecap="butt" d="m23.71916 77.84252c55.779526 0 111.55905 4.519684 153.39369 11.29921c20.917328 3.3897629 38.348434 7.34449 50.5502 11.581696c6.100891 2.118599 10.89444 4.307823 14.1627655 6.5323563c0.40855408 0.27806854 0.79325867 0.5566864 1.153717 0.8357849c0.18022156 0.13954926 0.35438538 0.27922058 0.5224304 0.41899872c0.08401489 0.06989288 0.1665039 0.13981628 0.2474823 0.20976257l0.09202576 0.081100464" fill-rule="evenodd"/><path fill="#000000" stroke="#000000" stroke-width="1.0" stroke-linecap="butt" d="m242.41037 109.62613l3.6969757 3.1072388l-0.8347626 -4.756653z" fill-rule="evenodd"/></g></svg>
