<svg version="1.1" viewBox="0.0 0.0 959.4619422572179 412.7742782152231" fill="none" stroke="none" stroke-linecap="square" stroke-miterlimit="10" xmlns:xlink="http://www.w3.org/1999/xlink" xmlns="http://www.w3.org/2000/svg"><clipPath id="p.0"><path d="m0 0l959.4619 0l0 412.7743l-959.4619 0l0 -412.7743z" clip-rule="nonzero"/></clipPath><g clip-path="url(#p.0)"><path fill="#000000" fill-opacity="0.0" d="m0 0l959.4619 0l0 412.7743l-959.4619 0z" fill-rule="evenodd"/><path fill="#f4cccc" d="m228.86613 312.60892l708.5354 0l0 74.48819l-708.5354 0z" fill-rule="evenodd"/><path stroke="#000000" stroke-width="1.0" stroke-linejoin="round" stroke-linecap="butt" d="m228.86613 312.60892l708.5354 0l0 74.48819l-708.5354 0z" fill-rule="evenodd"/><path fill="#000000" d="m554.44635 361.57303l0 -2.8125l11.734375 -14.671875q1.25 -1.5625 2.375 -2.71875l-12.78125 0l0 -2.703125l16.40625 0l0 2.703125l-12.859375 15.890625l-1.390625 1.609375l14.625 0l0 2.703125l-18.109375 0zm31.84375 -2.046875q-1.5625 1.328125 -3.015625 1.875q-1.4375 0.546875 -3.09375 0.546875q-2.734375 0 -4.203125 -1.328125q-1.46875 -1.34375 -1.46875 -3.421875q0 -1.21875 0.546875 -2.21875q0.5625 -1.015625 1.453125 -1.625q0.90625 -0.609375 2.03125 -0.921875q0.828125 -0.21875 2.5 -0.421875q3.40625 -0.40625 5.015625 -0.96875q0.015625 -0.578125 0.015625 -0.734375q0 -1.71875 -0.796875 -2.421875q-1.078125 -0.953125 -3.203125 -0.953125q-1.984375 0 -2.9375 0.703125q-0.9375 0.6875 -1.390625 2.453125l-2.75 -0.375q0.375 -1.765625 1.234375 -2.84375q0.859375 -1.09375 2.484375 -1.671875q1.625 -0.59375 3.765625 -0.59375q2.125 0 3.453125 0.5q1.328125 0.5 1.953125 1.265625q0.625 0.75 0.875 1.90625q0.140625 0.71875 0.140625 2.59375l0 3.75q0 3.921875 0.171875 4.96875q0.1875 1.03125 0.71875 1.984375l-2.9375 0q-0.4375 -0.875 -0.5625 -2.046875zm-0.234375 -6.28125q-1.53125 0.625 -4.59375 1.0625q-1.734375 0.25 -2.453125 0.5625q-0.71875 0.3125 -1.109375 0.921875q-0.390625 0.59375 -0.390625 1.328125q0 1.125 0.84375 1.875q0.859375 0.75 2.5 0.75q1.625 0 2.890625 -0.703125q1.265625 -0.71875 1.859375 -1.953125q0.453125 -0.953125 0.453125 -2.8125l0 -1.03125zm7.171875 8.328125l0 -16.59375l2.53125 0l0 2.515625q0.96875 -1.765625 1.78125 -2.328125q0.828125 -0.5625 1.8125 -0.5625q1.421875 0 2.890625 0.90625l-0.96875 2.609375q-1.03125 -0.609375 -2.0625 -0.609375q-0.921875 0 -1.65625 0.5625q-0.734375 0.546875 -1.046875 1.53125q-0.46875 1.5 -0.46875 3.28125l0 8.6875l-2.8125 0zm10.65625 0l0 -16.59375l2.53125 0l0 2.515625q0.96875 -1.765625 1.78125 -2.328125q0.828125 -0.5625 1.8125 -0.5625q1.421875 0 2.890625 0.90625l-0.96875 2.609375q-1.03125 -0.609375 -2.0625 -0.609375q-0.921875 0 -1.65625 0.5625q-0.734375 0.546875 -1.046875 1.53125q-0.46875 1.5 -0.46875 3.28125l0 8.6875l-2.8125 0z" fill-rule="nonzero"/><path fill="#f4cccc" d="m228.86613 238.12073l208.15749 0l0 74.48819l-208.15749 0z" fill-rule="evenodd"/><path stroke="#000000" stroke-width="1.0" stroke-linejoin="round" stroke-linecap="butt" d="m228.86613 238.12073l208.15749 0l0 74.48819l-208.15749 0z" fill-rule="evenodd"/><path fill="#000000" d="m285.60114 287.08484l0 -22.90625l8.640625 0q2.28125 0 3.484375 0.21875q1.6875 0.28125 2.828125 1.078125q1.140625 0.78125 1.828125 2.203125q0.703125 1.421875 0.703125 3.125q0 2.921875 -1.859375 4.953125q-1.859375 2.015625 -6.71875 2.015625l-5.875 0l0 9.3125l-3.03125 0zm3.03125 -12.015625l5.921875 0q2.9375 0 4.171875 -1.09375q1.234375 -1.09375 1.234375 -3.078125q0 -1.4375 -0.734375 -2.453125q-0.71875 -1.03125 -1.90625 -1.359375q-0.765625 -0.203125 -2.828125 -0.203125l-5.859375 0l0 8.1875zm17.828125 18.40625l-0.3125 -2.640625q0.921875 0.25 1.609375 0.25q0.9375 0 1.5 -0.3125q0.5625 -0.3125 0.921875 -0.875q0.265625 -0.421875 0.859375 -2.09375q0.078125 -0.234375 0.25 -0.6875l-6.296875 -16.625l3.03125 0l3.453125 9.609375q0.671875 1.828125 1.203125 3.84375q0.484375 -1.9375 1.15625 -3.78125l3.546875 -9.671875l2.8125 0l-6.3125 16.875q-1.015625 2.734375 -1.578125 3.765625q-0.75 1.390625 -1.71875 2.03125q-0.96875 0.65625 -2.3125 0.65625q-0.8125 0 -1.8125 -0.34375zm22.265625 -8.90625l0.40625 2.484375q-1.1875 0.25 -2.125 0.25q-1.53125 0 -2.375 -0.484375q-0.84375 -0.484375 -1.1875 -1.265625q-0.34375 -0.796875 -0.34375 -3.328125l0 -9.546875l-2.0625 0l0 -2.1875l2.0625 0l0 -4.109375l2.796875 -1.6875l0 5.796875l2.828125 0l0 2.1875l-2.828125 0l0 9.703125q0 1.203125 0.140625 1.546875q0.15625 0.34375 0.484375 0.546875q0.34375 0.203125 0.96875 0.203125q0.46875 0 1.234375 -0.109375zm2.75 2.515625l0 -22.90625l2.8125 0l0 8.21875q1.96875 -2.28125 4.96875 -2.28125q1.84375 0 3.203125 0.734375q1.359375 0.71875 1.9375 2.0q0.59375 1.28125 0.59375 3.71875l0 10.515625l-2.8125 0l0 -10.515625q0 -2.109375 -0.921875 -3.0625q-0.90625 -0.96875 -2.578125 -0.96875q-1.25 0 -2.359375 0.65625q-1.09375 0.640625 -1.5625 1.75q-0.46875 1.109375 -0.46875 3.0625l0 9.078125l-2.8125 0zm16.75 -8.296875q0 -4.609375 2.5625 -6.828125q2.140625 -1.84375 5.21875 -1.84375q3.421875 0 5.59375 2.25q2.171875 2.234375 2.171875 6.1875q0 3.203125 -0.96875 5.046875q-0.953125 1.828125 -2.796875 2.84375q-1.828125 1.015625 -4.0 1.015625q-3.484375 0 -5.640625 -2.234375q-2.140625 -2.234375 -2.140625 -6.4375zm2.890625 0q0 3.1875 1.390625 4.78125q1.390625 1.578125 3.5 1.578125q2.09375 0 3.484375 -1.59375q1.390625 -1.59375 1.390625 -4.859375q0 -3.078125 -1.40625 -4.65625q-1.390625 -1.59375 -3.46875 -1.59375q-2.109375 0 -3.5 1.578125q-1.390625 1.578125 -1.390625 4.765625zm15.953125 8.296875l0 -16.59375l2.53125 0l0 2.359375q1.828125 -2.734375 5.28125 -2.734375q1.5 0 2.75 0.546875q1.265625 0.53125 1.890625 1.40625q0.625 0.875 0.875 2.078125q0.15625 0.78125 0.15625 2.734375l0 10.203125l-2.8125 0l0 -10.09375q0 -1.71875 -0.328125 -2.5625q-0.328125 -0.859375 -1.171875 -1.359375q-0.828125 -0.515625 -1.953125 -0.515625q-1.796875 0 -3.109375 1.140625q-1.296875 1.140625 -1.296875 4.328125l0 9.0625l-2.8125 0z" fill-rule="nonzero"/><path fill="#f4cccc" d="m437.02362 238.12073l208.15747 0l0 74.48819l-208.15747 0z" fill-rule="evenodd"/><path stroke="#000000" stroke-width="1.0" stroke-linejoin="round" stroke-linecap="butt" d="m437.02362 238.12073l208.15747 0l0 74.48819l-208.15747 0z" fill-rule="evenodd"/><path fill="#000000" d="m491.85236 287.08484l0 -22.90625l3.03125 0l0 20.203125l11.28125 0l0 2.703125l-14.3125 0zm17.578125 -19.671875l0 -3.234375l2.8125 0l0 3.234375l-2.8125 0zm0 19.671875l0 -16.59375l2.8125 0l0 16.59375l-2.8125 0zm13.234375 -2.515625l0.40625 2.484375q-1.1875 0.25 -2.125 0.25q-1.53125 0 -2.375 -0.484375q-0.84375 -0.484375 -1.1875 -1.265625q-0.34375 -0.796875 -0.34375 -3.328125l0 -9.546875l-2.0625 0l0 -2.1875l2.0625 0l0 -4.109375l2.796875 -1.6875l0 5.796875l2.828125 0l0 2.1875l-2.828125 0l0 9.703125q0 1.203125 0.140625 1.546875q0.15625 0.34375 0.484375 0.546875q0.34375 0.203125 0.96875 0.203125q0.46875 0 1.234375 -0.109375zm2.75 2.515625l0 -22.90625l2.8125 0l0 8.21875q1.96875 -2.28125 4.96875 -2.28125q1.84375 0 3.203125 0.734375q1.359375 0.71875 1.9375 2.0q0.59375 1.28125 0.59375 3.71875l0 10.515625l-2.8125 0l0 -10.515625q0 -2.109375 -0.921875 -3.0625q-0.90625 -0.96875 -2.578125 -0.96875q-1.25 0 -2.359375 0.65625q-1.09375 0.640625 -1.5625 1.75q-0.46875 1.109375 -0.46875 3.0625l0 9.078125l-2.8125 0zm16.75 -8.296875q0 -4.609375 2.5625 -6.828125q2.140625 -1.84375 5.21875 -1.84375q3.421875 0 5.59375 2.25q2.171875 2.234375 2.171875 6.1875q0 3.203125 -0.96875 5.046875q-0.953125 1.828125 -2.796875 2.84375q-1.828125 1.015625 -4.0 1.015625q-3.484375 0 -5.640625 -2.234375q-2.140625 -2.234375 -2.140625 -6.4375zm2.890625 0q0 3.1875 1.390625 4.78125q1.390625 1.578125 3.5 1.578125q2.09375 0 3.484375 -1.59375q1.390625 -1.59375 1.390625 -4.859375q0 -3.078125 -1.40625 -4.65625q-1.390625 -1.59375 -3.46875 -1.59375q-2.109375 0 -3.5 1.578125q-1.390625 1.578125 -1.390625 4.765625zm15.953125 14.65625l0 -22.953125l2.5625 0l0 2.15625q0.90625 -1.265625 2.046875 -1.890625q1.140625 -0.640625 2.765625 -0.640625q2.125 0 3.75 1.09375q1.625 1.09375 2.453125 3.09375q0.828125 1.984375 0.828125 4.359375q0 2.546875 -0.921875 4.59375q-0.90625 2.03125 -2.65625 3.125q-1.734375 1.078125 -3.65625 1.078125q-1.40625 0 -2.53125 -0.59375q-1.109375 -0.59375 -1.828125 -1.5l0 8.078125l-2.8125 0zm2.546875 -14.5625q0 3.203125 1.296875 4.734375q1.296875 1.53125 3.140625 1.53125q1.875 0 3.203125 -1.578125q1.34375 -1.59375 1.34375 -4.921875q0 -3.171875 -1.3125 -4.75q-1.296875 -1.578125 -3.109375 -1.578125q-1.796875 0 -3.1875 1.6875q-1.375 1.671875 -1.375 4.875zm14.125 3.25l2.78125 -0.4375q0.234375 1.671875 1.296875 2.5625q1.078125 0.890625 3.0 0.890625q1.9375 0 2.875 -0.78125q0.9375 -0.796875 0.9375 -1.859375q0 -0.953125 -0.828125 -1.5q-0.578125 -0.375 -2.875 -0.953125q-3.09375 -0.78125 -4.296875 -1.34375q-1.1875 -0.578125 -1.8125 -1.578125q-0.609375 -1.015625 -0.609375 -2.234375q0 -1.109375 0.5 -2.046875q0.515625 -0.953125 1.390625 -1.578125q0.65625 -0.484375 1.78125 -0.8125q1.140625 -0.34375 2.4375 -0.34375q1.953125 0 3.421875 0.5625q1.484375 0.5625 2.1875 1.53125q0.703125 0.953125 0.96875 2.5625l-2.75 0.375q-0.1875 -1.28125 -1.09375 -2.0q-0.890625 -0.71875 -2.53125 -0.71875q-1.9375 0 -2.765625 0.640625q-0.828125 0.640625 -0.828125 1.5q0 0.546875 0.34375 0.984375q0.34375 0.453125 1.078125 0.75q0.421875 0.15625 2.484375 0.71875q2.984375 0.796875 4.15625 1.3125q1.1875 0.5 1.859375 1.46875q0.671875 0.96875 0.671875 2.40625q0 1.40625 -0.828125 2.65625q-0.8125 1.234375 -2.359375 1.921875q-1.546875 0.671875 -3.5 0.671875q-3.234375 0 -4.9375 -1.34375q-1.6875 -1.34375 -2.15625 -3.984375z" fill-rule="nonzero"/><path fill="#f4cccc" d="m645.1811 238.12073l208.15747 0l0 74.48819l-208.15747 0z" fill-rule="evenodd"/><path stroke="#000000" stroke-width="1.0" stroke-linejoin="round" stroke-linecap="butt" d="m645.1811 238.12073l208.15747 0l0 74.48819l-208.15747 0z" fill-rule="evenodd"/><path fill="#000000" d="m708.0567 287.08484l0 -22.90625l4.5625 0l5.421875 16.21875q0.75 2.265625 1.09375 3.390625q0.390625 -1.25 1.21875 -3.671875l5.484375 -15.9375l4.078125 0l0 22.90625l-2.921875 0l0 -19.171875l-6.65625 19.171875l-2.734375 0l-6.625 -19.5l0 19.5l-2.921875 0zm25.34375 -8.296875q0 -4.609375 2.5625 -6.828125q2.140625 -1.84375 5.21875 -1.84375q3.421875 0 5.59375 2.25q2.171875 2.234375 2.171875 6.1875q0 3.203125 -0.96875 5.046875q-0.953125 1.828125 -2.796875 2.84375q-1.828125 1.015625 -4.0 1.015625q-3.484375 0 -5.640625 -2.234375q-2.140625 -2.234375 -2.140625 -6.4375zm2.890625 0q0 3.1875 1.390625 4.78125q1.390625 1.578125 3.5 1.578125q2.09375 0 3.484375 -1.59375q1.390625 -1.59375 1.390625 -4.859375q0 -3.078125 -1.40625 -4.65625q-1.390625 -1.59375 -3.46875 -1.59375q-2.109375 0 -3.5 1.578125q-1.390625 1.578125 -1.390625 4.765625zm26.71875 8.296875l0 -2.09375q-1.578125 2.46875 -4.640625 2.46875q-1.984375 0 -3.65625 -1.09375q-1.65625 -1.09375 -2.578125 -3.046875q-0.90625 -1.96875 -0.90625 -4.515625q0 -2.484375 0.828125 -4.5q0.828125 -2.03125 2.484375 -3.109375q1.65625 -1.078125 3.703125 -1.078125q1.5 0 2.671875 0.640625q1.171875 0.625 1.90625 1.640625l0 -8.21875l2.796875 0l0 22.90625l-2.609375 0zm-8.890625 -8.28125q0 3.1875 1.34375 4.765625q1.34375 1.578125 3.171875 1.578125q1.84375 0 3.125 -1.5q1.296875 -1.515625 1.296875 -4.609375q0 -3.40625 -1.3125 -5.0q-1.3125 -1.59375 -3.234375 -1.59375q-1.875 0 -3.140625 1.53125q-1.25 1.53125 -1.25 4.828125zm26.75 6.234375q-1.5625 1.328125 -3.015625 1.875q-1.4375 0.546875 -3.09375 0.546875q-2.734375 0 -4.203125 -1.328125q-1.46875 -1.34375 -1.46875 -3.421875q0 -1.21875 0.546875 -2.21875q0.5625 -1.015625 1.453125 -1.625q0.90625 -0.609375 2.03125 -0.921875q0.828125 -0.21875 2.5 -0.421875q3.40625 -0.40625 5.015625 -0.96875q0.015625 -0.578125 0.015625 -0.734375q0 -1.71875 -0.796875 -2.421875q-1.078125 -0.953125 -3.203125 -0.953125q-1.984375 0 -2.9375 0.703125q-0.9375 0.6875 -1.390625 2.453125l-2.75 -0.375q0.375 -1.765625 1.234375 -2.84375q0.859375 -1.09375 2.484375 -1.671875q1.625 -0.59375 3.765625 -0.59375q2.125 0 3.453125 0.5q1.328125 0.5 1.953125 1.265625q0.625 0.75 0.875 1.90625q0.140625 0.71875 0.140625 2.59375l0 3.75q0 3.921875 0.171875 4.96875q0.1875 1.03125 0.71875 1.984375l-2.9375 0q-0.4375 -0.875 -0.5625 -2.046875zm-0.234375 -6.28125q-1.53125 0.625 -4.59375 1.0625q-1.734375 0.25 -2.453125 0.5625q-0.71875 0.3125 -1.109375 0.921875q-0.390625 0.59375 -0.390625 1.328125q0 1.125 0.84375 1.875q0.859375 0.75 2.5 0.75q1.625 0 2.890625 -0.703125q1.265625 -0.71875 1.859375 -1.953125q0.453125 -0.953125 0.453125 -2.8125l0 -1.03125zm7.140625 8.328125l0 -22.90625l2.8125 0l0 22.90625l-2.8125 0z" fill-rule="nonzero"/><path fill="#cfe2f3" d="m228.86613 163.63255l338.6772 0l0 74.488174l-338.6772 0z" fill-rule="evenodd"/><path stroke="#000000" stroke-width="1.0" stroke-linejoin="round" stroke-linecap="butt" d="m228.86613 163.63255l338.6772 0l0 74.488174l-338.6772 0z" fill-rule="evenodd"/><path fill="#000000" d="m317.35315 192.33102l0 7.1875q1.171875 -0.765625 2.375 -1.140625q1.21875 -0.390625 2.453125 -0.390625q3.328125 0 5.640625 2.296875q2.3125 2.296875 2.3125 5.546875q0 3.109375 -2.203125 5.203125q-2.203125 2.078125 -5.8125 2.078125q-1.28125 0 -2.46875 -0.328125q-1.1875 -0.328125 -2.296875 -0.96875l0 0.78125l-3.75 0q-1.15625 0 -1.65625 -0.4375q-0.484375 -0.453125 -0.484375 -1.171875q0 -0.703125 0.5 -1.140625q0.5 -0.453125 1.640625 -0.453125l0.546875 0l0 -13.859375l-0.546875 0q-1.15625 0 -1.65625 -0.4375q-0.484375 -0.453125 -0.484375 -1.171875q0 -0.703125 0.484375 -1.140625q0.5 -0.453125 1.65625 -0.453125l3.75 0zm9.578125 13.59375q0 -1.984375 -1.390625 -3.359375q-1.390625 -1.375 -3.40625 -1.375q-2.0 0 -3.390625 1.375q-1.390625 1.375 -1.390625 3.3125q0 1.765625 1.25 2.90625q1.25 1.125 3.53125 1.125q2.28125 0 3.53125 -1.125q1.265625 -1.140625 1.265625 -2.859375zm15.265625 -13.59375l0 17.0625l3.84375 0q1.15625 0 1.640625 0.453125q0.5 0.4375 0.5 1.15625q0 0.703125 -0.5 1.15625q-0.484375 0.4375 -1.640625 0.4375l-10.890625 0q-1.15625 0 -1.65625 -0.4375q-0.484375 -0.453125 -0.484375 -1.171875q0 -0.703125 0.484375 -1.140625q0.5 -0.453125 1.65625 -0.453125l3.84375 0l0 -13.859375l-2.578125 0q-1.140625 0 -1.640625 -0.4375q-0.5 -0.453125 -0.5 -1.171875q0 -0.703125 0.484375 -1.140625q0.5 -0.453125 1.65625 -0.453125l5.78125 0zm25.921875 13.4375q0 1.84375 -1.03125 3.578125q-1.015625 1.71875 -3.046875 2.75q-2.015625 1.015625 -4.21875 1.015625q-2.1875 0 -4.1875 -1.0q-2.0 -1.015625 -3.046875 -2.75q-1.046875 -1.734375 -1.046875 -3.625q0 -1.921875 1.0625 -3.765625q1.0625 -1.859375 3.046875 -2.921875q2.0 -1.0625 4.171875 -1.0625q2.1875 0 4.203125 1.09375q2.03125 1.078125 3.0625 2.921875q1.03125 1.828125 1.03125 3.765625zm-3.203125 0.015625q0 -1.546875 -1.109375 -2.84375q-1.515625 -1.75 -3.984375 -1.75q-2.171875 0 -3.625 1.390625q-1.453125 1.390625 -1.453125 3.21875q0 1.5 1.46875 2.8125q1.46875 1.296875 3.609375 1.296875q2.15625 0 3.625 -1.296875q1.46875 -1.3125 1.46875 -2.828125zm19.078125 -6.796875q0.578125 -0.546875 1.1875 -0.546875q0.6875 0 1.125 0.5q0.453125 0.484375 0.453125 1.625l0 2.0625q0 1.15625 -0.453125 1.640625q-0.4375 0.484375 -1.15625 0.484375q-0.65625 0 -1.109375 -0.375q-0.328125 -0.28125 -0.515625 -1.140625q-0.1875 -0.875 -0.90625 -1.296875q-1.265625 -0.75 -3.234375 -0.75q-2.265625 0 -3.640625 1.328125q-1.359375 1.328125 -1.359375 3.359375q0 1.875 1.3125 2.96875q1.3125 1.078125 4.359375 1.078125q2.0 0 3.265625 -0.40625q0.75 -0.25 1.421875 -0.84375q0.671875 -0.609375 1.21875 -0.609375q0.65625 0 1.125 0.484375q0.484375 0.484375 0.484375 1.140625q0 1.0625 -1.453125 2.015625q-2.15625 1.421875 -6.3125 1.421875q-3.734375 0 -5.8125 -1.546875q-2.8125 -2.078125 -2.8125 -5.6875q0 -3.421875 2.28125 -5.65625q2.28125 -2.25 5.953125 -2.25q1.328125 0 2.46875 0.25q1.140625 0.25 2.109375 0.75zm11.578125 8.28125l0 5.328125l-3.75 0q-1.15625 0 -1.65625 -0.4375q-0.484375 -0.453125 -0.484375 -1.171875q0 -0.703125 0.5 -1.140625q0.5 -0.453125 1.640625 -0.453125l0.546875 0l0 -13.859375l-0.546875 0q-1.15625 0 -1.65625 -0.4375q-0.484375 -0.453125 -0.484375 -1.171875q0 -0.703125 0.484375 -1.140625q0.5 -0.453125 1.65625 -0.453125l3.75 0l0 10.796875l2.5 -2.015625q-0.390625 -0.671875 -0.390625 -1.09375q0 -0.71875 0.484375 -1.15625q0.484375 -0.453125 1.640625 -0.453125l3.65625 0q1.15625 0 1.640625 0.453125q0.5 0.4375 0.5 1.15625q0 0.703125 -0.5 1.15625q-0.484375 0.4375 -1.640625 0.4375l-0.890625 0l-3.890625 3.15625l5.234375 4.625l0.9375 0q1.15625 0 1.640625 0.453125q0.5 0.4375 0.5 1.15625q0 0.703125 -0.5 1.15625q-0.484375 0.4375 -1.640625 0.4375l-3.6875 0q-1.15625 0 -1.65625 -0.4375q-0.484375 -0.453125 -0.484375 -1.171875q0 -0.609375 0.53125 -1.203125l-3.390625 -3.0l-0.59375 0.484375zm21.859375 -0.578125l-2.21875 5.90625l-3.015625 0l-2.6875 -10.984375q-0.875 -0.046875 -1.328125 -0.484375q-0.4375 -0.453125 -0.4375 -1.125q0 -0.703125 0.484375 -1.140625q0.5 -0.453125 1.65625 -0.453125l2.984375 0q1.15625 0 1.640625 0.453125q0.5 0.4375 0.5 1.15625q0 0.71875 -0.5625 1.21875q-0.421875 0.375 -1.65625 0.375l1.21875 5.078125l1.984375 -5.203125l2.84375 0l2.0 5.203125l1.25 -5.078125q-1.1875 0 -1.5625 -0.234375q-0.75 -0.484375 -0.75 -1.375q0 -0.703125 0.484375 -1.140625q0.5 -0.453125 1.65625 -0.453125l3.015625 0q1.15625 0 1.640625 0.453125q0.5 0.4375 0.5 1.15625q0 0.640625 -0.4375 1.09375q-0.421875 0.4375 -1.265625 0.5l-2.625 10.984375l-2.96875 0l-2.34375 -5.90625zm20.328125 -14.359375l0 3.390625l-3.8125 0l0 -3.390625l3.8125 0zm0.4375 6.078125l0 10.984375l3.84375 0q1.15625 0 1.640625 0.453125q0.5 0.4375 0.5 1.15625q0 0.703125 -0.5 1.15625q-0.484375 0.4375 -1.640625 0.4375l-10.890625 0q-1.15625 0 -1.65625 -0.4375q-0.484375 -0.453125 -0.484375 -1.171875q0 -0.703125 0.484375 -1.140625q0.5 -0.453125 1.65625 -0.453125l3.84375 0l0 -7.78125l-2.578125 0q-1.140625 0 -1.640625 -0.4375q-0.5 -0.453125 -0.5 -1.171875q0 -0.703125 0.484375 -1.140625q0.5 -0.453125 1.65625 -0.453125l5.78125 0zm21.078125 3.75q-0.78125 -0.484375 -1.640625 -0.71875q-0.859375 -0.25 -1.796875 -0.25q-1.859375 0 -2.953125 0.609375q-0.484375 0.265625 -0.484375 0.578125q0 0.359375 0.65625 0.703125q0.5 0.25 2.234375 0.484375q3.1875 0.4375 4.4375 0.875q1.640625 0.578125 2.53125 1.71875q0.890625 1.140625 0.890625 2.40625q0 1.71875 -1.515625 2.875q-2.171875 1.671875 -5.640625 1.671875q-1.390625 0 -2.578125 -0.25q-1.171875 -0.234375 -2.15625 -0.703125q-0.234375 0.203125 -0.5 0.3125q-0.265625 0.109375 -0.546875 0.109375q-0.75 0 -1.203125 -0.484375q-0.4375 -0.5 -0.4375 -1.65625l0 -1.078125q0 -1.15625 0.4375 -1.640625q0.453125 -0.5 1.171875 -0.5q0.578125 0 0.96875 0.328125q0.390625 0.3125 0.609375 1.09375q0.734375 0.625 1.765625 0.953125q1.03125 0.3125 2.375 0.3125q2.203125 0 3.421875 -0.6875q0.578125 -0.34375 0.578125 -0.71875q0 -0.625 -0.828125 -1.03125q-0.828125 -0.40625 -3.421875 -0.6875q-3.859375 -0.40625 -5.15625 -1.5625q-1.296875 -1.140625 -1.296875 -2.8125q0 -1.71875 1.453125 -2.859375q1.96875 -1.5625 5.15625 -1.5625q1.109375 0 2.125 0.21875q1.03125 0.203125 1.96875 0.640625q0.296875 -0.21875 0.546875 -0.328125q0.265625 -0.109375 0.484375 -0.109375q0.65625 0 1.09375 0.5q0.4375 0.484375 0.4375 1.640625l0 0.78125q0 1.046875 -0.25 1.421875q-0.5 0.71875 -1.359375 0.71875q-0.578125 0 -1.015625 -0.359375q-0.4375 -0.359375 -0.5625 -0.953125zm23.78125 4.96875l-13.140625 0q0.5 1.25 1.765625 2.015625q1.28125 0.765625 3.453125 0.765625q1.78125 0 4.734375 -0.765625q1.21875 -0.3125 1.6875 -0.3125q0.640625 0 1.078125 0.453125q0.4375 0.453125 0.4375 1.140625q0 0.625 -0.46875 1.0625q-0.625 0.578125 -3.046875 1.109375q-2.421875 0.515625 -4.65625 0.515625q-3.84375 0 -6.15625 -2.171875q-2.296875 -2.171875 -2.296875 -5.34375q0 -3.375 2.484375 -5.484375q2.5 -2.125 5.75 -2.125q1.953125 0 3.578125 0.6875q1.640625 0.6875 2.4375 1.484375q1.125 1.15625 1.859375 2.859375q0.5 1.1875 0.5 2.75l0 1.359375zm-3.546875 -3.203125q-0.734375 -1.375 -1.921875 -2.046875q-1.1875 -0.6875 -2.828125 -0.6875q-1.625 0 -2.8125 0.6875q-1.1875 0.671875 -1.9375 2.046875l9.5 0z" fill-rule="nonzero"/><path fill="#d9ead3" d="m567.54596 163.63255l285.79523 0l0 74.488174l-285.79523 0z" fill-rule="evenodd"/><path stroke="#000000" stroke-width="1.0" stroke-linejoin="round" stroke-linecap="butt" d="m567.54596 163.63255l285.79523 0l0 74.488174l-285.79523 0z" fill-rule="evenodd"/><path fill="#000000" d="m652.17017 198.40915l0 2.0q2.015625 -1.453125 3.171875 -1.9375q1.171875 -0.484375 2.1875 -0.484375q1.5625 0 3.03125 1.15625q1.0 0.78125 1.0 1.59375q0 0.6875 -0.484375 1.171875q-0.46875 0.46875 -1.140625 0.46875q-0.59375 0 -1.25 -0.59375q-0.65625 -0.59375 -1.171875 -0.59375q-0.671875 0 -2.015625 0.84375q-1.328125 0.84375 -3.328125 2.53125l0 4.828125l4.5625 0q1.15625 0 1.640625 0.453125q0.5 0.4375 0.5 1.15625q0 0.703125 -0.5 1.15625q-0.484375 0.4375 -1.640625 0.4375l-9.671875 0q-1.15625 0 -1.65625 -0.4375q-0.484375 -0.453125 -0.484375 -1.171875q0 -0.703125 0.484375 -1.140625q0.5 -0.453125 1.65625 -0.453125l1.90625 0l0 -7.78125l-1.15625 0q-1.15625 0 -1.65625 -0.4375q-0.484375 -0.453125 -0.484375 -1.171875q0 -0.703125 0.484375 -1.140625q0.5 -0.453125 1.65625 -0.453125l4.359375 0zm27.90625 8.71875l-13.140625 0q0.5 1.25 1.765625 2.015625q1.28125 0.765625 3.453125 0.765625q1.78125 0 4.734375 -0.765625q1.21875 -0.3125 1.6875 -0.3125q0.640625 0 1.078125 0.453125q0.4375 0.453125 0.4375 1.140625q0 0.625 -0.46875 1.0625q-0.625 0.578125 -3.046875 1.109375q-2.421875 0.515625 -4.65625 0.515625q-3.84375 0 -6.15625 -2.171875q-2.296875 -2.171875 -2.296875 -5.34375q0 -3.375 2.484375 -5.484375q2.5 -2.125 5.75 -2.125q1.953125 0 3.578125 0.6875q1.640625 0.6875 2.4375 1.484375q1.125 1.15625 1.859375 2.859375q0.5 1.1875 0.5 2.75l0 1.359375zm-3.546875 -3.203125q-0.734375 -1.375 -1.921875 -2.046875q-1.1875 -0.6875 -2.828125 -0.6875q-1.625 0 -2.8125 0.6875q-1.1875 0.671875 -1.9375 2.046875l9.5 0zm19.703125 -4.9375q0.578125 -0.546875 1.1875 -0.546875q0.6875 0 1.125 0.5q0.453125 0.484375 0.453125 1.625l0 2.0625q0 1.15625 -0.453125 1.640625q-0.4375 0.484375 -1.15625 0.484375q-0.65625 0 -1.109375 -0.375q-0.328125 -0.28125 -0.515625 -1.140625q-0.1875 -0.875 -0.90625 -1.296875q-1.265625 -0.75 -3.234375 -0.75q-2.265625 0 -3.640625 1.328125q-1.359375 1.328125 -1.359375 3.359375q0 1.875 1.3125 2.96875q1.3125 1.078125 4.359375 1.078125q2.0 0 3.265625 -0.40625q0.75 -0.25 1.421875 -0.84375q0.671875 -0.609375 1.21875 -0.609375q0.65625 0 1.125 0.484375q0.484375 0.484375 0.484375 1.140625q0 1.0625 -1.453125 2.015625q-2.15625 1.421875 -6.3125 1.421875q-3.734375 0 -5.8125 -1.546875q-2.8125 -2.078125 -2.8125 -5.6875q0 -3.421875 2.28125 -5.65625q2.28125 -2.25 5.953125 -2.25q1.328125 0 2.46875 0.25q1.140625 0.25 2.109375 0.75zm10.90625 -6.65625l0 6.828125q1.0 -0.59375 2.015625 -0.875q1.03125 -0.296875 2.078125 -0.296875q1.65625 0 2.953125 0.5625q1.296875 0.5625 2.140625 1.78125q0.859375 1.203125 0.859375 3.046875l0 6.015625q1.21875 0 1.59375 0.234375q0.75 0.484375 0.75 1.375q0 0.703125 -0.484375 1.15625q-0.484375 0.4375 -1.640625 0.4375l-3.65625 0q-1.140625 0 -1.640625 -0.4375q-0.484375 -0.453125 -0.484375 -1.171875q0 -0.875 0.75 -1.359375q0.390625 -0.25 1.59375 -0.234375l0 -5.796875q0 -1.234375 -0.5625 -1.734375q-0.734375 -0.671875 -2.171875 -0.671875q-1.0625 0 -1.890625 0.421875q-0.8125 0.40625 -2.203125 1.78125l0 6.0q1.234375 0 1.59375 0.234375q0.765625 0.484375 0.765625 1.375q0 0.703125 -0.5 1.15625q-0.484375 0.4375 -1.640625 0.4375l-3.640625 0q-1.15625 0 -1.65625 -0.4375q-0.484375 -0.453125 -0.484375 -1.171875q0 -0.875 0.765625 -1.359375q0.375 -0.25 1.59375 -0.234375l0 -13.859375l-0.546875 0q-1.15625 0 -1.65625 -0.4375q-0.484375 -0.453125 -0.484375 -1.171875q0 -0.703125 0.484375 -1.140625q0.5 -0.453125 1.65625 -0.453125l3.75 0zm29.3125 6.078125l0 10.984375q1.015625 0 1.5 0.453125q0.484375 0.453125 0.484375 1.15625q0 0.703125 -0.5 1.15625q-0.484375 0.4375 -1.640625 0.4375l-3.046875 0l0 -0.734375q-1.375 0.625 -2.625 0.9375q-1.25 0.3125 -2.375 0.3125q-1.578125 0 -2.734375 -0.65625q-1.15625 -0.671875 -1.828125 -1.84375q-0.484375 -0.84375 -0.484375 -2.109375l0 -6.890625l-0.546875 0q-1.15625 0 -1.65625 -0.4375q-0.484375 -0.453125 -0.484375 -1.171875q0 -0.703125 0.484375 -1.140625q0.5 -0.453125 1.65625 -0.453125l3.75 0l0 9.53125q0 1.015625 0.484375 1.5q0.5 0.46875 1.515625 0.46875q0.96875 0 2.078125 -0.375q1.125 -0.390625 2.765625 -1.390625l0 -6.53125l-1.15625 0q-1.15625 0 -1.65625 -0.4375q-0.484375 -0.453125 -0.484375 -1.171875q0 -0.703125 0.484375 -1.140625q0.5 -0.453125 1.65625 -0.453125l4.359375 0zm9.15625 0l0 1.078125q0.875 -0.75 1.921875 -1.125q1.0625 -0.375 2.296875 -0.375q2.84375 0 4.5 1.765625q1.3125 1.40625 1.3125 3.6875l0 5.953125q1.015625 0 1.5 0.453125q0.484375 0.4375 0.484375 1.15625q0 0.703125 -0.5 1.15625q-0.484375 0.4375 -1.640625 0.4375l-2.890625 0q-1.15625 0 -1.65625 -0.4375q-0.484375 -0.453125 -0.484375 -1.171875q0 -0.703125 0.484375 -1.140625q0.484375 -0.453125 1.5 -0.453125l0 -6.046875q0 -1.046875 -0.5625 -1.53125q-0.734375 -0.625 -2.203125 -0.625q-1.109375 0 -1.953125 0.4375q-0.828125 0.421875 -2.109375 1.8125l0 5.953125q1.234375 0 1.59375 0.234375q0.765625 0.46875 0.765625 1.375q0 0.703125 -0.5 1.15625q-0.484375 0.4375 -1.640625 0.4375l-3.640625 0q-1.15625 0 -1.65625 -0.4375q-0.484375 -0.453125 -0.484375 -1.171875q0 -0.875 0.75 -1.359375q0.375 -0.234375 1.609375 -0.234375l0 -7.78125q-1.015625 0 -1.5 -0.453125q-0.484375 -0.453125 -0.484375 -1.15625q0 -0.703125 0.484375 -1.140625q0.5 -0.453125 1.65625 -0.453125l3.046875 0zm19.8125 8.859375l0 5.328125l-3.75 0q-1.15625 0 -1.65625 -0.4375q-0.484375 -0.453125 -0.484375 -1.171875q0 -0.703125 0.5 -1.140625q0.5 -0.453125 1.640625 -0.453125l0.546875 0l0 -13.859375l-0.546875 0q-1.15625 0 -1.65625 -0.4375q-0.484375 -0.453125 -0.484375 -1.171875q0 -0.703125 0.484375 -1.140625q0.5 -0.453125 1.65625 -0.453125l3.75 0l0 10.796875l2.5 -2.015625q-0.390625 -0.671875 -0.390625 -1.09375q0 -0.71875 0.484375 -1.15625q0.484375 -0.453125 1.640625 -0.453125l3.65625 0q1.15625 0 1.640625 0.453125q0.5 0.4375 0.5 1.15625q0 0.703125 -0.5 1.15625q-0.484375 0.4375 -1.640625 0.4375l-0.890625 0l-3.890625 3.15625l5.234375 4.625l0.9375 0q1.15625 0 1.640625 0.453125q0.5 0.4375 0.5 1.15625q0 0.703125 -0.5 1.15625q-0.484375 0.4375 -1.640625 0.4375l-3.6875 0q-1.15625 0 -1.65625 -0.4375q-0.484375 -0.453125 -0.484375 -1.171875q0 -0.609375 0.53125 -1.203125l-3.390625 -3.0l-0.59375 0.484375z" fill-rule="nonzero"/><path fill="#cfe2f3" d="m228.86613 89.144356l321.4803 0l0 74.4882l-321.4803 0z" fill-rule="evenodd"/><path stroke="#000000" stroke-width="1.0" stroke-linejoin="round" stroke-linecap="butt" d="m228.86613 89.144356l321.4803 0l0 74.4882l-321.4803 0z" fill-rule="evenodd"/><path fill="#000000" d="m298.24692 123.92095l0 0.90625q0.78125 -0.765625 1.40625 -1.046875q0.640625 -0.296875 1.46875 -0.296875q0.703125 0 1.390625 0.34375q0.6875 0.34375 1.34375 1.03125q0.828125 -0.6875 1.671875 -1.015625q0.859375 -0.34375 1.75 -0.34375q1.78125 0 2.890625 0.953125q1.46875 1.25 1.46875 3.28125l0 7.1718826q1.0 0 1.484375 0.453125q0.484375 0.453125 0.484375 1.15625q0 0.703125 -0.484375 1.15625q-0.484375 0.4375 -1.640625 0.4375l-3.046875 0l0 -10.109383q0 -0.734375 -0.265625 -1.015625q-0.265625 -0.28125 -0.8125 -0.28125q-0.53125 0 -0.984375 0.28125q-0.578125 0.390625 -1.40625 1.4687576l0 6.453125q1.0 0 1.484375 0.453125q0.484375 0.453125 0.484375 1.15625q0 0.703125 -0.484375 1.15625q-0.484375 0.4375 -1.640625 0.4375l-3.046875 0l0 -10.109383q0 -0.71875 -0.28125 -1.0q-0.265625 -0.296875 -0.8125 -0.296875q-0.5625 0 -1.109375 0.359375q-0.546875 0.34375 -1.3125 1.3906326l0 6.453125q1.0 0 1.484375 0.453125q0.5 0.453125 0.5 1.15625q0 0.703125 -0.5 1.15625q-0.484375 0.4375 -1.640625 0.4375l-2.890625 0q-1.15625 0 -1.640625 -0.4375q-0.5 -0.453125 -0.5 -1.171875q0 -0.703125 0.484375 -1.140625q0.484375 -0.453125 1.5 -0.453125l0 -7.7812576q-1.015625 0 -1.5 -0.453125q-0.484375 -0.453125 -0.484375 -1.15625q0 -0.703125 0.5 -1.140625q0.484375 -0.453125 1.640625 -0.453125l3.046875 0zm27.03125 14.187508l0 -0.75q-1.203125 0.640625 -2.65625 0.953125q-1.453125 0.328125 -2.640625 0.328125q-2.578125 0 -4.1875 -1.359375q-1.609375 -1.375 -1.609375 -3.03125q0 -2.015625 2.046875 -3.734375q2.0625 -1.734375 5.6875 -1.734375q1.453125 0 3.359375 0.3125l0 -0.765625q0 -0.7187576 -0.625 -1.1718826q-0.609375 -0.453125 -2.34375 -0.453125q-1.421875 0 -3.6875 0.5625q-0.84375 0.203125 -1.3125 0.203125q-0.640625 0 -1.09375 -0.453125q-0.4375 -0.46875 -0.4375 -1.1875q0 -0.40625 0.15625 -0.703125q0.15625 -0.296875 0.4375 -0.46875q0.28125 -0.1875 1.171875 -0.4375q1.1875 -0.328125 2.421875 -0.515625q1.234375 -0.203125 2.234375 -0.203125q2.984375 0 4.625 1.296875q1.65625 1.28125 1.65625 3.5156326l0 6.59375l0.546875 0q1.15625 0 1.640625 0.453125q0.5 0.4375 0.5 1.15625q0 0.703125 -0.5 1.15625q-0.484375 0.4375 -1.640625 0.4375l-3.75 0zm0 -5.734375q-1.921875 -0.375 -3.546875 -0.375q-1.953125 0 -3.359375 0.953125q-0.875 0.609375 -0.875 1.234375q0 0.453125 0.421875 0.734375q0.78125 0.515625 2.140625 0.515625q1.15625 0 2.609375 -0.453125q1.46875 -0.453125 2.609375 -1.234375l0 -1.375zm12.34375 3.96875l0 5.25l1.921875 0q1.15625 0 1.640625 0.4375q0.5 0.453125 0.5 1.171875q0 0.703125 -0.5 1.140625q-0.484375 0.453125 -1.640625 0.453125l-5.671875 0q-1.15625 0 -1.65625 -0.453125q-0.484375 -0.4375 -0.484375 -1.140625q0 -0.71875 0.5 -1.171875q0.5 -0.4375 1.640625 -0.4375l0.546875 0l0 -14.468758l-0.546875 0q-1.15625 0 -1.65625 -0.4375q-0.484375 -0.453125 -0.484375 -1.171875q0 -0.703125 0.484375 -1.140625q0.5 -0.453125 1.65625 -0.453125l3.75 0l0 1.09375q1.125 -0.765625 2.328125 -1.140625q1.203125 -0.375 2.46875 -0.375q3.28125 0 5.59375 2.234375q2.3125 2.21875 2.3125 5.0937576q0 3.171875 -2.734375 5.234375q-2.28125 1.71875 -5.140625 1.71875q-1.234375 0 -2.4375 -0.359375q-1.203125 -0.359375 -2.390625 -1.078125zm9.5 -5.5q0 -0.671875 -0.53125 -1.703125q-0.53125 -1.046875 -1.640625 -1.7343826q-1.09375 -0.703125 -2.578125 -0.703125q-2.390625 0 -3.796875 1.7968826q-0.953125 1.234375 -0.953125 2.375q0 1.28125 1.359375 2.5q1.375 1.203125 3.390625 1.203125q2.03125 0 3.390625 -1.203125q1.359375 -1.203125 1.359375 -2.53125zm22.546875 16.875l-17.59375 0q-1.15625 0 -1.640625 -0.4375q-0.5 -0.4375 -0.5 -1.15625q0 -0.71875 0.5 -1.171875q0.484375 -0.4375 1.640625 -0.4375l17.59375 0q1.140625 0 1.625 0.4375q0.5 0.453125 0.5 1.171875q0 0.703125 -0.484375 1.140625q-0.484375 0.453125 -1.640625 0.453125zm6.296875 -29.875008l0 7.1875q1.171875 -0.765625 2.375 -1.140625q1.21875 -0.390625 2.453125 -0.390625q3.328125 0 5.640625 2.296875q2.3125 2.2968826 2.3125 5.5468826q0 3.109375 -2.203125 5.203125q-2.203125 2.078125 -5.8125 2.078125q-1.28125 0 -2.46875 -0.328125q-1.1875 -0.328125 -2.296875 -0.96875l0 0.78125l-3.75 0q-1.15625 0 -1.65625 -0.4375q-0.484375 -0.453125 -0.484375 -1.171875q0 -0.703125 0.5 -1.140625q0.5 -0.453125 1.640625 -0.453125l0.546875 0l0 -13.859383l-0.546875 0q-1.15625 0 -1.65625 -0.4375q-0.484375 -0.453125 -0.484375 -1.171875q0 -0.703125 0.484375 -1.140625q0.5 -0.453125 1.65625 -0.453125l3.75 0zm9.578125 13.593758q0 -1.984375 -1.390625 -3.359375q-1.390625 -1.3750076 -3.40625 -1.3750076q-2.0 0 -3.390625 1.3750076q-1.390625 1.375 -1.390625 3.3125q0 1.765625 1.25 2.90625q1.25 1.125 3.53125 1.125q2.28125 0 3.53125 -1.125q1.265625 -1.140625 1.265625 -2.859375zm15.265625 -13.593758l0 17.062508l3.84375 0q1.15625 0 1.640625 0.453125q0.5 0.4375 0.5 1.15625q0 0.703125 -0.5 1.15625q-0.484375 0.4375 -1.640625 0.4375l-10.890625 0q-1.15625 0 -1.65625 -0.4375q-0.484375 -0.453125 -0.484375 -1.171875q0 -0.703125 0.484375 -1.140625q0.5 -0.453125 1.65625 -0.453125l3.84375 0l0 -13.859383l-2.578125 0q-1.140625 0 -1.640625 -0.4375q-0.5 -0.453125 -0.5 -1.171875q0 -0.703125 0.484375 -1.140625q0.5 -0.453125 1.65625 -0.453125l5.78125 0zm25.921875 13.437508q0 1.84375 -1.03125 3.578125q-1.015625 1.71875 -3.046875 2.75q-2.015625 1.015625 -4.21875 1.015625q-2.1875 0 -4.1875 -1.0q-2.0 -1.015625 -3.046875 -2.75q-1.046875 -1.734375 -1.046875 -3.625q0 -1.921875 1.0625 -3.7656326q1.0625 -1.859375 3.046875 -2.921875q2.0 -1.0625 4.171875 -1.0625q2.1875 0 4.203125 1.09375q2.03125 1.078125 3.0625 2.921875q1.03125 1.8281326 1.03125 3.7656326zm-3.203125 0.015625q0 -1.546875 -1.109375 -2.84375q-1.515625 -1.7500076 -3.984375 -1.7500076q-2.171875 0 -3.625 1.3906326q-1.453125 1.390625 -1.453125 3.21875q0 1.5 1.46875 2.8125q1.46875 1.296875 3.609375 1.296875q2.15625 0 3.625 -1.296875q1.46875 -1.3125 1.46875 -2.828125zm19.078125 -6.7968826q0.578125 -0.546875 1.1875 -0.546875q0.6875 0 1.125 0.5q0.453125 0.484375 0.453125 1.625l0 2.0625076q0 1.15625 -0.453125 1.640625q-0.4375 0.484375 -1.15625 0.484375q-0.65625 0 -1.109375 -0.375q-0.328125 -0.28125 -0.515625 -1.140625q-0.1875 -0.8750076 -0.90625 -1.2968826q-1.265625 -0.75 -3.234375 -0.75q-2.265625 0 -3.640625 1.3281326q-1.359375 1.328125 -1.359375 3.359375q0 1.875 1.3125 2.96875q1.3125 1.078125 4.359375 1.078125q2.0 0 3.265625 -0.40625q0.75 -0.25 1.421875 -0.84375q0.671875 -0.609375 1.21875 -0.609375q0.65625 0 1.125 0.484375q0.484375 0.484375 0.484375 1.140625q0 1.0625 -1.453125 2.015625q-2.15625 1.421875 -6.3125 1.421875q-3.734375 0 -5.8125 -1.546875q-2.8125 -2.078125 -2.8125 -5.6875q0 -3.4218826 2.28125 -5.6562576q2.28125 -2.25 5.953125 -2.25q1.328125 0 2.46875 0.25q1.140625 0.25 2.109375 0.75zm11.578125 8.281258l0 5.328125l-3.75 0q-1.15625 0 -1.65625 -0.4375q-0.484375 -0.453125 -0.484375 -1.171875q0 -0.703125 0.5 -1.140625q0.5 -0.453125 1.640625 -0.453125l0.546875 0l0 -13.859383l-0.546875 0q-1.15625 0 -1.65625 -0.4375q-0.484375 -0.453125 -0.484375 -1.171875q0 -0.703125 0.484375 -1.140625q0.5 -0.453125 1.65625 -0.453125l3.75 0l0 10.796883l2.5 -2.0156326q-0.390625 -0.671875 -0.390625 -1.09375q0 -0.71875 0.484375 -1.15625q0.484375 -0.453125 1.640625 -0.453125l3.65625 0q1.15625 0 1.640625 0.453125q0.5 0.4375 0.5 1.15625q0 0.703125 -0.5 1.15625q-0.484375 0.4375 -1.640625 0.4375l-0.890625 0l-3.890625 3.1562576l5.234375 4.625l0.9375 0q1.15625 0 1.640625 0.453125q0.5 0.4375 0.5 1.15625q0 0.703125 -0.5 1.15625q-0.484375 0.4375 -1.640625 0.4375l-3.6875 0q-1.15625 0 -1.65625 -0.4375q-0.484375 -0.453125 -0.484375 -1.171875q0 -0.609375 0.53125 -1.203125l-3.390625 -3.0l-0.59375 0.484375zm25.296875 -5.1093826q-0.78125 -0.484375 -1.640625 -0.71875q-0.859375 -0.25 -1.796875 -0.25q-1.859375 0 -2.953125 0.609375q-0.484375 0.265625 -0.484375 0.578125q0 0.35938263 0.65625 0.7031326q0.5 0.25 2.234375 0.484375q3.1875 0.4375 4.4375 0.875q1.640625 0.578125 2.53125 1.71875q0.890625 1.140625 0.890625 2.40625q0 1.71875 -1.515625 2.875q-2.171875 1.671875 -5.640625 1.671875q-1.390625 0 -2.578125 -0.25q-1.171875 -0.234375 -2.15625 -0.703125q-0.234375 0.203125 -0.5 0.3125q-0.265625 0.109375 -0.546875 0.109375q-0.75 0 -1.203125 -0.484375q-0.4375 -0.5 -0.4375 -1.65625l0 -1.078125q0 -1.15625 0.4375 -1.640625q0.453125 -0.5 1.171875 -0.5q0.578125 0 0.96875 0.328125q0.390625 0.3125 0.609375 1.09375q0.734375 0.625 1.765625 0.953125q1.03125 0.3125 2.375 0.3125q2.203125 0 3.421875 -0.6875q0.578125 -0.34375 0.578125 -0.71875q0 -0.625 -0.828125 -1.03125q-0.828125 -0.40625 -3.421875 -0.6875q-3.859375 -0.40625 -5.15625 -1.5625q-1.296875 -1.140625 -1.296875 -2.8125076q0 -1.71875 1.453125 -2.859375q1.96875 -1.5625 5.15625 -1.5625q1.109375 0 2.125 0.21875q1.03125 0.203125 1.96875 0.640625q0.296875 -0.21875 0.546875 -0.328125q0.265625 -0.109375 0.484375 -0.109375q0.65625 0 1.09375 0.5q0.4375 0.484375 0.4375 1.640625l0 0.78125q0 1.046875 -0.25 1.4218826q-0.5 0.71875 -1.359375 0.71875q-0.578125 0 -1.015625 -0.359375q-0.4375 -0.359375 -0.5625 -0.9531326z" fill-rule="nonzero"/><path fill="#cfe2f3" d="m228.86613 14.656168l143.2441 0l0 74.48819l-143.2441 0z" fill-rule="evenodd"/><path stroke="#000000" stroke-width="1.0" stroke-linejoin="round" stroke-linecap="butt" d="m228.86613 14.656168l143.2441 0l0 74.48819l-143.2441 0z" fill-rule="evenodd"/><path fill="#000000" d="m280.0038 56.792137q0 1.84375 -1.03125 3.578125q-1.015625 1.71875 -3.046875 2.75q-2.015625 1.015625 -4.21875 1.015625q-2.1875 0 -4.1875 -1.0q-2.0 -1.015625 -3.046875 -2.75q-1.046875 -1.734375 -1.046875 -3.625q0 -1.921875 1.0625 -3.765625q1.0625 -1.859375 3.046875 -2.921875q2.0 -1.0625 4.171875 -1.0625q2.1875 0 4.203125 1.09375q2.03125 1.078125 3.0625 2.921875q1.03125 1.828125 1.03125 3.765625zm-3.203125 0.015625q0 -1.546875 -1.109375 -2.84375q-1.515625 -1.75 -3.984375 -1.75q-2.171875 0 -3.625 1.390625q-1.453125 1.390625 -1.453125 3.21875q0 1.5 1.46875 2.8125q1.46875 1.296875 3.609375 1.296875q2.15625 0 3.625 -1.296875q1.46875 -1.3125 1.46875 -2.828125zm10.84375 -7.375l0 1.078125q0.875 -0.75 1.921875 -1.125q1.0625 -0.375 2.296875 -0.375q2.84375 0 4.5 1.765625q1.3125 1.40625 1.3125 3.6875l0 5.953125q1.015625 0 1.5 0.453125q0.484375 0.4375 0.484375 1.15625q0 0.703125 -0.5 1.15625q-0.484375 0.4375 -1.640625 0.4375l-2.890625 0q-1.15625 0 -1.65625 -0.4375q-0.484375 -0.453125 -0.484375 -1.171875q0 -0.703125 0.484375 -1.140625q0.484375 -0.453125 1.5 -0.453125l0 -6.046875q0 -1.046875 -0.5625 -1.53125q-0.734375 -0.625 -2.203125 -0.625q-1.109375 0 -1.953125 0.4375q-0.828125 0.421875 -2.109375 1.8125l0 5.953125q1.234375 0 1.59375 0.234375q0.765625 0.46875 0.765625 1.375q0 0.703125 -0.5 1.15625q-0.484375 0.4375 -1.640625 0.4375l-3.640625 0q-1.15625 0 -1.65625 -0.4375q-0.484375 -0.453125 -0.484375 -1.171875q0 -0.875 0.75 -1.359375q0.375 -0.234375 1.609375 -0.234375l0 -7.78125q-1.015625 0 -1.5 -0.453125q-0.484375 -0.453125 -0.484375 -1.15625q0 -0.703125 0.484375 -1.140625q0.5 -0.453125 1.65625 -0.453125l3.046875 0zm30.484375 8.71875l-13.140625 0q0.5 1.25 1.765625 2.015625q1.28125 0.765625 3.453125 0.765625q1.78125 0 4.734375 -0.765625q1.21875 -0.3125 1.6875 -0.3125q0.640625 0 1.078125 0.453125q0.4375 0.453125 0.4375 1.140625q0 0.625 -0.46875 1.0625q-0.625 0.578125 -3.046875 1.109375q-2.421875 0.515625 -4.65625 0.515625q-3.84375 0 -6.15625 -2.171875q-2.296875 -2.171875 -2.296875 -5.34375q0 -3.375 2.484375 -5.484375q2.5 -2.125 5.75 -2.125q1.953125 0 3.578125 0.6875q1.640625 0.6875 2.4375 1.484375q1.125 1.15625 1.859375 2.859375q0.5 1.1875 0.5 2.75l0 1.359375zm-3.546875 -3.203125q-0.734375 -1.375 -1.921875 -2.046875q-1.1875 -0.6875 -2.828125 -0.6875q-1.625 0 -2.8125 0.6875q-1.1875 0.671875 -1.9375 2.046875l9.5 0zm18.171875 -1.765625q-0.78125 -0.484375 -1.640625 -0.71875q-0.859375 -0.25 -1.796875 -0.25q-1.859375 0 -2.953125 0.609375q-0.484375 0.265625 -0.484375 0.578125q0 0.359375 0.65625 0.703125q0.5 0.25 2.234375 0.484375q3.1875 0.4375 4.4375 0.875q1.640625 0.578125 2.53125 1.71875q0.890625 1.140625 0.890625 2.40625q0 1.71875 -1.515625 2.875q-2.171875 1.671875 -5.640625 1.671875q-1.390625 0 -2.578125 -0.25q-1.171875 -0.234375 -2.15625 -0.703125q-0.234375 0.203125 -0.5 0.3125q-0.265625 0.109375 -0.546875 0.109375q-0.75 0 -1.203125 -0.484375q-0.4375 -0.5 -0.4375 -1.65625l0 -1.078125q0 -1.15625 0.4375 -1.640625q0.453125 -0.5 1.171875 -0.5q0.578125 0 0.96875 0.328125q0.390625 0.3125 0.609375 1.09375q0.734375 0.625 1.765625 0.953125q1.03125 0.3125 2.375 0.3125q2.203125 0 3.421875 -0.6875q0.578125 -0.34375 0.578125 -0.71875q0 -0.625 -0.828125 -1.03125q-0.828125 -0.40625 -3.421875 -0.6875q-3.859375 -0.40625 -5.15625 -1.5625q-1.296875 -1.140625 -1.296875 -2.8125q0 -1.71875 1.453125 -2.859375q1.96875 -1.5625 5.15625 -1.5625q1.109375 0 2.125 0.21875q1.03125 0.203125 1.96875 0.640625q0.296875 -0.21875 0.546875 -0.328125q0.265625 -0.109375 0.484375 -0.109375q0.65625 0 1.09375 0.5q0.4375 0.484375 0.4375 1.640625l0 0.78125q0 1.046875 -0.25 1.421875q-0.5 0.71875 -1.359375 0.71875q-0.578125 0 -1.015625 -0.359375q-0.4375 -0.359375 -0.5625 -0.953125z" fill-rule="nonzero"/><path fill="#cfe2f3" d="m372.11023 14.656168l143.24408 0l0 74.48819l-143.24408 0z" fill-rule="evenodd"/><path stroke="#000000" stroke-width="1.0" stroke-linejoin="round" stroke-linecap="butt" d="m372.11023 14.656168l143.24408 0l0 74.48819l-143.24408 0z" fill-rule="evenodd"/><path fill="#000000" d="m427.41196 63.620262l0 -0.75q-1.203125 0.640625 -2.65625 0.953125q-1.453125 0.328125 -2.640625 0.328125q-2.578125 0 -4.1875 -1.359375q-1.609375 -1.375 -1.609375 -3.03125q0 -2.015625 2.046875 -3.734375q2.0625 -1.734375 5.6875 -1.734375q1.453125 0 3.359375 0.3125l0 -0.765625q0 -0.71875 -0.625 -1.171875q-0.609375 -0.453125 -2.34375 -0.453125q-1.421875 0 -3.6875 0.5625q-0.84375 0.203125 -1.3125 0.203125q-0.640625 0 -1.09375 -0.453125q-0.4375 -0.46875 -0.4375 -1.1875q0 -0.40625 0.15625 -0.703125q0.15625 -0.296875 0.4375 -0.46875q0.28125 -0.1875 1.171875 -0.4375q1.1875 -0.328125 2.421875 -0.515625q1.234375 -0.203125 2.234375 -0.203125q2.984375 0 4.625 1.296875q1.65625 1.28125 1.65625 3.515625l0 6.59375l0.546875 0q1.15625 0 1.640625 0.453125q0.5 0.4375 0.5 1.15625q0 0.703125 -0.5 1.15625q-0.484375 0.4375 -1.640625 0.4375l-3.75 0zm0 -5.734375q-1.921875 -0.375 -3.546875 -0.375q-1.953125 0 -3.359375 0.953125q-0.875 0.609375 -0.875 1.234375q0 0.453125 0.421875 0.734375q0.78125 0.515625 2.140625 0.515625q1.15625 0 2.609375 -0.453125q1.46875 -0.453125 2.609375 -1.234375l0 -1.375zm23.671875 -14.53125l0 17.0625l0.546875 0q1.140625 0 1.640625 0.453125q0.5 0.4375 0.5 1.15625q0 0.703125 -0.5 1.15625q-0.484375 0.4375 -1.640625 0.4375l-3.75 0l0 -0.78125q-1.09375 0.640625 -2.296875 0.96875q-1.1875 0.328125 -2.46875 0.328125q-3.609375 0 -5.8125 -2.078125q-2.203125 -2.09375 -2.203125 -5.203125q0 -3.25 2.3125 -5.546875q2.3125 -2.296875 5.640625 -2.296875q1.25 0 2.453125 0.390625q1.203125 0.375 2.375 1.140625l0 -3.984375l-0.546875 0q-1.15625 0 -1.65625 -0.4375q-0.484375 -0.453125 -0.484375 -1.15625q0 -0.71875 0.484375 -1.15625q0.5 -0.453125 1.65625 -0.453125l3.75 0zm-3.203125 13.59375q0 -1.984375 -1.390625 -3.359375q-1.390625 -1.375 -3.40625 -1.375q-2.0 0 -3.390625 1.375q-1.390625 1.375 -1.390625 3.3125q0 1.765625 1.25 2.90625q1.25 1.125 3.53125 1.125q2.265625 0 3.53125 -1.125q1.265625 -1.140625 1.265625 -2.859375zm22.40625 -13.59375l0 17.0625l0.546875 0q1.140625 0 1.640625 0.453125q0.5 0.4375 0.5 1.15625q0 0.703125 -0.5 1.15625q-0.484375 0.4375 -1.640625 0.4375l-3.75 0l0 -0.78125q-1.09375 0.640625 -2.296875 0.96875q-1.1875 0.328125 -2.46875 0.328125q-3.609375 0 -5.8125 -2.078125q-2.203125 -2.09375 -2.203125 -5.203125q0 -3.25 2.3125 -5.546875q2.3125 -2.296875 5.640625 -2.296875q1.25 0 2.453125 0.390625q1.203125 0.375 2.375 1.140625l0 -3.984375l-0.546875 0q-1.15625 0 -1.65625 -0.4375q-0.484375 -0.453125 -0.484375 -1.15625q0 -0.71875 0.484375 -1.15625q0.5 -0.453125 1.65625 -0.453125l3.75 0zm-3.203125 13.59375q0 -1.984375 -1.390625 -3.359375q-1.390625 -1.375 -3.40625 -1.375q-2.0 0 -3.390625 1.375q-1.390625 1.375 -1.390625 3.3125q0 1.765625 1.25 2.90625q1.25 1.125 3.53125 1.125q2.265625 0 3.53125 -1.125q1.265625 -1.140625 1.265625 -2.859375z" fill-rule="nonzero"/><path fill="#cfe2f3" d="m515.3543 14.656168l143.24414 0l0 74.48819l-143.24414 0z" fill-rule="evenodd"/><path stroke="#000000" stroke-width="1.0" stroke-linejoin="round" stroke-linecap="butt" d="m515.3543 14.656168l143.24414 0l0 74.48819l-143.24414 0z" fill-rule="evenodd"/><path fill="#000000" d="m571.2342 53.182762q-0.78125 -0.484375 -1.640625 -0.71875q-0.859375 -0.25 -1.796875 -0.25q-1.859375 0 -2.953125 0.609375q-0.484375 0.265625 -0.484375 0.578125q0 0.359375 0.65625 0.703125q0.5 0.25 2.234375 0.484375q3.1875 0.4375 4.4375 0.875q1.640625 0.578125 2.53125 1.71875q0.890625 1.140625 0.890625 2.40625q0 1.71875 -1.515625 2.875q-2.171875 1.671875 -5.640625 1.671875q-1.390625 0 -2.578125 -0.25q-1.171875 -0.234375 -2.15625 -0.703125q-0.234375 0.203125 -0.5 0.3125q-0.265625 0.109375 -0.546875 0.109375q-0.75 0 -1.203125 -0.484375q-0.4375 -0.5 -0.4375 -1.65625l0 -1.078125q0 -1.15625 0.4375 -1.640625q0.453125 -0.5 1.171875 -0.5q0.578125 0 0.96875 0.328125q0.390625 0.3125 0.609375 1.09375q0.734375 0.625 1.765625 0.953125q1.03125 0.3125 2.375 0.3125q2.203125 0 3.421875 -0.6875q0.578125 -0.34375 0.578125 -0.71875q0 -0.625 -0.828125 -1.03125q-0.828125 -0.40625 -3.421875 -0.6875q-3.859375 -0.40625 -5.15625 -1.5625q-1.296875 -1.140625 -1.296875 -2.8125q0 -1.71875 1.453125 -2.859375q1.96875 -1.5625 5.15625 -1.5625q1.109375 0 2.125 0.21875q1.03125 0.203125 1.96875 0.640625q0.296875 -0.21875 0.546875 -0.328125q0.265625 -0.109375 0.484375 -0.109375q0.65625 0 1.09375 0.5q0.4375 0.484375 0.4375 1.640625l0 0.78125q0 1.046875 -0.25 1.421875q-0.5 0.71875 -1.359375 0.71875q-0.578125 0 -1.015625 -0.359375q-0.4375 -0.359375 -0.5625 -0.953125zm22.546875 -3.75l0 10.984375q1.015625 0 1.5 0.453125q0.484375 0.453125 0.484375 1.15625q0 0.703125 -0.5 1.15625q-0.484375 0.4375 -1.640625 0.4375l-3.046875 0l0 -0.734375q-1.375 0.625 -2.625 0.9375q-1.25 0.3125 -2.375 0.3125q-1.578125 0 -2.734375 -0.65625q-1.15625 -0.671875 -1.828125 -1.84375q-0.484375 -0.84375 -0.484375 -2.109375l0 -6.890625l-0.546875 0q-1.15625 0 -1.65625 -0.4375q-0.484375 -0.453125 -0.484375 -1.171875q0 -0.703125 0.484375 -1.140625q0.5 -0.453125 1.65625 -0.453125l3.75 0l0 9.53125q0 1.015625 0.484375 1.5q0.5 0.46875 1.515625 0.46875q0.96875 0 2.078125 -0.375q1.125 -0.390625 2.765625 -1.390625l0 -6.53125l-1.15625 0q-1.15625 0 -1.65625 -0.4375q-0.484375 -0.453125 -0.484375 -1.171875q0 -0.703125 0.484375 -1.140625q0.5 -0.453125 1.65625 -0.453125l4.359375 0zm7.453125 0l0 0.90625q0.78125 -0.765625 1.40625 -1.046875q0.640625 -0.296875 1.46875 -0.296875q0.703125 0 1.390625 0.34375q0.6875 0.34375 1.34375 1.03125q0.828125 -0.6875 1.671875 -1.015625q0.859375 -0.34375 1.75 -0.34375q1.78125 0 2.890625 0.953125q1.46875 1.25 1.46875 3.28125l0 7.171875q1.0 0 1.484375 0.453125q0.484375 0.453125 0.484375 1.15625q0 0.703125 -0.484375 1.15625q-0.484375 0.4375 -1.640625 0.4375l-3.046875 0l0 -10.109375q0 -0.734375 -0.265625 -1.015625q-0.265625 -0.28125 -0.8125 -0.28125q-0.53125 0 -0.984375 0.28125q-0.578125 0.390625 -1.40625 1.46875l0 6.453125q1.0 0 1.484375 0.453125q0.484375 0.453125 0.484375 1.15625q0 0.703125 -0.484375 1.15625q-0.484375 0.4375 -1.640625 0.4375l-3.046875 0l0 -10.109375q0 -0.71875 -0.28125 -1.0q-0.265625 -0.296875 -0.8125 -0.296875q-0.5625 0 -1.109375 0.359375q-0.546875 0.34375 -1.3125 1.390625l0 6.453125q1.0 0 1.484375 0.453125q0.5 0.453125 0.5 1.15625q0 0.703125 -0.5 1.15625q-0.484375 0.4375 -1.640625 0.4375l-2.890625 0q-1.15625 0 -1.640625 -0.4375q-0.5 -0.453125 -0.5 -1.171875q0 -0.703125 0.484375 -1.140625q0.484375 -0.453125 1.5 -0.453125l0 -7.78125q-1.015625 0 -1.5 -0.453125q-0.484375 -0.453125 -0.484375 -1.15625q0 -0.703125 0.5 -1.140625q0.484375 -0.453125 1.640625 -0.453125l3.046875 0z" fill-rule="nonzero"/><path fill="#cfe2f3" d="m658.59845 14.656168l194.74011 0l0 74.48819l-194.74011 0z" fill-rule="evenodd"/><path stroke="#000000" stroke-width="1.0" stroke-linejoin="round" stroke-linecap="butt" d="m658.59845 14.656168l194.74011 0l0 74.48819l-194.74011 0z" fill-rule="evenodd"/><path fill="#000000" d="m703.0154 49.432762l0 0.90625q0.78125 -0.765625 1.40625 -1.046875q0.640625 -0.296875 1.46875 -0.296875q0.703125 0 1.390625 0.34375q0.6875 0.34375 1.34375 1.03125q0.828125 -0.6875 1.671875 -1.015625q0.859375 -0.34375 1.75 -0.34375q1.78125 0 2.890625 0.953125q1.46875 1.25 1.46875 3.28125l0 7.171875q1.0 0 1.484375 0.453125q0.484375 0.453125 0.484375 1.15625q0 0.703125 -0.484375 1.15625q-0.484375 0.4375 -1.640625 0.4375l-3.046875 0l0 -10.109375q0 -0.734375 -0.265625 -1.015625q-0.265625 -0.28125 -0.8125 -0.28125q-0.53125 0 -0.984375 0.28125q-0.578125 0.390625 -1.40625 1.46875l0 6.453125q1.0 0 1.484375 0.453125q0.484375 0.453125 0.484375 1.15625q0 0.703125 -0.484375 1.15625q-0.484375 0.4375 -1.640625 0.4375l-3.046875 0l0 -10.109375q0 -0.71875 -0.28125 -1.0q-0.265625 -0.296875 -0.8125 -0.296875q-0.5625 0 -1.109375 0.359375q-0.546875 0.34375 -1.3125 1.390625l0 6.453125q1.0 0 1.484375 0.453125q0.5 0.453125 0.5 1.15625q0 0.703125 -0.5 1.15625q-0.484375 0.4375 -1.640625 0.4375l-2.890625 0q-1.15625 0 -1.640625 -0.4375q-0.5 -0.453125 -0.5 -1.171875q0 -0.703125 0.484375 -1.140625q0.484375 -0.453125 1.5 -0.453125l0 -7.78125q-1.015625 0 -1.5 -0.453125q-0.484375 -0.453125 -0.484375 -1.15625q0 -0.703125 0.5 -1.140625q0.484375 -0.453125 1.640625 -0.453125l3.046875 0zm27.03125 14.1875l0 -0.75q-1.203125 0.640625 -2.65625 0.953125q-1.453125 0.328125 -2.640625 0.328125q-2.578125 0 -4.1875 -1.359375q-1.609375 -1.375 -1.609375 -3.03125q0 -2.015625 2.046875 -3.734375q2.0625 -1.734375 5.6875 -1.734375q1.453125 0 3.359375 0.3125l0 -0.765625q0 -0.71875 -0.625 -1.171875q-0.609375 -0.453125 -2.34375 -0.453125q-1.421875 0 -3.6875 0.5625q-0.84375 0.203125 -1.3125 0.203125q-0.640625 0 -1.09375 -0.453125q-0.4375 -0.46875 -0.4375 -1.1875q0 -0.40625 0.15625 -0.703125q0.15625 -0.296875 0.4375 -0.46875q0.28125 -0.1875 1.171875 -0.4375q1.1875 -0.328125 2.421875 -0.515625q1.234375 -0.203125 2.234375 -0.203125q2.984375 0 4.625 1.296875q1.65625 1.28125 1.65625 3.515625l0 6.59375l0.546875 0q1.15625 0 1.640625 0.453125q0.5 0.4375 0.5 1.15625q0 0.703125 -0.5 1.15625q-0.484375 0.4375 -1.640625 0.4375l-3.75 0zm0 -5.734375q-1.921875 -0.375 -3.546875 -0.375q-1.953125 0 -3.359375 0.953125q-0.875 0.609375 -0.875 1.234375q0 0.453125 0.421875 0.734375q0.78125 0.515625 2.140625 0.515625q1.15625 0 2.609375 -0.453125q1.46875 -0.453125 2.609375 -1.234375l0 -1.375zm15.53125 -5.25l0 6.421875q0 1.03125 0.421875 1.359375q0.65625 0.515625 2.34375 0.515625q2.453125 0 4.53125 -1.046875q0.796875 -0.40625 1.25 -0.40625q0.625 0 1.078125 0.46875q0.46875 0.46875 0.46875 1.140625q0 0.625 -0.5 1.078125q-0.765625 0.734375 -3.03125 1.359375q-2.25 0.609375 -3.796875 0.609375q-2.984375 0 -4.484375 -1.28125q-1.484375 -1.296875 -1.484375 -3.171875l0 -7.046875l-1.15625 0q-1.15625 0 -1.65625 -0.4375q-0.484375 -0.453125 -0.484375 -1.171875q0 -0.703125 0.484375 -1.140625q0.5 -0.453125 1.65625 -0.453125l1.15625 0l0 -2.890625q0 -1.15625 0.4375 -1.640625q0.453125 -0.5 1.171875 -0.5q0.703125 0 1.140625 0.5q0.453125 0.484375 0.453125 1.640625l0 2.890625l5.921875 0q1.15625 0 1.640625 0.453125q0.5 0.4375 0.5 1.15625q0 0.703125 -0.5 1.15625q-0.484375 0.4375 -1.640625 0.4375l-5.921875 0zm15.046875 -3.203125l0 0.90625q0.78125 -0.765625 1.40625 -1.046875q0.640625 -0.296875 1.46875 -0.296875q0.703125 0 1.390625 0.34375q0.6875 0.34375 1.34375 1.03125q0.828125 -0.6875 1.671875 -1.015625q0.859375 -0.34375 1.75 -0.34375q1.78125 0 2.890625 0.953125q1.46875 1.25 1.46875 3.28125l0 7.171875q1.0 0 1.484375 0.453125q0.484375 0.453125 0.484375 1.15625q0 0.703125 -0.484375 1.15625q-0.484375 0.4375 -1.640625 0.4375l-3.046875 0l0 -10.109375q0 -0.734375 -0.265625 -1.015625q-0.265625 -0.28125 -0.8125 -0.28125q-0.53125 0 -0.984375 0.28125q-0.578125 0.390625 -1.40625 1.46875l0 6.453125q1.0 0 1.484375 0.453125q0.484375 0.453125 0.484375 1.15625q0 0.703125 -0.484375 1.15625q-0.484375 0.4375 -1.640625 0.4375l-3.046875 0l0 -10.109375q0 -0.71875 -0.28125 -1.0q-0.265625 -0.296875 -0.8125 -0.296875q-0.5625 0 -1.109375 0.359375q-0.546875 0.34375 -1.3125 1.390625l0 6.453125q1.0 0 1.484375 0.453125q0.5 0.453125 0.5 1.15625q0 0.703125 -0.5 1.15625q-0.484375 0.4375 -1.640625 0.4375l-2.890625 0q-1.15625 0 -1.640625 -0.4375q-0.5 -0.453125 -0.5 -1.171875q0 -0.703125 0.484375 -1.140625q0.484375 -0.453125 1.5 -0.453125l0 -7.78125q-1.015625 0 -1.5 -0.453125q-0.484375 -0.453125 -0.484375 -1.15625q0 -0.703125 0.5 -1.140625q0.484375 -0.453125 1.640625 -0.453125l3.046875 0zm30.953125 0l0 10.984375q1.015625 0 1.5 0.453125q0.484375 0.453125 0.484375 1.15625q0 0.703125 -0.5 1.15625q-0.484375 0.4375 -1.640625 0.4375l-3.046875 0l0 -0.734375q-1.375 0.625 -2.625 0.9375q-1.25 0.3125 -2.375 0.3125q-1.578125 0 -2.734375 -0.65625q-1.15625 -0.671875 -1.828125 -1.84375q-0.484375 -0.84375 -0.484375 -2.109375l0 -6.890625l-0.546875 0q-1.15625 0 -1.65625 -0.4375q-0.484375 -0.453125 -0.484375 -1.171875q0 -0.703125 0.484375 -1.140625q0.5 -0.453125 1.65625 -0.453125l3.75 0l0 9.53125q0 1.015625 0.484375 1.5q0.5 0.46875 1.515625 0.46875q0.96875 0 2.078125 -0.375q1.125 -0.390625 2.765625 -1.390625l0 -6.53125l-1.15625 0q-1.15625 0 -1.65625 -0.4375q-0.484375 -0.453125 -0.484375 -1.171875q0 -0.703125 0.484375 -1.140625q0.5 -0.453125 1.65625 -0.453125l4.359375 0zm14.0 -6.078125l0 17.0625l3.84375 0q1.15625 0 1.640625 0.453125q0.5 0.4375 0.5 1.15625q0 0.703125 -0.5 1.15625q-0.484375 0.4375 -1.640625 0.4375l-10.890625 0q-1.15625 0 -1.65625 -0.4375q-0.484375 -0.453125 -0.484375 -1.171875q0 -0.703125 0.484375 -1.140625q0.5 -0.453125 1.65625 -0.453125l3.84375 0l0 -13.859375l-2.578125 0q-1.140625 0 -1.640625 -0.4375q-0.5 -0.453125 -0.5 -1.171875q0 -0.703125 0.484375 -1.140625q0.5 -0.453125 1.65625 -0.453125l5.78125 0z" fill-rule="nonzero"/><path fill="#cfe2f3" d="m550.3517 89.144356l302.99213 0l0 74.4882l-302.99213 0z" fill-rule="evenodd"/><path stroke="#000000" stroke-width="1.0" stroke-linejoin="round" stroke-linecap="butt" d="m550.3517 89.144356l302.99213 0l0 74.4882l-302.99213 0z" fill-rule="evenodd"/><path fill="#000000" d="m624.3712 123.92095l0 2.0q2.015625 -1.453125 3.171875 -1.9375q1.171875 -0.484375 2.1875 -0.484375q1.5625 0 3.03125 1.15625q1.0 0.78125 1.0 1.59375q0 0.6875 -0.484375 1.171875q-0.46875 0.46875 -1.140625 0.46875q-0.59375 0 -1.25 -0.59375q-0.65625 -0.59375 -1.171875 -0.59375q-0.671875 0 -2.015625 0.84375q-1.328125 0.8437576 -3.328125 2.5312576l0 4.828125l4.5625 0q1.15625 0 1.640625 0.453125q0.5 0.4375 0.5 1.15625q0 0.703125 -0.5 1.15625q-0.484375 0.4375 -1.640625 0.4375l-9.671875 0q-1.15625 0 -1.65625 -0.4375q-0.484375 -0.453125 -0.484375 -1.171875q0 -0.703125 0.484375 -1.140625q0.5 -0.453125 1.65625 -0.453125l1.90625 0l0 -7.7812576l-1.15625 0q-1.15625 0 -1.65625 -0.4375q-0.484375 -0.453125 -0.484375 -1.171875q0 -0.703125 0.484375 -1.140625q0.5 -0.453125 1.65625 -0.453125l4.359375 0zm27.90625 8.718758l-13.140625 0q0.5 1.25 1.765625 2.015625q1.28125 0.765625 3.453125 0.765625q1.78125 0 4.734375 -0.765625q1.21875 -0.3125 1.6875 -0.3125q0.640625 0 1.078125 0.453125q0.4375 0.453125 0.4375 1.140625q0 0.625 -0.46875 1.0625q-0.625 0.578125 -3.046875 1.109375q-2.421875 0.515625 -4.65625 0.515625q-3.84375 0 -6.15625 -2.171875q-2.296875 -2.171875 -2.296875 -5.34375q0 -3.3750076 2.484375 -5.4843826q2.5 -2.125 5.75 -2.125q1.953125 0 3.578125 0.6875q1.640625 0.6875 2.4375 1.484375q1.125 1.15625 1.859375 2.8593826q0.5 1.1875 0.5 2.75l0 1.359375zm-3.546875 -3.203125q-0.734375 -1.375 -1.921875 -2.0468826q-1.1875 -0.6875 -2.828125 -0.6875q-1.625 0 -2.8125 0.6875q-1.1875 0.6718826 -1.9375 2.0468826l9.5 0zm22.0625 -11.593758l0 17.062508l0.546875 0q1.140625 0 1.640625 0.453125q0.5 0.4375 0.5 1.15625q0 0.703125 -0.5 1.15625q-0.484375 0.4375 -1.640625 0.4375l-3.75 0l0 -0.78125q-1.09375 0.640625 -2.296875 0.96875q-1.1875 0.328125 -2.46875 0.328125q-3.609375 0 -5.8125 -2.078125q-2.203125 -2.09375 -2.203125 -5.203125q0 -3.25 2.3125 -5.5468826q2.3125 -2.296875 5.640625 -2.296875q1.25 0 2.453125 0.390625q1.203125 0.375 2.375 1.140625l0 -3.984375l-0.546875 0q-1.15625 0 -1.65625 -0.4375q-0.484375 -0.453125 -0.484375 -1.15625q0 -0.71875 0.484375 -1.15625q0.5 -0.453125 1.65625 -0.453125l3.75 0zm-3.203125 13.593758q0 -1.984375 -1.390625 -3.359375q-1.390625 -1.3750076 -3.40625 -1.3750076q-2.0 0 -3.390625 1.3750076q-1.390625 1.375 -1.390625 3.3125q0 1.765625 1.25 2.90625q1.25 1.125 3.53125 1.125q2.265625 0 3.53125 -1.125q1.265625 -1.140625 1.265625 -2.859375zm21.859375 -7.5156326l0 10.984383q1.015625 0 1.5 0.453125q0.484375 0.453125 0.484375 1.15625q0 0.703125 -0.5 1.15625q-0.484375 0.4375 -1.640625 0.4375l-3.046875 0l0 -0.734375q-1.375 0.625 -2.625 0.9375q-1.25 0.3125 -2.375 0.3125q-1.578125 0 -2.734375 -0.65625q-1.15625 -0.671875 -1.828125 -1.84375q-0.484375 -0.84375 -0.484375 -2.109375l0 -6.8906326l-0.546875 0q-1.15625 0 -1.65625 -0.4375q-0.484375 -0.453125 -0.484375 -1.171875q0 -0.703125 0.484375 -1.140625q0.5 -0.453125 1.65625 -0.453125l3.75 0l0 9.531258q0 1.015625 0.484375 1.5q0.5 0.46875 1.515625 0.46875q0.96875 0 2.078125 -0.375q1.125 -0.390625 2.765625 -1.390625l0 -6.5312576l-1.15625 0q-1.15625 0 -1.65625 -0.4375q-0.484375 -0.453125 -0.484375 -1.171875q0 -0.703125 0.484375 -1.140625q0.5 -0.453125 1.65625 -0.453125l4.359375 0zm17.390625 0.578125q0.578125 -0.546875 1.1875 -0.546875q0.6875 0 1.125 0.5q0.453125 0.484375 0.453125 1.625l0 2.0625076q0 1.15625 -0.453125 1.640625q-0.4375 0.484375 -1.15625 0.484375q-0.65625 0 -1.109375 -0.375q-0.328125 -0.28125 -0.515625 -1.140625q-0.1875 -0.8750076 -0.90625 -1.2968826q-1.265625 -0.75 -3.234375 -0.75q-2.265625 0 -3.640625 1.3281326q-1.359375 1.328125 -1.359375 3.359375q0 1.875 1.3125 2.96875q1.3125 1.078125 4.359375 1.078125q2.0 0 3.265625 -0.40625q0.75 -0.25 1.421875 -0.84375q0.671875 -0.609375 1.21875 -0.609375q0.65625 0 1.125 0.484375q0.484375 0.484375 0.484375 1.140625q0 1.0625 -1.453125 2.015625q-2.15625 1.421875 -6.3125 1.421875q-3.734375 0 -5.8125 -1.546875q-2.8125 -2.078125 -2.8125 -5.6875q0 -3.4218826 2.28125 -5.6562576q2.28125 -2.25 5.953125 -2.25q1.328125 0 2.46875 0.25q1.140625 0.25 2.109375 0.75zm13.421875 2.625l0 6.4218826q0 1.03125 0.421875 1.359375q0.65625 0.515625 2.34375 0.515625q2.453125 0 4.53125 -1.046875q0.796875 -0.40625 1.25 -0.40625q0.625 0 1.078125 0.46875q0.46875 0.46875 0.46875 1.140625q0 0.625 -0.5 1.078125q-0.765625 0.734375 -3.03125 1.359375q-2.25 0.609375 -3.796875 0.609375q-2.984375 0 -4.484375 -1.28125q-1.484375 -1.296875 -1.484375 -3.171875l0 -7.0468826l-1.15625 0q-1.15625 0 -1.65625 -0.4375q-0.484375 -0.453125 -0.484375 -1.171875q0 -0.703125 0.484375 -1.140625q0.5 -0.453125 1.65625 -0.453125l1.15625 0l0 -2.890625q0 -1.15625 0.4375 -1.640625q0.453125 -0.5 1.171875 -0.5q0.703125 0 1.140625 0.5q0.453125 0.484375 0.453125 1.640625l0 2.890625l5.921875 0q1.15625 0 1.640625 0.453125q0.5 0.4375 0.5 1.15625q0 0.703125 -0.5 1.15625q-0.484375 0.4375 -1.640625 0.4375l-5.921875 0zm21.140625 -9.28125l0 3.390625l-3.8125 0l0 -3.390625l3.8125 0zm0.4375 6.078125l0 10.984383l3.84375 0q1.15625 0 1.640625 0.453125q0.5 0.4375 0.5 1.15625q0 0.703125 -0.5 1.15625q-0.484375 0.4375 -1.640625 0.4375l-10.890625 0q-1.15625 0 -1.65625 -0.4375q-0.484375 -0.453125 -0.484375 -1.171875q0 -0.703125 0.484375 -1.140625q0.5 -0.453125 1.65625 -0.453125l3.84375 0l0 -7.7812576l-2.578125 0q-1.140625 0 -1.640625 -0.4375q-0.5 -0.453125 -0.5 -1.171875q0 -0.703125 0.484375 -1.140625q0.5 -0.453125 1.65625 -0.453125l5.78125 0zm25.9375 7.3593826q0 1.84375 -1.03125 3.578125q-1.015625 1.71875 -3.046875 2.75q-2.015625 1.015625 -4.21875 1.015625q-2.1875 0 -4.1875 -1.0q-2.0 -1.015625 -3.046875 -2.75q-1.046875 -1.734375 -1.046875 -3.625q0 -1.921875 1.0625 -3.7656326q1.0625 -1.859375 3.046875 -2.921875q2.0 -1.0625 4.171875 -1.0625q2.1875 0 4.203125 1.09375q2.03125 1.078125 3.0625 2.921875q1.03125 1.8281326 1.03125 3.7656326zm-3.203125 0.015625q0 -1.546875 -1.109375 -2.84375q-1.515625 -1.7500076 -3.984375 -1.7500076q-2.171875 0 -3.625 1.3906326q-1.453125 1.390625 -1.453125 3.21875q0 1.5 1.46875 2.8125q1.46875 1.296875 3.609375 1.296875q2.15625 0 3.625 -1.296875q1.46875 -1.3125 1.46875 -2.828125zm10.84375 -7.3750076l0 1.078125q0.875 -0.75 1.921875 -1.125q1.0625 -0.375 2.296875 -0.375q2.84375 0 4.5 1.765625q1.3125 1.40625 1.3125 3.6875076l0 5.953125q1.015625 0 1.5 0.453125q0.484375 0.4375 0.484375 1.15625q0 0.703125 -0.5 1.15625q-0.484375 0.4375 -1.640625 0.4375l-2.890625 0q-1.15625 0 -1.65625 -0.4375q-0.484375 -0.453125 -0.484375 -1.171875q0 -0.703125 0.484375 -1.140625q0.484375 -0.453125 1.5 -0.453125l0 -6.046875q0 -1.0468826 -0.5625 -1.5312576q-0.734375 -0.625 -2.203125 -0.625q-1.109375 0 -1.953125 0.4375q-0.828125 0.421875 -2.109375 1.8125076l0 5.953125q1.234375 0 1.59375 0.234375q0.765625 0.46875 0.765625 1.375q0 0.703125 -0.5 1.15625q-0.484375 0.4375 -1.640625 0.4375l-3.640625 0q-1.15625 0 -1.65625 -0.4375q-0.484375 -0.453125 -0.484375 -1.171875q0 -0.875 0.75 -1.359375q0.375 -0.234375 1.609375 -0.234375l0 -7.7812576q-1.015625 0 -1.5 -0.453125q-0.484375 -0.453125 -0.484375 -1.15625q0 -0.703125 0.484375 -1.140625q0.5 -0.453125 1.65625 -0.453125l3.046875 0z" fill-rule="nonzero"/><path fill="#f4cccc" d="m853.33856 238.12073l84.06299 0l0 74.48819l-84.06299 0z" fill-rule="evenodd"/><path stroke="#000000" stroke-width="1.0" stroke-linejoin="round" stroke-linecap="butt" d="m853.33856 238.12073l84.06299 0l0 74.48819l-84.06299 0z" fill-rule="evenodd"/><path fill="#000000" d="m883.10443 287.08484l0 -3.203125l3.203125 0l0 3.203125l-3.203125 0zm10.671875 0l0 -3.203125l3.203125 0l0 3.203125l-3.203125 0zm10.65625 0l0 -3.203125l3.21875 0l0 3.203125l-3.21875 0z" fill-rule="nonzero"/><path fill="#cfe2f3" d="m853.33856 163.63255l84.06299 0l0 74.488174l-84.06299 0z" fill-rule="evenodd"/><path stroke="#000000" stroke-width="1.0" stroke-linejoin="round" stroke-linecap="butt" d="m853.33856 163.63255l84.06299 0l0 74.488174l-84.06299 0z" fill-rule="evenodd"/><path fill="#000000" d="m883.10443 212.59665l0 -3.203125l3.203125 0l0 3.203125l-3.203125 0zm10.671875 0l0 -3.203125l3.203125 0l0 3.203125l-3.203125 0zm10.65625 0l0 -3.203125l3.21875 0l0 3.203125l-3.21875 0z" fill-rule="nonzero"/><path fill="#cfe2f3" d="m853.34906 89.144356l84.06299 0l0 74.4882l-84.06299 0z" fill-rule="evenodd"/><path stroke="#000000" stroke-width="1.0" stroke-linejoin="round" stroke-linecap="butt" d="m853.34906 89.144356l84.06299 0l0 74.4882l-84.06299 0z" fill-rule="evenodd"/><path fill="#000000" d="m883.1149 138.10846l0 -3.203125l3.203125 0l0 3.203125l-3.203125 0zm10.671875 0l0 -3.203125l3.203125 0l0 3.203125l-3.203125 0zm10.65625 0l0 -3.203125l3.21875 0l0 3.203125l-3.21875 0z" fill-rule="nonzero"/><path fill="#cfe2f3" d="m853.34906 14.656168l84.06299 0l0 74.48819l-84.06299 0z" fill-rule="evenodd"/><path stroke="#000000" stroke-width="1.0" stroke-linejoin="round" stroke-linecap="butt" d="m853.34906 14.656168l84.06299 0l0 74.48819l-84.06299 0z" fill-rule="evenodd"/><path fill="#000000" d="m883.1149 63.620262l0 -3.203125l3.203125 0l0 3.203125l-3.203125 0zm10.671875 0l0 -3.203125l3.203125 0l0 3.203125l-3.203125 0zm10.65625 0l0 -3.203125l3.21875 0l0 3.203125l-3.21875 0z" fill-rule="nonzero"/><path fill="#000000" fill-opacity="0.0" d="m19.4042 22.813648l194.74016 0l0 58.17323l-194.74016 0z" fill-rule="evenodd"/><path fill="#000000" d="m28.357325 62.53365l8.796873 -22.90625l3.265625 0l9.375 22.90625l-3.453125 0l-2.671875 -6.9375l-9.578125 0l-2.515623 6.9375l-3.21875 0zm6.609373 -9.40625l7.765625 0l-2.390625 -6.34375q-1.09375 -2.890625 -1.625 -4.75q-0.4375 2.203125 -1.234375 4.375l-2.515625 6.71875zm16.859375 9.40625l0 -16.59375l2.53125 0l0 2.515625q0.96875 -1.765625 1.78125 -2.328125q0.828125 -0.5625 1.8125 -0.5625q1.421875 0 2.890625 0.90625l-0.96875 2.609375q-1.03125 -0.609375 -2.0625 -0.609375q-0.921875 0 -1.65625 0.5625q-0.734375 0.546875 -1.046875 1.53125q-0.46875 1.5 -0.46875 3.28125l0 8.6875l-2.8125 0zm10.65625 0l0 -16.59375l2.53125 0l0 2.515625q0.96875 -1.765625 1.78125 -2.328125q0.828125 -0.5625 1.8125 -0.5625q1.421875 0 2.890625 0.90625l-0.96875 2.609375q-1.03125 -0.609375 -2.0625 -0.609375q-0.921875 0 -1.65625 0.5625q-0.734375 0.546875 -1.046875 1.53125q-0.46875 1.5 -0.46875 3.28125l0 8.6875l-2.8125 0zm21.515625 -2.046875q-1.5625 1.328125 -3.015625 1.875q-1.4375 0.546875 -3.09375 0.546875q-2.734375 0 -4.203125 -1.328125q-1.46875 -1.34375 -1.46875 -3.421875q0 -1.21875 0.546875 -2.21875q0.5625 -1.015625 1.453125 -1.625q0.90625 -0.609375 2.03125 -0.921875q0.828125 -0.21875 2.5 -0.421875q3.40625 -0.40625 5.015625 -0.96875q0.015625 -0.578125 0.015625 -0.734375q0 -1.71875 -0.796875 -2.421875q-1.078125 -0.953125 -3.203125 -0.953125q-1.984375 0 -2.9375 0.703125q-0.9375 0.6875 -1.390625 2.453125l-2.75 -0.375q0.375 -1.765625 1.234375 -2.84375q0.859375 -1.09375 2.484375 -1.671875q1.625 -0.59375 3.765625 -0.59375q2.125 0 3.453125 0.5q1.328125 0.5 1.953125 1.265625q0.625 0.75 0.875 1.90625q0.140625 0.71875 0.140625 2.59375l0 3.75q0 3.921875 0.171875 4.96875q0.1875 1.03125 0.71875 1.984375l-2.9375 0q-0.4375 -0.875 -0.5625 -2.046875zm-0.234375 -6.28125q-1.53125 0.625 -4.59375 1.0625q-1.734375 0.25 -2.453125 0.5625q-0.71875 0.3125 -1.109375 0.921875q-0.390625 0.59375 -0.390625 1.328125q0 1.125 0.84375 1.875q0.859375 0.75 2.5 0.75q1.625 0 2.890625 -0.703125q1.265625 -0.71875 1.859375 -1.953125q0.453125 -0.953125 0.453125 -2.8125l0 -1.03125zm7.078125 14.718754l-0.3125 -2.640625q0.921875 0.25 1.609375 0.25q0.9375 0 1.5 -0.3125q0.5625 -0.3125 0.921875 -0.875q0.265625 -0.421875 0.859375 -2.0937538q0.078125 -0.234375 0.25 -0.6875l-6.296875 -16.625l3.03125 0l3.453125 9.609375q0.671875 1.828125 1.203125 3.84375q0.484375 -1.9375 1.15625 -3.78125l3.546875 -9.671875l2.8125 0l-6.3125 16.875q-1.015625 2.7343788 -1.578125 3.7656288q-0.75 1.390625 -1.71875 2.03125q-0.96875 0.65625 -2.3125 0.65625q-0.8125 0 -1.8125 -0.34375zm21.09375 -6.390629l8.796875 -22.90625l3.265625 0l9.375008 22.90625l-3.453125 0l-2.6718826 -6.9375l-9.578125 0l-2.515625 6.9375l-3.21875 0zm6.609375 -9.40625l7.765625 0l-2.390625 -6.34375q-1.09375 -2.890625 -1.625 -4.75q-0.4375 2.203125 -1.234375 4.375l-2.515625 6.71875zm17.250008 9.40625l0 -22.90625l8.640625 0q2.28125 0 3.484375 0.21875q1.6875 0.28125 2.828125 1.078125q1.140625 0.78125 1.828125 2.203125q0.703125 1.421875 0.703125 3.125q0 2.921875 -1.859375 4.953125q-1.859375 2.015625 -6.71875 2.015625l-5.875 0l0 9.3125l-3.03125 0zm3.03125 -12.015625l5.921875 0q2.9375 0 4.171875 -1.09375q1.234375 -1.09375 1.234375 -3.078125q0 -1.4375 -0.734375 -2.453125q-0.71875 -1.03125 -1.90625 -1.359375q-0.765625 -0.203125 -2.828125 -0.203125l-5.859375 0l0 8.1875zm18.828125 12.015625l0 -22.90625l3.03125 0l0 22.90625l-3.03125 0z" fill-rule="nonzero"/><path fill="#000000" fill-opacity="0.0" d="m19.4042 97.301834l194.74016 0l0 58.173233l-194.74016 0z" fill-rule="evenodd"/><path fill="#000000" d="m47.216698 128.99059l3.03125 0.765625q-0.953125 3.734375 -3.4375 5.703125q-2.46875 1.953125 -6.046875 1.953125q-3.703125 0 -6.03125 -1.5q-2.3125 -1.515625 -3.531248 -4.375q-1.203125 -2.859375 -1.203125 -6.140625q0 -3.578125 1.359375 -6.234375q1.3749981 -2.671875 3.890623 -4.046875q2.53125 -1.390625 5.5625 -1.390625q3.4375 0 5.78125 1.75q2.34375 1.75 3.265625 4.921875l-2.984375 0.703125q-0.796875 -2.5 -2.3125 -3.640625q-1.515625 -1.140625 -3.8125 -1.140625q-2.640625 0 -4.421875 1.265625q-1.765625 1.265625 -2.484375 3.40625q-0.71875 2.125 -0.71875 4.390625q0 2.921875 0.84375 5.109375q0.859375 2.171875 2.65625 3.25q1.796875 1.078125 3.890625 1.078125q2.546875 0 4.3125 -1.46875q1.765625 -1.46875 2.390625 -4.359375zm5.359375 -0.265625q0 -4.609375 2.5625 -6.828125q2.140625 -1.84375 5.21875 -1.84375q3.421875 0 5.59375 2.25q2.171875 2.234375 2.171875 6.1875q0 3.203125 -0.96875 5.046875q-0.953125 1.828125 -2.796875 2.84375q-1.828125 1.015625 -4.0 1.015625q-3.484375 0 -5.640625 -2.234375q-2.140625 -2.234375 -2.140625 -6.4375zm2.890625 0q0 3.1875 1.390625 4.78125q1.390625 1.578125 3.5 1.578125q2.09375 0 3.484375 -1.59375q1.390625 -1.59375 1.390625 -4.859375q0 -3.078125 -1.40625 -4.65625q-1.390625 -1.59375 -3.46875 -1.59375q-2.109375 0 -3.5 1.578125q-1.390625 1.578125 -1.390625 4.765625zm15.921875 8.296875l0 -16.59375l2.53125 0l0 2.515625q0.96875 -1.765625 1.78125 -2.328125q0.828125 -0.5625 1.8125 -0.5625q1.421875 0 2.890625 0.90625l-0.96875 2.609375q-1.03125 -0.609375 -2.0625 -0.609375q-0.921875 0 -1.65625 0.5625q-0.734375 0.546875 -1.046875 1.53125q-0.46875 1.5 -0.46875 3.28125l0 8.6875l-2.8125 0zm22.046875 -5.34375l2.90625 0.359375q-0.6875 2.546875 -2.546875 3.953125q-1.859375 1.40625 -4.75 1.40625q-3.640625 0 -5.78125 -2.234375q-2.125 -2.25 -2.125 -6.296875q0 -4.1875 2.15625 -6.5q2.15625 -2.3125 5.59375 -2.3125q3.328125 0 5.4375 2.265625q2.109375 2.265625 2.109375 6.375q0 0.25 -0.015625 0.75l-12.375 0q0.15625 2.734375 1.546875 4.1875q1.390625 1.453125 3.46875 1.453125q1.546875 0 2.640625 -0.8125q1.09375 -0.8125 1.734375 -2.59375zm-9.234375 -4.546875l9.265625 0q-0.1875 -2.09375 -1.0625 -3.140625q-1.34375 -1.625 -3.484375 -1.625q-1.9375 0 -3.265625 1.296875q-1.3125 1.296875 -1.453125 3.46875zm23.515625 1.59375q0 -4.609375 2.5625 -6.828125q2.140625 -1.84375 5.21875 -1.84375q3.421875 0 5.59375 2.25q2.171875 2.234375 2.171875 6.1875q0 3.203125 -0.96875 5.046875q-0.953125 1.828125 -2.796875 2.84375q-1.828125 1.015625 -4.0 1.015625q-3.484375 0 -5.640625 -2.234375q-2.140625 -2.234375 -2.140625 -6.4375zm2.890625 0q0 3.1875 1.390625 4.78125q1.390625 1.578125 3.5 1.578125q2.09375 0 3.484375 -1.59375q1.390625 -1.59375 1.390625 -4.859375q0 -3.078125 -1.40625 -4.65625q-1.390625 -1.59375 -3.46875 -1.59375q-2.109375 0 -3.5 1.578125q-1.390625 1.578125 -1.390625 4.765625zm15.953125 14.65625l0 -22.953125l2.5625076 0l0 2.15625q0.90625 -1.265625 2.046875 -1.890625q1.140625 -0.640625 2.765625 -0.640625q2.125 0 3.75 1.09375q1.625 1.09375 2.453125 3.09375q0.828125 1.984375 0.828125 4.359375q0 2.546875 -0.921875 4.59375q-0.90625 2.03125 -2.65625 3.125q-1.734375 1.078125 -3.65625 1.078125q-1.40625 0 -2.53125 -0.59375q-1.109375 -0.59375 -1.828125 -1.5l0 8.078125l-2.8125076 0zm2.5468826 -14.5625q0 3.203125 1.296875 4.734375q1.296875 1.53125 3.140625 1.53125q1.875 0 3.203125 -1.578125q1.34375 -1.59375 1.34375 -4.921875q0 -3.171875 -1.3125 -4.75q-1.296875 -1.578125 -3.109375 -1.578125q-1.796875 0 -3.1875 1.6875q-1.375 1.671875 -1.375 4.875zm14.125 3.25l2.78125 -0.4375q0.234375 1.671875 1.296875 2.5625q1.078125 0.890625 3.0 0.890625q1.9375 0 2.875 -0.78125q0.9375 -0.796875 0.9375 -1.859375q0 -0.953125 -0.828125 -1.5q-0.578125 -0.375 -2.875 -0.953125q-3.09375 -0.78125 -4.296875 -1.34375q-1.1875 -0.578125 -1.8125 -1.578125q-0.609375 -1.015625 -0.609375 -2.234375q0 -1.109375 0.5 -2.046875q0.515625 -0.953125 1.390625 -1.578125q0.65625 -0.484375 1.78125 -0.8125q1.140625 -0.34375 2.4375 -0.34375q1.953125 0 3.421875 0.5625q1.484375 0.5625 2.1875 1.53125q0.703125 0.953125 0.96875 2.5625l-2.75 0.375q-0.1875 -1.28125 -1.09375 -2.0q-0.890625 -0.71875 -2.53125 -0.71875q-1.9375 0 -2.765625 0.640625q-0.828125 0.640625 -0.828125 1.5q0 0.546875 0.34375 0.984375q0.34375 0.453125 1.078125 0.75q0.421875 0.15625 2.484375 0.71875q2.984375 0.796875 4.15625 1.3125q1.1875 0.5 1.859375 1.46875q0.671875 0.96875 0.671875 2.40625q0 1.40625 -0.828125 2.65625q-0.8125 1.234375 -2.359375 1.921875q-1.546875 0.671875 -3.5 0.671875q-3.234375 0 -4.9375 -1.34375q-1.6875 -1.34375 -2.15625 -3.984375z" fill-rule="nonzero"/><path fill="#000000" fill-opacity="0.0" d="m19.4042 171.79002l208.15747 0l0 58.173233l-208.15747 0z" fill-rule="evenodd"/><path fill="#000000" d="m30.87295 211.51003l0 -22.90625l8.640623 0q2.28125 0 3.484375 0.21875q1.6875 0.28125 2.828125 1.078125q1.140625 0.78125 1.828125 2.203125q0.703125 1.421875 0.703125 3.125q0 2.921875 -1.859375 4.953125q-1.859375 2.015625 -6.71875 2.015625l-5.875 0l0 9.3125l-3.031248 0zm3.031248 -12.015625l5.921875 0q2.9375 0 4.171875 -1.09375q1.234375 -1.09375 1.234375 -3.078125q0 -1.4375 -0.734375 -2.453125q-0.71875 -1.03125 -1.90625 -1.359375q-0.765625 -0.203125 -2.828125 -0.203125l-5.859375 0l0 8.1875zm17.921875 12.015625l0 -16.59375l2.53125 0l0 2.515625q0.96875 -1.765625 1.78125 -2.328125q0.828125 -0.5625 1.8125 -0.5625q1.421875 0 2.890625 0.90625l-0.96875 2.609375q-1.03125 -0.609375 -2.0625 -0.609375q-0.921875 0 -1.65625 0.5625q-0.734375 0.546875 -1.046875 1.53125q-0.46875 1.5 -0.46875 3.28125l0 8.6875l-2.8125 0zm10.703125 -19.671875l0 -3.234375l2.8125 0l0 3.234375l-2.8125 0zm0 19.671875l0 -16.59375l2.8125 0l0 16.59375l-2.8125 0zm7.09375 0l0 -16.59375l2.515625 0l0 2.328125q0.78125 -1.21875 2.078125 -1.953125q1.296875 -0.75 2.953125 -0.75q1.84375 0 3.015625 0.765625q1.1875 0.765625 1.671875 2.140625q1.96875 -2.90625 5.125 -2.90625q2.46875 0 3.796875 1.375q1.328125 1.359375 1.328125 4.203125l0 11.390625l-2.796875 0l0 -10.453125q0 -1.6875 -0.28125 -2.421875q-0.265625 -0.75 -0.984375 -1.203125q-0.71875 -0.453125 -1.6875 -0.453125q-1.75 0 -2.90625 1.171875q-1.15625 1.15625 -1.15625 3.71875l0 9.640625l-2.8125 0l0 -10.78125q0 -1.875 -0.6875 -2.8125q-0.6875 -0.9375 -2.25 -0.9375q-1.1875 0 -2.203125 0.625q-1.0 0.625 -1.453125 1.828125q-0.453125 1.203125 -0.453125 3.46875l0 8.609375l-2.8125 0zm26.671875 -19.671875l0 -3.234375l2.8125 0l0 3.234375l-2.8125 0zm0 19.671875l0 -16.59375l2.8125 0l0 16.59375l-2.8125 0zm13.234375 -2.515625l0.40625 2.484375q-1.1875 0.25 -2.125 0.25q-1.53125 0 -2.375 -0.484375q-0.84375 -0.484375 -1.1875 -1.265625q-0.34375 -0.796875 -0.34375 -3.328125l0 -9.546875l-2.0625 0l0 -2.1875l2.0625 0l0 -4.109375l2.796875 -1.6875l0 5.796875l2.828125 0l0 2.1875l-2.828125 0l0 9.703125q0 1.203125 0.140625 1.546875q0.15625 0.34375 0.484375 0.546875q0.34375 0.203125 0.96875 0.203125q0.46875 0 1.234375 -0.109375zm2.765625 -17.15625l0 -3.234375l2.8125 0l0 3.234375l-2.8125 0zm0 19.671875l0 -16.59375l2.8125 0l0 16.59375l-2.8125 0zm11.703125 0l-6.3125 -16.59375l2.96875 0l3.5625 9.9375q0.578125 1.609375 1.0625 3.34375q0.375 -1.3125 1.046875 -3.15625l3.6875076 -10.125l2.890625 0l-6.2812576 16.59375l-2.625 0zm22.750008 -5.34375l2.90625 0.359375q-0.6875 2.546875 -2.546875 3.953125q-1.859375 1.40625 -4.75 1.40625q-3.640625 0 -5.78125 -2.234375q-2.125 -2.25 -2.125 -6.296875q0 -4.1875 2.15625 -6.5q2.15625 -2.3125 5.59375 -2.3125q3.328125 0 5.4375 2.265625q2.109375 2.265625 2.109375 6.375q0 0.25 -0.015625 0.75l-12.375 0q0.15625 2.734375 1.546875 4.1875q1.390625 1.453125 3.46875 1.453125q1.546875 0 2.640625 -0.8125q1.09375 -0.8125 1.734375 -2.59375zm-9.234375 -4.546875l9.265625 0q-0.1875 -2.09375 -1.0625 -3.140625q-1.34375 -1.625 -3.484375 -1.625q-1.9375 0 -3.265625 1.296875q-1.3125 1.296875 -1.453125 3.46875zm23.515625 1.59375q0 -4.609375 2.5625 -6.828125q2.140625 -1.84375 5.21875 -1.84375q3.421875 0 5.59375 2.25q2.171875 2.234375 2.171875 6.1875q0 3.203125 -0.96875 5.046875q-0.953125 1.828125 -2.796875 2.84375q-1.828125 1.015625 -4.0 1.015625q-3.484375 0 -5.640625 -2.234375q-2.140625 -2.234375 -2.140625 -6.4375zm2.890625 0q0 3.1875 1.390625 4.78125q1.390625 1.578125 3.5 1.578125q2.09375 0 3.484375 -1.59375q1.390625 -1.59375 1.390625 -4.859375q0 -3.078125 -1.40625 -4.65625q-1.390625 -1.59375 -3.46875 -1.59375q-2.109375 0 -3.5 1.578125q-1.390625 1.578125 -1.390625 4.765625zm15.953125 14.65625l0 -22.953125l2.5625 0l0 2.15625q0.90625 -1.265625 2.046875 -1.890625q1.140625 -0.640625 2.765625 -0.640625q2.125 0 3.75 1.09375q1.625 1.09375 2.453125 3.09375q0.828125 1.984375 0.828125 4.359375q0 2.546875 -0.921875 4.59375q-0.90625 2.03125 -2.65625 3.125q-1.734375 1.078125 -3.65625 1.078125q-1.40625 0 -2.53125 -0.59375q-1.109375 -0.59375 -1.828125 -1.5l0 8.078125l-2.8125 0zm2.546875 -14.5625q0 3.203125 1.296875 4.734375q1.296875 1.53125 3.140625 1.53125q1.875 0 3.203125 -1.578125q1.34375 -1.59375 1.34375 -4.921875q0 -3.171875 -1.3125 -4.75q-1.296875 -1.578125 -3.109375 -1.578125q-1.796875 0 -3.1875 1.6875q-1.375 1.671875 -1.375 4.875zm14.125 3.25l2.78125 -0.4375q0.234375 1.671875 1.296875 2.5625q1.078125 0.890625 3.0 0.890625q1.9375 0 2.875 -0.78125q0.9375 -0.796875 0.9375 -1.859375q0 -0.953125 -0.828125 -1.5q-0.578125 -0.375 -2.875 -0.953125q-3.09375 -0.78125 -4.296875 -1.34375q-1.1875 -0.578125 -1.8125 -1.578125q-0.609375 -1.015625 -0.609375 -2.234375q0 -1.109375 0.5 -2.046875q0.515625 -0.953125 1.390625 -1.578125q0.65625 -0.484375 1.78125 -0.8125q1.140625 -0.34375 2.4375 -0.34375q1.953125 0 3.421875 0.5625q1.484375 0.5625 2.1875 1.53125q0.703125 0.953125 0.96875 2.5625l-2.75 0.375q-0.1875 -1.28125 -1.09375 -2.0q-0.890625 -0.71875 -2.53125 -0.71875q-1.9375 0 -2.765625 0.640625q-0.828125 0.640625 -0.828125 1.5q0 0.546875 0.34375 0.984375q0.34375 0.453125 1.078125 0.75q0.421875 0.15625 2.484375 0.71875q2.984375 0.796875 4.15625 1.3125q1.1875 0.5 1.859375 1.46875q0.671875 0.96875 0.671875 2.40625q0 1.40625 -0.828125 2.65625q-0.8125 1.234375 -2.359375 1.921875q-1.546875 0.671875 -3.5 0.671875q-3.234375 0 -4.9375 -1.34375q-1.6875 -1.34375 -2.15625 -3.984375z" fill-rule="nonzero"/><path fill="#000000" fill-opacity="0.0" d="m19.4042 246.27821l208.15747 0l0 58.173233l-208.15747 0z" fill-rule="evenodd"/><path fill="#000000" d="m30.919825 285.99823l0 -22.90625l10.156248 0q3.0625 0 4.65625 0.625q1.59375 0.609375 2.546875 2.171875q0.953125 1.5625 0.953125 3.453125q0 2.4375 -1.578125 4.109375q-1.578125 1.671875 -4.875 2.125q1.203125 0.578125 1.828125 1.140625q1.328125 1.21875 2.515625 3.046875l3.984375 6.234375l-3.8125 0l-3.03125 -4.765625q-1.328125 -2.0625 -2.1875 -3.15625q-0.859375 -1.09375 -1.546875 -1.53125q-0.671875 -0.4375 -1.375 -0.609375q-0.515625 -0.109375 -1.6875 -0.109375l-3.515625 0l0 10.171875l-3.031248 0zm3.031248 -12.796875l6.515625 0q2.078125 0 3.25 -0.421875q1.171875 -0.4375 1.78125 -1.375q0.609375 -0.953125 0.609375 -2.0625q0 -1.625 -1.1875 -2.671875q-1.171875 -1.046875 -3.71875 -1.046875l-7.25 0l0 7.578125zm30.546875 12.796875l0 -2.4375q-1.9375 2.8125 -5.265625 2.8125q-1.46875 0 -2.75 -0.5625q-1.265625 -0.5625 -1.890625 -1.40625q-0.609375 -0.859375 -0.859375 -2.09375q-0.171875 -0.828125 -0.171875 -2.625l0 -10.28125l2.8125 0l0 9.203125q0 2.203125 0.171875 2.96875q0.265625 1.109375 1.125 1.75q0.859375 0.625 2.125 0.625q1.265625 0 2.375 -0.640625q1.109375 -0.65625 1.5625 -1.765625q0.46875 -1.125 0.46875 -3.25l0 -8.890625l2.8125 0l0 16.59375l-2.515625 0zm6.921875 0l0 -16.59375l2.53125 0l0 2.359375q1.828125 -2.734375 5.28125 -2.734375q1.5 0 2.75 0.546875q1.265625 0.53125 1.890625 1.40625q0.625 0.875 0.875 2.078125q0.15625 0.78125 0.15625 2.734375l0 10.203125l-2.8125 0l0 -10.09375q0 -1.71875 -0.328125 -2.5625q-0.328125 -0.859375 -1.171875 -1.359375q-0.828125 -0.515625 -1.953125 -0.515625q-1.796875 0 -3.109375 1.140625q-1.296875 1.140625 -1.296875 4.328125l0 9.0625l-2.8125 0zm23.9375 -2.515625l0.40625 2.484375q-1.1875 0.25 -2.125 0.25q-1.53125 0 -2.375 -0.484375q-0.84375 -0.484375 -1.1875 -1.265625q-0.34375 -0.796875 -0.34375 -3.328125l0 -9.546875l-2.0625 0l0 -2.1875l2.0625 0l0 -4.109375l2.796875 -1.6875l0 5.796875l2.828125 0l0 2.1875l-2.828125 0l0 9.703125q0 1.203125 0.140625 1.546875q0.15625 0.34375 0.484375 0.546875q0.34375 0.203125 0.96875 0.203125q0.46875 0 1.234375 -0.109375zm2.765625 -17.15625l0 -3.234375l2.8125 0l0 3.234375l-2.8125 0zm0 19.671875l0 -16.59375l2.8125 0l0 16.59375l-2.8125 0zm7.09375 0l0 -16.59375l2.515625 0l0 2.328125q0.78125 -1.21875 2.078125 -1.953125q1.296875 -0.75 2.953125 -0.75q1.84375 0 3.015625 0.765625q1.1875 0.765625 1.671875 2.140625q1.96875 -2.90625 5.125 -2.90625q2.46875 0 3.796875 1.375q1.328125 1.359375 1.328125 4.203125l0 11.390625l-2.796875 0l0 -10.453125q0 -1.6875 -0.28125 -2.421875q-0.265625 -0.75 -0.984375 -1.203125q-0.71875 -0.453125 -1.6875 -0.453125q-1.75 0 -2.90625 1.171875q-1.15625 1.15625 -1.15625 3.71875l0 9.640625l-2.8125 0l0 -10.78125q0 -1.875 -0.6875 -2.8125q-0.6875 -0.9375 -2.25 -0.9375q-1.1875 0 -2.203125 0.625q-1.0 0.625 -1.453125 1.828125q-0.453125 1.203125 -0.453125 3.46875l0 8.609375l-2.8125 0zm38.015633 -5.34375l2.90625 0.359375q-0.6875 2.546875 -2.546875 3.953125q-1.859375 1.40625 -4.75 1.40625q-3.640625 0 -5.78125 -2.234375q-2.125 -2.25 -2.125 -6.296875q0 -4.1875 2.15625 -6.5q2.15625 -2.3125 5.59375 -2.3125q3.328125 0 5.4375 2.265625q2.109375 2.265625 2.109375 6.375q0 0.25 -0.015625 0.75l-12.375 0q0.15625 2.734375 1.546875 4.1875q1.390625 1.453125 3.46875 1.453125q1.546875 0 2.640625 -0.8125q1.09375 -0.8125 1.734375 -2.59375zm-9.234375 -4.546875l9.265625 0q-0.1875 -2.09375 -1.0625 -3.140625q-1.34375 -1.625 -3.484375 -1.625q-1.9375 0 -3.265625 1.296875q-1.3125 1.296875 -1.453125 3.46875z" fill-rule="nonzero"/><path fill="#000000" fill-opacity="0.0" d="m19.4042 320.76642l208.15747 0l0 58.173218l-208.15747 0z" fill-rule="evenodd"/><path fill="#000000" d="m29.8417 353.12704l2.859373 -0.25q0.203125 1.71875 0.9375 2.828125q0.75 1.09375 2.3125 1.78125q1.5625 0.671875 3.515625 0.671875q1.734375 0 3.0625 -0.515625q1.328125 -0.515625 1.96875 -1.40625q0.65625 -0.90625 0.65625 -1.96875q0 -1.078125 -0.625 -1.875q-0.625 -0.8125 -2.0625 -1.359375q-0.921875 -0.359375 -4.078125 -1.109375q-3.15625 -0.765625 -4.421875 -1.4375q-1.640625 -0.859375 -2.453123 -2.125q-0.796875 -1.28125 -0.796875 -2.859375q0 -1.734375 0.984375 -3.234375q0.9843731 -1.515625 2.874998 -2.296875q1.890625 -0.78125 4.203125 -0.78125q2.546875 0 4.484375 0.828125q1.953125 0.8125 3.0 2.40625q1.046875 1.59375 1.125 3.609375l-2.90625 0.21875q-0.234375 -2.171875 -1.59375 -3.28125q-1.34375 -1.109375 -3.984375 -1.109375q-2.75 0 -4.015625 1.015625q-1.25 1.0 -1.25 2.421875q0 1.234375 0.890625 2.03125q0.875 0.796875 4.5625 1.640625q3.703125 0.828125 5.078125 1.453125q2.0 0.921875 2.953125 2.34375q0.953125 1.40625 0.953125 3.25q0 1.828125 -1.046875 3.453125q-1.046875 1.609375 -3.015625 2.515625q-1.953125 0.890625 -4.40625 0.890625q-3.109375 0 -5.21875 -0.90625q-2.09375 -0.90625 -3.296873 -2.71875q-1.1875 -1.828125 -1.25 -4.125zm28.156248 4.84375l0.40625 2.484375q-1.1875 0.25 -2.125 0.25q-1.53125 0 -2.375 -0.484375q-0.84375 -0.484375 -1.1875 -1.265625q-0.34375 -0.796875 -0.34375 -3.328125l0 -9.546875l-2.0625 0l0 -2.1875l2.0625 0l0 -4.109375l2.796875 -1.6875l0 5.796875l2.828125 0l0 2.1875l-2.828125 0l0 9.703125q0 1.203125 0.140625 1.546875q0.15625 0.34375 0.484375 0.546875q0.34375 0.203125 0.96875 0.203125q0.46875 0 1.234375 -0.109375zm1.703125 -5.78125q0 -4.609375 2.5625 -6.828125q2.140625 -1.84375 5.21875 -1.84375q3.421875 0 5.59375 2.25q2.171875 2.234375 2.171875 6.1875q0 3.203125 -0.96875 5.046875q-0.953125 1.828125 -2.796875 2.84375q-1.828125 1.015625 -4.0 1.015625q-3.484375 0 -5.640625 -2.234375q-2.140625 -2.234375 -2.140625 -6.4375zm2.890625 0q0 3.1875 1.390625 4.78125q1.390625 1.578125 3.5 1.578125q2.09375 0 3.484375 -1.59375q1.390625 -1.59375 1.390625 -4.859375q0 -3.078125 -1.40625 -4.65625q-1.390625 -1.59375 -3.46875 -1.59375q-2.109375 0 -3.5 1.578125q-1.390625 1.578125 -1.390625 4.765625zm15.921875 8.296875l0 -16.59375l2.53125 0l0 2.515625q0.96875 -1.765625 1.78125 -2.328125q0.828125 -0.5625 1.8125 -0.5625q1.421875 0 2.890625 0.90625l-0.96875 2.609375q-1.03125 -0.609375 -2.0625 -0.609375q-0.921875 0 -1.65625 0.5625q-0.734375 0.546875 -1.046875 1.53125q-0.46875 1.5 -0.46875 3.28125l0 8.6875l-2.8125 0zm21.515625 -2.046875q-1.5625 1.328125 -3.015625 1.875q-1.4375 0.546875 -3.09375 0.546875q-2.734375 0 -4.203125 -1.328125q-1.46875 -1.34375 -1.46875 -3.421875q0 -1.21875 0.546875 -2.21875q0.5625 -1.015625 1.453125 -1.625q0.90625 -0.609375 2.03125 -0.921875q0.828125 -0.21875 2.5 -0.421875q3.40625 -0.40625 5.015625 -0.96875q0.015625 -0.578125 0.015625 -0.734375q0 -1.71875 -0.796875 -2.421875q-1.078125 -0.953125 -3.203125 -0.953125q-1.984375 0 -2.9375 0.703125q-0.9375 0.6875 -1.390625 2.453125l-2.75 -0.375q0.375 -1.765625 1.234375 -2.84375q0.859375 -1.09375 2.484375 -1.671875q1.625 -0.59375 3.765625 -0.59375q2.125 0 3.453125 0.5q1.328125 0.5 1.953125 1.265625q0.625 0.75 0.875 1.90625q0.140625 0.71875 0.140625 2.59375l0 3.75q0 3.921875 0.171875 4.96875q0.1875 1.03125 0.71875 1.984375l-2.9375 0q-0.4375 -0.875 -0.5625 -2.046875zm-0.234375 -6.28125q-1.53125 0.625 -4.59375 1.0625q-1.734375 0.25 -2.453125 0.5625q-0.71875 0.3125 -1.109375 0.921875q-0.390625 0.59375 -0.390625 1.328125q0 1.125 0.84375 1.875q0.859375 0.75 2.5 0.75q1.625 0 2.890625 -0.703125q1.265625 -0.71875 1.859375 -1.953125q0.453125 -0.953125 0.453125 -2.8125l0 -1.03125zm6.6875 9.703125l2.734375 0.40625q0.171875 1.265625 0.953125 1.84375q1.046875 0.78125 2.859375 0.78125q1.953125 0 3.015625 -0.78125q1.0625 -0.78125 1.4375 -2.1875q0.21875 -0.859375 0.203125 -3.609375q-1.84375 2.171875 -4.59375 2.171875q-3.421875 0 -5.296875 -2.46875q-1.875 -2.46875 -1.875 -5.921875q0 -2.375 0.859375 -4.375q0.859375 -2.015625 2.484375 -3.109375q1.640625 -1.09375 3.84375 -1.09375q2.9375 0 4.84375 2.375l0 -2.0l2.59375 0l0 14.34375q0 3.875 -0.796875 5.484375q-0.78125 1.625 -2.5 2.5625q-1.703125 0.9375 -4.203125 0.9375q-2.96875 0 -4.796875 -1.34375q-1.828125 -1.328125 -1.765625 -4.015625zm2.328125 -9.96875q0 3.265625 1.296875 4.765625q1.296875 1.5 3.25 1.5q1.9375 0 3.25 -1.484375q1.3125 -1.5 1.3125 -4.6875q0 -3.046875 -1.359375 -4.59375q-1.34375 -1.546875 -3.25 -1.546875q-1.875 0 -3.1875 1.53125q-1.3125 1.515625 -1.3125 4.515625zm27.343758 3.25l2.90625 0.359375q-0.6875 2.546875 -2.546875 3.953125q-1.859375 1.40625 -4.75 1.40625q-3.640625 0 -5.7812576 -2.234375q-2.125 -2.25 -2.125 -6.296875q0 -4.1875 2.15625 -6.5q2.1562576 -2.3125 5.5937576 -2.3125q3.328125 0 5.4375 2.265625q2.109375 2.265625 2.109375 6.375q0 0.25 -0.015625 0.75l-12.375008 0q0.15625 2.734375 1.5468826 4.1875q1.390625 1.453125 3.46875 1.453125q1.546875 0 2.640625 -0.8125q1.09375 -0.8125 1.734375 -2.59375zm-9.234383 -4.546875l9.265633 0q-0.1875 -2.09375 -1.0625 -3.140625q-1.34375 -1.625 -3.484375 -1.625q-1.9375 0 -3.265625 1.296875q-1.3125076 1.296875 -1.4531326 3.46875z" fill-rule="nonzero"/></g></svg>
