<svg version="1.1" viewBox="0.0 0.0 928.0157480314961 380.0" fill="none" stroke="none" stroke-linecap="square" stroke-miterlimit="10" xmlns:xlink="http://www.w3.org/1999/xlink" xmlns="http://www.w3.org/2000/svg"><clipPath id="p.0"><path d="m0 0l928.01575 0l0 380.0l-928.01575 0l0 -380.0z" clip-rule="nonzero"/></clipPath><g clip-path="url(#p.0)"><path fill="#000000" fill-opacity="0.0" d="m0 0l928.01575 0l0 380.0l-928.01575 0z" fill-rule="evenodd"/><path fill="#d9d2e9" d="m8.708661 259.91788l57.070866 0l0 42.80316l-57.070866 0z" fill-rule="evenodd"/><path stroke="#ffffff" stroke-width="1.0" stroke-linejoin="round" stroke-linecap="butt" d="m8.708661 259.91788l57.070866 0l0 42.80316l-57.070866 0z" fill-rule="evenodd"/><path fill="#8e7cc3" d="m8.708661 216.54068l57.070866 0l0 42.80316l-57.070866 0z" fill-rule="evenodd"/><path stroke="#ffffff" stroke-width="1.0" stroke-linejoin="round" stroke-linecap="butt" d="m8.708661 216.54068l57.070866 0l0 42.80316l-57.070866 0z" fill-rule="evenodd"/><path fill="#d9d2e9" d="m66.81145 216.54068l57.07087 0l0 42.80316l-57.07087 0z" fill-rule="evenodd"/><path stroke="#ffffff" stroke-width="1.0" stroke-linejoin="round" stroke-linecap="butt" d="m66.81145 216.54068l57.07087 0l0 42.80316l-57.07087 0z" fill-rule="evenodd"/><path fill="#d9d2e9" d="m66.81145 259.91788l57.07087 0l0 42.80316l-57.07087 0z" fill-rule="evenodd"/><path stroke="#ffffff" stroke-width="1.0" stroke-linejoin="round" stroke-linecap="butt" d="m66.81145 259.91788l57.07087 0l0 42.80316l-57.07087 0z" fill-rule="evenodd"/><path fill="#d9d2e9" d="m8.708661 303.2951l57.070866 0l0 42.80316l-57.070866 0z" fill-rule="evenodd"/><path stroke="#ffffff" stroke-width="1.0" stroke-linejoin="round" stroke-linecap="butt" d="m8.708661 303.2951l57.070866 0l0 42.80316l-57.070866 0z" fill-rule="evenodd"/><path fill="#d9d2e9" d="m66.81145 303.2951l57.07087 0l0 42.80316l-57.07087 0z" fill-rule="evenodd"/><path stroke="#ffffff" stroke-width="1.0" stroke-linejoin="round" stroke-linecap="butt" d="m66.81145 303.2951l57.07087 0l0 42.80316l-57.07087 0z" fill-rule="evenodd"/><path fill="#d9d2e9" d="m222.40158 187.76695l57.07086 0l0 42.80316l-57.07086 0z" fill-rule="evenodd"/><path stroke="#ffffff" stroke-width="1.0" stroke-linejoin="round" stroke-linecap="butt" d="m222.40158 187.76695l57.07086 0l0 42.80316l-57.07086 0z" fill-rule="evenodd"/><path fill="#8e7cc3" d="m222.40158 144.38977l57.07086 0l0 42.803146l-57.07086 0z" fill-rule="evenodd"/><path stroke="#ffffff" stroke-width="1.0" stroke-linejoin="round" stroke-linecap="butt" d="m222.40158 144.38977l57.07086 0l0 42.803146l-57.07086 0z" fill-rule="evenodd"/><path fill="#d9d2e9" d="m280.50275 144.38977l57.070892 0l0 42.803146l-57.070892 0z" fill-rule="evenodd"/><path stroke="#ffffff" stroke-width="1.0" stroke-linejoin="round" stroke-linecap="butt" d="m280.50275 144.38977l57.070892 0l0 42.803146l-57.070892 0z" fill-rule="evenodd"/><path fill="#d9d2e9" d="m280.50275 187.76695l57.070892 0l0 42.80316l-57.070892 0z" fill-rule="evenodd"/><path stroke="#ffffff" stroke-width="1.0" stroke-linejoin="round" stroke-linecap="butt" d="m280.50275 187.76695l57.070892 0l0 42.80316l-57.070892 0z" fill-rule="evenodd"/><path fill="#d9d2e9" d="m222.40158 231.1442l57.07086 0l0 42.80313l-57.07086 0z" fill-rule="evenodd"/><path stroke="#ffffff" stroke-width="1.0" stroke-linejoin="round" stroke-linecap="butt" d="m222.40158 231.1442l57.07086 0l0 42.80313l-57.07086 0z" fill-rule="evenodd"/><path fill="#d9d2e9" d="m280.50275 231.1442l57.070892 0l0 42.80313l-57.070892 0z" fill-rule="evenodd"/><path stroke="#ffffff" stroke-width="1.0" stroke-linejoin="round" stroke-linecap="butt" d="m280.50275 231.1442l57.070892 0l0 42.80313l-57.070892 0z" fill-rule="evenodd"/><path fill="#000000" fill-opacity="0.0" d="m65.779526 237.94226c39.155136 0 58.73152 -18.039368 78.31026 -36.07875c19.57875 -18.039368 39.159836 -36.078735 78.31967 -36.078735" fill-rule="evenodd"/><path stroke="#000000" stroke-width="1.0" stroke-linejoin="round" stroke-linecap="butt" d="m65.779526 237.94226c39.155136 0 58.73153 -18.039368 78.31027 -36.07875c9.789368 -9.019684 19.579315 -18.039368 31.81691 -24.804123c6.118805 -3.3823853 12.849503 -6.2010345 20.498001 -8.174088c3.8242493 -0.9865265 7.8779297 -1.7616577 12.19931 -2.2901611c2.1607056 -0.2642517 4.3883057 -0.46684265 6.687622 -0.6033783c0.2873993 -0.017059326 0.575943 -0.033081055 0.86561584 -0.048080444l0.2539978 -0.012191772" fill-rule="evenodd"/><path fill="#000000" stroke="#000000" stroke-width="1.0" stroke-linecap="butt" d="m216.45163 167.58273l4.496353 -1.762207l-4.577133 -1.540268z" fill-rule="evenodd"/><path fill="#000000" fill-opacity="0.0" d="m0 0l288.0 0l0 45.259842l-288.0 0z" fill-rule="evenodd"/><path fill="#000000" d="m20.75 25.839375l-8.75 0q0.328125 0.828125 1.171875 1.34375q0.859375 0.5 2.3125 0.5q1.1875 0 3.15625 -0.5q0.8125 -0.21875 1.109375 -0.21875q0.4375 0 0.71875 0.3125q0.296875 0.296875 0.296875 0.75q0 0.421875 -0.3125 0.71875q-0.421875 0.375 -2.03125 0.734375q-1.609375 0.34375 -3.09375 0.34375q-2.5625 0 -4.109375 -1.4375q-1.53125 -1.453125 -1.53125 -3.578125q0 -2.25 1.65625 -3.65625q1.671875 -1.40625 3.828125 -1.40625q1.3125 0 2.390625 0.453125q1.09375 0.453125 1.625 0.984375q0.75 0.78125 1.234375 1.90625q0.328125 0.796875 0.328125 1.84375l0 0.90625zm-2.359375 -2.140625q-0.484375 -0.921875 -1.28125 -1.375q-0.78125 -0.453125 -1.875 -0.453125q-1.09375 0 -1.890625 0.453125q-0.78125 0.453125 -1.28125 1.375l6.328125 0zm10.87709 -7.71875l0 11.359375l2.5625 0q0.765625 0 1.09375 0.296875q0.328125 0.296875 0.328125 0.78125q0 0.46875 -0.328125 0.765625q-0.328125 0.296875 -1.09375 0.296875l-7.265625 0q-0.765625 0 -1.09375 -0.296875q-0.328125 -0.296875 -0.328125 -0.78125q0 -0.46875 0.328125 -0.765625q0.328125 -0.296875 1.09375 -0.296875l2.5625 0l0 -9.234375l-1.71875 0q-0.75 0 -1.09375 -0.296875q-0.328125 -0.296875 -0.328125 -0.765625q0 -0.46875 0.328125 -0.765625q0.328125 -0.296875 1.09375 -0.296875l3.859375 0zm17.080215 9.859375l-8.75 0q0.328125 0.828125 1.171875 1.34375q0.859375 0.5 2.3125 0.5q1.1875 0 3.15625 -0.5q0.8125 -0.21875 1.109375 -0.21875q0.4375 0 0.71875 0.3125q0.296875 0.296875 0.296875 0.75q0 0.421875 -0.3125 0.71875q-0.421875 0.375 -2.03125 0.734375q-1.609375 0.34375 -3.09375 0.34375q-2.5625 0 -4.109375 -1.4375q-1.53125 -1.453125 -1.53125 -3.578125q0 -2.25 1.65625 -3.65625q1.671875 -1.40625 3.828125 -1.40625q1.3125 0 2.390625 0.453125q1.09375 0.453125 1.625 0.984375q0.75 0.78125 1.234375 1.90625q0.328125 0.796875 0.328125 1.84375l0 0.90625zm-2.359375 -2.140625q-0.484375 -0.921875 -1.28125 -1.375q-0.78125 -0.453125 -1.875 -0.453125q-1.09375 0 -1.890625 0.453125q-0.78125 0.453125 -1.28125 1.375l6.328125 0zm6.5177155 -3.671875l0 0.59375q0.515625 -0.5 0.9375 -0.6875q0.421875 -0.203125 0.96875 -0.203125q0.46875 0 0.921875 0.234375q0.46875 0.21875 0.90625 0.6875q0.546875 -0.46875 1.109375 -0.6875q0.578125 -0.21875 1.171875 -0.21875q1.1875 0 1.921875 0.625q0.984375 0.84375 0.984375 2.1875l0 4.78125q0.65625 0 0.984375 0.3125q0.328125 0.296875 0.328125 0.765625q0 0.46875 -0.328125 0.765625q-0.328125 0.296875 -1.09375 0.296875l-2.03125 0l0 -6.734375q0 -0.5 -0.171875 -0.6875q-0.171875 -0.1875 -0.546875 -0.1875q-0.34375 0 -0.65625 0.1875q-0.375 0.265625 -0.9375 0.984375l0 4.296875q0.671875 0 0.984375 0.3125q0.328125 0.296875 0.328125 0.765625q0 0.46875 -0.328125 0.765625q-0.3125 0.296875 -1.078125 0.296875l-2.03125 0l0 -6.734375q0 -0.484375 -0.1875 -0.671875q-0.1875 -0.203125 -0.546875 -0.203125q-0.375 0 -0.75 0.234375q-0.359375 0.234375 -0.859375 0.9375l0 4.296875q0.65625 0 0.984375 0.3125q0.328125 0.296875 0.328125 0.765625q0 0.46875 -0.328125 0.765625q-0.328125 0.296875 -1.09375 0.296875l-1.921875 0q-0.78125 0 -1.109375 -0.296875q-0.328125 -0.296875 -0.328125 -0.78125q0 -0.46875 0.328125 -0.765625q0.328125 -0.296875 1.0 -0.296875l0 -5.1875q-0.671875 0 -1.0 -0.296875q-0.328125 -0.296875 -0.328125 -0.765625q0 -0.46875 0.328125 -0.765625q0.328125 -0.296875 1.109375 -0.296875l2.03125 0zm16.111465 5.515625l-1.484375 3.9375l-2.015625 0l-1.78125 -7.328125q-0.59375 -0.03125 -0.890625 -0.328125q-0.296875 -0.296875 -0.296875 -0.734375q0 -0.46875 0.328125 -0.765625q0.328125 -0.296875 1.109375 -0.296875l1.984375 0q0.765625 0 1.09375 0.296875q0.328125 0.296875 0.328125 0.765625q0 0.484375 -0.375 0.8125q-0.28125 0.25 -1.09375 0.25l0.8125 3.390625l1.3125 -3.46875l1.90625 0l1.328125 3.46875l0.828125 -3.390625q-0.78125 0 -1.03125 -0.15625q-0.5 -0.3125 -0.5 -0.90625q0 -0.46875 0.328125 -0.765625q0.328125 -0.296875 1.09375 -0.296875l2.0 0q0.78125 0 1.109375 0.296875q0.328125 0.296875 0.328125 0.765625q0 0.4375 -0.296875 0.734375q-0.28125 0.296875 -0.84375 0.328125l-1.75 7.328125l-1.96875 0l-1.5625 -3.9375zm13.548965 -9.5625l0 2.25l-2.546875 0l0 -2.25l2.546875 0zm0.28125 4.046875l0 7.3125l2.5625 0q0.765625 0 1.09375 0.296875q0.328125 0.296875 0.328125 0.78125q0 0.46875 -0.328125 0.765625q-0.328125 0.296875 -1.09375 0.296875l-7.25 0q-0.78125 0 -1.109375 -0.296875q-0.328125 -0.296875 -0.328125 -0.78125q0 -0.46875 0.328125 -0.765625q0.328125 -0.296875 1.109375 -0.296875l2.5625 0l0 -5.1875l-1.71875 0q-0.765625 0 -1.109375 -0.296875q-0.328125 -0.296875 -0.328125 -0.765625q0 -0.46875 0.328125 -0.765625q0.328125 -0.296875 1.109375 -0.296875l3.84375 0zm14.048965 2.5q-0.515625 -0.328125 -1.09375 -0.484375q-0.5625 -0.171875 -1.1875 -0.171875q-1.25 0 -1.96875 0.40625q-0.328125 0.1875 -0.328125 0.390625q0 0.234375 0.4375 0.46875q0.328125 0.171875 1.484375 0.328125q2.125 0.28125 2.96875 0.578125q1.09375 0.390625 1.671875 1.15625q0.59375 0.75 0.59375 1.59375q0 1.140625 -1.0 1.921875q-1.453125 1.109375 -3.765625 1.109375q-0.921875 0 -1.71875 -0.171875q-0.78125 -0.15625 -1.4375 -0.46875q-0.15625 0.140625 -0.328125 0.21875q-0.171875 0.0625 -0.359375 0.0625q-0.5 0 -0.796875 -0.328125q-0.296875 -0.328125 -0.296875 -1.09375l0 -0.71875q0 -0.765625 0.296875 -1.09375q0.296875 -0.328125 0.765625 -0.328125q0.390625 0 0.640625 0.21875q0.265625 0.203125 0.421875 0.71875q0.484375 0.421875 1.171875 0.640625q0.6875 0.203125 1.578125 0.203125q1.46875 0 2.28125 -0.453125q0.390625 -0.234375 0.390625 -0.484375q0 -0.40625 -0.546875 -0.6875q-0.5625 -0.265625 -2.28125 -0.453125q-2.578125 -0.265625 -3.4375 -1.046875q-0.875 -0.75 -0.875 -1.875q0 -1.140625 0.96875 -1.90625q1.3125 -1.03125 3.4375 -1.03125q0.75 0 1.421875 0.140625q0.6875 0.140625 1.3125 0.421875q0.203125 -0.140625 0.375 -0.203125q0.171875 -0.078125 0.3125 -0.078125q0.4375 0 0.71875 0.328125q0.296875 0.328125 0.296875 1.09375l0 0.515625q0 0.703125 -0.15625 0.953125q-0.34375 0.484375 -0.90625 0.484375q-0.390625 0 -0.6875 -0.234375q-0.28125 -0.25 -0.375 -0.640625zm15.84584 3.3125l-8.75 0q0.328125 0.828125 1.171875 1.34375q0.859375 0.5 2.3125 0.5q1.1875 0 3.15625 -0.5q0.8125 -0.21875 1.109375 -0.21875q0.4375 0 0.71875 0.3125q0.296875 0.296875 0.296875 0.75q0 0.421875 -0.3125 0.71875q-0.421875 0.375 -2.03125 0.734375q-1.609375 0.34375 -3.09375 0.34375q-2.5625 0 -4.109375 -1.4375q-1.53125 -1.453125 -1.53125 -3.578125q0 -2.25 1.65625 -3.65625q1.671875 -1.40625 3.828125 -1.40625q1.3125 0 2.390625 0.453125q1.09375 0.453125 1.625 0.984375q0.75 0.78125 1.234375 1.90625q0.328125 0.796875 0.328125 1.84375l0 0.90625zm-2.359375 -2.140625q-0.484375 -0.921875 -1.28125 -1.375q-0.78125 -0.453125 -1.875 -0.453125q-1.09375 0 -1.890625 0.453125q-0.78125 0.453125 -1.28125 1.375l6.328125 0zm21.84793 0.59375q0 -1.828125 0.59375 -3.6875q0.453125 -1.375 1.390625 -3.0625q0.671875 -1.203125 1.0 -1.46875q0.328125 -0.28125 0.71875 -0.28125q0.453125 0 0.765625 0.3125q0.3125 0.3125 0.3125 0.75q0 0.296875 -0.25 0.71875q-1.125 1.828125 -1.640625 3.453125q-0.515625 1.609375 -0.515625 3.265625q0 1.671875 0.515625 3.28125q0.515625 1.609375 1.640625 3.453125q0.25 0.40625 0.25 0.71875q0 0.4375 -0.3125 0.75q-0.3125 0.3125 -0.765625 0.3125q-0.390625 0 -0.671875 -0.25q-0.421875 -0.359375 -1.109375 -1.625q-0.984375 -1.84375 -1.359375 -3.046875q-0.5625 -1.828125 -0.5625 -3.59375zm15.486465 5.1875l0 -0.5q-0.8125 0.421875 -1.78125 0.640625q-0.96875 0.21875 -1.75 0.21875q-1.71875 0 -2.796875 -0.90625q-1.078125 -0.921875 -1.078125 -2.03125q0 -1.34375 1.375 -2.484375q1.375 -1.15625 3.78125 -1.15625q0.96875 0 2.25 0.203125l0 -0.5q0 -0.484375 -0.421875 -0.78125q-0.40625 -0.3125 -1.5625 -0.3125q-0.953125 0 -2.453125 0.375q-0.5625 0.140625 -0.875 0.140625q-0.4375 0 -0.734375 -0.296875q-0.296875 -0.3125 -0.296875 -0.796875q0 -0.265625 0.109375 -0.46875q0.109375 -0.203125 0.296875 -0.3125q0.1875 -0.125 0.78125 -0.296875q0.78125 -0.21875 1.609375 -0.34375q0.828125 -0.125 1.484375 -0.125q2.0 0 3.09375 0.859375q1.09375 0.859375 1.09375 2.34375l0 4.390625l0.359375 0q0.78125 0 1.109375 0.296875q0.328125 0.296875 0.328125 0.78125q0 0.46875 -0.328125 0.765625q-0.328125 0.296875 -1.109375 0.296875l-2.484375 0zm0 -3.828125q-1.28125 -0.25 -2.375 -0.25q-1.296875 0 -2.234375 0.640625q-0.578125 0.40625 -0.578125 0.828125q0 0.296875 0.28125 0.484375q0.515625 0.34375 1.421875 0.34375q0.765625 0 1.734375 -0.296875q0.984375 -0.3125 1.75 -0.828125l0 -0.921875zm15.767715 -9.671875l0 11.359375l0.359375 0q0.765625 0 1.09375 0.296875q0.34375 0.296875 0.34375 0.78125q0 0.46875 -0.328125 0.765625q-0.328125 0.296875 -1.109375 0.296875l-2.484375 0l0 -0.515625q-0.734375 0.421875 -1.53125 0.640625q-0.796875 0.21875 -1.65625 0.21875q-2.40625 0 -3.875 -1.390625q-1.46875 -1.390625 -1.46875 -3.46875q0 -2.15625 1.546875 -3.6875q1.546875 -1.53125 3.765625 -1.53125q0.828125 0 1.625 0.25q0.8125 0.25 1.59375 0.765625l0 -2.65625l-0.375 0q-0.765625 0 -1.09375 -0.296875q-0.328125 -0.296875 -0.328125 -0.765625q0 -0.46875 0.328125 -0.765625q0.328125 -0.296875 1.09375 -0.296875l2.5 0zm-2.125 9.046875q0 -1.3125 -0.9375 -2.234375q-0.921875 -0.921875 -2.265625 -0.921875q-1.328125 0 -2.265625 0.921875q-0.921875 0.921875 -0.921875 2.203125q0 1.1875 0.828125 1.9375q0.84375 0.75 2.359375 0.75q1.515625 0 2.359375 -0.75q0.84375 -0.75 0.84375 -1.90625zm14.923965 -9.046875l0 11.359375l0.359375 0q0.765625 0 1.09375 0.296875q0.34375 0.296875 0.34375 0.78125q0 0.46875 -0.328125 0.765625q-0.328125 0.296875 -1.109375 0.296875l-2.484375 0l0 -0.515625q-0.734375 0.421875 -1.53125 0.640625q-0.796875 0.21875 -1.65625 0.21875q-2.40625 0 -3.875 -1.390625q-1.46875 -1.390625 -1.46875 -3.46875q0 -2.15625 1.546875 -3.6875q1.546875 -1.53125 3.765625 -1.53125q0.828125 0 1.625 0.25q0.8125 0.25 1.59375 0.765625l0 -2.65625l-0.375 0q-0.765625 0 -1.09375 -0.296875q-0.328125 -0.296875 -0.328125 -0.765625q0 -0.46875 0.328125 -0.765625q0.328125 -0.296875 1.09375 -0.296875l2.5 0zm-2.125 9.046875q0 -1.3125 -0.9375 -2.234375q-0.921875 -0.921875 -2.265625 -0.921875q-1.328125 0 -2.265625 0.921875q-0.921875 0.921875 -0.921875 2.203125q0 1.1875 0.828125 1.9375q0.84375 0.75 2.359375 0.75q1.515625 0 2.359375 -0.75q0.84375 -0.75 0.84375 -1.90625zm10.93959 -0.734375q0 1.828125 -0.609375 3.703125q-0.4375 1.375 -1.375 3.046875q-0.6875 1.203125 -1.015625 1.484375q-0.3125 0.28125 -0.703125 0.28125q-0.46875 0 -0.78125 -0.3125q-0.3125 -0.3125 -0.3125 -0.75q0 -0.3125 0.25 -0.71875q1.125 -1.84375 1.640625 -3.453125q0.515625 -1.609375 0.515625 -3.28125q0 -1.65625 -0.515625 -3.265625q-0.515625 -1.625 -1.640625 -3.453125q-0.25 -0.421875 -0.25 -0.71875q0 -0.4375 0.3125 -0.75q0.3125 -0.3125 0.78125 -0.3125q0.375 0 0.671875 0.25q0.421875 0.34375 1.109375 1.625q0.984375 1.84375 1.34375 3.03125q0.578125 1.84375 0.578125 3.59375z" fill-rule="nonzero"/><path fill="#d9d2e9" d="m8.708661 101.58848l57.070866 0l0 42.803154l-57.070866 0z" fill-rule="evenodd"/><path stroke="#ffffff" stroke-width="1.0" stroke-linejoin="round" stroke-linecap="butt" d="m8.708661 101.58848l57.070866 0l0 42.803154l-57.070866 0z" fill-rule="evenodd"/><path fill="#8e7cc3" d="m8.708661 58.211285l57.070866 0l0 42.80315l-57.070866 0z" fill-rule="evenodd"/><path stroke="#ffffff" stroke-width="1.0" stroke-linejoin="round" stroke-linecap="butt" d="m8.708661 58.211285l57.070866 0l0 42.80315l-57.070866 0z" fill-rule="evenodd"/><path fill="#d9d2e9" d="m66.809845 58.211285l57.07087 0l0 42.80315l-57.07087 0z" fill-rule="evenodd"/><path stroke="#ffffff" stroke-width="1.0" stroke-linejoin="round" stroke-linecap="butt" d="m66.809845 58.211285l57.07087 0l0 42.80315l-57.07087 0z" fill-rule="evenodd"/><path fill="#d9d2e9" d="m66.809845 101.58848l57.07087 0l0 42.803154l-57.07087 0z" fill-rule="evenodd"/><path stroke="#ffffff" stroke-width="1.0" stroke-linejoin="round" stroke-linecap="butt" d="m66.809845 101.58848l57.07087 0l0 42.803154l-57.07087 0z" fill-rule="evenodd"/><path fill="#d9d2e9" d="m8.708661 144.96571l57.070866 0l0 42.803146l-57.070866 0z" fill-rule="evenodd"/><path stroke="#ffffff" stroke-width="1.0" stroke-linejoin="round" stroke-linecap="butt" d="m8.708661 144.96571l57.070866 0l0 42.803146l-57.070866 0z" fill-rule="evenodd"/><path fill="#d9d2e9" d="m66.809845 144.96571l57.07087 0l0 42.803146l-57.07087 0z" fill-rule="evenodd"/><path stroke="#ffffff" stroke-width="1.0" stroke-linejoin="round" stroke-linecap="butt" d="m66.809845 144.96571l57.07087 0l0 42.803146l-57.07087 0z" fill-rule="evenodd"/><path fill="#000000" fill-opacity="0.0" d="m65.779526 79.61286c39.155136 0 58.73152 21.543304 78.31026 43.086617c19.57875 21.543304 39.159836 43.08661 78.31967 43.08661" fill-rule="evenodd"/><path stroke="#000000" stroke-width="1.0" stroke-linejoin="round" stroke-linecap="butt" d="m65.779526 79.61286c39.155136 0 58.73153 21.543304 78.31027 43.086617c9.789368 10.771652 19.579315 21.543304 31.81691 29.62204c6.118805 4.0393677 12.849503 7.4055176 20.498001 9.76181c3.8242493 1.1781616 7.8779297 2.103836 12.19931 2.7350006c2.1607056 0.31556702 4.3883057 0.5575104 6.687622 0.7205658c0.2873993 0.020370483 0.575943 0.039520264 0.86561584 0.057434082l0.25476074 0.014587402" fill-rule="evenodd"/><path fill="#000000" stroke="#000000" stroke-width="1.0" stroke-linecap="butt" d="m216.36378 167.26195l4.584381 -1.5185394l-4.4879303 -1.7835236z" fill-rule="evenodd"/></g></svg>
