<svg version="1.1" viewBox="0.0 0.0 913.0 239.0" fill="none" stroke="none" stroke-linecap="square" stroke-miterlimit="10" xmlns:xlink="http://www.w3.org/1999/xlink" xmlns="http://www.w3.org/2000/svg"><clipPath id="p.0"><path d="m0 0l913.0 0l0 239.0l-913.0 0l0 -239.0z" clip-rule="nonzero"/></clipPath><g clip-path="url(#p.0)"><path fill="#000000" fill-opacity="0.0" d="m0 0l913.0 0l0 239.0l-913.0 0z" fill-rule="evenodd"/><path fill="#d9d2e9" d="m95.34648 58.209972l28.503937 0l0 42.80315l-28.503937 0z" fill-rule="evenodd"/><path stroke="#ffffff" stroke-width="1.0" stroke-linejoin="round" stroke-linecap="butt" d="m95.34648 58.209972l28.503937 0l0 42.80315l-28.503937 0z" fill-rule="evenodd"/><path fill="#d9d2e9" d="m222.40158 101.587166l57.07086 0l0 42.803154l-57.07086 0z" fill-rule="evenodd"/><path stroke="#ffffff" stroke-width="1.0" stroke-linejoin="round" stroke-linecap="butt" d="m222.40158 101.587166l57.07086 0l0 42.803154l-57.07086 0z" fill-rule="evenodd"/><path fill="#8e7cc3" d="m222.40158 58.209972l57.07086 0l0 42.80315l-57.07086 0z" fill-rule="evenodd"/><path stroke="#ffffff" stroke-width="1.0" stroke-linejoin="round" stroke-linecap="butt" d="m222.40158 58.209972l57.07086 0l0 42.80315l-57.07086 0z" fill-rule="evenodd"/><path fill="#d9d2e9" d="m66.842545 144.96194l28.503937 0l0 42.803146l-28.503937 0z" fill-rule="evenodd"/><path stroke="#ffffff" stroke-width="1.0" stroke-linejoin="round" stroke-linecap="butt" d="m66.842545 144.96194l28.503937 0l0 42.803146l-28.503937 0z" fill-rule="evenodd"/><path fill="#d9d2e9" d="m222.40158 144.9644l57.07086 0l0 42.803146l-57.07086 0z" fill-rule="evenodd"/><path stroke="#ffffff" stroke-width="1.0" stroke-linejoin="round" stroke-linecap="butt" d="m222.40158 144.9644l57.07086 0l0 42.803146l-57.07086 0z" fill-rule="evenodd"/><path fill="#000000" fill-opacity="0.0" d="m0 0l315.65353 0l0 45.259842l-315.65353 0z" fill-rule="evenodd"/><path fill="#000000" d="m12.109375 20.026875l0 0.59375q0.515625 -0.5 0.9375 -0.6875q0.421875 -0.203125 0.96875 -0.203125q0.46875 0 0.921875 0.234375q0.46875 0.21875 0.90625 0.6875q0.546875 -0.46875 1.109375 -0.6875q0.578125 -0.21875 1.171875 -0.21875q1.1875 0 1.921875 0.625q0.984375 0.84375 0.984375 2.1875l0 4.78125q0.65625 0 0.984375 0.3125q0.328125 0.296875 0.328125 0.765625q0 0.46875 -0.328125 0.765625q-0.328125 0.296875 -1.09375 0.296875l-2.03125 0l0 -6.734375q0 -0.5 -0.171875 -0.6875q-0.171875 -0.1875 -0.546875 -0.1875q-0.34375 0 -0.65625 0.1875q-0.375 0.265625 -0.9375 0.984375l0 4.296875q0.671875 0 0.984375 0.3125q0.328125 0.296875 0.328125 0.765625q0 0.46875 -0.328125 0.765625q-0.3125 0.296875 -1.078125 0.296875l-2.03125 0l0 -6.734375q0 -0.484375 -0.1875 -0.671875q-0.1875 -0.203125 -0.546875 -0.203125q-0.375 0 -0.75 0.234375q-0.359375 0.234375 -0.859375 0.9375l0 4.296875q0.65625 0 0.984375 0.3125q0.328125 0.296875 0.328125 0.765625q0 0.46875 -0.328125 0.765625q-0.328125 0.296875 -1.09375 0.296875l-1.921875 0q-0.78125 0 -1.109375 -0.296875q-0.328125 -0.296875 -0.328125 -0.78125q0 -0.46875 0.328125 -0.765625q0.328125 -0.296875 1.0 -0.296875l0 -5.1875q-0.671875 0 -1.0 -0.296875q-0.328125 -0.296875 -0.328125 -0.765625q0 -0.46875 0.328125 -0.765625q0.328125 -0.296875 1.109375 -0.296875l2.03125 0zm18.017715 9.453125l0 -0.5q-0.8125 0.421875 -1.78125 0.640625q-0.96875 0.21875 -1.75 0.21875q-1.71875 0 -2.796875 -0.90625q-1.078125 -0.921875 -1.078125 -2.03125q0 -1.34375 1.375 -2.484375q1.375 -1.15625 3.78125 -1.15625q0.96875 0 2.25 0.203125l0 -0.5q0 -0.484375 -0.421875 -0.78125q-0.40625 -0.3125 -1.5625 -0.3125q-0.953125 0 -2.453125 0.375q-0.5625 0.140625 -0.875 0.140625q-0.4375 0 -0.734375 -0.296875q-0.296875 -0.3125 -0.296875 -0.796875q0 -0.265625 0.109375 -0.46875q0.109375 -0.203125 0.296875 -0.3125q0.1875 -0.125 0.78125 -0.296875q0.78125 -0.21875 1.609375 -0.34375q0.828125 -0.125 1.484375 -0.125q2.0 0 3.09375 0.859375q1.09375 0.859375 1.09375 2.34375l0 4.390625l0.359375 0q0.78125 0 1.109375 0.296875q0.328125 0.296875 0.328125 0.78125q0 0.46875 -0.328125 0.765625q-0.328125 0.296875 -1.109375 0.296875l-2.484375 0zm0 -3.828125q-1.28125 -0.25 -2.375 -0.25q-1.296875 0 -2.234375 0.640625q-0.578125 0.40625 -0.578125 0.828125q0 0.296875 0.28125 0.484375q0.515625 0.34375 1.421875 0.34375q0.765625 0 1.734375 -0.296875q0.984375 -0.3125 1.75 -0.828125l0 -0.921875zm8.22084 2.65625l0 3.5l1.28125 0q0.765625 0 1.09375 0.296875q0.328125 0.296875 0.328125 0.765625q0 0.46875 -0.328125 0.765625q-0.328125 0.296875 -1.09375 0.296875l-3.78125 0q-0.765625 0 -1.09375 -0.296875q-0.328125 -0.296875 -0.328125 -0.765625q0 -0.46875 0.328125 -0.765625q0.328125 -0.296875 1.09375 -0.296875l0.359375 0l0 -9.65625l-0.359375 0q-0.765625 0 -1.09375 -0.296875q-0.328125 -0.296875 -0.328125 -0.765625q0 -0.46875 0.328125 -0.765625q0.328125 -0.296875 1.09375 -0.296875l2.5 0l0 0.71875q0.75 -0.5 1.546875 -0.75q0.8125 -0.25 1.65625 -0.25q2.1875 0 3.71875 1.484375q1.546875 1.484375 1.546875 3.390625q0 2.125 -1.828125 3.5q-1.515625 1.140625 -3.421875 1.140625q-0.828125 0 -1.625 -0.234375q-0.796875 -0.25 -1.59375 -0.71875zm6.328125 -3.671875q0 -0.453125 -0.359375 -1.140625q-0.34375 -0.6875 -1.078125 -1.15625q-0.734375 -0.46875 -1.71875 -0.46875q-1.59375 0 -2.53125 1.203125q-0.640625 0.828125 -0.640625 1.578125q0 0.859375 0.90625 1.671875q0.921875 0.796875 2.265625 0.796875q1.34375 0 2.25 -0.796875q0.90625 -0.796875 0.90625 -1.6875zm15.03334 11.25l-11.734375 0q-0.765625 0 -1.09375 -0.296875q-0.328125 -0.28125 -0.328125 -0.765625q0 -0.484375 0.328125 -0.78125q0.328125 -0.296875 1.09375 -0.296875l11.734375 0q0.75 0 1.078125 0.296875q0.328125 0.296875 0.328125 0.78125q0 0.46875 -0.328125 0.765625q-0.3125 0.296875 -1.078125 0.296875zm9.18959 -13.359375q-0.515625 -0.328125 -1.09375 -0.484375q-0.5625 -0.171875 -1.1875 -0.171875q-1.25 0 -1.96875 0.40625q-0.328125 0.1875 -0.328125 0.390625q0 0.234375 0.4375 0.46875q0.328125 0.171875 1.484375 0.328125q2.125 0.28125 2.96875 0.578125q1.09375 0.390625 1.671875 1.15625q0.59375 0.75 0.59375 1.59375q0 1.140625 -1.0 1.921875q-1.453125 1.109375 -3.765625 1.109375q-0.921875 0 -1.71875 -0.171875q-0.78125 -0.15625 -1.4375 -0.46875q-0.15625 0.140625 -0.328125 0.21875q-0.171875 0.0625 -0.359375 0.0625q-0.5 0 -0.796875 -0.328125q-0.296875 -0.328125 -0.296875 -1.09375l0 -0.71875q0 -0.765625 0.296875 -1.09375q0.296875 -0.328125 0.765625 -0.328125q0.390625 0 0.640625 0.21875q0.265625 0.203125 0.421875 0.71875q0.484375 0.421875 1.171875 0.640625q0.6875 0.203125 1.578125 0.203125q1.46875 0 2.28125 -0.453125q0.390625 -0.234375 0.390625 -0.484375q0 -0.40625 -0.546875 -0.6875q-0.5625 -0.265625 -2.28125 -0.453125q-2.578125 -0.265625 -3.4375 -1.046875q-0.875 -0.75 -0.875 -1.875q0 -1.140625 0.96875 -1.90625q1.3125 -1.03125 3.4375 -1.03125q0.75 0 1.421875 0.140625q0.6875 0.140625 1.3125 0.421875q0.203125 -0.140625 0.375 -0.203125q0.171875 -0.078125 0.3125 -0.078125q0.4375 0 0.71875 0.328125q0.296875 0.328125 0.296875 1.09375l0 0.515625q0 0.703125 -0.15625 0.953125q-0.34375 0.484375 -0.90625 0.484375q-0.390625 0 -0.6875 -0.234375q-0.28125 -0.25 -0.375 -0.640625zm15.84584 3.3125l-8.75 0q0.328125 0.828125 1.171875 1.34375q0.859375 0.5 2.3125 0.5q1.1875 0 3.15625 -0.5q0.8125 -0.21875 1.109375 -0.21875q0.4375 0 0.71875 0.3125q0.296875 0.296875 0.296875 0.75q0 0.421875 -0.3125 0.71875q-0.421875 0.375 -2.03125 0.734375q-1.609375 0.34375 -3.09375 0.34375q-2.5625 0 -4.109375 -1.4375q-1.53125 -1.453125 -1.53125 -3.578125q0 -2.25 1.65625 -3.65625q1.671875 -1.40625 3.828125 -1.40625q1.3125 0 2.390625 0.453125q1.09375 0.453125 1.625 0.984375q0.75 0.78125 1.234375 1.90625q0.328125 0.796875 0.328125 1.84375l0 0.90625zm-2.359375 -2.140625q-0.484375 -0.921875 -1.28125 -1.375q-0.78125 -0.453125 -1.875 -0.453125q-1.09375 0 -1.890625 0.453125q-0.78125 0.453125 -1.28125 1.375l6.328125 0zm10.87709 -7.71875l0 11.359375l2.5625 0q0.765625 0 1.09375 0.296875q0.328125 0.296875 0.328125 0.78125q0 0.46875 -0.328125 0.765625q-0.328125 0.296875 -1.09375 0.296875l-7.265625 0q-0.765625 0 -1.09375 -0.296875q-0.328125 -0.296875 -0.328125 -0.78125q0 -0.46875 0.328125 -0.765625q0.328125 -0.296875 1.09375 -0.296875l2.5625 0l0 -9.234375l-1.71875 0q-0.75 0 -1.09375 -0.296875q-0.328125 -0.296875 -0.328125 -0.765625q0 -0.46875 0.328125 -0.765625q0.328125 -0.296875 1.09375 -0.296875l3.859375 0zm17.080215 9.859375l-8.75 0q0.328125 0.828125 1.171875 1.34375q0.859375 0.5 2.3125 0.5q1.1875 0 3.15625 -0.5q0.8125 -0.21875 1.109375 -0.21875q0.4375 0 0.71875 0.3125q0.296875 0.296875 0.296875 0.75q0 0.421875 -0.3125 0.71875q-0.421875 0.375 -2.03125 0.734375q-1.609375 0.34375 -3.09375 0.34375q-2.5625 0 -4.109375 -1.4375q-1.53125 -1.453125 -1.53125 -3.578125q0 -2.25 1.65625 -3.65625q1.671875 -1.40625 3.828125 -1.40625q1.3125 0 2.390625 0.453125q1.09375 0.453125 1.625 0.984375q0.75 0.78125 1.234375 1.90625q0.328125 0.796875 0.328125 1.84375l0 0.90625zm-2.359375 -2.140625q-0.484375 -0.921875 -1.28125 -1.375q-0.78125 -0.453125 -1.875 -0.453125q-1.09375 0 -1.890625 0.453125q-0.78125 0.453125 -1.28125 1.375l6.328125 0zm13.142715 -3.296875q0.375 -0.359375 0.78125 -0.359375q0.453125 0 0.75 0.328125q0.296875 0.328125 0.296875 1.09375l0 1.375q0 0.765625 -0.296875 1.09375q-0.296875 0.3125 -0.765625 0.3125q-0.4375 0 -0.734375 -0.25q-0.21875 -0.1875 -0.34375 -0.765625q-0.125 -0.578125 -0.609375 -0.859375q-0.84375 -0.5 -2.15625 -0.5q-1.515625 0 -2.421875 0.890625q-0.90625 0.890625 -0.90625 2.234375q0 1.25 0.875 1.984375q0.875 0.71875 2.90625 0.71875q1.328125 0 2.171875 -0.265625q0.5 -0.171875 0.9375 -0.5625q0.453125 -0.40625 0.8125 -0.40625q0.4375 0 0.75 0.328125q0.328125 0.3125 0.328125 0.75q0 0.703125 -0.96875 1.34375q-1.4375 0.953125 -4.203125 0.953125q-2.484375 0 -3.875 -1.03125q-1.875 -1.390625 -1.875 -3.796875q0 -2.28125 1.515625 -3.765625q1.53125 -1.5 3.96875 -1.5q0.890625 0 1.640625 0.171875q0.765625 0.15625 1.421875 0.484375zm8.93959 1.75l0 4.28125q0 0.6875 0.28125 0.90625q0.4375 0.34375 1.5625 0.34375q1.640625 0 3.015625 -0.6875q0.53125 -0.28125 0.828125 -0.28125q0.421875 0 0.71875 0.3125q0.3125 0.3125 0.3125 0.765625q0 0.421875 -0.328125 0.71875q-0.515625 0.484375 -2.015625 0.90625q-1.5 0.40625 -2.53125 0.40625q-1.984375 0 -2.984375 -0.859375q-1.0 -0.859375 -1.0 -2.109375l0 -4.703125l-0.765625 0q-0.765625 0 -1.09375 -0.296875q-0.328125 -0.296875 -0.328125 -0.765625q0 -0.46875 0.328125 -0.765625q0.328125 -0.296875 1.09375 -0.296875l0.765625 0l0 -1.921875q0 -0.78125 0.296875 -1.109375q0.296875 -0.328125 0.78125 -0.328125q0.46875 0 0.765625 0.328125q0.296875 0.328125 0.296875 1.109375l0 1.921875l3.953125 0q0.765625 0 1.09375 0.296875q0.328125 0.296875 0.328125 0.765625q0 0.46875 -0.328125 0.765625q-0.328125 0.296875 -1.09375 0.296875l-3.953125 0zm14.09584 -6.171875l0 2.25l-2.546875 0l0 -2.25l2.546875 0zm0.28125 4.046875l0 7.3125l2.5625 0q0.765625 0 1.09375 0.296875q0.328125 0.296875 0.328125 0.78125q0 0.46875 -0.328125 0.765625q-0.328125 0.296875 -1.09375 0.296875l-7.25 0q-0.78125 0 -1.109375 -0.296875q-0.328125 -0.296875 -0.328125 -0.78125q0 -0.46875 0.328125 -0.765625q0.328125 -0.296875 1.109375 -0.296875l2.5625 0l0 -5.1875l-1.71875 0q-0.765625 0 -1.109375 -0.296875q-0.328125 -0.296875 -0.328125 -0.765625q0 -0.46875 0.328125 -0.765625q0.328125 -0.296875 1.109375 -0.296875l3.84375 0zm17.28334 4.90625q0 1.21875 -0.6875 2.375q-0.671875 1.15625 -2.015625 1.84375q-1.34375 0.671875 -2.8125 0.671875q-1.46875 0 -2.796875 -0.671875q-1.328125 -0.671875 -2.03125 -1.828125q-0.703125 -1.15625 -0.703125 -2.421875q0 -1.28125 0.703125 -2.515625q0.71875 -1.234375 2.046875 -1.9375q1.328125 -0.703125 2.78125 -0.703125q1.453125 0 2.796875 0.71875q1.359375 0.71875 2.03125 1.953125q0.6875 1.21875 0.6875 2.515625zm-2.125 0q0 -1.03125 -0.734375 -1.890625q-1.015625 -1.171875 -2.65625 -1.171875q-1.453125 0 -2.421875 0.9375q-0.96875 0.921875 -0.96875 2.140625q0 1.0 0.96875 1.875q0.984375 0.859375 2.421875 0.859375q1.4375 0 2.40625 -0.859375q0.984375 -0.875 0.984375 -1.890625zm7.2208405 -4.90625l0 0.71875q0.59375 -0.5 1.296875 -0.75q0.703125 -0.25 1.515625 -0.25q1.90625 0 3.0 1.171875q0.875 0.9375 0.875 2.453125l0 3.96875q0.671875 0 1.0 0.296875q0.328125 0.296875 0.328125 0.78125q0 0.46875 -0.328125 0.765625q-0.328125 0.296875 -1.109375 0.296875l-1.921875 0q-0.765625 0 -1.09375 -0.296875q-0.328125 -0.296875 -0.328125 -0.78125q0 -0.46875 0.3125 -0.765625q0.328125 -0.296875 1.015625 -0.296875l0 -4.03125q0 -0.6875 -0.375 -1.015625q-0.5 -0.421875 -1.46875 -0.421875q-0.75 0 -1.3125 0.296875q-0.546875 0.28125 -1.40625 1.203125l0 3.96875q0.828125 0 1.0625 0.15625q0.515625 0.3125 0.515625 0.921875q0 0.46875 -0.328125 0.765625q-0.328125 0.296875 -1.09375 0.296875l-2.4375 0q-0.765625 0 -1.09375 -0.296875q-0.328125 -0.296875 -0.328125 -0.78125q0 -0.578125 0.5 -0.90625q0.25 -0.15625 1.078125 -0.15625l0 -5.1875q-0.6875 0 -1.015625 -0.296875q-0.3125 -0.296875 -0.3125 -0.765625q0 -0.46875 0.328125 -0.765625q0.328125 -0.296875 1.09375 -0.296875l2.03125 0zm27.00418 4.265625q0 -1.828125 0.59375 -3.6875q0.453125 -1.375 1.390625 -3.0625q0.671875 -1.203125 1.0 -1.46875q0.328125 -0.28125 0.71875 -0.28125q0.453125 0 0.765625 0.3125q0.3125 0.3125 0.3125 0.75q0 0.296875 -0.25 0.71875q-1.125 1.828125 -1.640625 3.453125q-0.515625 1.609375 -0.515625 3.265625q0 1.671875 0.515625 3.28125q0.515625 1.609375 1.640625 3.453125q0.25 0.40625 0.25 0.71875q0 0.4375 -0.3125 0.75q-0.3125 0.3125 -0.765625 0.3125q-0.390625 0 -0.671875 -0.25q-0.421875 -0.359375 -1.109375 -1.625q-0.984375 -1.84375 -1.359375 -3.046875q-0.5625 -1.828125 -0.5625 -3.59375zm14.330215 -8.3125l0 2.25l-2.546875 0l0 -2.25l2.546875 0zm0.28125 4.046875l0 7.3125l2.5625 0q0.765625 0 1.09375 0.296875q0.328125 0.296875 0.328125 0.78125q0 0.46875 -0.328125 0.765625q-0.328125 0.296875 -1.09375 0.296875l-7.25 0q-0.78125 0 -1.109375 -0.296875q-0.328125 -0.296875 -0.328125 -0.78125q0 -0.46875 0.328125 -0.765625q0.328125 -0.296875 1.109375 -0.296875l2.5625 0l0 -5.1875l-1.71875 0q-0.765625 0 -1.109375 -0.296875q-0.328125 -0.296875 -0.328125 -0.765625q0 -0.46875 0.328125 -0.765625q0.328125 -0.296875 1.109375 -0.296875l3.84375 0zm9.580215 0l0 0.71875q0.59375 -0.5 1.296875 -0.75q0.703125 -0.25 1.515625 -0.25q1.90625 0 3.0 1.171875q0.875 0.9375 0.875 2.453125l0 3.96875q0.671875 0 1.0 0.296875q0.328125 0.296875 0.328125 0.78125q0 0.46875 -0.328125 0.765625q-0.328125 0.296875 -1.109375 0.296875l-1.921875 0q-0.765625 0 -1.09375 -0.296875q-0.328125 -0.296875 -0.328125 -0.78125q0 -0.46875 0.3125 -0.765625q0.328125 -0.296875 1.015625 -0.296875l0 -4.03125q0 -0.6875 -0.375 -1.015625q-0.5 -0.421875 -1.46875 -0.421875q-0.75 0 -1.3125 0.296875q-0.546875 0.28125 -1.40625 1.203125l0 3.96875q0.828125 0 1.0625 0.15625q0.515625 0.3125 0.515625 0.921875q0 0.46875 -0.328125 0.765625q-0.328125 0.296875 -1.09375 0.296875l-2.4375 0q-0.765625 0 -1.09375 -0.296875q-0.328125 -0.296875 -0.328125 -0.78125q0 -0.578125 0.5 -0.90625q0.25 -0.15625 1.078125 -0.15625l0 -5.1875q-0.6875 0 -1.015625 -0.296875q-0.3125 -0.296875 -0.3125 -0.765625q0 -0.46875 0.328125 -0.765625q0.328125 -0.296875 1.09375 -0.296875l2.03125 0zm19.861465 -4.046875l0 11.359375l0.359375 0q0.765625 0 1.09375 0.296875q0.34375 0.296875 0.34375 0.78125q0 0.46875 -0.328125 0.765625q-0.328125 0.296875 -1.109375 0.296875l-2.484375 0l0 -0.515625q-0.734375 0.421875 -1.53125 0.640625q-0.796875 0.21875 -1.65625 0.21875q-2.40625 0 -3.875 -1.390625q-1.46875 -1.390625 -1.46875 -3.46875q0 -2.15625 1.546875 -3.6875q1.546875 -1.53125 3.765625 -1.53125q0.828125 0 1.625 0.25q0.8125 0.25 1.59375 0.765625l0 -2.65625l-0.375 0q-0.765625 0 -1.09375 -0.296875q-0.328125 -0.296875 -0.328125 -0.765625q0 -0.46875 0.328125 -0.765625q0.328125 -0.296875 1.09375 -0.296875l2.5 0zm-2.125 9.046875q0 -1.3125 -0.9375 -2.234375q-0.921875 -0.921875 -2.265625 -0.921875q-1.328125 0 -2.265625 0.921875q-0.921875 0.921875 -0.921875 2.203125q0 1.1875 0.828125 1.9375q0.84375 0.75 2.359375 0.75q1.515625 0 2.359375 -0.75q0.84375 -0.75 0.84375 -1.90625zm15.37709 0.8125l-8.75 0q0.328125 0.828125 1.171875 1.34375q0.859375 0.5 2.3125 0.5q1.1875 0 3.15625 -0.5q0.8125 -0.21875 1.109375 -0.21875q0.4375 0 0.71875 0.3125q0.296875 0.296875 0.296875 0.75q0 0.421875 -0.3125 0.71875q-0.421875 0.375 -2.03125 0.734375q-1.609375 0.34375 -3.09375 0.34375q-2.5625 0 -4.109375 -1.4375q-1.53125 -1.453125 -1.53125 -3.578125q0 -2.25 1.65625 -3.65625q1.671875 -1.40625 3.828125 -1.40625q1.3125 0 2.390625 0.453125q1.09375 0.453125 1.625 0.984375q0.75 0.78125 1.234375 1.90625q0.328125 0.796875 0.328125 1.84375l0 0.90625zm-2.359375 -2.140625q-0.484375 -0.921875 -1.28125 -1.375q-0.78125 -0.453125 -1.875 -0.453125q-1.09375 0 -1.890625 0.453125q-0.78125 0.453125 -1.28125 1.375l6.328125 0zm11.408356 0.859375l3.234375 2.78125q0.578125 0.03125 0.875 0.328125q0.296875 0.296875 0.296875 0.75q0 0.46875 -0.328125 0.765625q-0.328125 0.296875 -1.109375 0.296875l-2.421875 0q-0.765625 0 -1.09375 -0.296875q-0.328125 -0.296875 -0.328125 -0.78125q0 -0.375 0.234375 -0.65625q0.234375 -0.296875 0.640625 -0.40625l-1.59375 -1.375l-1.625 1.375q0.484375 0.125 0.703125 0.390625q0.21875 0.265625 0.21875 0.671875q0 0.484375 -0.328125 0.78125q-0.328125 0.296875 -1.09375 0.296875l-2.4062653 0q-0.765625 0 -1.09375 -0.296875q-0.328125 -0.296875 -0.328125 -0.78125q0 -0.4375 0.28125 -0.734375q0.296875 -0.296875 0.875 -0.328125l3.1718903 -2.78125l-2.7968903 -2.40625q-0.5625 -0.03125 -0.84375 -0.328125q-0.28125 -0.296875 -0.28125 -0.734375q0 -0.46875 0.328125 -0.765625q0.328125 -0.296875 1.09375 -0.296875l2.0000153 0q0.765625 0 1.09375 0.296875q0.328125 0.296875 0.328125 0.75q0 0.609375 -0.578125 1.0l1.296875 1.078125l1.265625 -1.09375q-0.578125 -0.40625 -0.578125 -0.9375q0 -0.5 0.328125 -0.796875q0.328125 -0.296875 1.109375 -0.296875l1.96875 0q0.765625 0 1.09375 0.296875q0.328125 0.296875 0.328125 0.765625q0 0.4375 -0.28125 0.734375q-0.28125 0.296875 -0.84375 0.328125l-2.8125 2.40625zm12.11145 -0.265625q0 1.828125 -0.609375 3.703125q-0.4375 1.375 -1.375 3.046875q-0.6875 1.203125 -1.015625 1.484375q-0.3125 0.28125 -0.703125 0.28125q-0.46875 0 -0.78125 -0.3125q-0.3125 -0.3125 -0.3125 -0.75q0 -0.3125 0.25 -0.71875q1.125 -1.84375 1.640625 -3.453125q0.515625 -1.609375 0.515625 -3.28125q0 -1.65625 -0.515625 -3.265625q-0.515625 -1.625 -1.640625 -3.453125q-0.25 -0.421875 -0.25 -0.71875q0 -0.4375 0.3125 -0.75q0.3125 -0.3125 0.78125 -0.3125q0.375 0 0.671875 0.25q0.421875 0.34375 1.109375 1.625q0.984375 1.84375 1.34375 3.03125q0.578125 1.84375 0.578125 3.59375z" fill-rule="nonzero"/><path fill="#d9d2e9" d="m95.34648 144.96457l28.503937 0l0 42.803146l-28.503937 0z" fill-rule="evenodd"/><path stroke="#ffffff" stroke-width="1.0" stroke-linejoin="round" stroke-linecap="butt" d="m95.34648 144.96457l28.503937 0l0 42.803146l-28.503937 0z" fill-rule="evenodd"/><path fill="#d9d2e9" d="m8.740179 144.96194l28.503935 0l0 42.803146l-28.503935 0z" fill-rule="evenodd"/><path stroke="#ffffff" stroke-width="1.0" stroke-linejoin="round" stroke-linecap="butt" d="m8.740179 144.96194l28.503935 0l0 42.803146l-28.503935 0z" fill-rule="evenodd"/><path fill="#d9d2e9" d="m37.244114 144.96457l28.50394 0l0 42.803146l-28.50394 0z" fill-rule="evenodd"/><path stroke="#ffffff" stroke-width="1.0" stroke-linejoin="round" stroke-linecap="butt" d="m37.244114 144.96457l28.50394 0l0 42.803146l-28.50394 0z" fill-rule="evenodd"/><path fill="#d9d2e9" d="m66.842545 101.585304l28.503937 0l0 42.803154l-28.503937 0z" fill-rule="evenodd"/><path stroke="#ffffff" stroke-width="1.0" stroke-linejoin="round" stroke-linecap="butt" d="m66.842545 101.585304l28.503937 0l0 42.803154l-28.503937 0z" fill-rule="evenodd"/><path fill="#d9d2e9" d="m95.34648 101.58793l28.503937 0l0 42.803154l-28.503937 0z" fill-rule="evenodd"/><path stroke="#ffffff" stroke-width="1.0" stroke-linejoin="round" stroke-linecap="butt" d="m95.34648 101.58793l28.503937 0l0 42.803154l-28.503937 0z" fill-rule="evenodd"/><path fill="#d9d2e9" d="m8.740179 101.585304l28.503935 0l0 42.803154l-28.503935 0z" fill-rule="evenodd"/><path stroke="#ffffff" stroke-width="1.0" stroke-linejoin="round" stroke-linecap="butt" d="m8.740179 101.585304l28.503935 0l0 42.803154l-28.503935 0z" fill-rule="evenodd"/><path fill="#d9d2e9" d="m37.244114 101.58793l28.50394 0l0 42.803154l-28.50394 0z" fill-rule="evenodd"/><path stroke="#ffffff" stroke-width="1.0" stroke-linejoin="round" stroke-linecap="butt" d="m37.244114 101.58793l28.50394 0l0 42.803154l-28.50394 0z" fill-rule="evenodd"/><path fill="#8e7cc3" d="m66.842545 58.207348l28.503937 0l0 42.80315l-28.503937 0z" fill-rule="evenodd"/><path stroke="#ffffff" stroke-width="1.0" stroke-linejoin="round" stroke-linecap="butt" d="m66.842545 58.207348l28.503937 0l0 42.80315l-28.503937 0z" fill-rule="evenodd"/><path fill="#d9d2e9" d="m8.740179 58.207348l28.503935 0l0 42.80315l-28.503935 0z" fill-rule="evenodd"/><path stroke="#ffffff" stroke-width="1.0" stroke-linejoin="round" stroke-linecap="butt" d="m8.740179 58.207348l28.503935 0l0 42.80315l-28.503935 0z" fill-rule="evenodd"/><path fill="#8e7cc3" d="m37.244114 58.209972l28.50394 0l0 42.80315l-28.50394 0z" fill-rule="evenodd"/><path stroke="#ffffff" stroke-width="1.0" stroke-linejoin="round" stroke-linecap="butt" d="m37.244114 58.209972l28.50394 0l0 42.80315l-28.50394 0z" fill-rule="evenodd"/><path fill="#000000" fill-opacity="0.0" d="m37.0 59.0l58.48819 0" fill-rule="evenodd"/><path stroke="#000000" stroke-width="2.0" stroke-linejoin="round" stroke-linecap="butt" stroke-dasharray="8.0,6.0" d="m37.0 59.0l58.48819 0" fill-rule="evenodd"/><path fill="#000000" fill-opacity="0.0" d="m95.50131 59.501312l0 128.0" fill-rule="evenodd"/><path stroke="#000000" stroke-width="2.0" stroke-linejoin="round" stroke-linecap="butt" stroke-dasharray="8.0,6.0" d="m95.50131 59.501312l0 128.0" fill-rule="evenodd"/><path fill="#000000" fill-opacity="0.0" d="m95.50131 187.50131l-58.48819 0" fill-rule="evenodd"/><path stroke="#000000" stroke-width="2.0" stroke-linejoin="round" stroke-linecap="butt" stroke-dasharray="8.0,6.0" d="m95.50131 187.50131l-58.48819 0" fill-rule="evenodd"/><path fill="#000000" fill-opacity="0.0" d="m37.498688 186.49606l0 -127.49606" fill-rule="evenodd"/><path stroke="#000000" stroke-width="2.0" stroke-linejoin="round" stroke-linecap="butt" stroke-dasharray="8.0,6.0" d="m37.498688 186.49606l0 -127.49606" fill-rule="evenodd"/><path fill="#000000" fill-opacity="0.0" d="m52.007874 90.509186c42.598427 0 63.897636 -2.724411 85.19685 -5.448822c21.29921 -2.7244034 42.59842 -5.4488144 85.19685 -5.4488144" fill-rule="evenodd"/><path stroke="#000000" stroke-width="1.0" stroke-linejoin="round" stroke-linecap="butt" d="m52.007874 90.509186c42.598427 0 63.897636 -2.724411 85.19685 -5.448822c10.649597 -1.3621979 21.29921 -2.7244034 34.61122 -3.7460556c6.656006 -0.51083374 13.9776 -0.9365158 22.297607 -1.2345047c4.1600037 -0.14898682 8.569595 -0.26605225 13.270401 -0.34587097c2.350418 -0.039909363 4.7736053 -0.070503235 7.274811 -0.09112549l1.7428284 -0.012519836" fill-rule="evenodd"/><path fill="#000000" stroke="#000000" stroke-width="1.0" stroke-linecap="butt" d="m216.40677 81.28201l4.532913 -1.6659012l-4.5432434 -1.6375504z" fill-rule="evenodd"/><path fill="#000000" fill-opacity="0.0" d="m80.51181 69.94226c35.472443 0 53.208664 2.4173203 70.944885 4.8346405c17.736221 2.417328 35.472443 4.834648 70.944885 4.834648" fill-rule="evenodd"/><path stroke="#000000" stroke-width="1.0" stroke-linejoin="round" stroke-linecap="butt" d="m80.51181 69.94226c35.472443 0 53.208664 2.4173203 70.944885 4.8346405c8.868103 1.208664 17.736221 2.417328 28.82135 3.323822c5.542572 0.45324707 11.639404 0.8309555 18.567612 1.0953445c3.464096 0.13220215 7.1360474 0.23606873 11.050507 0.3068924c1.9571991 0.03540802 3.9750366 0.062553406 6.057846 0.080848694l0.44763184 0.0029296875" fill-rule="evenodd"/><path fill="#000000" stroke="#000000" stroke-width="1.0" stroke-linecap="butt" d="m216.39479 81.23846l4.5448914 -1.6329575l-4.5312195 -1.6704865z" fill-rule="evenodd"/></g></svg>
