<svg version="1.1" viewBox="0.0 0.0 937.8215223097113 631.5459317585302" fill="none" stroke="none" stroke-linecap="square" stroke-miterlimit="10" xmlns:xlink="http://www.w3.org/1999/xlink" xmlns="http://www.w3.org/2000/svg"><clipPath id="p.0"><path d="m0 0l937.82153 0l0 631.54596l-937.82153 0l0 -631.54596z" clip-rule="nonzero"/></clipPath><g clip-path="url(#p.0)"><path fill="#000000" fill-opacity="0.0" d="m0 0l937.82153 0l0 631.54596l-937.82153 0z" fill-rule="evenodd"/><path fill="#000000" fill-opacity="0.0" d="m7.624672 13.3149605l440.37796 0l0 601.10236l-440.37796 0z" fill-rule="evenodd"/><path stroke="#000000" stroke-width="1.0" stroke-linejoin="round" stroke-linecap="butt" d="m7.624672 13.3149605l440.37796 0l0 601.10236l-440.37796 0z" fill-rule="evenodd"/><path fill="#cfe2f3" d="m36.14173 116.03937l384.0 0l0 384.0l-384.0 0z" fill-rule="evenodd"/><path stroke="#000000" stroke-width="1.0" stroke-linejoin="round" stroke-linecap="butt" d="m36.14173 116.03937l384.0 0l0 384.0l-384.0 0z" fill-rule="evenodd"/><path fill="#d9d2e9" d="m36.157482 500.29135l384.0 0l0 88.44095l-384.0 0z" fill-rule="evenodd"/><path stroke="#000000" stroke-width="1.0" stroke-linejoin="round" stroke-linecap="butt" d="m36.157482 500.29135l384.0 0l0 88.44095l-384.0 0z" fill-rule="evenodd"/><path fill="#000000" d="m139.61687 542.2993l0 1.65625q1.6875 -1.203125 2.65625 -1.609375q0.96875 -0.40625 1.8125 -0.40625q1.3125 0 2.53125 0.96875q0.828125 0.640625 0.828125 1.328125q0 0.5625 -0.40625 0.96875q-0.390625 0.390625 -0.953125 0.390625q-0.484375 0 -1.03125 -0.484375q-0.546875 -0.5 -0.984375 -0.5q-0.546875 0 -1.671875 0.703125q-1.109375 0.703125 -2.78125 2.109375l0 4.015625l3.8125 0q0.953125 0 1.359375 0.375q0.421875 0.375 0.421875 0.96875q0 0.59375 -0.421875 0.96875q-0.40625 0.359375 -1.359375 0.359375l-8.0625 0q-0.96875 0 -1.375 -0.359375q-0.40625 -0.375 -0.40625 -0.984375q0 -0.578125 0.40625 -0.953125q0.40625 -0.375 1.375 -0.375l1.59375 0l0 -6.484375l-0.96875 0q-0.96875 0 -1.375 -0.359375q-0.40625 -0.375 -0.40625 -0.96875q0 -0.59375 0.40625 -0.953125q0.40625 -0.375 1.375 -0.375l3.625 0zm23.246353 7.25l-10.9375 0q0.421875 1.046875 1.46875 1.6875q1.0625 0.640625 2.875 0.640625q1.484375 0 3.953125 -0.640625q1.015625 -0.265625 1.390625 -0.265625q0.546875 0 0.90625 0.390625q0.359375 0.375 0.359375 0.9375q0 0.53125 -0.390625 0.890625q-0.515625 0.484375 -2.53125 0.921875q-2.015625 0.421875 -3.875 0.421875q-3.203125 0 -5.125 -1.796875q-1.921875 -1.8125 -1.921875 -4.453125q0 -2.8125 2.078125 -4.578125q2.078125 -1.765625 4.78125 -1.765625q1.625 0 2.984375 0.578125q1.359375 0.5625 2.03125 1.234375q0.9375 0.96875 1.546875 2.375q0.40625 1.0 0.40625 2.296875l0 1.125zm-2.953125 -2.65625q-0.609375 -1.15625 -1.59375 -1.71875q-0.984375 -0.5625 -2.359375 -0.5625q-1.34375 0 -2.34375 0.5625q-0.984375 0.5625 -1.609375 1.71875l7.90625 0zm15.136978 -1.46875q-0.640625 -0.40625 -1.359375 -0.609375q-0.71875 -0.203125 -1.5 -0.203125q-1.546875 0 -2.453125 0.5q-0.40625 0.234375 -0.40625 0.484375q0 0.296875 0.546875 0.59375q0.421875 0.203125 1.859375 0.40625q2.65625 0.359375 3.703125 0.71875q1.359375 0.484375 2.09375 1.4375q0.75 0.953125 0.75 2.0q0 1.4375 -1.265625 2.390625q-1.8125 1.390625 -4.703125 1.390625q-1.15625 0 -2.140625 -0.203125q-0.96875 -0.1875 -1.796875 -0.578125q-0.1875 0.171875 -0.421875 0.265625q-0.21875 0.078125 -0.453125 0.078125q-0.625 0 -1.0 -0.40625q-0.359375 -0.40625 -0.359375 -1.375l0 -0.890625q0 -0.96875 0.359375 -1.375q0.375 -0.421875 0.984375 -0.421875q0.46875 0 0.796875 0.28125q0.328125 0.265625 0.515625 0.90625q0.609375 0.53125 1.46875 0.796875q0.859375 0.265625 1.96875 0.265625q1.84375 0 2.859375 -0.578125q0.484375 -0.28125 0.484375 -0.59375q0 -0.53125 -0.6875 -0.859375q-0.703125 -0.34375 -2.859375 -0.578125q-3.21875 -0.34375 -4.296875 -1.296875q-1.078125 -0.953125 -1.078125 -2.34375q0 -1.4375 1.21875 -2.390625q1.640625 -1.296875 4.28125 -1.296875q0.9375 0 1.78125 0.1875q0.859375 0.171875 1.640625 0.53125q0.25 -0.1875 0.453125 -0.265625q0.21875 -0.09375 0.40625 -0.09375q0.546875 0 0.90625 0.40625q0.359375 0.40625 0.359375 1.375l0 0.640625q0 0.875 -0.203125 1.1875q-0.421875 0.609375 -1.125 0.609375q-0.484375 0 -0.859375 -0.296875q-0.359375 -0.3125 -0.46875 -0.796875zm19.808853 4.125l-10.9375 0q0.421875 1.046875 1.46875 1.6875q1.0625 0.640625 2.875 0.640625q1.484375 0 3.953125 -0.640625q1.015625 -0.265625 1.390625 -0.265625q0.546875 0 0.90625 0.390625q0.359375 0.375 0.359375 0.9375q0 0.53125 -0.390625 0.890625q-0.515625 0.484375 -2.53125 0.921875q-2.015625 0.421875 -3.875 0.421875q-3.203125 0 -5.125 -1.796875q-1.921875 -1.8125 -1.921875 -4.453125q0 -2.8125 2.078125 -4.578125q2.078125 -1.765625 4.78125 -1.765625q1.625 0 2.984375 0.578125q1.359375 0.5625 2.03125 1.234375q0.9375 0.96875 1.546875 2.375q0.40625 1.0 0.40625 2.296875l0 1.125zm-2.953125 -2.65625q-0.609375 -1.15625 -1.59375 -1.71875q-0.984375 -0.5625 -2.359375 -0.5625q-1.34375 0 -2.34375 0.5625q-0.984375 0.5625 -1.609375 1.71875l7.90625 0zm11.699478 -4.59375l0 1.65625q1.6875 -1.203125 2.65625 -1.609375q0.96875 -0.40625 1.8125 -0.40625q1.3125 0 2.53125 0.96875q0.828125 0.640625 0.828125 1.328125q0 0.5625 -0.40625 0.96875q-0.390625 0.390625 -0.953125 0.390625q-0.484375 0 -1.03125 -0.484375q-0.546875 -0.5 -0.984375 -0.5q-0.546875 0 -1.671875 0.703125q-1.109375 0.703125 -2.78125 2.109375l0 4.015625l3.8125 0q0.953125 0 1.359375 0.375q0.421875 0.375 0.421875 0.96875q0 0.59375 -0.421875 0.96875q-0.40625 0.359375 -1.359375 0.359375l-8.0625 0q-0.96875 0 -1.375 -0.359375q-0.40625 -0.375 -0.40625 -0.984375q0 -0.578125 0.40625 -0.953125q0.40625 -0.375 1.375 -0.375l1.59375 0l0 -6.484375l-0.96875 0q-0.96875 0 -1.375 -0.359375q-0.40625 -0.375 -0.40625 -0.96875q0 -0.59375 0.40625 -0.953125q0.40625 -0.375 1.375 -0.375l3.625 0zm16.574478 8.578125l2.875 -5.921875q-1.0625 0 -1.359375 -0.171875q-0.65625 -0.40625 -0.65625 -1.15625q0 -0.59375 0.40625 -0.953125q0.421875 -0.375 1.375 -0.375l3.65625 0q0.96875 0 1.375 0.375q0.40625 0.359375 0.40625 0.953125q0 0.59375 -0.40625 0.96875q-0.40625 0.359375 -1.375 0.359375l-0.4375 0l-4.46875 9.15625l-2.78125 0l-4.46875 -9.15625l-0.375 0q-0.96875 0 -1.375 -0.359375q-0.40625 -0.375 -0.40625 -0.96875q0 -0.59375 0.40625 -0.953125q0.40625 -0.375 1.375 -0.375l3.578125 0q0.953125 0 1.359375 0.375q0.40625 0.359375 0.40625 0.953125q0 0.75 -0.609375 1.140625q-0.3125 0.1875 -1.40625 0.1875l2.90625 5.921875zm22.668228 -1.328125l-10.9375 0q0.421875 1.046875 1.46875 1.6875q1.0625 0.640625 2.875 0.640625q1.484375 0 3.953125 -0.640625q1.015625 -0.265625 1.390625 -0.265625q0.546875 0 0.90625 0.390625q0.359375 0.375 0.359375 0.9375q0 0.53125 -0.390625 0.890625q-0.515625 0.484375 -2.53125 0.921875q-2.015625 0.421875 -3.875 0.421875q-3.203125 0 -5.125 -1.796875q-1.921875 -1.8125 -1.921875 -4.453125q0 -2.8125 2.078125 -4.578125q2.078125 -1.765625 4.78125 -1.765625q1.625 0 2.984375 0.578125q1.359375 0.5625 2.03125 1.234375q0.9375 0.96875 1.546875 2.375q0.40625 1.0 0.40625 2.296875l0 1.125zm-2.953125 -2.65625q-0.609375 -1.15625 -1.59375 -1.71875q-0.984375 -0.5625 -2.359375 -0.5625q-1.34375 0 -2.34375 0.5625q-0.984375 0.5625 -1.609375 1.71875l7.90625 0zm18.386978 -9.65625l0 14.203125l0.453125 0q0.953125 0 1.359375 0.375q0.421875 0.375 0.421875 0.96875q0 0.59375 -0.40625 0.96875q-0.40625 0.359375 -1.375 0.359375l-3.125 0l0 -0.65625q-0.90625 0.546875 -1.90625 0.8125q-1.0 0.265625 -2.0625 0.265625q-3.0 0 -4.84375 -1.734375q-1.828125 -1.734375 -1.828125 -4.328125q0 -2.703125 1.921875 -4.609375q1.921875 -1.921875 4.703125 -1.921875q1.03125 0 2.03125 0.328125q1.015625 0.3125 1.984375 0.953125l0 -3.328125l-0.453125 0q-0.96875 0 -1.375 -0.359375q-0.40625 -0.375 -0.40625 -0.96875q0 -0.59375 0.40625 -0.953125q0.40625 -0.375 1.375 -0.375l3.125 0zm-2.671875 11.3125q0 -1.640625 -1.15625 -2.78125q-1.15625 -1.15625 -2.84375 -1.15625q-1.65625 0 -2.828125 1.15625q-1.15625 1.140625 -1.15625 2.75q0 1.46875 1.046875 2.421875q1.046875 0.9375 2.9375 0.9375q1.890625 0 2.9375 -0.9375q1.0625 -0.953125 1.0625 -2.390625zm19.933838 13.5625l-14.65625 0q-0.96875 0 -1.375 -0.359375q-0.40625 -0.359375 -0.40625 -0.96875q0 -0.59375 0.40625 -0.96875q0.40625 -0.359375 1.375 -0.359375l14.65625 0q0.9375 0 1.34375 0.359375q0.421875 0.375 0.421875 0.96875q0 0.59375 -0.40625 0.953125q-0.40625 0.375 -1.359375 0.375zm4.4807434 -19.8125l0 0.75q0.65625 -0.640625 1.171875 -0.875q0.53125 -0.25 1.234375 -0.25q0.578125 0 1.140625 0.296875q0.578125 0.28125 1.125 0.859375q0.6875 -0.578125 1.390625 -0.859375q0.71875 -0.28125 1.46875 -0.28125q1.484375 0 2.40625 0.796875q1.21875 1.046875 1.21875 2.734375l0 5.96875q0.828125 0 1.234375 0.390625q0.40625 0.375 0.40625 0.953125q0 0.59375 -0.40625 0.96875q-0.40625 0.359375 -1.359375 0.359375l-2.546875 0l0 -8.421875q0 -0.609375 -0.21875 -0.84375q-0.21875 -0.234375 -0.671875 -0.234375q-0.4375 0 -0.828125 0.234375q-0.46875 0.328125 -1.171875 1.21875l0 5.375q0.84375 0 1.234375 0.390625q0.40625 0.375 0.40625 0.953125q0 0.59375 -0.40625 0.96875q-0.390625 0.359375 -1.359375 0.359375l-2.53125 0l0 -8.421875q0 -0.59375 -0.234375 -0.828125q-0.21875 -0.25 -0.6875 -0.25q-0.46875 0 -0.921875 0.296875q-0.453125 0.28125 -1.09375 1.15625l0 5.375q0.84375 0 1.25 0.390625q0.40625 0.375 0.40625 0.953125q0 0.59375 -0.40625 0.96875q-0.40625 0.359375 -1.375 0.359375l-2.40625 0q-0.96875 0 -1.375 -0.359375q-0.40625 -0.375 -0.40625 -0.984375q0 -0.578125 0.40625 -0.953125q0.390625 -0.375 1.234375 -0.375l0 -6.484375q-0.84375 0 -1.234375 -0.375q-0.40625 -0.375 -0.40625 -0.953125q0 -0.59375 0.40625 -0.953125q0.40625 -0.375 1.375 -0.375l2.53125 0zm26.808838 7.25l-10.9375 0q0.421875 1.046875 1.46875 1.6875q1.0625 0.640625 2.875 0.640625q1.484375 0 3.953125 -0.640625q1.015625 -0.265625 1.390625 -0.265625q0.546875 0 0.90625 0.390625q0.359375 0.375 0.359375 0.9375q0 0.53125 -0.390625 0.890625q-0.515625 0.484375 -2.53125 0.921875q-2.015625 0.421875 -3.875 0.421875q-3.203125 0 -5.125 -1.796875q-1.921875 -1.8125 -1.921875 -4.453125q0 -2.8125 2.078125 -4.578125q2.078125 -1.765625 4.78125 -1.765625q1.625 0 2.984375 0.578125q1.359375 0.5625 2.03125 1.234375q0.9375 0.96875 1.546875 2.375q0.40625 1.0 0.40625 2.296875l0 1.125zm-2.953125 -2.65625q-0.609375 -1.15625 -1.59375 -1.71875q-0.984375 -0.5625 -2.359375 -0.5625q-1.34375 0 -2.34375 0.5625q-0.984375 0.5625 -1.609375 1.71875l7.90625 0zm8.136963 -4.59375l0 0.75q0.65625 -0.640625 1.171875 -0.875q0.53125 -0.25 1.234375 -0.25q0.578125 0 1.140625 0.296875q0.578125 0.28125 1.125 0.859375q0.6875 -0.578125 1.390625 -0.859375q0.71875 -0.28125 1.46875 -0.28125q1.484375 0 2.40625 0.796875q1.21875 1.046875 1.21875 2.734375l0 5.96875q0.828125 0 1.234375 0.390625q0.40625 0.375 0.40625 0.953125q0 0.59375 -0.40625 0.96875q-0.40625 0.359375 -1.359375 0.359375l-2.546875 0l0 -8.421875q0 -0.609375 -0.21875 -0.84375q-0.21875 -0.234375 -0.671875 -0.234375q-0.4375 0 -0.828125 0.234375q-0.46875 0.328125 -1.171875 1.21875l0 5.375q0.84375 0 1.234375 0.390625q0.40625 0.375 0.40625 0.953125q0 0.59375 -0.40625 0.96875q-0.390625 0.359375 -1.359375 0.359375l-2.53125 0l0 -8.421875q0 -0.59375 -0.234375 -0.828125q-0.21875 -0.25 -0.6875 -0.25q-0.46875 0 -0.921875 0.296875q-0.453125 0.28125 -1.09375 1.15625l0 5.375q0.84375 0 1.25 0.390625q0.40625 0.375 0.40625 0.953125q0 0.59375 -0.40625 0.96875q-0.40625 0.359375 -1.375 0.359375l-2.40625 0q-0.96875 0 -1.375 -0.359375q-0.40625 -0.375 -0.40625 -0.984375q0 -0.578125 0.40625 -0.953125q0.390625 -0.375 1.234375 -0.375l0 -6.484375q-0.84375 0 -1.234375 -0.375q-0.40625 -0.375 -0.40625 -0.953125q0 -0.59375 0.40625 -0.953125q0.40625 -0.375 1.375 -0.375l2.53125 0z" fill-rule="nonzero"/><path fill="#d9ead3" d="m92.47769 216.12862l263.71652 0l0 263.71655l-263.71652 0z" fill-rule="evenodd"/><path stroke="#000000" stroke-width="1.0" stroke-linejoin="round" stroke-linecap="butt" d="m92.47769 216.12862l263.71652 0l0 263.71655l-263.71652 0z" fill-rule="evenodd"/><path fill="#000000" d="m135.79533 345.77438l0 1.65625q1.6875 -1.203125 2.65625 -1.609375q0.96875 -0.40625 1.8125 -0.40625q1.3125 0 2.53125 0.96875q0.828125 0.640625 0.828125 1.328125q0 0.5625 -0.40625 0.96875q-0.390625 0.390625 -0.953125 0.390625q-0.484375 0 -1.03125 -0.484375q-0.546875 -0.5 -0.984375 -0.5q-0.546875 0 -1.671875 0.703125q-1.109375 0.703125 -2.78125 2.109375l0 4.015625l3.8125 0q0.953125 0 1.359375 0.375q0.421875 0.375 0.421875 0.96875q0 0.59375 -0.421875 0.96875q-0.40625 0.359375 -1.359375 0.359375l-8.0625 0q-0.96875 0 -1.375 -0.359375q-0.40625 -0.375 -0.40625 -0.984375q0 -0.578125 0.40625 -0.953125q0.40625 -0.375 1.375 -0.375l1.59375 0l0 -6.484375l-0.96875 0q-0.96875 0 -1.375 -0.359375q-0.40625 -0.375 -0.40625 -0.96875q0 -0.59375 0.40625 -0.953125q0.40625 -0.375 1.375 -0.375l3.625 0zm23.246353 7.25l-10.9375 0q0.421875 1.046875 1.46875 1.6875q1.0625 0.640625 2.875 0.640625q1.484375 0 3.953125 -0.640625q1.015625 -0.265625 1.390625 -0.265625q0.546875 0 0.90625 0.390625q0.359375 0.375 0.359375 0.9375q0 0.53125 -0.390625 0.890625q-0.515625 0.484375 -2.53125 0.921875q-2.015625 0.421875 -3.875 0.421875q-3.203125 0 -5.125 -1.796875q-1.921875 -1.8125 -1.921875 -4.453125q0 -2.8125 2.078125 -4.578125q2.078125 -1.765625 4.78125 -1.765625q1.625 0 2.984375 0.578125q1.359375 0.5625 2.03125 1.234375q0.9375 0.96875 1.546875 2.375q0.40625 1.0 0.40625 2.296875l0 1.125zm-2.953125 -2.65625q-0.609375 -1.15625 -1.59375 -1.71875q-0.984375 -0.5625 -2.359375 -0.5625q-1.34375 0 -2.34375 0.5625q-0.984375 0.5625 -1.609375 1.71875l7.90625 0zm18.449478 -1.9375l0 12.0625l0.46875 0q0.953125 0 1.359375 0.359375q0.40625 0.375 0.40625 0.984375q0 0.578125 -0.40625 0.953125q-0.390625 0.375 -1.359375 0.375l-4.71875 0q-0.96875 0 -1.390625 -0.375q-0.40625 -0.375 -0.40625 -0.953125q0 -0.609375 0.40625 -0.984375q0.421875 -0.359375 1.390625 -0.359375l1.578125 0l0 -4.375q-0.96875 0.59375 -1.984375 0.90625q-1.0 0.296875 -2.03125 0.296875q-2.390625 0 -4.28125 -1.4375q-2.28125 -1.71875 -2.28125 -4.359375q0 -2.390625 1.921875 -4.25q1.9375 -1.859375 4.671875 -1.859375q1.0625 0 2.046875 0.3125q1.0 0.3125 1.9375 0.953125l0 -0.90625l3.140625 0q0.953125 0 1.359375 0.375q0.40625 0.359375 0.40625 0.953125q0 0.59375 -0.40625 0.96875q-0.390625 0.359375 -1.359375 0.359375l-0.46875 0zm-2.671875 3.109375q0 -0.5625 -0.4375 -1.421875q-0.4375 -0.875 -1.375 -1.453125q-0.921875 -0.578125 -2.140625 -0.578125q-2.0 0 -3.15625 1.5q-0.796875 1.03125 -0.796875 1.96875q0 1.078125 1.140625 2.09375q1.140625 1.0 2.8125 1.0q1.6875 0 2.8125 -1.0q1.140625 -1.015625 1.140625 -2.109375zm18.152603 -5.765625l0 9.140625q0.84375 0 1.234375 0.390625q0.40625 0.375 0.40625 0.953125q0 0.59375 -0.40625 0.96875q-0.40625 0.359375 -1.375 0.359375l-2.53125 0l0 -0.609375q-1.140625 0.515625 -2.1875 0.765625q-1.046875 0.265625 -1.984375 0.265625q-1.3125 0 -2.28125 -0.546875q-0.953125 -0.546875 -1.515625 -1.53125q-0.40625 -0.703125 -0.40625 -1.75l0 -5.75l-0.453125 0q-0.96875 0 -1.375 -0.359375q-0.40625 -0.375 -0.40625 -0.96875q0 -0.59375 0.40625 -0.953125q0.40625 -0.375 1.375 -0.375l3.125 0l0 7.9375q0 0.84375 0.40625 1.25q0.421875 0.390625 1.265625 0.390625q0.796875 0 1.71875 -0.3125q0.9375 -0.328125 2.3125 -1.15625l0 -5.453125l-0.96875 0q-0.953125 0 -1.375 -0.359375q-0.40625 -0.375 -0.40625 -0.96875q0 -0.59375 0.40625 -0.953125q0.421875 -0.375 1.375 -0.375l3.640625 0zm11.277603 -5.0625l0 2.8125l-3.171875 0l0 -2.8125l3.171875 0zm0.359375 5.0625l0 9.140625l3.203125 0q0.96875 0 1.375 0.375q0.40625 0.375 0.40625 0.96875q0 0.59375 -0.40625 0.96875q-0.40625 0.359375 -1.375 0.359375l-9.0625 0q-0.96875 0 -1.375 -0.359375q-0.40625 -0.375 -0.40625 -0.984375q0 -0.578125 0.40625 -0.953125q0.40625 -0.375 1.375 -0.375l3.203125 0l0 -6.484375l-2.15625 0q-0.953125 0 -1.375 -0.359375q-0.40625 -0.375 -0.40625 -0.96875q0 -0.59375 0.40625 -0.953125q0.421875 -0.375 1.375 -0.375l4.8125 0zm14.121353 0l0 1.65625q1.6875 -1.203125 2.65625 -1.609375q0.96875 -0.40625 1.8125 -0.40625q1.3125 0 2.53125 0.96875q0.828125 0.640625 0.828125 1.328125q0 0.5625 -0.40625 0.96875q-0.390625 0.390625 -0.953125 0.390625q-0.484375 0 -1.03125 -0.484375q-0.546875 -0.5 -0.984375 -0.5q-0.546875 0 -1.671875 0.703125q-1.109375 0.703125 -2.78125 2.109375l0 4.015625l3.8125 0q0.953125 0 1.359375 0.375q0.421875 0.375 0.421875 0.96875q0 0.59375 -0.421875 0.96875q-0.40625 0.359375 -1.359375 0.359375l-8.0625 0q-0.96875 0 -1.375 -0.359375q-0.40625 -0.375 -0.40625 -0.984375q0 -0.578125 0.40625 -0.953125q0.40625 -0.375 1.375 -0.375l1.59375 0l0 -6.484375l-0.96875 0q-0.96875 0 -1.375 -0.359375q-0.40625 -0.375 -0.40625 -0.96875q0 -0.59375 0.40625 -0.953125q0.40625 -0.375 1.375 -0.375l3.625 0zm23.246368 7.25l-10.9375 0q0.421875 1.046875 1.46875 1.6875q1.0625 0.640625 2.875 0.640625q1.484375 0 3.953125 -0.640625q1.015625 -0.265625 1.390625 -0.265625q0.546875 0 0.90625 0.390625q0.359375 0.375 0.359375 0.9375q0 0.53125 -0.390625 0.890625q-0.515625 0.484375 -2.53125 0.921875q-2.015625 0.421875 -3.875 0.421875q-3.203125 0 -5.125 -1.796875q-1.921875 -1.8125 -1.921875 -4.453125q0 -2.8125 2.078125 -4.578125q2.078125 -1.765625 4.78125 -1.765625q1.625 0 2.984375 0.578125q1.359375 0.5625 2.03125 1.234375q0.9375 0.96875 1.546875 2.375q0.40625 1.0 0.40625 2.296875l0 1.125zm-2.953125 -2.65625q-0.609375 -1.15625 -1.59375 -1.71875q-0.984375 -0.5625 -2.359375 -0.5625q-1.34375 0 -2.34375 0.5625q-0.984375 0.5625 -1.609375 1.71875l7.90625 0zm18.386963 -9.65625l0 14.203125l0.453125 0q0.953125 0 1.359375 0.375q0.421875 0.375 0.421875 0.96875q0 0.59375 -0.40625 0.96875q-0.40625 0.359375 -1.375 0.359375l-3.125 0l0 -0.65625q-0.90625 0.546875 -1.90625 0.8125q-1.0 0.265625 -2.0625 0.265625q-3.0 0 -4.84375 -1.734375q-1.828125 -1.734375 -1.828125 -4.328125q0 -2.703125 1.921875 -4.609375q1.921875 -1.921875 4.703125 -1.921875q1.03125 0 2.03125 0.328125q1.015625 0.3125 1.984375 0.953125l0 -3.328125l-0.453125 0q-0.96875 0 -1.375 -0.359375q-0.40625 -0.375 -0.40625 -0.96875q0 -0.59375 0.40625 -0.953125q0.40625 -0.375 1.375 -0.375l3.125 0zm-2.671875 11.3125q0 -1.640625 -1.15625 -2.78125q-1.15625 -1.15625 -2.84375 -1.15625q-1.65625 0 -2.828125 1.15625q-1.15625 1.140625 -1.15625 2.75q0 1.46875 1.046875 2.421875q1.046875 0.9375 2.9375 0.9375q1.890625 0 2.9375 -0.9375q1.0625 -0.953125 1.0625 -2.390625zm19.933868 13.5625l-14.65625 0q-0.96875 0 -1.375 -0.359375q-0.40625 -0.359375 -0.40625 -0.96875q0 -0.59375 0.40625 -0.96875q0.40625 -0.359375 1.375 -0.359375l14.65625 0q0.9375 0 1.34375 0.359375q0.421875 0.375 0.421875 0.96875q0 0.59375 -0.40625 0.953125q-0.40625 0.375 -1.359375 0.375zm4.480713 -19.8125l0 0.75q0.65625 -0.640625 1.171875 -0.875q0.53125 -0.25 1.234375 -0.25q0.578125 0 1.140625 0.296875q0.578125 0.28125 1.125 0.859375q0.6875 -0.578125 1.390625 -0.859375q0.71875 -0.28125 1.46875 -0.28125q1.484375 0 2.40625 0.796875q1.21875 1.046875 1.21875 2.734375l0 5.96875q0.828125 0 1.234375 0.390625q0.40625 0.375 0.40625 0.953125q0 0.59375 -0.40625 0.96875q-0.40625 0.359375 -1.359375 0.359375l-2.546875 0l0 -8.421875q0 -0.609375 -0.21875 -0.84375q-0.21875 -0.234375 -0.671875 -0.234375q-0.4375 0 -0.828125 0.234375q-0.46875 0.328125 -1.171875 1.21875l0 5.375q0.84375 0 1.234375 0.390625q0.40625 0.375 0.40625 0.953125q0 0.59375 -0.40625 0.96875q-0.390625 0.359375 -1.359375 0.359375l-2.53125 0l0 -8.421875q0 -0.59375 -0.234375 -0.828125q-0.21875 -0.25 -0.6875 -0.25q-0.46875 0 -0.921875 0.296875q-0.453125 0.28125 -1.09375 1.15625l0 5.375q0.84375 0 1.25 0.390625q0.40625 0.375 0.40625 0.953125q0 0.59375 -0.40625 0.96875q-0.40625 0.359375 -1.375 0.359375l-2.40625 0q-0.96875 0 -1.375 -0.359375q-0.40625 -0.375 -0.40625 -0.984375q0 -0.578125 0.40625 -0.953125q0.390625 -0.375 1.234375 -0.375l0 -6.484375q-0.84375 0 -1.234375 -0.375q-0.40625 -0.375 -0.40625 -0.953125q0 -0.59375 0.40625 -0.953125q0.40625 -0.375 1.375 -0.375l2.53125 0zm26.808868 7.25l-10.9375 0q0.421875 1.046875 1.46875 1.6875q1.0625 0.640625 2.875 0.640625q1.484375 0 3.953125 -0.640625q1.015625 -0.265625 1.390625 -0.265625q0.546875 0 0.90625 0.390625q0.359375 0.375 0.359375 0.9375q0 0.53125 -0.390625 0.890625q-0.515625 0.484375 -2.53125 0.921875q-2.015625 0.421875 -3.875 0.421875q-3.203125 0 -5.125 -1.796875q-1.921875 -1.8125 -1.921875 -4.453125q0 -2.8125 2.078125 -4.578125q2.078125 -1.765625 4.78125 -1.765625q1.625 0 2.984375 0.578125q1.359375 0.5625 2.03125 1.234375q0.9375 0.96875 1.546875 2.375q0.40625 1.0 0.40625 2.296875l0 1.125zm-2.953125 -2.65625q-0.609375 -1.15625 -1.59375 -1.71875q-0.984375 -0.5625 -2.359375 -0.5625q-1.34375 0 -2.34375 0.5625q-0.984375 0.5625 -1.609375 1.71875l7.90625 0zm8.136963 -4.59375l0 0.75q0.65625 -0.640625 1.171875 -0.875q0.53125 -0.25 1.234375 -0.25q0.578125 0 1.140625 0.296875q0.578125 0.28125 1.125 0.859375q0.6875 -0.578125 1.390625 -0.859375q0.71875 -0.28125 1.46875 -0.28125q1.484375 0 2.40625 0.796875q1.21875 1.046875 1.21875 2.734375l0 5.96875q0.828125 0 1.234375 0.390625q0.40625 0.375 0.40625 0.953125q0 0.59375 -0.40625 0.96875q-0.40625 0.359375 -1.359375 0.359375l-2.546875 0l0 -8.421875q0 -0.609375 -0.21875 -0.84375q-0.21875 -0.234375 -0.671875 -0.234375q-0.4375 0 -0.828125 0.234375q-0.46875 0.328125 -1.171875 1.21875l0 5.375q0.84375 0 1.234375 0.390625q0.40625 0.375 0.40625 0.953125q0 0.59375 -0.40625 0.96875q-0.390625 0.359375 -1.359375 0.359375l-2.53125 0l0 -8.421875q0 -0.59375 -0.234375 -0.828125q-0.21875 -0.25 -0.6875 -0.25q-0.46875 0 -0.921875 0.296875q-0.453125 0.28125 -1.09375 1.15625l0 5.375q0.84375 0 1.25 0.390625q0.40625 0.375 0.40625 0.953125q0 0.59375 -0.40625 0.96875q-0.40625 0.359375 -1.375 0.359375l-2.40625 0q-0.96875 0 -1.375 -0.359375q-0.40625 -0.375 -0.40625 -0.984375q0 -0.578125 0.40625 -0.953125q0.390625 -0.375 1.234375 -0.375l0 -6.484375q-0.84375 0 -1.234375 -0.375q-0.40625 -0.375 -0.40625 -0.953125q0 -0.59375 0.40625 -0.953125q0.40625 -0.375 1.375 -0.375l2.53125 0z" fill-rule="nonzero"/><path fill="#000000" fill-opacity="0.0" d="m54.582676 124.46457l347.1496 0l0 51.716537l-347.1496 0z" fill-rule="evenodd"/><path fill="#000000" d="m176.04524 147.25206l0 0.75q0.65625 -0.640625 1.171875 -0.875q0.53125 -0.25 1.234375 -0.25q0.578125 0 1.140625 0.296875q0.578125 0.28125 1.125 0.859375q0.6875 -0.578125 1.390625 -0.859375q0.71873474 -0.28125 1.4687347 -0.28125q1.484375 0 2.40625 0.796875q1.21875 1.046875 1.21875 2.734375l0 5.96875q0.828125 0 1.234375 0.390625q0.40625 0.375 0.40625 0.953125q0 0.59375 -0.40625 0.96875q-0.40625 0.359375 -1.359375 0.359375l-2.546875 0l0 -8.421875q0 -0.609375 -0.21875 -0.84375q-0.21875 -0.234375 -0.671875 -0.234375q-0.4375 0 -0.828125 0.234375q-0.46873474 0.328125 -1.1718597 1.21875l0 5.375q0.84375 0 1.2343597 0.390625q0.40625 0.375 0.40625 0.953125q0 0.59375 -0.40625 0.96875q-0.39060974 0.359375 -1.3593597 0.359375l-2.53125 0l0 -8.421875q0 -0.59375 -0.234375 -0.828125q-0.21875 -0.25 -0.6875 -0.25q-0.46875 0 -0.921875 0.296875q-0.453125 0.28125 -1.09375 1.15625l0 5.375q0.84375 0 1.25 0.390625q0.40625 0.375 0.40625 0.953125q0 0.59375 -0.40625 0.96875q-0.40625 0.359375 -1.375 0.359375l-2.40625 0q-0.96875 0 -1.375 -0.359375q-0.40625 -0.375 -0.40625 -0.984375q0 -0.578125 0.40625 -0.953125q0.390625 -0.375 1.234375 -0.375l0 -6.484375q-0.84375 0 -1.234375 -0.375q-0.40625 -0.375 -0.40625 -0.953125q0 -0.59375 0.40625 -0.953125q0.40625 -0.375 1.375 -0.375l2.53125 0zm22.527603 11.8125l0 -0.625q-1.015625 0.53125 -2.234375 0.796875q-1.203125 0.265625 -2.1875 0.265625q-2.140625 0 -3.484375 -1.125q-1.34375 -1.140625 -1.34375 -2.53125q0 -1.671875 1.703125 -3.109375q1.71875 -1.4375 4.734375 -1.4375q1.21875 0 2.8125 0.25l0 -0.625q0 -0.609375 -0.515625 -0.984375q-0.515625 -0.375 -1.96875 -0.375q-1.1875 0 -3.0625 0.46875q-0.703125 0.171875 -1.09375 0.171875q-0.53125 0 -0.90625 -0.375q-0.375 -0.390625 -0.375 -1.0q0 -0.328125 0.125 -0.578125q0.140625 -0.25 0.375 -0.390625q0.234375 -0.15625 0.96875 -0.375q1.0 -0.265625 2.015625 -0.421875q1.03125 -0.171875 1.859375 -0.171875q2.5 0 3.859375 1.078125q1.375 1.078125 1.375 2.9375l0 5.484375l0.453125 0q0.96875 0 1.375 0.375q0.421875 0.375 0.421875 0.96875q0 0.59375 -0.421875 0.96875q-0.40625 0.359375 -1.375 0.359375l-3.109375 0zm0 -4.78125q-1.609375 -0.3125 -2.96875 -0.3125q-1.625 0 -2.796875 0.796875q-0.71875 0.515625 -0.71875 1.03125q0 0.375 0.34375 0.609375q0.65625 0.4375 1.78125 0.4375q0.96875 0 2.1875 -0.375q1.21875 -0.390625 2.171875 -1.03125l0 -1.15625zm15.590088 -1.359375l4.046875 3.46875q0.71875 0.046875 1.078125 0.421875q0.375 0.359375 0.375 0.921875q0 0.59375 -0.40625 0.96875q-0.40625 0.359375 -1.375 0.359375l-3.03125 0q-0.96875 0 -1.375 -0.359375q-0.40625 -0.375 -0.40625 -1.0q0 -0.46875 0.28125 -0.8125q0.296875 -0.359375 0.8125 -0.5l-2.0 -1.71875l-2.03125 1.71875q0.625 0.15625 0.890625 0.484375q0.265625 0.328125 0.265625 0.828125q0 0.625 -0.40625 1.0q-0.40625 0.359375 -1.375 0.359375l-3.0 0q-0.96875 0 -1.375 -0.359375q-0.40625 -0.375 -0.40625 -0.984375q0 -0.546875 0.359375 -0.90625q0.359375 -0.375 1.09375 -0.421875l3.953125 -3.484375l-3.5 -3.0q-0.6875 -0.046875 -1.046875 -0.40625q-0.359375 -0.375 -0.359375 -0.921875q0 -0.59375 0.40625 -0.953125q0.421875 -0.375 1.375 -0.375l2.5 0q0.96875 0 1.375 0.375q0.40625 0.359375 0.40625 0.9375q0 0.765625 -0.71875 1.25l1.609375 1.34375l1.59375 -1.375q-0.71875 -0.5 -0.71875 -1.171875q0 -0.625 0.40625 -0.984375q0.40625 -0.375 1.375 -0.375l2.46875 0q0.96875 0 1.375 0.375q0.40625 0.359375 0.40625 0.953125q0 0.546875 -0.359375 0.921875q-0.34375 0.359375 -1.046875 0.40625l-3.515625 3.015625zm21.386993 14.140625l-14.65625 0q-0.96875 0 -1.375 -0.359375q-0.40625 -0.359375 -0.40625 -0.96875q0 -0.59375 0.40625 -0.96875q0.40625 -0.359375 1.375 -0.359375l14.65625 0q0.9375 0 1.34375 0.359375q0.421875 0.375 0.421875 0.96875q0 0.59375 -0.40625 0.953125q-0.40625 0.375 -1.359375 0.375zm4.480713 -19.8125l0 0.75q0.65625 -0.640625 1.171875 -0.875q0.53125 -0.25 1.234375 -0.25q0.578125 0 1.140625 0.296875q0.578125 0.28125 1.125 0.859375q0.6875 -0.578125 1.390625 -0.859375q0.71875 -0.28125 1.46875 -0.28125q1.484375 0 2.40625 0.796875q1.21875 1.046875 1.21875 2.734375l0 5.96875q0.828125 0 1.234375 0.390625q0.40625 0.375 0.40625 0.953125q0 0.59375 -0.40625 0.96875q-0.40625 0.359375 -1.359375 0.359375l-2.546875 0l0 -8.421875q0 -0.609375 -0.21875 -0.84375q-0.21875 -0.234375 -0.671875 -0.234375q-0.4375 0 -0.828125 0.234375q-0.46875 0.328125 -1.171875 1.21875l0 5.375q0.84375 0 1.234375 0.390625q0.40625 0.375 0.40625 0.953125q0 0.59375 -0.40625 0.96875q-0.390625 0.359375 -1.359375 0.359375l-2.53125 0l0 -8.421875q0 -0.59375 -0.234375 -0.828125q-0.21875 -0.25 -0.6875 -0.25q-0.46875 0 -0.921875 0.296875q-0.453125 0.28125 -1.09375 1.15625l0 5.375q0.84375 0 1.25 0.390625q0.40625 0.375 0.40625 0.953125q0 0.59375 -0.40625 0.96875q-0.40625 0.359375 -1.375 0.359375l-2.40625 0q-0.96875 0 -1.375 -0.359375q-0.40625 -0.375 -0.40625 -0.984375q0 -0.578125 0.40625 -0.953125q0.390625 -0.375 1.234375 -0.375l0 -6.484375q-0.84375 0 -1.234375 -0.375q-0.40625 -0.375 -0.40625 -0.953125q0 -0.59375 0.40625 -0.953125q0.40625 -0.375 1.375 -0.375l2.53125 0zm26.808868 7.25l-10.9375 0q0.421875 1.046875 1.46875 1.6875q1.0625 0.640625 2.875 0.640625q1.484375 0 3.953125 -0.640625q1.015625 -0.265625 1.390625 -0.265625q0.546875 0 0.90625 0.390625q0.359375 0.375 0.359375 0.9375q0 0.53125 -0.390625 0.890625q-0.515625 0.484375 -2.53125 0.921875q-2.015625 0.421875 -3.875 0.421875q-3.203125 0 -5.125 -1.796875q-1.921875 -1.8125 -1.921875 -4.453125q0 -2.8125 2.078125 -4.578125q2.078125 -1.765625 4.78125 -1.765625q1.625 0 2.984375 0.578125q1.359375 0.5625 2.03125 1.234375q0.9375 0.96875 1.546875 2.375q0.40625 1.0 0.40625 2.296875l0 1.125zm-2.953125 -2.65625q-0.609375 -1.15625 -1.59375 -1.71875q-0.984375 -0.5625 -2.359375 -0.5625q-1.34375 0 -2.34375 0.5625q-0.984375 0.5625 -1.609375 1.71875l7.90625 0zm8.136963 -4.59375l0 0.75q0.65625 -0.640625 1.171875 -0.875q0.53125 -0.25 1.234375 -0.25q0.578125 0 1.140625 0.296875q0.578125 0.28125 1.125 0.859375q0.6875 -0.578125 1.390625 -0.859375q0.71875 -0.28125 1.46875 -0.28125q1.484375 0 2.40625 0.796875q1.21875 1.046875 1.21875 2.734375l0 5.96875q0.828125 0 1.234375 0.390625q0.40625 0.375 0.40625 0.953125q0 0.59375 -0.40625 0.96875q-0.40625 0.359375 -1.359375 0.359375l-2.546875 0l0 -8.421875q0 -0.609375 -0.21875 -0.84375q-0.21875 -0.234375 -0.671875 -0.234375q-0.4375 0 -0.828125 0.234375q-0.46875 0.328125 -1.171875 1.21875l0 5.375q0.84375 0 1.234375 0.390625q0.40625 0.375 0.40625 0.953125q0 0.59375 -0.40625 0.96875q-0.390625 0.359375 -1.359375 0.359375l-2.53125 0l0 -8.421875q0 -0.59375 -0.234375 -0.828125q-0.21875 -0.25 -0.6875 -0.25q-0.46875 0 -0.921875 0.296875q-0.453125 0.28125 -1.09375 1.15625l0 5.375q0.84375 0 1.25 0.390625q0.40625 0.375 0.40625 0.953125q0 0.59375 -0.40625 0.96875q-0.40625 0.359375 -1.375 0.359375l-2.40625 0q-0.96875 0 -1.375 -0.359375q-0.40625 -0.375 -0.40625 -0.984375q0 -0.578125 0.40625 -0.953125q0.390625 -0.375 1.234375 -0.375l0 -6.484375q-0.84375 0 -1.234375 -0.375q-0.40625 -0.375 -0.40625 -0.953125q0 -0.59375 0.40625 -0.953125q0.40625 -0.375 1.375 -0.375l2.53125 0z" fill-rule="nonzero"/><path fill="#000000" fill-opacity="0.0" d="m54.582676 21.572178l347.1496 0l0 58.17323l-347.1496 0z" fill-rule="evenodd"/><path fill="#000000" d="m112.20435 61.29218l-5.46875 -22.90625l4.734375 0l3.453125 15.734375l4.1875 -15.734375l5.5 0l4.0156174 16.0l3.515625 -16.0l4.65625 0l-5.5625 22.90625l-4.9062424 0l-4.5625 -17.125l-4.546875 17.125l-5.015625 0zm25.328117 -8.53125q0 -2.1875 1.078125 -4.234375q1.078125 -2.046875 3.046875 -3.125q1.984375 -1.078125 4.421875 -1.078125q3.765625 0 6.171875 2.453125q2.40625 2.4375 2.40625 6.171875q0 3.765625 -2.4375 6.25q-2.421875 2.46875 -6.109375 2.46875q-2.28125 0 -4.359375 -1.03125q-2.0625 -1.03125 -3.140625 -3.015625q-1.078125 -2.0 -1.078125 -4.859375zm4.5 0.234375q0 2.46875 1.171875 3.78125q1.171875 1.3125 2.890625 1.3125q1.71875 0 2.875 -1.3125q1.171875 -1.3125 1.171875 -3.8125q0 -2.4375 -1.171875 -3.75q-1.15625 -1.3125 -2.875 -1.3125q-1.71875 0 -2.890625 1.3125q-1.171875 1.3125 -1.171875 3.78125zm20.265625 8.296875l-4.390625 0l0 -16.59375l4.078125 0l0 2.359375q1.046875 -1.671875 1.875 -2.203125q0.84375 -0.53125 1.90625 -0.53125q1.5 0 2.890625 0.828125l-1.359375 3.828125q-1.109375 -0.71875 -2.0625 -0.71875q-0.921875 0 -1.5625 0.515625q-0.640625 0.5 -1.015625 1.828125q-0.359375 1.328125 -0.359375 5.5625l0 5.125zm8.09375 0l0 -22.90625l4.390625 0l0 12.15625l5.140625 -5.84375l5.40625 0l-5.671875 6.0625l6.078125 10.53125l-4.734375 0l-4.171875 -7.453125l-2.046875 2.140625l0 5.3125l-4.390625 0zm27.5625 -5.28125l4.375 0.734375q-0.84375 2.40625 -2.671875 3.671875q-1.8125 1.25 -4.546875 1.25q-4.328125 0 -6.40625 -2.828125q-1.640625 -2.265625 -1.640625 -5.71875q0 -4.125 2.15625 -6.453125q2.15625 -2.34375 5.453125 -2.34375q3.703125 0 5.84375 2.453125q2.140625 2.4375 2.046875 7.484375l-11.0 0q0.046875 1.953125 1.0625 3.046875q1.015625 1.078125 2.53125 1.078125q1.03125 0 1.734375 -0.5625q0.703125 -0.5625 1.0625 -1.8125zm0.25 -4.4375q-0.046875 -1.90625 -0.984375 -2.890625q-0.9375 -1.0 -2.28125 -1.0q-1.4375 0 -2.375 1.046875q-0.9375 1.046875 -0.921875 2.84375l6.5625 0zm12.140625 9.71875l-4.390625 0l0 -16.59375l4.078125 0l0 2.359375q1.046875 -1.671875 1.875 -2.203125q0.84375 -0.53125 1.90625 -0.53125q1.5 0 2.890625 0.828125l-1.359375 3.828125q-1.109375 -0.71875 -2.0625 -0.71875q-0.921875 0 -1.5625 0.515625q-0.640625 0.5 -1.015625 1.828125q-0.359375 1.328125 -0.359375 5.5625l0 5.125zm16.8125 -16.59375l4.046875 0l0 2.265625q2.171875 -2.640625 5.171875 -2.640625q1.59375 0 2.765625 0.65625q1.171875 0.65625 1.921875 1.984375q1.09375 -1.328125 2.359375 -1.984375q1.265625 -0.65625 2.703125 -0.65625q1.828125 0 3.09375 0.75q1.265625 0.734375 1.890625 2.171875q0.453125 1.0625 0.453125 3.4375l0 10.609375l-4.390625 0l0 -9.484375q0 -2.46875 -0.453125 -3.1875q-0.609375 -0.9375 -1.875 -0.9375q-0.921875 0 -1.734375 0.5625q-0.8125 0.5625 -1.171875 1.65625q-0.359375 1.078125 -0.359375 3.421875l0 7.96875l-4.390625 0l0 -9.09375q0 -2.421875 -0.234375 -3.125q-0.234375 -0.703125 -0.734375 -1.046875q-0.484375 -0.34375 -1.328125 -0.34375q-1.015625 0 -1.828125 0.546875q-0.8125 0.546875 -1.171875 1.578125q-0.34375 1.03125 -0.34375 3.421875l0 8.0625l-4.390625 0l0 -16.59375zm38.390625 11.3125l4.375 0.734375q-0.84375 2.40625 -2.671875 3.671875q-1.8125 1.25 -4.546875 1.25q-4.328125 0 -6.40625 -2.828125q-1.640625 -2.265625 -1.640625 -5.71875q0 -4.125 2.15625 -6.453125q2.15625 -2.34375 5.453125 -2.34375q3.703125 0 5.84375 2.453125q2.140625 2.4375 2.046875 7.484375l-11.0 0q0.046875 1.953125 1.0625 3.046875q1.015625 1.078125 2.53125 1.078125q1.03125 0 1.734375 -0.5625q0.703125 -0.5625 1.0625 -1.8125zm0.25 -4.4375q-0.046875 -1.90625 -0.984375 -2.890625q-0.9375 -1.0 -2.28125 -1.0q-1.4375 0 -2.375 1.046875q-0.9375 1.046875 -0.921875 2.84375l6.5625 0zm7.609375 -6.875l4.046875 0l0 2.265625q2.171875 -2.640625 5.171875 -2.640625q1.59375 0 2.765625 0.65625q1.171875 0.65625 1.921875 1.984375q1.09375 -1.328125 2.359375 -1.984375q1.265625 -0.65625 2.703125 -0.65625q1.828125 0 3.09375 0.75q1.265625 0.734375 1.890625 2.171875q0.453125 1.0625 0.453125 3.4375l0 10.609375l-4.390625 0l0 -9.484375q0 -2.46875 -0.453125 -3.1875q-0.609375 -0.9375 -1.875 -0.9375q-0.921875 0 -1.734375 0.5625q-0.8125 0.5625 -1.171875 1.65625q-0.359375 1.078125 -0.359375 3.421875l0 7.96875l-4.390625 0l0 -9.09375q0 -2.421875 -0.234375 -3.125q-0.234375 -0.703125 -0.734375 -1.046875q-0.484375 -0.34375 -1.328125 -0.34375q-1.015625 0 -1.828125 0.546875q-0.8125 0.546875 -1.171875 1.578125q-0.34375 1.03125 -0.34375 3.421875l0 8.0625l-4.390625 0l0 -16.59375zm27.765625 8.0625q0 -2.1875 1.078125 -4.234375q1.078125 -2.046875 3.046875 -3.125q1.984375 -1.078125 4.421875 -1.078125q3.765625 0 6.171875 2.453125q2.40625 2.4375 2.40625 6.171875q0 3.765625 -2.4375 6.25q-2.421875 2.46875 -6.109375 2.46875q-2.28125 0 -4.359375 -1.03125q-2.0625 -1.03125 -3.140625 -3.015625q-1.078125 -2.0 -1.078125 -4.859375zm4.5 0.234375q0 2.46875 1.171875 3.78125q1.171875 1.3125 2.890625 1.3125q1.71875 0 2.875 -1.3125q1.171875 -1.3125 1.171875 -3.8125q0 -2.4375 -1.171875 -3.75q-1.15625 -1.3125 -2.875 -1.3125q-1.71875 0 -2.890625 1.3125q-1.171875 1.3125 -1.171875 3.78125zm20.265625 8.296875l-4.390625 0l0 -16.59375l4.078125 0l0 2.359375q1.046875 -1.671875 1.875 -2.203125q0.84375 -0.53125 1.90625 -0.53125q1.5 0 2.890625 0.828125l-1.359375 3.828125q-1.109375 -0.71875 -2.0625 -0.71875q-0.921875 0 -1.5625 0.515625q-0.640625 0.5 -1.015625 1.828125q-0.359375 1.328125 -0.359375 5.5625l0 5.125zm6.171875 -16.59375l4.671875 0l3.96875 11.78125l3.875 -11.78125l4.546875 0l-5.859375 15.96875l-1.046875 2.890625q-0.578125 1.4531288 -1.109375 2.2187538q-0.515625 0.765625 -1.203125 1.234375q-0.671875 0.484375 -1.671875 0.75q-0.984375 0.265625 -2.234375 0.265625q-1.265625 0 -2.484375 -0.265625l-0.390625 -3.4375q1.03125 0.203125 1.859375 0.203125q1.53125 0 2.265625 -0.9062538q0.734375 -0.890625 1.125 -2.28125l-6.3125 -16.640625z" fill-rule="nonzero"/></g></svg>
