<svg version="1.1" viewBox="0.0 0.0 953.9527559055118 607.3202099737533" fill="none" stroke="none" stroke-linecap="square" stroke-miterlimit="10" xmlns:xlink="http://www.w3.org/1999/xlink" xmlns="http://www.w3.org/2000/svg"><clipPath id="p.0"><path d="m0 0l953.95276 0l0 607.3202l-953.95276 0l0 -607.3202z" clip-rule="nonzero"/></clipPath><g clip-path="url(#p.0)"><path fill="#000000" fill-opacity="0.0" d="m0 0l953.95276 0l0 607.3202l-953.95276 0z" fill-rule="evenodd"/><path fill="#000000" fill-opacity="0.0" d="m232.0 504.0l0 -432.0" fill-rule="evenodd"/><path stroke="#000000" stroke-width="1.0" stroke-linejoin="round" stroke-linecap="butt" d="m232.0 504.0l0 -426.0" fill-rule="evenodd"/><path fill="#000000" stroke="#000000" stroke-width="1.0" stroke-linecap="butt" d="m233.65173 78.0l-1.6517334 -4.538101l-1.6517334 4.538101z" fill-rule="evenodd"/><path fill="#000000" fill-opacity="0.0" d="m232.0 504.0l488.0 0" fill-rule="evenodd"/><path stroke="#000000" stroke-width="1.0" stroke-linejoin="round" stroke-linecap="butt" d="m232.0 504.0l482.0 0" fill-rule="evenodd"/><path fill="#000000" stroke="#000000" stroke-width="1.0" stroke-linecap="butt" d="m714.0 505.65173l4.538086 -1.6517334l-4.538086 -1.6517334z" fill-rule="evenodd"/><path fill="#000000" fill-opacity="0.0" d="m24.0 88.0l176.0 0l0 45.259842l-176.0 0z" fill-rule="evenodd"/><path fill="#000000" d="m49.933815 117.479996l0 -0.5q-0.8125 0.421875 -1.78125 0.640625q-0.96875 0.21875 -1.75 0.21875q-1.71875 0 -2.796875 -0.90625q-1.078125 -0.921875 -1.078125 -2.03125q0 -1.34375 1.375 -2.484375q1.375 -1.15625 3.78125 -1.15625q0.96875 0 2.25 0.203125l0 -0.5q0 -0.484375 -0.421875 -0.78125q-0.40625 -0.3125 -1.5625 -0.3125q-0.953125 0 -2.453125 0.375q-0.5625 0.140625 -0.875 0.140625q-0.4375 0 -0.734375 -0.296875q-0.296875 -0.3125 -0.296875 -0.796875q0 -0.265625 0.109375 -0.46875q0.109375 -0.203125 0.296875 -0.3125q0.1875 -0.125 0.78125 -0.296875q0.78125 -0.21875 1.609375 -0.34375q0.828125 -0.125 1.484375 -0.125q2.0 0 3.09375 0.859375q1.09375 0.859375 1.09375 2.34375l0 4.390625l0.359375 0q0.78125 0 1.109375 0.296875q0.328125 0.296875 0.328125 0.78125q0 0.46875 -0.328125 0.765625q-0.328125 0.296875 -1.109375 0.296875l-2.484375 0zm0 -3.828125q-1.28125 -0.25 -2.375 -0.25q-1.296875 0 -2.234375 0.640625q-0.578125 0.40625 -0.578125 0.828125q0 0.296875 0.28125 0.484375q0.515625 0.34375 1.421875 0.34375q0.765625 0 1.734375 -0.296875q0.984375 -0.3125 1.75 -0.828125l0 -0.921875zm11.93959 -9.671875l0 11.359375l2.5625 0q0.765625 0 1.09375 0.296875q0.328125 0.296875 0.328125 0.78125q0 0.46875 -0.328125 0.765625q-0.328125 0.296875 -1.09375 0.296875l-7.265625 0q-0.765625 0 -1.09375 -0.296875q-0.328125 -0.296875 -0.328125 -0.78125q0 -0.46875 0.328125 -0.765625q0.328125 -0.296875 1.09375 -0.296875l2.5625 0l0 -9.234375l-1.71875 0q-0.75 0 -1.09375 -0.296875q-0.328125 -0.296875 -0.328125 -0.765625q0 -0.46875 0.328125 -0.765625q0.328125 -0.296875 1.09375 -0.296875l3.859375 0zm12.798965 0l0 11.359375l2.5625 0q0.765625 0 1.09375 0.296875q0.328125 0.296875 0.328125 0.78125q0 0.46875 -0.328125 0.765625q-0.328125 0.296875 -1.09375 0.296875l-7.265625 0q-0.765625 0 -1.09375 -0.296875q-0.328125 -0.296875 -0.328125 -0.78125q0 -0.46875 0.328125 -0.765625q0.328125 -0.296875 1.09375 -0.296875l2.5625 0l0 -9.234375l-1.71875 0q-0.75 0 -1.09375 -0.296875q-0.328125 -0.296875 -0.328125 -0.765625q0 -0.46875 0.328125 -0.765625q0.328125 -0.296875 1.09375 -0.296875l3.859375 0zm17.267715 8.953125q0 1.21875 -0.6875 2.375q-0.671875 1.15625 -2.015625 1.84375q-1.34375 0.671875 -2.8125 0.671875q-1.46875 0 -2.796875 -0.671875q-1.328125 -0.671875 -2.03125 -1.828125q-0.703125 -1.15625 -0.703125 -2.421875q0 -1.28125 0.703125 -2.515625q0.71875 -1.234375 2.046875 -1.9375q1.328125 -0.703125 2.78125 -0.703125q1.453125 0 2.796875 0.71875q1.359375 0.71875 2.03125 1.953125q0.6875 1.21875 0.6875 2.515625zm-2.125 0q0 -1.03125 -0.734375 -1.890625q-1.015625 -1.171875 -2.65625 -1.171875q-1.453125 0 -2.421875 0.9375q-0.96875 0.921875 -0.96875 2.140625q0 1.0 0.96875 1.875q0.984375 0.859375 2.421875 0.859375q1.4375 0 2.40625 -0.859375q0.984375 -0.875 0.984375 -1.890625zm9.40834 0.609375l-1.484375 3.9375l-2.015625 0l-1.78125 -7.328125q-0.59375 -0.03125 -0.890625 -0.328125q-0.296875 -0.296875 -0.296875 -0.734375q0 -0.46875 0.328125 -0.765625q0.328125 -0.296875 1.109375 -0.296875l1.984375 0q0.765625 0 1.09375 0.296875q0.328125 0.296875 0.328125 0.765625q0 0.484375 -0.375 0.8125q-0.28125 0.25 -1.09375 0.25l0.8125 3.390625l1.3125 -3.46875l1.90625 0l1.328125 3.46875l0.828125 -3.390625q-0.78125 0 -1.03125 -0.15625q-0.5 -0.3125 -0.5 -0.90625q0 -0.46875 0.328125 -0.765625q0.328125 -0.296875 1.09375 -0.296875l2.0 0q0.78125 0 1.109375 0.296875q0.328125 0.296875 0.328125 0.765625q0 0.4375 -0.296875 0.734375q-0.28125 0.296875 -0.84375 0.328125l-1.75 7.328125l-1.96875 0l-1.5625 -3.9375zm18.12709 0.296875l-8.75 0q0.328125 0.828125 1.171875 1.34375q0.859375 0.5 2.3125 0.5q1.1875 0 3.15625 -0.5q0.8125 -0.21875 1.109375 -0.21875q0.4375 0 0.71875 0.3125q0.296875 0.296875 0.296875 0.75q0 0.421875 -0.3125 0.71875q-0.421875 0.375 -2.03125 0.734375q-1.609375 0.34375 -3.09375 0.34375q-2.5625 0 -4.109375 -1.4375q-1.53125 -1.453125 -1.53125 -3.578125q0 -2.25 1.65625 -3.65625q1.671875 -1.40625 3.828125 -1.40625q1.3125 0 2.390625 0.453125q1.09375 0.453125 1.625 0.984375q0.75 0.78125 1.234375 1.90625q0.328125 0.796875 0.328125 1.84375l0 0.90625zm-2.359375 -2.140625q-0.484375 -0.921875 -1.28125 -1.375q-0.78125 -0.453125 -1.875 -0.453125q-1.09375 0 -1.890625 0.453125q-0.78125 0.453125 -1.28125 1.375l6.328125 0zm14.705208 -7.71875l0 11.359375l0.359375 0q0.765625 0 1.09375 0.296875q0.34375 0.296875 0.34375 0.78125q0 0.46875 -0.328125 0.765625q-0.328125 0.296875 -1.109375 0.296875l-2.4843674 0l0 -0.515625q-0.734375 0.421875 -1.53125 0.640625q-0.796875 0.21875 -1.65625 0.21875q-2.40625 0 -3.875 -1.390625q-1.46875 -1.390625 -1.46875 -3.46875q0 -2.15625 1.546875 -3.6875q1.546875 -1.53125 3.765625 -1.53125q0.828125 0 1.625 0.25q0.8125 0.25 1.59375 0.765625l0 -2.65625l-0.375 0q-0.765625 0 -1.09375 -0.296875q-0.328125 -0.296875 -0.328125 -0.765625q0 -0.46875 0.328125 -0.765625q0.328125 -0.296875 1.09375 -0.296875l2.4999924 0zm-2.1249924 9.046875q0 -1.3125 -0.9375 -2.234375q-0.921875 -0.921875 -2.265625 -0.921875q-1.328125 0 -2.265625 0.921875q-0.921875 0.921875 -0.921875 2.203125q0 1.1875 0.828125 1.9375q0.84375 0.75 2.359375 0.75q1.515625 0 2.359375 -0.75q0.84375 -0.75 0.84375 -1.90625zm15.939598 10.859375l-11.734375 0q-0.765625 0 -1.09375 -0.296875q-0.328125 -0.28125 -0.328125 -0.765625q0 -0.484375 0.328125 -0.78125q0.328125 -0.296875 1.09375 -0.296875l11.734375 0q0.75 0 1.078125 0.296875q0.328125 0.296875 0.328125 0.78125q0 0.46875 -0.328125 0.765625q-0.3125 0.296875 -1.078125 0.296875zm3.5958252 -15.859375l0 0.59375q0.515625 -0.5 0.9375 -0.6875q0.421875 -0.203125 0.96875 -0.203125q0.46875 0 0.921875 0.234375q0.46875 0.21875 0.90625 0.6875q0.546875 -0.46875 1.109375 -0.6875q0.578125 -0.21875 1.171875 -0.21875q1.1875 0 1.921875 0.625q0.984375 0.84375 0.984375 2.1875l0 4.78125q0.65625 0 0.984375 0.3125q0.328125 0.296875 0.328125 0.765625q0 0.46875 -0.328125 0.765625q-0.328125 0.296875 -1.09375 0.296875l-2.03125 0l0 -6.734375q0 -0.5 -0.171875 -0.6875q-0.171875 -0.1875 -0.546875 -0.1875q-0.34375 0 -0.65625 0.1875q-0.375 0.265625 -0.9375 0.984375l0 4.296875q0.671875 0 0.984375 0.3125q0.328125 0.296875 0.328125 0.765625q0 0.46875 -0.328125 0.765625q-0.3125 0.296875 -1.078125 0.296875l-2.03125 0l0 -6.734375q0 -0.484375 -0.1875 -0.671875q-0.1875 -0.203125 -0.546875 -0.203125q-0.375 0 -0.75 0.234375q-0.359375 0.234375 -0.859375 0.9375l0 4.296875q0.65625 0 0.984375 0.3125q0.328125 0.296875 0.328125 0.765625q0 0.46875 -0.328125 0.765625q-0.328125 0.296875 -1.09375 0.296875l-1.921875 0q-0.78125 0 -1.109375 -0.296875q-0.328125 -0.296875 -0.328125 -0.78125q0 -0.46875 0.328125 -0.765625q0.328125 -0.296875 1.0 -0.296875l0 -5.1875q-0.671875 0 -1.0 -0.296875q-0.328125 -0.296875 -0.328125 -0.765625q0 -0.46875 0.328125 -0.765625q0.328125 -0.296875 1.109375 -0.296875l2.03125 0zm21.439606 5.8125l-8.75 0q0.328125 0.828125 1.171875 1.34375q0.859375 0.5 2.3125 0.5q1.1875 0 3.15625 -0.5q0.8125 -0.21875 1.109375 -0.21875q0.4375 0 0.71875 0.3125q0.296875 0.296875 0.296875 0.75q0 0.421875 -0.3125 0.71875q-0.421875 0.375 -2.03125 0.734375q-1.609375 0.34375 -3.09375 0.34375q-2.5625 0 -4.109375 -1.4375q-1.53125 -1.453125 -1.53125 -3.578125q0 -2.25 1.65625 -3.65625q1.671875 -1.40625 3.828125 -1.40625q1.3125 0 2.390625 0.453125q1.09375 0.453125 1.625 0.984375q0.75 0.78125 1.234375 1.90625q0.328125 0.796875 0.328125 1.84375l0 0.90625zm-2.359375 -2.140625q-0.484375 -0.921875 -1.28125 -1.375q-0.78125 -0.453125 -1.875 -0.453125q-1.09375 0 -1.890625 0.453125q-0.78125 0.453125 -1.28125 1.375l6.328125 0zm6.5177 -3.671875l0 0.59375q0.515625 -0.5 0.9375 -0.6875q0.421875 -0.203125 0.96875 -0.203125q0.46875 0 0.921875 0.234375q0.46875 0.21875 0.90625 0.6875q0.546875 -0.46875 1.109375 -0.6875q0.578125 -0.21875 1.171875 -0.21875q1.1875 0 1.921875 0.625q0.984375 0.84375 0.984375 2.1875l0 4.78125q0.65625 0 0.984375 0.3125q0.328125 0.296875 0.328125 0.765625q0 0.46875 -0.328125 0.765625q-0.328125 0.296875 -1.09375 0.296875l-2.03125 0l0 -6.734375q0 -0.5 -0.171875 -0.6875q-0.171875 -0.1875 -0.546875 -0.1875q-0.34375 0 -0.65625 0.1875q-0.375 0.265625 -0.9375 0.984375l0 4.296875q0.671875 0 0.984375 0.3125q0.328125 0.296875 0.328125 0.765625q0 0.46875 -0.328125 0.765625q-0.3125 0.296875 -1.078125 0.296875l-2.03125 0l0 -6.734375q0 -0.484375 -0.1875 -0.671875q-0.1875 -0.203125 -0.546875 -0.203125q-0.375 0 -0.75 0.234375q-0.359375 0.234375 -0.859375 0.9375l0 4.296875q0.65625 0 0.984375 0.3125q0.328125 0.296875 0.328125 0.765625q0 0.46875 -0.328125 0.765625q-0.328125 0.296875 -1.09375 0.296875l-1.921875 0q-0.78125 0 -1.109375 -0.296875q-0.328125 -0.296875 -0.328125 -0.78125q0 -0.46875 0.328125 -0.765625q0.328125 -0.296875 1.0 -0.296875l0 -5.1875q-0.671875 0 -1.0 -0.296875q-0.328125 -0.296875 -0.328125 -0.765625q0 -0.46875 0.328125 -0.765625q0.328125 -0.296875 1.109375 -0.296875l2.03125 0z" fill-rule="nonzero"/><path fill="#000000" fill-opacity="0.0" d="m232.0 112.0l416.0 0" fill-rule="evenodd"/><path stroke="#e06666" stroke-width="4.0" stroke-linejoin="round" stroke-linecap="butt" stroke-dasharray="16.0,12.0" d="m232.0 112.0l416.0 0" fill-rule="evenodd"/><path fill="#9fc5e8" d="m264.0 504.0l0 -40.0l24.0 0l0 -120.0l16.0 0l0 -32.0l16.0 0l0 -32.0l96.0 0l0 16.0l40.0 0l0 -32.0l104.0 0l0 48.0l24.0 0l0 72.0l16.0 0l0 120.0z" fill-rule="evenodd"/><path stroke="#000000" stroke-width="1.0" stroke-linejoin="round" stroke-linecap="butt" d="m264.0 504.0l0 -40.0l24.0 0l0 -120.0l16.0 0l0 -32.0l16.0 0l0 -32.0l96.0 0l0 16.0l40.0 0l0 -32.0l104.0 0l0 48.0l24.0 0l0 72.0l16.0 0l0 120.0z" fill-rule="evenodd"/><path fill="#000000" fill-opacity="0.0" d="m232.0 216.0l416.0 0" fill-rule="evenodd"/><path stroke="#93c47d" stroke-width="4.0" stroke-linejoin="round" stroke-linecap="butt" stroke-dasharray="16.0,12.0" d="m232.0 216.0l416.0 0" fill-rule="evenodd"/><path fill="#000000" fill-opacity="0.0" d="m232.0 450.74014l416.0 0" fill-rule="evenodd"/><path stroke="#f6b26b" stroke-width="4.0" stroke-linejoin="round" stroke-linecap="butt" stroke-dasharray="16.0,12.0" d="m232.0 450.74014l416.0 0" fill-rule="evenodd"/><path fill="#000000" fill-opacity="0.0" d="m264.0 536.0l336.0 0" fill-rule="evenodd"/><path stroke="#000000" stroke-width="1.0" stroke-linejoin="round" stroke-linecap="butt" d="m270.0 536.0l324.0 0" fill-rule="evenodd"/><path fill="#000000" stroke="#000000" stroke-width="1.0" stroke-linecap="butt" d="m270.0 534.34827l-4.538086 1.6517334l4.538086 1.6517334z" fill-rule="evenodd"/><path fill="#000000" stroke="#000000" stroke-width="1.0" stroke-linecap="butt" d="m594.0 537.65173l4.538086 -1.6517334l-4.538086 -1.6517334z" fill-rule="evenodd"/><path fill="#000000" fill-opacity="0.0" d="m176.0 26.740158l112.0 0l0 45.259842l-112.0 0z" fill-rule="evenodd"/><path fill="#000000" d="m195.06668 56.220158l0 -15.265625l3.046875 0l3.609375 10.8125q0.5 1.5 0.734375 2.25q0.265625 -0.828125 0.8125 -2.4375l3.65625 -10.625l2.71875 0l0 15.265625l-1.953125 0l0 -12.78125l-4.4375 12.78125l-1.8125 0l-4.421875 -13.0l0 13.0l-1.953125 0zm25.17276 -3.5625l1.921875 0.234375q-0.453125 1.703125 -1.6875 2.640625q-1.234375 0.9375 -3.171875 0.9375q-2.421875 0 -3.84375 -1.484375q-1.421875 -1.5 -1.421875 -4.203125q0 -2.796875 1.4375 -4.328125q1.4375 -1.546875 3.734375 -1.546875q2.21875 0 3.609375 1.515625q1.40625 1.5 1.40625 4.25q0 0.15625 0 0.5l-8.25 0q0.109375 1.8125 1.03125 2.78125q0.921875 0.96875 2.3125 0.96875q1.03125 0 1.75 -0.53125q0.734375 -0.546875 1.171875 -1.734375zm-6.15625 -3.03125l6.171875 0q-0.125 -1.390625 -0.703125 -2.09375q-0.90625 -1.078125 -2.328125 -1.078125q-1.296875 0 -2.171875 0.859375q-0.875 0.859375 -0.96875 2.3125zm10.439819 6.59375l0 -11.0625l1.671875 0l0 1.546875q0.53125 -0.8125 1.390625 -1.296875q0.859375 -0.5 1.96875 -0.5q1.234375 0 2.015625 0.515625q0.78125 0.5 1.109375 1.421875q1.3125 -1.9375 3.40625 -1.9375q1.65625 0 2.53125 0.921875q0.890625 0.90625 0.890625 2.796875l0 7.59375l-1.859375 0l0 -6.96875q0 -1.125 -0.1875 -1.609375q-0.1875 -0.5 -0.671875 -0.796875q-0.46875 -0.3125 -1.109375 -0.3125q-1.171875 0 -1.9375 0.78125q-0.765625 0.765625 -0.765625 2.484375l0 6.421875l-1.875 0l0 -7.1875q0 -1.25 -0.46875 -1.875q-0.453125 -0.625 -1.5 -0.625q-0.78125 0 -1.453125 0.421875q-0.671875 0.40625 -0.984375 1.21875q-0.296875 0.796875 -0.296875 2.3125l0 5.734375l-1.875 0zm17.063354 -5.53125q0 -3.078125 1.71875 -4.546875q1.421875 -1.234375 3.46875 -1.234375q2.28125 0 3.71875 1.5q1.453125 1.484375 1.453125 4.125q0 2.140625 -0.640625 3.359375q-0.625 1.21875 -1.859375 1.90625q-1.21875 0.671875 -2.671875 0.671875q-2.3125 0 -3.75 -1.484375q-1.4375 -1.5 -1.4375 -4.296875zm1.9375 0q0 2.125 0.921875 3.1875q0.921875 1.046875 2.328125 1.046875q1.40625 0 2.328125 -1.0625q0.921875 -1.0625 0.921875 -3.234375q0 -2.046875 -0.9375 -3.109375q-0.921875 -1.0625 -2.3125 -1.0625q-1.40625 0 -2.328125 1.0625q-0.921875 1.046875 -0.921875 3.171875zm10.611694 5.53125l0 -11.0625l1.6875 0l0 1.671875q0.640625 -1.171875 1.1875 -1.546875q0.546875 -0.375 1.203125 -0.375q0.953125 0 1.921875 0.609375l-0.640625 1.734375q-0.6875 -0.40625 -1.375 -0.40625q-0.609375 0 -1.109375 0.375q-0.484375 0.359375 -0.6875 1.015625q-0.3125 1.0 -0.3125 2.1875l0 5.796875l-1.875 0zm7.0399475 4.265625l-0.21875 -1.765625q0.625 0.171875 1.078125 0.171875q0.625 0 1.0 -0.21875q0.375 -0.203125 0.609375 -0.578125q0.1875 -0.28125 0.578125 -1.390625q0.046875 -0.15625 0.171875 -0.46875l-4.203125 -11.078125l2.015625 0l2.3125 6.40625q0.4375 1.21875 0.796875 2.5625q0.328125 -1.296875 0.765625 -2.515625l2.375 -6.453125l1.875 0l-4.21875 11.25q-0.671875 1.828125 -1.046875 2.515625q-0.5 0.921875 -1.15625 1.34375q-0.640625 0.4375 -1.53125 0.4375q-0.546875 0 -1.203125 -0.21875z" fill-rule="nonzero"/><path fill="#000000" fill-opacity="0.0" d="m728.0 480.0l112.0 0l0 45.259827l-112.0 0z" fill-rule="evenodd"/><path fill="#000000" d="m742.53125 509.48l0 -13.46875l-5.03125 0l0 -1.796875l12.09375 0l0 1.796875l-5.046875 0l0 13.46875l-2.015625 0zm8.127014 -13.109375l0 -2.15625l1.875 0l0 2.15625l-1.875 0zm0 13.109375l0 -11.0625l1.875 0l0 11.0625l-1.875 0zm4.7228394 0l0 -11.0625l1.671875 0l0 1.546875q0.53125 -0.8125 1.390625 -1.296875q0.859375 -0.5 1.96875 -0.5q1.234375 0 2.015625 0.515625q0.78125 0.5 1.109375 1.421875q1.3125 -1.9375 3.40625 -1.9375q1.65625 0 2.53125 0.921875q0.890625 0.90625 0.890625 2.796875l0 7.59375l-1.859375 0l0 -6.96875q0 -1.125 -0.1875 -1.609375q-0.1875 -0.5 -0.671875 -0.796875q-0.46875 -0.3125 -1.109375 -0.3125q-1.171875 0 -1.9375 0.78125q-0.765625 0.765625 -0.765625 2.484375l0 6.421875l-1.875 0l0 -7.1875q0 -1.25 -0.46875 -1.875q-0.453125 -0.625 -1.5 -0.625q-0.78125 0 -1.453125 0.421875q-0.671875 0.40625 -0.984375 1.21875q-0.296875 0.796875 -0.296875 2.3125l0 5.734375l-1.875 0zm25.344604 -3.5625l1.921875 0.234375q-0.453125 1.703125 -1.6875 2.640625q-1.234375 0.9375 -3.171875 0.9375q-2.421875 0 -3.84375 -1.484375q-1.421875 -1.5 -1.421875 -4.203125q0 -2.796875 1.4375 -4.328125q1.4375 -1.546875 3.734375 -1.546875q2.21875 0 3.609375 1.515625q1.40625 1.5 1.40625 4.25q0 0.15625 0 0.5l-8.25 0q0.109375 1.8125 1.03125 2.78125q0.921875 0.96875 2.3125 0.96875q1.03125 0 1.75 -0.53125q0.734375 -0.546875 1.171875 -1.734375zm-6.15625 -3.03125l6.171875 0q-0.125 -1.390625 -0.703125 -2.09375q-0.90625 -1.078125 -2.328125 -1.078125q-1.296875 0 -2.171875 0.859375q-0.875 0.859375 -0.96875 2.3125z" fill-rule="nonzero"/><path fill="#000000" fill-opacity="0.0" d="m328.0 541.98425l216.0 0l0 42.015747l-216.0 0z" fill-rule="evenodd"/><path fill="#000000" d="m341.84375 568.90424l0 -11.78125l-4.40625 0l0 -1.578125l10.578125 0l0 1.578125l-4.40625 0l0 11.78125l-1.765625 0zm12.03009 -1.1875q-0.921875 0.765625 -1.765625 1.09375q-0.828125 0.3125 -1.796875 0.3125q-1.59375 0 -2.453125 -0.78125q-0.859375 -0.78125 -0.859375 -1.984375q0 -0.71875 0.328125 -1.296875q0.328125 -0.59375 0.84375 -0.9375q0.53125 -0.359375 1.1875 -0.546875q0.46875 -0.125 1.453125 -0.25q1.984375 -0.234375 2.921875 -0.5625q0.015625 -0.34375 0.015625 -0.421875q0 -1.0 -0.46875 -1.421875q-0.625 -0.546875 -1.875 -0.546875q-1.15625 0 -1.703125 0.40625q-0.546875 0.40625 -0.8125 1.421875l-1.609375 -0.21875q0.21875 -1.015625 0.71875 -1.640625q0.5 -0.640625 1.453125 -0.984375q0.953125 -0.34375 2.1875 -0.34375q1.25 0 2.015625 0.296875q0.78125 0.28125 1.140625 0.734375q0.375 0.4375 0.515625 1.109375q0.078125 0.421875 0.078125 1.515625l0 2.1875q0 2.28125 0.109375 2.890625q0.109375 0.59375 0.40625 1.15625l-1.703125 0q-0.265625 -0.515625 -0.328125 -1.1875zm-0.140625 -3.671875q-0.890625 0.375 -2.671875 0.625q-1.015625 0.140625 -1.4375 0.328125q-0.421875 0.1875 -0.65625 0.53125q-0.21875 0.34375 -0.21875 0.78125q0 0.65625 0.5 1.09375q0.5 0.4375 1.453125 0.4375q0.9375 0 1.671875 -0.40625q0.75 -0.421875 1.09375 -1.140625q0.265625 -0.5625 0.265625 -1.640625l0 -0.609375zm3.5476074 1.96875l1.625 -0.25q0.125 0.96875 0.75 1.5q0.625 0.515625 1.75 0.515625q1.125 0 1.671875 -0.453125q0.546875 -0.46875 0.546875 -1.09375q0 -0.546875 -0.484375 -0.875q-0.328125 -0.21875 -1.671875 -0.546875q-1.8125 -0.46875 -2.515625 -0.796875q-0.6875 -0.328125 -1.046875 -0.90625q-0.359375 -0.59375 -0.359375 -1.3125q0 -0.640625 0.296875 -1.1875q0.296875 -0.5625 0.8125 -0.921875q0.375 -0.28125 1.03125 -0.46875q0.671875 -0.203125 1.421875 -0.203125q1.140625 0 2.0 0.328125q0.859375 0.328125 1.265625 0.890625q0.421875 0.5625 0.578125 1.5l-1.609375 0.21875q-0.109375 -0.75 -0.640625 -1.171875q-0.515625 -0.421875 -1.46875 -0.421875q-1.140625 0 -1.625 0.375q-0.46875 0.375 -0.46875 0.875q0 0.3125 0.1875 0.578125q0.203125 0.265625 0.640625 0.4375q0.234375 0.09375 1.4375 0.421875q1.75 0.453125 2.4375 0.75q0.6875 0.296875 1.078125 0.859375q0.390625 0.5625 0.390625 1.40625q0 0.828125 -0.484375 1.546875q-0.46875 0.71875 -1.375 1.125q-0.90625 0.390625 -2.046875 0.390625q-1.875 0 -2.875 -0.78125q-0.984375 -0.78125 -1.25 -2.328125zm9.984375 2.890625l0 -13.359375l1.640625 0l0 7.625l3.890625 -3.9375l2.109375 0l-3.6875 3.59375l4.0625 6.078125l-2.015625 0l-3.203125 -4.953125l-1.15625 1.125l0 3.828125l-1.640625 0zm20.823914 -3.546875l1.609375 0.21875q-0.265625 1.65625 -1.359375 2.609375q-1.078125 0.9375 -2.671875 0.9375q-1.984375 0 -3.1875 -1.296875q-1.203125 -1.296875 -1.203125 -3.71875q0 -1.578125 0.515625 -2.75q0.515625 -1.171875 1.578125 -1.75q1.0625 -0.59375 2.3125 -0.59375q1.578125 0 2.578125 0.796875q1.0 0.796875 1.28125 2.265625l-1.59375 0.234375q-0.234375 -0.96875 -0.8125 -1.453125q-0.578125 -0.5 -1.390625 -0.5q-1.234375 0 -2.015625 0.890625q-0.78125 0.890625 -0.78125 2.8125q0 1.953125 0.75 2.84375q0.75 0.875 1.953125 0.875q0.96875 0 1.609375 -0.59375q0.65625 -0.59375 0.828125 -1.828125zm2.40625 -1.296875q0 -2.6875 1.484375 -3.96875q1.25 -1.078125 3.046875 -1.078125q2.0 0 3.265625 1.3125q1.265625 1.296875 1.265625 3.609375q0 1.859375 -0.5625 2.9375q-0.5625 1.0625 -1.640625 1.65625q-1.0625 0.59375 -2.328125 0.59375q-2.03125 0 -3.28125 -1.296875q-1.25 -1.3125 -1.25 -3.765625zm1.6875 0q0 1.859375 0.796875 2.796875q0.8125 0.921875 2.046875 0.921875q1.21875 0 2.03125 -0.921875q0.8125 -0.9375 0.8125 -2.84375q0 -1.796875 -0.8125 -2.71875q-0.8125 -0.921875 -2.03125 -0.921875q-1.234375 0 -2.046875 0.921875q-0.796875 0.90625 -0.796875 2.765625zm9.297607 4.84375l0 -9.671875l1.46875 0l0 1.375q1.0625 -1.59375 3.078125 -1.59375q0.875 0 1.609375 0.3125q0.734375 0.3125 1.09375 0.828125q0.375 0.5 0.515625 1.203125q0.09375 0.453125 0.09375 1.59375l0 5.953125l-1.640625 0l0 -5.890625q0 -1.0 -0.203125 -1.484375q-0.1875 -0.5 -0.671875 -0.796875q-0.484375 -0.296875 -1.140625 -0.296875q-1.046875 0 -1.8125 0.671875q-0.75 0.65625 -0.75 2.515625l0 5.28125l-1.640625 0zm13.953827 -1.46875l0.234375 1.453125q-0.6875 0.140625 -1.234375 0.140625q-0.890625 0 -1.390625 -0.28125q-0.484375 -0.28125 -0.6875 -0.734375q-0.203125 -0.46875 -0.203125 -1.9375l0 -5.578125l-1.203125 0l0 -1.265625l1.203125 0l0 -2.390625l1.625 -0.984375l0 3.375l1.65625 0l0 1.265625l-1.65625 0l0 5.671875q0 0.6875 0.078125 0.890625q0.09375 0.203125 0.28125 0.328125q0.203125 0.109375 0.578125 0.109375q0.265625 0 0.71875 -0.0625zm7.917694 0.28125q-0.921875 0.765625 -1.765625 1.09375q-0.828125 0.3125 -1.796875 0.3125q-1.59375 0 -2.453125 -0.78125q-0.859375 -0.78125 -0.859375 -1.984375q0 -0.71875 0.328125 -1.296875q0.328125 -0.59375 0.84375 -0.9375q0.53125 -0.359375 1.1875 -0.546875q0.46875 -0.125 1.453125 -0.25q1.984375 -0.234375 2.921875 -0.5625q0.015625 -0.34375 0.015625 -0.421875q0 -1.0 -0.46875 -1.421875q-0.625 -0.546875 -1.875 -0.546875q-1.15625 0 -1.703125 0.40625q-0.546875 0.40625 -0.8125 1.421875l-1.609375 -0.21875q0.21875 -1.015625 0.71875 -1.640625q0.5 -0.640625 1.453125 -0.984375q0.953125 -0.34375 2.1875 -0.34375q1.25 0 2.015625 0.296875q0.78125 0.28125 1.140625 0.734375q0.375 0.4375 0.515625 1.109375q0.078125 0.421875 0.078125 1.515625l0 2.1875q0 2.28125 0.109375 2.890625q0.109375 0.59375 0.40625 1.15625l-1.703125 0q-0.265625 -0.515625 -0.328125 -1.1875zm-0.140625 -3.671875q-0.890625 0.375 -2.671875 0.625q-1.015625 0.140625 -1.4375 0.328125q-0.421875 0.1875 -0.65625 0.53125q-0.21875 0.34375 -0.21875 0.78125q0 0.65625 0.5 1.09375q0.5 0.4375 1.453125 0.4375q0.9375 0 1.671875 -0.40625q0.75 -0.421875 1.09375 -1.140625q0.265625 -0.5625 0.265625 -1.640625l0 -0.609375zm4.203827 -6.609375l0 -1.890625l1.640625 0l0 1.890625l-1.640625 0zm0 11.46875l0 -9.671875l1.640625 0l0 9.671875l-1.640625 0zm4.144806 0l0 -9.671875l1.46875 0l0 1.375q1.0625 -1.59375 3.078125 -1.59375q0.875 0 1.609375 0.3125q0.734375 0.3125 1.09375 0.828125q0.375 0.5 0.515625 1.203125q0.09375 0.453125 0.09375 1.59375l0 5.953125l-1.640625 0l0 -5.890625q0 -1.0 -0.203125 -1.484375q-0.1875 -0.5 -0.671875 -0.796875q-0.484375 -0.296875 -1.140625 -0.296875q-1.046875 0 -1.8125 0.671875q-0.75 0.65625 -0.75 2.515625l0 5.28125l-1.640625 0zm17.000732 -3.109375l1.6875 0.203125q-0.40625 1.484375 -1.484375 2.3125q-1.078125 0.8125 -2.765625 0.8125q-2.125 0 -3.375 -1.296875q-1.234375 -1.3125 -1.234375 -3.671875q0 -2.453125 1.25 -3.796875q1.265625 -1.34375 3.265625 -1.34375q1.9375 0 3.15625 1.328125q1.234375 1.3125 1.234375 3.703125q0 0.15625 0 0.4375l-7.21875 0q0.09375 1.59375 0.90625 2.453125q0.8125 0.84375 2.015625 0.84375q0.90625 0 1.546875 -0.46875q0.640625 -0.484375 1.015625 -1.515625zm-5.390625 -2.65625l5.40625 0q-0.109375 -1.21875 -0.625 -1.828125q-0.78125 -0.953125 -2.03125 -0.953125q-1.125 0 -1.90625 0.765625q-0.765625 0.75 -0.84375 2.015625zm9.125732 5.765625l0 -9.671875l1.46875 0l0 1.46875q0.5625 -1.03125 1.03125 -1.359375q0.484375 -0.328125 1.0625 -0.328125q0.828125 0 1.6875 0.53125l-0.5625 1.515625q-0.609375 -0.359375 -1.203125 -0.359375q-0.546875 0 -0.96875 0.328125q-0.421875 0.328125 -0.609375 0.890625q-0.28125 0.875 -0.28125 1.921875l0 5.0625l-1.625 0zm11.364716 0l0 -13.359375l1.640625 0l0 13.359375l-1.640625 0zm4.191681 -11.46875l0 -1.890625l1.640625 0l0 1.890625l-1.640625 0zm0 11.46875l0 -9.671875l1.640625 0l0 9.671875l-1.640625 0zm4.5354614 0l0 -8.40625l-1.453125 0l0 -1.265625l1.453125 0l0 -1.03125q0 -0.96875 0.171875 -1.453125q0.234375 -0.640625 0.828125 -1.03125q0.59375 -0.390625 1.671875 -0.390625q0.6875 0 1.53125 0.15625l-0.25 1.4375q-0.5 -0.09375 -0.953125 -0.09375q-0.75 0 -1.0625 0.328125q-0.3125 0.3125 -0.3125 1.1875l0 0.890625l1.890625 0l0 1.265625l-1.890625 0l0 8.40625l-1.625 0zm11.417664 -3.109375l1.6875 0.203125q-0.40625 1.484375 -1.484375 2.3125q-1.078125 0.8125 -2.765625 0.8125q-2.125 0 -3.375 -1.296875q-1.234375 -1.3125 -1.234375 -3.671875q0 -2.453125 1.25 -3.796875q1.265625 -1.34375 3.265625 -1.34375q1.9375 0 3.15625 1.328125q1.234375 1.3125 1.234375 3.703125q0 0.15625 0 0.4375l-7.21875 0q0.09375 1.59375 0.90625 2.453125q0.8125 0.84375 2.015625 0.84375q0.90625 0 1.546875 -0.46875q0.640625 -0.484375 1.015625 -1.515625zm-5.390625 -2.65625l5.40625 0q-0.109375 -1.21875 -0.625 -1.828125q-0.78125 -0.953125 -2.03125 -0.953125q-1.125 0 -1.90625 0.765625q-0.765625 0.75 -0.84375 2.015625zm8.485107 2.875l1.625 -0.25q0.125 0.96875 0.75 1.5q0.625 0.515625 1.75 0.515625q1.125 0 1.671875 -0.453125q0.546875 -0.46875 0.546875 -1.09375q0 -0.546875 -0.484375 -0.875q-0.328125 -0.21875 -1.671875 -0.546875q-1.8125 -0.46875 -2.515625 -0.796875q-0.6875 -0.328125 -1.046875 -0.90625q-0.359375 -0.59375 -0.359375 -1.3125q0 -0.640625 0.296875 -1.1875q0.296875 -0.5625 0.8125 -0.921875q0.375 -0.28125 1.03125 -0.46875q0.671875 -0.203125 1.421875 -0.203125q1.140625 0 2.0 0.328125q0.859375 0.328125 1.265625 0.890625q0.421875 0.5625 0.578125 1.5l-1.609375 0.21875q-0.109375 -0.75 -0.640625 -1.171875q-0.515625 -0.421875 -1.46875 -0.421875q-1.140625 0 -1.625 0.375q-0.46875 0.375 -0.46875 0.875q0 0.3125 0.1875 0.578125q0.203125 0.265625 0.640625 0.4375q0.234375 0.09375 1.4375 0.421875q1.75 0.453125 2.4375 0.75q0.6875 0.296875 1.078125 0.859375q0.390625 0.5625 0.390625 1.40625q0 0.828125 -0.484375 1.546875q-0.46875 0.71875 -1.375 1.125q-0.90625 0.390625 -2.046875 0.390625q-1.875 0 -2.875 -0.78125q-0.984375 -0.78125 -1.25 -2.328125zm9.984375 6.59375l0 -13.375l1.484375 0l0 1.25q0.53125 -0.734375 1.1875 -1.09375q0.671875 -0.375 1.625 -0.375q1.234375 0 2.171875 0.640625q0.953125 0.625 1.4375 1.796875q0.484375 1.15625 0.484375 2.546875q0 1.484375 -0.53125 2.671875q-0.53125 1.1875 -1.546875 1.828125q-1.015625 0.625 -2.140625 0.625q-0.8125 0 -1.46875 -0.34375q-0.65625 -0.34375 -1.0625 -0.875l0 4.703125l-1.640625 0zm1.484375 -8.484375q0 1.859375 0.75 2.765625q0.765625 0.890625 1.828125 0.890625q1.09375 0 1.875 -0.921875q0.78125 -0.9375 0.78125 -2.875q0 -1.84375 -0.765625 -2.765625q-0.75 -0.921875 -1.8125 -0.921875q-1.046875 0 -1.859375 0.984375q-0.796875 0.96875 -0.796875 2.84375zm15.203857 3.59375q-0.921875 0.765625 -1.765625 1.09375q-0.828125 0.3125 -1.796875 0.3125q-1.59375 0 -2.453125 -0.78125q-0.859375 -0.78125 -0.859375 -1.984375q0 -0.71875 0.328125 -1.296875q0.328125 -0.59375 0.84375 -0.9375q0.53125 -0.359375 1.1875 -0.546875q0.46875 -0.125 1.453125 -0.25q1.984375 -0.234375 2.921875 -0.5625q0.015625 -0.34375 0.015625 -0.421875q0 -1.0 -0.46875 -1.421875q-0.625 -0.546875 -1.875 -0.546875q-1.15625 0 -1.703125 0.40625q-0.546875 0.40625 -0.8125 1.421875l-1.609375 -0.21875q0.21875 -1.015625 0.71875 -1.640625q0.5 -0.640625 1.453125 -0.984375q0.953125 -0.34375 2.1875 -0.34375q1.25 0 2.015625 0.296875q0.78125 0.28125 1.140625 0.734375q0.375 0.4375 0.515625 1.109375q0.078125 0.421875 0.078125 1.515625l0 2.1875q0 2.28125 0.109375 2.890625q0.109375 0.59375 0.40625 1.15625l-1.703125 0q-0.265625 -0.515625 -0.328125 -1.1875zm-0.140625 -3.671875q-0.890625 0.375 -2.671875 0.625q-1.015625 0.140625 -1.4375 0.328125q-0.421875 0.1875 -0.65625 0.53125q-0.21875 0.34375 -0.21875 0.78125q0 0.65625 0.5 1.09375q0.5 0.4375 1.453125 0.4375q0.9375 0 1.671875 -0.40625q0.75 -0.421875 1.09375 -1.140625q0.265625 -0.5625 0.265625 -1.640625l0 -0.609375zm4.2037964 4.859375l0 -9.671875l1.46875 0l0 1.375q1.0625 -1.59375 3.078125 -1.59375q0.875 0 1.609375 0.3125q0.734375 0.3125 1.09375 0.828125q0.375 0.5 0.515625 1.203125q0.09375 0.453125 0.09375 1.59375l0 5.953125l-1.640625 0l0 -5.890625q0 -1.0 -0.203125 -1.484375q-0.1875 -0.5 -0.671875 -0.796875q-0.484375 -0.296875 -1.140625 -0.296875q-1.046875 0 -1.8125 0.671875q-0.75 0.65625 -0.75 2.515625l0 5.28125l-1.640625 0z" fill-rule="nonzero"/><path fill="#000000" fill-opacity="0.0" d="m232.0 264.0l408.0 0" fill-rule="evenodd"/><path stroke="#6fa8dc" stroke-width="4.0" stroke-linejoin="round" stroke-linecap="butt" d="m232.0 264.0l408.0 0" fill-rule="evenodd"/><path fill="#000000" fill-opacity="0.0" d="m664.0 240.0l240.0 0l0 45.259857l-240.0 0z" fill-rule="evenodd"/><path fill="#000000" d="m681.1676 268.30814l0 3.5l1.28125 0q0.765625 0 1.09375 0.296875q0.328125 0.296875 0.328125 0.765625q0 0.46875 -0.328125 0.765625q-0.328125 0.296875 -1.09375 0.296875l-3.78125 0q-0.765625 0 -1.09375 -0.296875q-0.328125 -0.296875 -0.328125 -0.765625q0 -0.46875 0.328125 -0.765625q0.328125 -0.296875 1.09375 -0.296875l0.359375 0l0 -9.65625l-0.359375 0q-0.765625 0 -1.09375 -0.296875q-0.328125 -0.296875 -0.328125 -0.765625q0 -0.46875 0.328125 -0.765625q0.328125 -0.296875 1.09375 -0.296875l2.5 0l0 0.71875q0.75 -0.5 1.546875 -0.75q0.8125 -0.25 1.65625 -0.25q2.1875 0 3.71875 1.484375q1.546875 1.484375 1.546875 3.390625q0 2.125 -1.828125 3.5q-1.515625 1.140625 -3.421875 1.140625q-0.828125 0 -1.625 -0.234375q-0.796875 -0.25 -1.59375 -0.71875zm6.328125 -3.671875q0 -0.453125 -0.359375 -1.140625q-0.34375 -0.6875 -1.078125 -1.15625q-0.734375 -0.46875 -1.71875 -0.46875q-1.59375 0 -2.53125 1.203125q-0.640625 0.828125 -0.640625 1.578125q0 0.859375 0.90625 1.671875q0.921875 0.796875 2.265625 0.796875q1.34375 0 2.25 -0.796875q0.90625 -0.796875 0.90625 -1.6875zm14.470825 1.203125l-8.75 0q0.328125 0.828125 1.171875 1.34375q0.859375 0.5 2.3125 0.5q1.1875 0 3.15625 -0.5q0.8125 -0.21875 1.109375 -0.21875q0.4375 0 0.71875 0.3125q0.296875 0.296875 0.296875 0.75q0 0.421875 -0.3125 0.71875q-0.421875 0.375 -2.03125 0.734375q-1.609375 0.34375 -3.09375 0.34375q-2.5625 0 -4.109375 -1.4375q-1.53125 -1.453125 -1.53125 -3.578125q0 -2.25 1.65625 -3.65625q1.671875 -1.40625 3.828125 -1.40625q1.3125 0 2.390625 0.453125q1.09375 0.453125 1.625 0.984375q0.75 0.78125 1.234375 1.90625q0.328125 0.796875 0.328125 1.84375l0 0.90625zm-2.359375 -2.140625q-0.484375 -0.921875 -1.28125 -1.375q-0.78125 -0.453125 -1.875 -0.453125q-1.09375 0 -1.890625 0.453125q-0.78125 0.453125 -1.28125 1.375l6.328125 0zm11.73645 5.78125l0 -0.5q-0.8125 0.421875 -1.78125 0.640625q-0.96875 0.21875 -1.75 0.21875q-1.71875 0 -2.796875 -0.90625q-1.078125 -0.921875 -1.078125 -2.03125q0 -1.34375 1.375 -2.484375q1.375 -1.15625 3.78125 -1.15625q0.96875 0 2.25 0.203125l0 -0.5q0 -0.484375 -0.421875 -0.78125q-0.40625 -0.3125 -1.5625 -0.3125q-0.953125 0 -2.453125 0.375q-0.5625 0.140625 -0.875 0.140625q-0.4375 0 -0.734375 -0.296875q-0.296875 -0.3125 -0.296875 -0.796875q0 -0.265625 0.109375 -0.46875q0.109375 -0.203125 0.296875 -0.3125q0.1875 -0.125 0.78125 -0.296875q0.78125 -0.21875 1.609375 -0.34375q0.828125 -0.125 1.484375 -0.125q2.0 0 3.09375 0.859375q1.09375 0.859375 1.09375 2.34375l0 4.390625l0.359375 0q0.78125 0 1.109375 0.296875q0.328125 0.296875 0.328125 0.78125q0 0.46875 -0.328125 0.765625q-0.328125 0.296875 -1.109375 0.296875l-2.484375 0zm0 -3.828125q-1.28125 -0.25 -2.375 -0.25q-1.296875 0 -2.234375 0.640625q-0.578125 0.40625 -0.578125 0.828125q0 0.296875 0.28125 0.484375q0.515625 0.34375 1.421875 0.34375q0.765625 0 1.734375 -0.296875q0.984375 -0.3125 1.75 -0.828125l0 -0.921875zm9.11145 0.28125l0 3.546875l-2.5 0q-0.765625 0 -1.09375 -0.296875q-0.328125 -0.296875 -0.328125 -0.78125q0 -0.46875 0.328125 -0.765625q0.34375 -0.296875 1.09375 -0.296875l0.375 0l0 -9.234375l-0.375 0q-0.765625 0 -1.09375 -0.296875q-0.328125 -0.296875 -0.328125 -0.765625q0 -0.46875 0.328125 -0.765625q0.328125 -0.29689026 1.09375 -0.29689026l2.5 0l0 7.1875153l1.671875 -1.34375q-0.265625 -0.453125 -0.265625 -0.734375q0 -0.46875 0.328125 -0.765625q0.328125 -0.296875 1.09375 -0.296875l2.4375 0q0.765625 0 1.09375 0.296875q0.328125 0.296875 0.328125 0.765625q0 0.46875 -0.328125 0.765625q-0.328125 0.296875 -1.09375 0.296875l-0.59375 0l-2.59375 2.109375l3.484375 3.078125l0.625 0q0.765625 0 1.09375 0.296875q0.328125 0.296875 0.328125 0.78125q0 0.46875 -0.328125 0.765625q-0.328125 0.296875 -1.09375 0.296875l-2.453125 0q-0.765625 0 -1.09375 -0.296875q-0.328125 -0.296875 -0.328125 -0.78125q0 -0.40625 0.34375 -0.796875l-2.25 -2.0l-0.40625 0.328125zm20.470886 9.953125l-11.734375 0q-0.765625 0 -1.09375 -0.296875q-0.328125 -0.28125 -0.328125 -0.765625q0 -0.484375 0.328125 -0.78125q0.328125 -0.296875 1.09375 -0.296875l11.734375 0q0.75 0 1.078125 0.296875q0.328125 0.296875 0.328125 0.78125q0 0.46875 -0.328125 0.765625q-0.3125 0.296875 -1.078125 0.296875zm3.5958252 -15.859375l0 0.59375q0.515625 -0.5 0.9375 -0.6875q0.421875 -0.203125 0.96875 -0.203125q0.46875 0 0.921875 0.234375q0.46875 0.21875 0.90625 0.6875q0.546875 -0.46875 1.109375 -0.6875q0.578125 -0.21875 1.171875 -0.21875q1.1875 0 1.921875 0.625q0.984375 0.84375 0.984375 2.1875l0 4.78125q0.65625 0 0.984375 0.3125q0.328125 0.296875 0.328125 0.765625q0 0.46875 -0.328125 0.765625q-0.328125 0.296875 -1.09375 0.296875l-2.03125 0l0 -6.734375q0 -0.5 -0.171875 -0.6875q-0.171875 -0.1875 -0.546875 -0.1875q-0.34375 0 -0.65625 0.1875q-0.375 0.265625 -0.9375 0.984375l0 4.296875q0.671875 0 0.984375 0.3125q0.328125 0.296875 0.328125 0.765625q0 0.46875 -0.328125 0.765625q-0.3125 0.296875 -1.078125 0.296875l-2.03125 0l0 -6.734375q0 -0.484375 -0.1875 -0.671875q-0.1875 -0.203125 -0.546875 -0.203125q-0.375 0 -0.75 0.234375q-0.359375 0.234375 -0.859375 0.9375l0 4.296875q0.65625 0 0.984375 0.3125q0.328125 0.296875 0.328125 0.765625q0 0.46875 -0.328125 0.765625q-0.328125 0.296875 -1.09375 0.296875l-1.921875 0q-0.78125 0 -1.109375 -0.296875q-0.328125 -0.296875 -0.328125 -0.78125q0 -0.46875 0.328125 -0.765625q0.328125 -0.296875 1.0 -0.296875l0 -5.1875q-0.671875 0 -1.0 -0.296875q-0.328125 -0.296875 -0.328125 -0.765625q0 -0.46875 0.328125 -0.765625q0.328125 -0.296875 1.109375 -0.296875l2.03125 0zm21.439575 5.8125l-8.75 0q0.328125 0.828125 1.171875 1.34375q0.859375 0.5 2.3125 0.5q1.1875 0 3.15625 -0.5q0.8125 -0.21875 1.109375 -0.21875q0.4375 0 0.71875 0.3125q0.296875 0.296875 0.296875 0.75q0 0.421875 -0.3125 0.71875q-0.421875 0.375 -2.03125 0.734375q-1.609375 0.34375 -3.09375 0.34375q-2.5625 0 -4.109375 -1.4375q-1.53125 -1.453125 -1.53125 -3.578125q0 -2.25 1.65625 -3.65625q1.671875 -1.40625 3.828125 -1.40625q1.3125 0 2.390625 0.453125q1.09375 0.453125 1.625 0.984375q0.75 0.78125 1.234375 1.90625q0.328125 0.796875 0.328125 1.84375l0 0.90625zm-2.359375 -2.140625q-0.484375 -0.921875 -1.28125 -1.375q-0.78125 -0.453125 -1.875 -0.453125q-1.09375 0 -1.890625 0.453125q-0.78125 0.453125 -1.28125 1.375l6.328125 0zm11.736511 5.78125l0 -0.5q-0.8125 0.421875 -1.78125 0.640625q-0.96875 0.21875 -1.75 0.21875q-1.71875 0 -2.796875 -0.90625q-1.078125 -0.921875 -1.078125 -2.03125q0 -1.34375 1.375 -2.484375q1.375 -1.15625 3.78125 -1.15625q0.96875 0 2.25 0.203125l0 -0.5q0 -0.484375 -0.421875 -0.78125q-0.40625 -0.3125 -1.5625 -0.3125q-0.953125 0 -2.453125 0.375q-0.5625 0.140625 -0.875 0.140625q-0.4375 0 -0.734375 -0.296875q-0.296875 -0.3125 -0.296875 -0.796875q0 -0.265625 0.109375 -0.46875q0.109375 -0.203125 0.296875 -0.3125q0.1875 -0.125 0.78125 -0.296875q0.78125 -0.21875 1.609375 -0.34375q0.828125 -0.125 1.484375 -0.125q2.0 0 3.09375 0.859375q1.09375 0.859375 1.09375 2.34375l0 4.390625l0.359375 0q0.78125 0 1.109375 0.296875q0.328125 0.296875 0.328125 0.78125q0 0.46875 -0.328125 0.765625q-0.328125 0.296875 -1.109375 0.296875l-2.484375 0zm0 -3.828125q-1.28125 -0.25 -2.375 -0.25q-1.296875 0 -2.234375 0.640625q-0.578125 0.40625 -0.578125 0.828125q0 0.296875 0.28125 0.484375q0.515625 0.34375 1.421875 0.34375q0.765625 0 1.734375 -0.296875q0.984375 -0.3125 1.75 -0.828125l0 -0.921875zm13.17395 -3.125q-0.515625 -0.328125 -1.09375 -0.484375q-0.5625 -0.171875 -1.1875 -0.171875q-1.25 0 -1.96875 0.40625q-0.328125 0.1875 -0.328125 0.390625q0 0.234375 0.4375 0.46875q0.328125 0.171875 1.484375 0.328125q2.125 0.28125 2.96875 0.578125q1.09375 0.390625 1.671875 1.15625q0.59375 0.75 0.59375 1.59375q0 1.140625 -1.0 1.921875q-1.453125 1.109375 -3.765625 1.109375q-0.921875 0 -1.71875 -0.171875q-0.78125 -0.15625 -1.4375 -0.46875q-0.15625 0.140625 -0.328125 0.21875q-0.171875 0.0625 -0.359375 0.0625q-0.5 0 -0.796875 -0.328125q-0.296875 -0.328125 -0.296875 -1.09375l0 -0.71875q0 -0.765625 0.296875 -1.09375q0.296875 -0.328125 0.765625 -0.328125q0.390625 0 0.640625 0.21875q0.265625 0.203125 0.421875 0.71875q0.484375 0.421875 1.171875 0.640625q0.6875 0.203125 1.578125 0.203125q1.46875 0 2.28125 -0.453125q0.390625 -0.234375 0.390625 -0.484375q0 -0.40625 -0.546875 -0.6875q-0.5625 -0.265625 -2.28125 -0.453125q-2.578125 -0.265625 -3.4375 -1.046875q-0.875 -0.75 -0.875 -1.875q0 -1.140625 0.96875 -1.90625q1.3125 -1.03125 3.4375 -1.03125q0.75 0 1.421875 0.140625q0.6875 0.140625 1.3125 0.421875q0.203125 -0.140625 0.375 -0.203125q0.171875 -0.078125 0.3125 -0.078125q0.4375 0 0.71875 0.328125q0.296875 0.328125 0.296875 1.09375l0 0.515625q0 0.703125 -0.15625 0.953125q-0.34375 0.484375 -0.90625 0.484375q-0.390625 0 -0.6875 -0.234375q-0.28125 -0.25 -0.375 -0.640625zm15.033325 -2.5l0 7.3125q0.671875 0 0.984375 0.3125q0.328125 0.296875 0.328125 0.765625q0 0.46875 -0.328125 0.765625q-0.328125 0.296875 -1.09375 0.296875l-2.03125 0l0 -0.484375q-0.90625 0.40625 -1.75 0.609375q-0.828125 0.21875 -1.578125 0.21875q-1.046875 0 -1.828125 -0.4375q-0.765625 -0.453125 -1.21875 -1.234375q-0.3125 -0.5625 -0.3125 -1.40625l0 -4.59375l-0.375 0q-0.765625 0 -1.09375 -0.296875q-0.328125 -0.296875 -0.328125 -0.765625q0 -0.46875 0.328125 -0.765625q0.328125 -0.296875 1.09375 -0.296875l2.5 0l0 6.34375q0 0.6875 0.328125 1.0q0.328125 0.3125 1.015625 0.3125q0.640625 0 1.375 -0.25q0.75 -0.25 1.84375 -0.921875l0 -4.359375l-0.765625 0q-0.765625 0 -1.09375 -0.296875q-0.328125 -0.296875 -0.328125 -0.765625q0 -0.46875 0.328125 -0.765625q0.328125 -0.296875 1.09375 -0.296875l2.90625 0zm7.814575 0l0 1.328125q1.34375 -0.96875 2.125 -1.28125q0.78125 -0.328125 1.453125 -0.328125q1.046875 0 2.015625 0.765625q0.671875 0.515625 0.671875 1.0625q0 0.453125 -0.328125 0.78125q-0.3125 0.3125 -0.765625 0.3125q-0.390625 0 -0.828125 -0.390625q-0.4375 -0.40625 -0.78125 -0.40625q-0.4375 0 -1.328125 0.5625q-0.890625 0.5625 -2.234375 1.6875l0 3.21875l3.046875 0q0.765625 0 1.09375 0.296875q0.328125 0.296875 0.328125 0.78125q0 0.46875 -0.328125 0.765625q-0.328125 0.296875 -1.09375 0.296875l-6.453125 0q-0.765625 0 -1.09375 -0.296875q-0.328125 -0.296875 -0.328125 -0.78125q0 -0.46875 0.328125 -0.765625q0.328125 -0.296875 1.09375 -0.296875l1.28125 0l0 -5.1875l-0.78125 0q-0.765625 0 -1.09375 -0.296875q-0.328125 -0.296875 -0.328125 -0.765625q0 -0.46875 0.328125 -0.765625q0.328125 -0.296875 1.09375 -0.296875l2.90625 0zm18.595825 5.8125l-8.75 0q0.328125 0.828125 1.171875 1.34375q0.859375 0.5 2.3125 0.5q1.1875 0 3.15625 -0.5q0.8125 -0.21875 1.109375 -0.21875q0.4375 0 0.71875 0.3125q0.296875 0.296875 0.296875 0.75q0 0.421875 -0.3125 0.71875q-0.421875 0.375 -2.03125 0.734375q-1.609375 0.34375 -3.09375 0.34375q-2.5625 0 -4.109375 -1.4375q-1.53125 -1.453125 -1.53125 -3.578125q0 -2.25 1.65625 -3.65625q1.671875 -1.40625 3.828125 -1.40625q1.3125 0 2.390625 0.453125q1.09375 0.453125 1.625 0.984375q0.75 0.78125 1.234375 1.90625q0.328125 0.796875 0.328125 1.84375l0 0.90625zm-2.359375 -2.140625q-0.484375 -0.921875 -1.28125 -1.375q-0.78125 -0.453125 -1.875 -0.453125q-1.09375 0 -1.890625 0.453125q-0.78125 0.453125 -1.28125 1.375l6.328125 0zm14.705261 -7.7187653l0 11.35939l0.359375 0q0.765625 0 1.09375 0.296875q0.34375 0.296875 0.34375 0.78125q0 0.46875 -0.328125 0.765625q-0.328125 0.296875 -1.109375 0.296875l-2.484375 0l0 -0.515625q-0.734375 0.421875 -1.53125 0.640625q-0.796875 0.21875 -1.65625 0.21875q-2.40625 0 -3.875 -1.390625q-1.46875 -1.390625 -1.46875 -3.46875q0 -2.15625 1.546875 -3.6875q1.546875 -1.53125 3.765625 -1.53125q0.828125 0 1.625 0.25q0.8125 0.25 1.59375 0.765625l0 -2.65625l-0.375 0q-0.765625 0 -1.09375 -0.296875q-0.328125 -0.296875 -0.328125 -0.765625q0 -0.46875 0.328125 -0.765625q0.328125 -0.29689026 1.09375 -0.29689026l2.5 0zm-2.125 9.04689q0 -1.3125 -0.9375 -2.234375q-0.921875 -0.921875 -2.265625 -0.921875q-1.328125 0 -2.265625 0.921875q-0.921875 0.921875 -0.921875 2.203125q0 1.1875 0.828125 1.9375q0.84375 0.75 2.359375 0.75q1.515625 0 2.359375 -0.75q0.84375 -0.75 0.84375 -1.90625zm15.939575 10.859375l-11.734375 0q-0.765625 0 -1.09375 -0.296875q-0.328125 -0.28125 -0.328125 -0.765625q0 -0.484375 0.328125 -0.78125q0.328125 -0.296875 1.09375 -0.296875l11.734375 0q0.75 0 1.078125 0.296875q0.328125 0.296875 0.328125 0.78125q0 0.46875 -0.328125 0.765625q-0.3125 0.296875 -1.078125 0.296875zm3.5958252 -15.859375l0 0.59375q0.515625 -0.5 0.9375 -0.6875q0.421875 -0.203125 0.96875 -0.203125q0.46875 0 0.921875 0.234375q0.46875 0.21875 0.90625 0.6875q0.546875 -0.46875 1.109375 -0.6875q0.578125 -0.21875 1.171875 -0.21875q1.1875 0 1.921875 0.625q0.984375 0.84375 0.984375 2.1875l0 4.78125q0.65625 0 0.984375 0.3125q0.328125 0.296875 0.328125 0.765625q0 0.46875 -0.328125 0.765625q-0.328125 0.296875 -1.09375 0.296875l-2.03125 0l0 -6.734375q0 -0.5 -0.171875 -0.6875q-0.171875 -0.1875 -0.546875 -0.1875q-0.34375 0 -0.65625 0.1875q-0.375 0.265625 -0.9375 0.984375l0 4.296875q0.671875 0 0.984375 0.3125q0.328125 0.296875 0.328125 0.765625q0 0.46875 -0.328125 0.765625q-0.3125 0.296875 -1.078125 0.296875l-2.03125 0l0 -6.734375q0 -0.484375 -0.1875 -0.671875q-0.1875 -0.203125 -0.546875 -0.203125q-0.375 0 -0.75 0.234375q-0.359375 0.234375 -0.859375 0.9375l0 4.296875q0.65625 0 0.984375 0.3125q0.328125 0.296875 0.328125 0.765625q0 0.46875 -0.328125 0.765625q-0.328125 0.296875 -1.09375 0.296875l-1.921875 0q-0.78125 0 -1.109375 -0.296875q-0.328125 -0.296875 -0.328125 -0.78125q0 -0.46875 0.328125 -0.765625q0.328125 -0.296875 1.0 -0.296875l0 -5.1875q-0.671875 0 -1.0 -0.296875q-0.328125 -0.296875 -0.328125 -0.765625q0 -0.46875 0.328125 -0.765625q0.328125 -0.296875 1.109375 -0.296875l2.03125 0zm21.439636 5.8125l-8.75 0q0.328125 0.828125 1.171875 1.34375q0.859375 0.5 2.3125 0.5q1.1875 0 3.15625 -0.5q0.8125 -0.21875 1.109375 -0.21875q0.4375 0 0.71875 0.3125q0.296875 0.296875 0.296875 0.75q0 0.421875 -0.3125 0.71875q-0.421875 0.375 -2.03125 0.734375q-1.609375 0.34375 -3.09375 0.34375q-2.5625 0 -4.109375 -1.4375q-1.53125 -1.453125 -1.53125 -3.578125q0 -2.25 1.65625 -3.65625q1.671875 -1.40625 3.828125 -1.40625q1.3125 0 2.390625 0.453125q1.09375 0.453125 1.625 0.984375q0.75 0.78125 1.234375 1.90625q0.328125 0.796875 0.328125 1.84375l0 0.90625zm-2.359375 -2.140625q-0.484375 -0.921875 -1.28125 -1.375q-0.78125 -0.453125 -1.875 -0.453125q-1.09375 0 -1.890625 0.453125q-0.78125 0.453125 -1.28125 1.375l6.328125 0zm6.5177 -3.671875l0 0.59375q0.515625 -0.5 0.9375 -0.6875q0.421875 -0.203125 0.96875 -0.203125q0.46875 0 0.921875 0.234375q0.46875 0.21875 0.90625 0.6875q0.546875 -0.46875 1.109375 -0.6875q0.578125 -0.21875 1.171875 -0.21875q1.1875 0 1.921875 0.625q0.984375 0.84375 0.984375 2.1875l0 4.78125q0.65625 0 0.984375 0.3125q0.328125 0.296875 0.328125 0.765625q0 0.46875 -0.328125 0.765625q-0.328125 0.296875 -1.09375 0.296875l-2.03125 0l0 -6.734375q0 -0.5 -0.171875 -0.6875q-0.171875 -0.1875 -0.546875 -0.1875q-0.34375 0 -0.65625 0.1875q-0.375 0.265625 -0.9375 0.984375l0 4.296875q0.671875 0 0.984375 0.3125q0.328125 0.296875 0.328125 0.765625q0 0.46875 -0.328125 0.765625q-0.3125 0.296875 -1.078125 0.296875l-2.03125 0l0 -6.734375q0 -0.484375 -0.1875 -0.671875q-0.1875 -0.203125 -0.546875 -0.203125q-0.375 0 -0.75 0.234375q-0.359375 0.234375 -0.859375 0.9375l0 4.296875q0.65625 0 0.984375 0.3125q0.328125 0.296875 0.328125 0.765625q0 0.46875 -0.328125 0.765625q-0.328125 0.296875 -1.09375 0.296875l-1.921875 0q-0.78125 0 -1.109375 -0.296875q-0.328125 -0.296875 -0.328125 -0.78125q0 -0.46875 0.328125 -0.765625q0.328125 -0.296875 1.0 -0.296875l0 -5.1875q-0.671875 0 -1.0 -0.296875q-0.328125 -0.296875 -0.328125 -0.765625q0 -0.46875 0.328125 -0.765625q0.328125 -0.296875 1.109375 -0.296875l2.03125 0z" fill-rule="nonzero"/><path fill="#000000" fill-opacity="0.0" d="m384.0 354.74014l128.0 0l0 42.015778l-128.0 0z" fill-rule="evenodd"/><path fill="#000000" d="m402.648 380.47266q-0.921875 0.765625 -1.765625 1.09375q-0.828125 0.3125 -1.796875 0.3125q-1.59375 0 -2.453125 -0.78125q-0.859375 -0.78125 -0.859375 -1.984375q0 -0.71875 0.328125 -1.296875q0.328125 -0.59375 0.84375 -0.9375q0.53125 -0.359375 1.1875 -0.546875q0.46875 -0.125 1.453125 -0.25q1.984375 -0.234375 2.921875 -0.5625q0.015625 -0.34375 0.015625 -0.421875q0 -1.0 -0.46875 -1.421875q-0.625 -0.546875 -1.875 -0.546875q-1.15625 0 -1.703125 0.40625q-0.546875 0.40625 -0.8125 1.421875l-1.609375 -0.21875q0.21875 -1.015625 0.71875 -1.640625q0.5 -0.640625 1.453125 -0.984375q0.953125 -0.34375 2.1875 -0.34375q1.25 0 2.015625 0.296875q0.78125 0.28125 1.140625 0.734375q0.375 0.4375 0.515625 1.109375q0.078125 0.421875 0.078125 1.515625l0 2.1875q0 2.28125 0.109375 2.890625q0.109375 0.59375 0.40625 1.15625l-1.703125 0q-0.265625 -0.515625 -0.328125 -1.1875zm-0.140625 -3.671875q-0.890625 0.375 -2.671875 0.625q-1.015625 0.140625 -1.4375 0.328125q-0.421875 0.1875 -0.65625 0.53125q-0.21875 0.34375 -0.21875 0.78125q0 0.65625 0.5 1.09375q0.5 0.4375 1.453125 0.4375q0.9375 0 1.671875 -0.40625q0.75 -0.421875 1.09375 -1.140625q0.265625 -0.5625 0.265625 -1.640625l0 -0.609375zm10.516357 1.3125l1.609375 0.21875q-0.265625 1.65625 -1.359375 2.609375q-1.078125 0.9375 -2.671875 0.9375q-1.984375 0 -3.1875 -1.296875q-1.203125 -1.296875 -1.203125 -3.71875q0 -1.578125 0.515625 -2.75q0.515625 -1.171875 1.578125 -1.75q1.0625 -0.59375 2.3125 -0.59375q1.578125 0 2.578125 0.796875q1.0 0.796875 1.28125 2.265625l-1.59375 0.234375q-0.234375 -0.96875 -0.8125 -1.453125q-0.578125 -0.5 -1.390625 -0.5q-1.234375 0 -2.015625 0.890625q-0.78125 0.890625 -0.78125 2.8125q0 1.953125 0.75 2.84375q0.75 0.875 1.953125 0.875q0.96875 0 1.609375 -0.59375q0.65625 -0.59375 0.828125 -1.828125zm6.59375 2.078125l0.234375 1.453125q-0.6875 0.140625 -1.234375 0.140625q-0.890625 0 -1.390625 -0.28125q-0.484375 -0.28125 -0.6875 -0.734375q-0.203125 -0.46875 -0.203125 -1.9375l0 -5.578125l-1.203125 0l0 -1.265625l1.203125 0l0 -2.390625l1.625 -0.984375l0 3.375l1.65625 0l0 1.265625l-1.65625 0l0 5.671875q0 0.6875 0.078125 0.890625q0.09375 0.203125 0.28125 0.328125q0.203125 0.109375 0.578125 0.109375q0.265625 0 0.71875 -0.0625zm7.9332886 1.46875l0 -1.421875q-1.125 1.640625 -3.0625 1.640625q-0.859375 0 -1.609375 -0.328125q-0.734375 -0.328125 -1.09375 -0.828125q-0.359375 -0.5 -0.5 -1.21875q-0.109375 -0.46875 -0.109375 -1.53125l0 -5.984375l1.640625 0l0 5.359375q0 1.28125 0.109375 1.734375q0.15625 0.640625 0.65625 1.015625q0.5 0.375 1.234375 0.375q0.734375 0 1.375 -0.375q0.65625 -0.390625 0.921875 -1.03125q0.265625 -0.65625 0.265625 -1.890625l0 -5.1875l1.640625 0l0 9.671875l-1.46875 0zm10.360107 -1.1875q-0.921875 0.765625 -1.765625 1.09375q-0.828125 0.3125 -1.796875 0.3125q-1.59375 0 -2.453125 -0.78125q-0.859375 -0.78125 -0.859375 -1.984375q0 -0.71875 0.328125 -1.296875q0.328125 -0.59375 0.84375 -0.9375q0.53125 -0.359375 1.1875 -0.546875q0.46875 -0.125 1.453125 -0.25q1.984375 -0.234375 2.921875 -0.5625q0.015625 -0.34375 0.015625 -0.421875q0 -1.0 -0.46875 -1.421875q-0.625 -0.546875 -1.875 -0.546875q-1.15625 0 -1.703125 0.40625q-0.546875 0.40625 -0.8125 1.421875l-1.609375 -0.21875q0.21875 -1.015625 0.71875 -1.640625q0.5 -0.640625 1.453125 -0.984375q0.953125 -0.34375 2.1875 -0.34375q1.25 0 2.015625 0.296875q0.78125 0.28125 1.140625 0.734375q0.375 0.4375 0.515625 1.109375q0.078125 0.421875 0.078125 1.515625l0 2.1875q0 2.28125 0.109375 2.890625q0.109375 0.59375 0.40625 1.15625l-1.703125 0q-0.265625 -0.515625 -0.328125 -1.1875zm-0.140625 -3.671875q-0.890625 0.375 -2.671875 0.625q-1.015625 0.140625 -1.4375 0.328125q-0.421875 0.1875 -0.65625 0.53125q-0.21875 0.34375 -0.21875 0.78125q0 0.65625 0.5 1.09375q0.5 0.4375 1.453125 0.4375q0.9375 0 1.671875 -0.40625q0.75 -0.421875 1.09375 -1.140625q0.265625 -0.5625 0.265625 -1.640625l0 -0.609375zm4.1569824 4.859375l0 -13.359375l1.640625 0l0 13.359375l-1.640625 0zm15.703125 0l0 -1.421875q-1.125 1.640625 -3.0625 1.640625q-0.859375 0 -1.609375 -0.328125q-0.734375 -0.328125 -1.09375 -0.828125q-0.359375 -0.5 -0.5 -1.21875q-0.109375 -0.46875 -0.109375 -1.53125l0 -5.984375l1.640625 0l0 5.359375q0 1.28125 0.109375 1.734375q0.15625 0.640625 0.65625 1.015625q0.5 0.375 1.234375 0.375q0.734375 0 1.375 -0.375q0.65625 -0.390625 0.921875 -1.03125q0.265625 -0.65625 0.265625 -1.890625l0 -5.1875l1.640625 0l0 9.671875l-1.46875 0zm3.391327 -2.890625l1.625 -0.25q0.125 0.96875 0.75 1.5q0.625 0.515625 1.75 0.515625q1.125 0 1.671875 -0.453125q0.546875 -0.46875 0.546875 -1.09375q0 -0.546875 -0.484375 -0.875q-0.328125 -0.21875 -1.671875 -0.546875q-1.8125 -0.46875 -2.515625 -0.796875q-0.6875 -0.328125 -1.046875 -0.90625q-0.359375 -0.59375 -0.359375 -1.3125q0 -0.640625 0.296875 -1.1875q0.296875 -0.5625 0.8125 -0.921875q0.375 -0.28125 1.03125 -0.46875q0.671875 -0.203125 1.421875 -0.203125q1.140625 0 2.0 0.328125q0.859375 0.328125 1.265625 0.890625q0.421875 0.5625 0.578125 1.5l-1.609375 0.21875q-0.109375 -0.75 -0.640625 -1.171875q-0.515625 -0.421875 -1.46875 -0.421875q-1.140625 0 -1.625 0.375q-0.46875 0.375 -0.46875 0.875q0 0.3125 0.1875 0.578125q0.203125 0.265625 0.640625 0.4375q0.234375 0.09375 1.4375 0.421875q1.75 0.453125 2.4375 0.75q0.6875 0.296875 1.078125 0.859375q0.390625 0.5625 0.390625 1.40625q0 0.828125 -0.484375 1.546875q-0.46875 0.71875 -1.375 1.125q-0.90625 0.390625 -2.046875 0.390625q-1.875 0 -2.875 -0.78125q-0.984375 -0.78125 -1.25 -2.328125zm16.296875 1.703125q-0.921875 0.765625 -1.765625 1.09375q-0.828125 0.3125 -1.796875 0.3125q-1.59375 0 -2.453125 -0.78125q-0.859375 -0.78125 -0.859375 -1.984375q0 -0.71875 0.328125 -1.296875q0.328125 -0.59375 0.84375 -0.9375q0.53125 -0.359375 1.1875 -0.546875q0.46875 -0.125 1.453125 -0.25q1.984375 -0.234375 2.921875 -0.5625q0.015625 -0.34375 0.015625 -0.421875q0 -1.0 -0.46875 -1.421875q-0.625 -0.546875 -1.875 -0.546875q-1.15625 0 -1.703125 0.40625q-0.546875 0.40625 -0.8125 1.421875l-1.609375 -0.21875q0.21875 -1.015625 0.71875 -1.640625q0.5 -0.640625 1.453125 -0.984375q0.953125 -0.34375 2.1875 -0.34375q1.25 0 2.015625 0.296875q0.78125 0.28125 1.140625 0.734375q0.375 0.4375 0.515625 1.109375q0.078125 0.421875 0.078125 1.515625l0 2.1875q0 2.28125 0.109375 2.890625q0.109375 0.59375 0.40625 1.15625l-1.703125 0q-0.265625 -0.515625 -0.328125 -1.1875zm-0.140625 -3.671875q-0.890625 0.375 -2.671875 0.625q-1.015625 0.140625 -1.4375 0.328125q-0.421875 0.1875 -0.65625 0.53125q-0.21875 0.34375 -0.21875 0.78125q0 0.65625 0.5 1.09375q0.5 0.4375 1.453125 0.4375q0.9375 0 1.671875 -0.40625q0.75 -0.421875 1.09375 -1.140625q0.265625 -0.5625 0.265625 -1.640625l0 -0.609375zm3.891327 5.65625l1.59375 0.234375q0.109375 0.75 0.5625 1.078125q0.609375 0.453125 1.671875 0.453125q1.140625 0 1.75 -0.453125q0.625 -0.453125 0.84375 -1.265625q0.125 -0.5 0.109375 -2.109375q-1.0625 1.265625 -2.671875 1.265625q-2.0 0 -3.09375 -1.4375q-1.09375 -1.4375 -1.09375 -3.453125q0 -1.390625 0.5 -2.5625q0.515625 -1.171875 1.453125 -1.796875q0.953125 -0.640625 2.25 -0.640625q1.703125 0 2.8125 1.375l0 -1.15625l1.515625 0l0 8.359375q0 2.265625 -0.46875 3.203125q-0.453125 0.9375 -1.453125 1.484375q-0.984375 0.546875 -2.453125 0.546875q-1.71875 0 -2.796875 -0.78125q-1.0625 -0.765625 -1.03125 -2.34375zm1.359375 -5.8125q0 1.90625 0.75 2.78125q0.765625 0.875 1.90625 0.875q1.125 0 1.890625 -0.859375q0.765625 -0.875 0.765625 -2.734375q0 -1.78125 -0.796875 -2.671875q-0.78125 -0.90625 -1.890625 -0.90625q-1.09375 0 -1.859375 0.890625q-0.765625 0.875 -0.765625 2.625zm15.953857 1.90625l1.6875 0.203125q-0.40625 1.484375 -1.484375 2.3125q-1.078125 0.8125 -2.765625 0.8125q-2.125 0 -3.375 -1.296875q-1.234375 -1.3125 -1.234375 -3.671875q0 -2.453125 1.25 -3.796875q1.265625 -1.34375 3.265625 -1.34375q1.9375 0 3.15625 1.328125q1.234375 1.3125 1.234375 3.703125q0 0.15625 0 0.4375l-7.21875 0q0.09375 1.59375 0.90625 2.453125q0.8125 0.84375 2.015625 0.84375q0.90625 0 1.546875 -0.46875q0.640625 -0.484375 1.015625 -1.515625zm-5.390625 -2.65625l5.40625 0q-0.109375 -1.21875 -0.625 -1.828125q-0.78125 -0.953125 -2.03125 -0.953125q-1.125 0 -1.90625 0.765625q-0.765625 0.75 -0.84375 2.015625z" fill-rule="nonzero"/><path fill="#000000" fill-opacity="0.0" d="m8.0 192.0l192.0 0l0 45.259842l-192.0 0z" fill-rule="evenodd"/><path fill="#000000" d="m24.556725 220.30812l0 3.5l1.28125 0q0.765625 0 1.09375 0.296875q0.328125 0.296875 0.328125 0.765625q0 0.46875 -0.328125 0.765625q-0.328125 0.296875 -1.09375 0.296875l-3.78125 0q-0.765625 0 -1.09375 -0.296875q-0.328125 -0.296875 -0.328125 -0.765625q0 -0.46875 0.328125 -0.765625q0.328125 -0.296875 1.09375 -0.296875l0.359375 0l0 -9.65625l-0.359375 0q-0.765625 0 -1.09375 -0.296875q-0.328125 -0.296875 -0.328125 -0.765625q0 -0.46875 0.328125 -0.765625q0.328125 -0.296875 1.09375 -0.296875l2.5 0l0 0.71875q0.75 -0.5 1.546875 -0.75q0.8125 -0.25 1.65625 -0.25q2.1875 0 3.71875 1.484375q1.546875 1.484375 1.546875 3.390625q0 2.125 -1.828125 3.5q-1.515625 1.140625 -3.421875 1.140625q-0.828125 0 -1.625 -0.234375q-0.796875 -0.25 -1.59375 -0.71875zm6.328125 -3.671875q0 -0.453125 -0.359375 -1.140625q-0.34375 -0.6875 -1.078125 -1.15625q-0.734375 -0.46875 -1.71875 -0.46875q-1.59375 0 -2.53125 1.203125q-0.640625 0.828125 -0.640625 1.578125q0 0.859375 0.90625 1.671875q0.921875 0.796875 2.265625 0.796875q1.34375 0 2.25 -0.796875q0.90625 -0.796875 0.90625 -1.6875zm8.673965 -4.609375l0 1.328125q1.34375 -0.96875 2.125 -1.28125q0.78125 -0.328125 1.453125 -0.328125q1.046875 0 2.015625 0.765625q0.671875 0.515625 0.671875 1.0625q0 0.453125 -0.328125 0.78125q-0.3125 0.3125 -0.765625 0.3125q-0.390625 0 -0.828125 -0.390625q-0.4375 -0.40625 -0.78125 -0.40625q-0.4375 0 -1.328125 0.5625q-0.890625 0.5625 -2.234375 1.6875l0 3.21875l3.046875 0q0.765625 0 1.09375 0.296875q0.328125 0.296875 0.328125 0.78125q0 0.46875 -0.328125 0.765625q-0.328125 0.296875 -1.09375 0.296875l-6.453125 0q-0.765625 0 -1.09375 -0.296875q-0.328125 -0.296875 -0.328125 -0.78125q0 -0.46875 0.328125 -0.765625q0.328125 -0.296875 1.09375 -0.296875l1.28125 0l0 -5.1875l-0.78125 0q-0.765625 0 -1.09375 -0.296875q-0.328125 -0.296875 -0.328125 -0.765625q0 -0.46875 0.328125 -0.765625q0.328125 -0.296875 1.09375 -0.296875l2.90625 0zm18.78334 4.90625q0 1.21875 -0.6875 2.375q-0.671875 1.15625 -2.015625 1.84375q-1.34375 0.671875 -2.8125 0.671875q-1.46875 0 -2.796875 -0.671875q-1.328125 -0.671875 -2.03125 -1.828125q-0.703125 -1.15625 -0.703125 -2.421875q0 -1.28125 0.703125 -2.515625q0.71875 -1.234375 2.046875 -1.9375q1.328125 -0.703125 2.78125 -0.703125q1.453125 0 2.796875 0.71875q1.359375 0.71875 2.03125 1.953125q0.6875 1.21875 0.6875 2.515625zm-2.125 0q0 -1.03125 -0.734375 -1.890625q-1.015625 -1.171875 -2.65625 -1.171875q-1.453125 0 -2.421875 0.9375q-0.96875 0.921875 -0.96875 2.140625q0 1.0 0.96875 1.875q0.984375 0.859375 2.421875 0.859375q1.4375 0 2.40625 -0.859375q0.984375 -0.875 0.984375 -1.890625zm11.53334 -8.953125l0 2.25l-2.546875 0l0 -2.25l2.546875 0zm-0.875 6.171875l-4.34375 0q-0.78125 0 -1.109375 -0.296875q-0.328125 -0.296875 -0.328125 -0.765625q0 -0.46875 0.328125 -0.765625q0.328125 -0.296875 1.109375 -0.296875l6.484375 0l0 9.90625q0 1.125 -0.484375 1.953125q-0.46875 0.84375 -1.453125 1.4375q-0.96875 0.609375 -2.203125 0.609375l-2.40625 0q-0.78125 0 -1.109375 -0.296875q-0.328125 -0.296875 -0.328125 -0.765625q0 -0.46875 0.328125 -0.765625q0.328125 -0.296875 1.109375 -0.296875l2.34375 0q0.984375 0 1.515625 -0.53125q0.546875 -0.53125 0.546875 -1.34375l0 -7.78125zm16.87709 3.6875l-8.75 0q0.328125 0.828125 1.171875 1.34375q0.859375 0.5 2.3125 0.5q1.1875 0 3.15625 -0.5q0.8125 -0.21875 1.109375 -0.21875q0.4375 0 0.71875 0.3125q0.296875 0.296875 0.296875 0.75q0 0.421875 -0.3125 0.71875q-0.421875 0.375 -2.03125 0.734375q-1.609375 0.34375 -3.09375 0.34375q-2.5625 0 -4.109375 -1.4375q-1.53125 -1.453125 -1.53125 -3.578125q0 -2.25 1.65625 -3.65625q1.671875 -1.40625 3.828125 -1.40625q1.3125 0 2.390625 0.453125q1.09375 0.453125 1.625 0.984375q0.75 0.78125 1.234375 1.90625q0.328125 0.796875 0.328125 1.84375l0 0.90625zm-2.359375 -2.140625q-0.484375 -0.921875 -1.28125 -1.375q-0.78125 -0.453125 -1.875 -0.453125q-1.09375 0 -1.890625 0.453125q-0.78125 0.453125 -1.28125 1.375l6.328125 0zm13.142715 -3.296875q0.375 -0.359375 0.78125 -0.359375q0.453125 0 0.75 0.328125q0.296875 0.328125 0.296875 1.09375l0 1.375q0 0.765625 -0.296875 1.09375q-0.296875 0.3125 -0.765625 0.3125q-0.4375 0 -0.734375 -0.25q-0.21875 -0.1875 -0.34375 -0.765625q-0.125 -0.578125 -0.609375 -0.859375q-0.84375 -0.5 -2.15625 -0.5q-1.515625 0 -2.421875 0.890625q-0.90625 0.890625 -0.90625 2.234375q0 1.25 0.875 1.984375q0.875 0.71875 2.90625 0.71875q1.328125 0 2.171875 -0.265625q0.5 -0.171875 0.9375 -0.5625q0.453125 -0.40625 0.8125 -0.40625q0.4375 0 0.75 0.328125q0.328125 0.3125 0.328125 0.75q0 0.703125 -0.96875 1.34375q-1.4375 0.953125 -4.203125 0.953125q-2.484375 0 -3.875 -1.03125q-1.875 -1.390625 -1.875 -3.796875q0 -2.28125 1.515625 -3.765625q1.53125 -1.5 3.96875 -1.5q0.890625 0 1.640625 0.171875q0.765625 0.15625 1.421875 0.484375zm8.93959 1.75l0 4.28125q0 0.6875 0.28125 0.90625q0.4375 0.34375 1.5625 0.34375q1.640625 0 3.015625 -0.6875q0.53125 -0.28125 0.828125 -0.28125q0.421875 0 0.71875 0.3125q0.3125 0.3125 0.3125 0.765625q0 0.421875 -0.328125 0.71875q-0.515625 0.484375 -2.015625 0.90625q-1.5 0.40625 -2.53125 0.40625q-1.984375 0 -2.984375 -0.859375q-1.0 -0.859375 -1.0 -2.109375l0 -4.703125l-0.765625 0q-0.765625 0 -1.09375 -0.296875q-0.328125 -0.296875 -0.328125 -0.765625q0 -0.46875 0.328125 -0.765625q0.328125 -0.296875 1.09375 -0.296875l0.765625 0l0 -1.921875q0 -0.78125 0.296875 -1.109375q0.296875 -0.328125 0.78125 -0.328125q0.46875 0 0.765625 0.328125q0.296875 0.328125 0.296875 1.109375l0 1.921875l3.953125 0q0.765625 0 1.09375 0.296875q0.328125 0.296875 0.328125 0.765625q0 0.46875 -0.328125 0.765625q-0.328125 0.296875 -1.09375 0.296875l-3.953125 0zm18.673965 3.6875l-8.75 0q0.328125 0.828125 1.171875 1.34375q0.859375 0.5 2.3125 0.5q1.1875 0 3.15625 -0.5q0.8125 -0.21875 1.109375 -0.21875q0.4375 0 0.71875 0.3125q0.296875 0.296875 0.296875 0.75q0 0.421875 -0.3125 0.71875q-0.421875 0.375 -2.03125 0.734375q-1.609375 0.34375 -3.09375 0.34375q-2.5625 0 -4.109375 -1.4375q-1.53125 -1.453125 -1.53125 -3.578125q0 -2.25 1.65625 -3.65625q1.671875 -1.40625 3.828125 -1.40625q1.3125 0 2.390625 0.453125q1.09375 0.453125 1.625 0.984375q0.75 0.78125 1.234375 1.90625q0.328125 0.796875 0.328125 1.84375l0 0.90625zm-2.359375 -2.140625q-0.484375 -0.921875 -1.28125 -1.375q-0.78125 -0.453125 -1.875 -0.453125q-1.09375 0 -1.890625 0.453125q-0.78125 0.453125 -1.28125 1.375l6.328125 0zm14.705223 -7.71875l0 11.359375l0.359375 0q0.765625 0 1.09375 0.296875q0.34375 0.296875 0.34375 0.78125q0 0.46875 -0.328125 0.765625q-0.328125 0.296875 -1.109375 0.296875l-2.484375 0l0 -0.515625q-0.734375 0.421875 -1.53125 0.640625q-0.796875 0.21875 -1.65625 0.21875q-2.4062576 0 -3.8750076 -1.390625q-1.46875 -1.390625 -1.46875 -3.46875q0 -2.15625 1.546875 -3.6875q1.546875 -1.53125 3.7656326 -1.53125q0.828125 0 1.625 0.25q0.8125 0.25 1.59375 0.765625l0 -2.65625l-0.375 0q-0.765625 0 -1.09375 -0.296875q-0.328125 -0.296875 -0.328125 -0.765625q0 -0.46875 0.328125 -0.765625q0.328125 -0.296875 1.09375 -0.296875l2.5 0zm-2.125 9.046875q0 -1.3125 -0.9375 -2.234375q-0.921875 -0.921875 -2.265625 -0.921875q-1.3281326 0 -2.2656326 0.921875q-0.921875 0.921875 -0.921875 2.203125q0 1.1875 0.828125 1.9375q0.84375 0.75 2.3593826 0.75q1.515625 0 2.359375 -0.75q0.84375 -0.75 0.84375 -1.90625zm15.939575 10.859375l-11.734375 0q-0.765625 0 -1.09375 -0.296875q-0.328125 -0.28125 -0.328125 -0.765625q0 -0.484375 0.328125 -0.78125q0.328125 -0.296875 1.09375 -0.296875l11.734375 0q0.75 0 1.078125 0.296875q0.328125 0.296875 0.328125 0.78125q0 0.46875 -0.328125 0.765625q-0.3125 0.296875 -1.078125 0.296875zm3.5958557 -15.859375l0 0.59375q0.515625 -0.5 0.9375 -0.6875q0.421875 -0.203125 0.96875 -0.203125q0.46875 0 0.921875 0.234375q0.46875 0.21875 0.90625 0.6875q0.546875 -0.46875 1.109375 -0.6875q0.578125 -0.21875 1.171875 -0.21875q1.1875 0 1.921875 0.625q0.984375 0.84375 0.984375 2.1875l0 4.78125q0.65625 0 0.984375 0.3125q0.328125 0.296875 0.328125 0.765625q0 0.46875 -0.328125 0.765625q-0.328125 0.296875 -1.09375 0.296875l-2.03125 0l0 -6.734375q0 -0.5 -0.171875 -0.6875q-0.171875 -0.1875 -0.546875 -0.1875q-0.34375 0 -0.65625 0.1875q-0.375 0.265625 -0.9375 0.984375l0 4.296875q0.671875 0 0.984375 0.3125q0.328125 0.296875 0.328125 0.765625q0 0.46875 -0.328125 0.765625q-0.3125 0.296875 -1.078125 0.296875l-2.03125 0l0 -6.734375q0 -0.484375 -0.1875 -0.671875q-0.1875 -0.203125 -0.546875 -0.203125q-0.375 0 -0.75 0.234375q-0.359375 0.234375 -0.859375 0.9375l0 4.296875q0.65625 0 0.984375 0.3125q0.328125 0.296875 0.328125 0.765625q0 0.46875 -0.328125 0.765625q-0.328125 0.296875 -1.09375 0.296875l-1.921875 0q-0.78125 0 -1.109375 -0.296875q-0.328125 -0.296875 -0.328125 -0.78125q0 -0.46875 0.328125 -0.765625q0.328125 -0.296875 1.0 -0.296875l0 -5.1875q-0.671875 0 -1.0 -0.296875q-0.328125 -0.296875 -0.328125 -0.765625q0 -0.46875 0.328125 -0.765625q0.328125 -0.296875 1.109375 -0.296875l2.03125 0zm21.439575 5.8125l-8.75 0q0.328125 0.828125 1.171875 1.34375q0.859375 0.5 2.3125 0.5q1.1875 0 3.15625 -0.5q0.8125 -0.21875 1.109375 -0.21875q0.4375 0 0.71875 0.3125q0.296875 0.296875 0.296875 0.75q0 0.421875 -0.3125 0.71875q-0.421875 0.375 -2.03125 0.734375q-1.609375 0.34375 -3.09375 0.34375q-2.5625 0 -4.109375 -1.4375q-1.53125 -1.453125 -1.53125 -3.578125q0 -2.25 1.65625 -3.65625q1.671875 -1.40625 3.828125 -1.40625q1.3125 0 2.390625 0.453125q1.09375 0.453125 1.625 0.984375q0.75 0.78125 1.234375 1.90625q0.328125 0.796875 0.328125 1.84375l0 0.90625zm-2.359375 -2.140625q-0.484375 -0.921875 -1.28125 -1.375q-0.78125 -0.453125 -1.875 -0.453125q-1.09375 0 -1.890625 0.453125q-0.78125 0.453125 -1.28125 1.375l6.328125 0zm6.5177307 -3.671875l0 0.59375q0.515625 -0.5 0.9375 -0.6875q0.421875 -0.203125 0.96875 -0.203125q0.46875 0 0.921875 0.234375q0.46875 0.21875 0.90625 0.6875q0.546875 -0.46875 1.109375 -0.6875q0.578125 -0.21875 1.171875 -0.21875q1.1875 0 1.921875 0.625q0.984375 0.84375 0.984375 2.1875l0 4.78125q0.65625 0 0.984375 0.3125q0.328125 0.296875 0.328125 0.765625q0 0.46875 -0.328125 0.765625q-0.328125 0.296875 -1.09375 0.296875l-2.03125 0l0 -6.734375q0 -0.5 -0.171875 -0.6875q-0.171875 -0.1875 -0.546875 -0.1875q-0.34375 0 -0.65625 0.1875q-0.375 0.265625 -0.9375 0.984375l0 4.296875q0.671875 0 0.984375 0.3125q0.328125 0.296875 0.328125 0.765625q0 0.46875 -0.328125 0.765625q-0.3125 0.296875 -1.078125 0.296875l-2.03125 0l0 -6.734375q0 -0.484375 -0.1875 -0.671875q-0.1875 -0.203125 -0.546875 -0.203125q-0.375 0 -0.75 0.234375q-0.359375 0.234375 -0.859375 0.9375l0 4.296875q0.65625 0 0.984375 0.3125q0.328125 0.296875 0.328125 0.765625q0 0.46875 -0.328125 0.765625q-0.328125 0.296875 -1.09375 0.296875l-1.921875 0q-0.78125 0 -1.109375 -0.296875q-0.328125 -0.296875 -0.328125 -0.78125q0 -0.46875 0.328125 -0.765625q0.328125 -0.296875 1.0 -0.296875l0 -5.1875q-0.671875 0 -1.0 -0.296875q-0.328125 -0.296875 -0.328125 -0.765625q0 -0.46875 0.328125 -0.765625q0.328125 -0.296875 1.109375 -0.296875l2.03125 0z" fill-rule="nonzero"/><path fill="#000000" fill-opacity="0.0" d="m24.0 426.74014l176.0 0l0 45.259857l-176.0 0z" fill-rule="evenodd"/><path fill="#000000" d="m41.159332 446.76703l0 1.328125q1.34375 -0.96875 2.125 -1.28125q0.78125 -0.328125 1.453125 -0.328125q1.046875 0 2.015625 0.765625q0.671875 0.515625 0.671875 1.0625q0 0.453125 -0.328125 0.78125q-0.3125 0.3125 -0.765625 0.3125q-0.390625 0 -0.828125 -0.390625q-0.4375 -0.40625 -0.78125 -0.40625q-0.4375 0 -1.328125 0.5625q-0.890625 0.5625 -2.234375 1.6875l0 3.21875l3.046875 0q0.765625 0 1.09375 0.296875q0.328125 0.296875 0.328125 0.78125q0 0.46875 -0.328125 0.765625q-0.328125 0.296875 -1.09375 0.296875l-6.453125 0q-0.765625 0 -1.09375 -0.296875q-0.328125 -0.296875 -0.328125 -0.78125q0 -0.46875 0.328125 -0.765625q0.328125 -0.296875 1.09375 -0.296875l1.28125 0l0 -5.1875l-0.78125 0q-0.765625 0 -1.09375 -0.296875q-0.328125 -0.296875 -0.328125 -0.765625q0 -0.46875 0.328125 -0.765625q0.328125 -0.296875 1.09375 -0.296875l2.90625 0zm18.59584 5.8125l-8.75 0q0.328125 0.828125 1.171875 1.34375q0.859375 0.5 2.3125 0.5q1.1875 0 3.15625 -0.5q0.8125 -0.21875 1.109375 -0.21875q0.4375 0 0.71875 0.3125q0.296875 0.296875 0.296875 0.75q0 0.421875 -0.3125 0.71875q-0.421875 0.375 -2.03125 0.734375q-1.609375 0.34375 -3.09375 0.34375q-2.5625 0 -4.109375 -1.4375q-1.53125 -1.453125 -1.53125 -3.578125q0 -2.25 1.65625 -3.65625q1.671875 -1.40625 3.828125 -1.40625q1.3125 0 2.390625 0.453125q1.09375 0.453125 1.625 0.984375q0.75 0.78125 1.234375 1.90625q0.328125 0.796875 0.328125 1.84375l0 0.90625zm-2.359375 -2.140625q-0.484375 -0.921875 -1.28125 -1.375q-0.78125 -0.453125 -1.875 -0.453125q-1.09375 0 -1.890625 0.453125q-0.78125 0.453125 -1.28125 1.375l6.328125 0zm12.111465 -1.171875q-0.515625 -0.328125 -1.09375 -0.484375q-0.5625 -0.171875 -1.1875 -0.171875q-1.25 0 -1.96875 0.40625q-0.328125 0.1875 -0.328125 0.390625q0 0.234375 0.4375 0.46875q0.328125 0.171875 1.484375 0.328125q2.125 0.28125 2.96875 0.578125q1.09375 0.390625 1.671875 1.15625q0.59375 0.75 0.59375 1.59375q0 1.140625 -1.0 1.921875q-1.453125 1.109375 -3.765625 1.109375q-0.921875 0 -1.71875 -0.171875q-0.78125 -0.15625 -1.4375 -0.46875q-0.15625 0.140625 -0.328125 0.21875q-0.171875 0.0625 -0.359375 0.0625q-0.5 0 -0.796875 -0.328125q-0.296875 -0.328125 -0.296875 -1.09375l0 -0.71875q0 -0.765625 0.296875 -1.09375q0.296875 -0.328125 0.765625 -0.328125q0.390625 0 0.640625 0.21875q0.265625 0.203125 0.421875 0.71875q0.484375 0.421875 1.171875 0.640625q0.6875 0.203125 1.578125 0.203125q1.46875 0 2.28125 -0.453125q0.390625 -0.234375 0.390625 -0.484375q0 -0.40625 -0.546875 -0.6875q-0.5625 -0.265625 -2.28125 -0.453125q-2.578125 -0.265625 -3.4375 -1.046875q-0.875 -0.75 -0.875 -1.875q0 -1.140625 0.96875 -1.90625q1.3125 -1.03125 3.4375 -1.03125q0.75 0 1.421875 0.140625q0.6875 0.140625 1.3125 0.421875q0.203125 -0.140625 0.375 -0.203125q0.171875 -0.078125 0.3125 -0.078125q0.4375 0 0.71875 0.328125q0.296875 0.328125 0.296875 1.09375l0 0.515625q0 0.703125 -0.15625 0.953125q-0.34375 0.484375 -0.90625 0.484375q-0.390625 0 -0.6875 -0.234375q-0.28125 -0.25 -0.375 -0.640625zm15.84584 3.3125l-8.75 0q0.328125 0.828125 1.171875 1.34375q0.859375 0.5 2.3125 0.5q1.1875 0 3.15625 -0.5q0.8125 -0.21875 1.109375 -0.21875q0.4375 0 0.71875 0.3125q0.296875 0.296875 0.296875 0.75q0 0.421875 -0.3125 0.71875q-0.421875 0.375 -2.03125 0.734375q-1.609375 0.34375 -3.09375 0.34375q-2.5625 0 -4.109375 -1.4375q-1.53125 -1.453125 -1.53125 -3.578125q0 -2.25 1.65625 -3.65625q1.671875 -1.40625 3.828125 -1.40625q1.3125 0 2.390625 0.453125q1.09375 0.453125 1.625 0.984375q0.75 0.78125 1.234375 1.90625q0.328125 0.796875 0.328125 1.84375l0 0.90625zm-2.359375 -2.140625q-0.484375 -0.921875 -1.28125 -1.375q-0.78125 -0.453125 -1.875 -0.453125q-1.09375 0 -1.890625 0.453125q-0.78125 0.453125 -1.28125 1.375l6.328125 0zm9.361465 -3.671875l0 1.328125q1.34375 -0.96875 2.125 -1.28125q0.78125 -0.328125 1.453125 -0.328125q1.046875 0 2.015625 0.765625q0.671875 0.515625 0.671875 1.0625q0 0.453125 -0.328125 0.78125q-0.3125 0.3125 -0.765625 0.3125q-0.390625 0 -0.828125 -0.390625q-0.4375 -0.40625 -0.78125 -0.40625q-0.4375 0 -1.328125 0.5625q-0.890625 0.5625 -2.234375 1.6875l0 3.21875l3.046875 0q0.765625 0 1.09375 0.296875q0.328125 0.296875 0.328125 0.78125q0 0.46875 -0.328125 0.765625q-0.328125 0.296875 -1.09375 0.296875l-6.453125 0q-0.765625 0 -1.09375 -0.296875q-0.328125 -0.296875 -0.328125 -0.78125q0 -0.46875 0.328125 -0.765625q0.328125 -0.296875 1.09375 -0.296875l1.28125 0l0 -5.1875l-0.78125 0q-0.765625 0 -1.09375 -0.296875q-0.328125 -0.296875 -0.328125 -0.765625q0 -0.46875 0.328125 -0.765625q0.328125 -0.296875 1.09375 -0.296875l2.90625 0zm13.267715 6.859375l2.296875 -4.734375q-0.859375 0 -1.09375 -0.140625q-0.515625 -0.328125 -0.515625 -0.921875q0 -0.46875 0.328125 -0.765625q0.328125 -0.296875 1.09375 -0.296875l2.921875 0q0.765625 0 1.09375 0.296875q0.328125 0.296875 0.328125 0.765625q0 0.46875 -0.328125 0.765625q-0.328125 0.296875 -1.09375 0.296875l-0.359375 0l-3.5625 7.328125l-2.234375 0l-3.5625 -7.328125l-0.3125 0q-0.765625 0 -1.09375 -0.296875q-0.328125 -0.296875 -0.328125 -0.765625q0 -0.46875 0.328125 -0.765625q0.328125 -0.296875 1.09375 -0.296875l2.875 0q0.75 0 1.078125 0.296875q0.328125 0.296875 0.328125 0.765625q0 0.59375 -0.5 0.90625q-0.25 0.15625 -1.109375 0.15625l2.328125 4.734375zm18.12709 -1.046875l-8.75 0q0.328125 0.828125 1.171875 1.34375q0.859375 0.5 2.3125 0.5q1.1875 0 3.15625 -0.5q0.8125 -0.21875 1.109375 -0.21875q0.4375 0 0.71875 0.3125q0.296875 0.296875 0.296875 0.75q0 0.421875 -0.3125 0.71875q-0.421875 0.375 -2.03125 0.734375q-1.609375 0.34375 -3.09375 0.34375q-2.5625 0 -4.109375 -1.4375q-1.53125 -1.453125 -1.53125 -3.578125q0 -2.25 1.65625 -3.65625q1.671875 -1.40625 3.828125 -1.40625q1.3125 0 2.390625 0.453125q1.09375 0.453125 1.625 0.984375q0.75 0.78125 1.234375 1.90625q0.328125 0.796875 0.328125 1.84375l0 0.90625zm-2.359375 -2.140625q-0.484375 -0.921875 -1.28125 -1.375q-0.78125 -0.453125 -1.875 -0.453125q-1.09375 0 -1.890625 0.453125q-0.78125 0.453125 -1.28125 1.375l6.328125 0zm14.705215 -7.71875l0 11.359375l0.359375 0q0.765625 0 1.09375 0.296875q0.34375 0.296875 0.34375 0.78125q0 0.46875 -0.328125 0.765625q-0.328125 0.296875 -1.109375 0.296875l-2.484375 0l0 -0.515625q-0.734375 0.421875 -1.53125 0.640625q-0.796875 0.21875 -1.65625 0.21875q-2.40625 0 -3.875 -1.390625q-1.46875 -1.390625 -1.46875 -3.46875q0 -2.15625 1.546875 -3.6875q1.546875 -1.53125 3.765625 -1.53125q0.828125 0 1.625 0.25q0.8125 0.25 1.59375 0.765625l0 -2.65625l-0.375 0q-0.765625 0 -1.09375 -0.296875q-0.328125 -0.296875 -0.328125 -0.765625q0 -0.46875 0.328125 -0.765625q0.328125 -0.296875 1.09375 -0.296875l2.5 0zm-2.125 9.046875q0 -1.3125 -0.9375 -2.234375q-0.921875 -0.921875 -2.265625 -0.921875q-1.328125 0 -2.265625 0.921875q-0.921875 0.921875 -0.921875 2.203125q0 1.1875 0.828125 1.9375q0.84375 0.75 2.359375 0.75q1.515625 0 2.359375 -0.75q0.84375 -0.75 0.84375 -1.90625zm15.93959 10.859375l-11.734375 0q-0.765625 0 -1.09375 -0.296875q-0.328125 -0.28125 -0.328125 -0.765625q0 -0.484375 0.328125 -0.78125q0.328125 -0.296875 1.09375 -0.296875l11.734375 0q0.75 0 1.078125 0.296875q0.328125 0.296875 0.328125 0.78125q0 0.46875 -0.328125 0.765625q-0.3125 0.296875 -1.078125 0.296875zm3.5958405 -15.859375l0 0.59375q0.515625 -0.5 0.9375 -0.6875q0.421875 -0.203125 0.96875 -0.203125q0.46875 0 0.921875 0.234375q0.46875 0.21875 0.90625 0.6875q0.546875 -0.46875 1.109375 -0.6875q0.578125 -0.21875 1.171875 -0.21875q1.1875 0 1.921875 0.625q0.984375 0.84375 0.984375 2.1875l0 4.78125q0.65625 0 0.984375 0.3125q0.328125 0.296875 0.328125 0.765625q0 0.46875 -0.328125 0.765625q-0.328125 0.296875 -1.09375 0.296875l-2.03125 0l0 -6.734375q0 -0.5 -0.171875 -0.6875q-0.171875 -0.1875 -0.546875 -0.1875q-0.34375 0 -0.65625 0.1875q-0.375 0.265625 -0.9375 0.984375l0 4.296875q0.671875 0 0.984375 0.3125q0.328125 0.296875 0.328125 0.765625q0 0.46875 -0.328125 0.765625q-0.3125 0.296875 -1.078125 0.296875l-2.03125 0l0 -6.734375q0 -0.484375 -0.1875 -0.671875q-0.1875 -0.203125 -0.546875 -0.203125q-0.375 0 -0.75 0.234375q-0.359375 0.234375 -0.859375 0.9375l0 4.296875q0.65625 0 0.984375 0.3125q0.328125 0.296875 0.328125 0.765625q0 0.46875 -0.328125 0.765625q-0.328125 0.296875 -1.09375 0.296875l-1.921875 0q-0.78125 0 -1.109375 -0.296875q-0.328125 -0.296875 -0.328125 -0.78125q0 -0.46875 0.328125 -0.765625q0.328125 -0.296875 1.0 -0.296875l0 -5.1875q-0.671875 0 -1.0 -0.296875q-0.328125 -0.296875 -0.328125 -0.765625q0 -0.46875 0.328125 -0.765625q0.328125 -0.296875 1.109375 -0.296875l2.03125 0zm21.43959 5.8125l-8.75 0q0.328125 0.828125 1.171875 1.34375q0.859375 0.5 2.3125 0.5q1.1875 0 3.15625 -0.5q0.8125 -0.21875 1.109375 -0.21875q0.4375 0 0.71875 0.3125q0.296875 0.296875 0.296875 0.75q0 0.421875 -0.3125 0.71875q-0.421875 0.375 -2.03125 0.734375q-1.609375 0.34375 -3.09375 0.34375q-2.5625 0 -4.109375 -1.4375q-1.53125 -1.453125 -1.53125 -3.578125q0 -2.25 1.65625 -3.65625q1.671875 -1.40625 3.828125 -1.40625q1.3125 0 2.390625 0.453125q1.09375 0.453125 1.625 0.984375q0.75 0.78125 1.234375 1.90625q0.328125 0.796875 0.328125 1.84375l0 0.90625zm-2.359375 -2.140625q-0.484375 -0.921875 -1.28125 -1.375q-0.78125 -0.453125 -1.875 -0.453125q-1.09375 0 -1.890625 0.453125q-0.78125 0.453125 -1.28125 1.375l6.328125 0zm6.5177155 -3.671875l0 0.59375q0.515625 -0.5 0.9375 -0.6875q0.421875 -0.203125 0.96875 -0.203125q0.46875 0 0.921875 0.234375q0.46875 0.21875 0.90625 0.6875q0.546875 -0.46875 1.109375 -0.6875q0.578125 -0.21875 1.171875 -0.21875q1.1875 0 1.921875 0.625q0.984375 0.84375 0.984375 2.1875l0 4.78125q0.65625 0 0.984375 0.3125q0.328125 0.296875 0.328125 0.765625q0 0.46875 -0.328125 0.765625q-0.328125 0.296875 -1.09375 0.296875l-2.03125 0l0 -6.734375q0 -0.5 -0.171875 -0.6875q-0.171875 -0.1875 -0.546875 -0.1875q-0.34375 0 -0.65625 0.1875q-0.375 0.265625 -0.9375 0.984375l0 4.296875q0.671875 0 0.984375 0.3125q0.328125 0.296875 0.328125 0.765625q0 0.46875 -0.328125 0.765625q-0.3125 0.296875 -1.078125 0.296875l-2.03125 0l0 -6.734375q0 -0.484375 -0.1875 -0.671875q-0.1875 -0.203125 -0.546875 -0.203125q-0.375 0 -0.75 0.234375q-0.359375 0.234375 -0.859375 0.9375l0 4.296875q0.65625 0 0.984375 0.3125q0.328125 0.296875 0.328125 0.765625q0 0.46875 -0.328125 0.765625q-0.328125 0.296875 -1.09375 0.296875l-1.921875 0q-0.78125 0 -1.109375 -0.296875q-0.328125 -0.296875 -0.328125 -0.78125q0 -0.46875 0.328125 -0.765625q0.328125 -0.296875 1.0 -0.296875l0 -5.1875q-0.671875 0 -1.0 -0.296875q-0.328125 -0.296875 -0.328125 -0.765625q0 -0.46875 0.328125 -0.765625q0.328125 -0.296875 1.109375 -0.296875l2.03125 0z" fill-rule="nonzero"/></g></svg>
