<?xml version="1.0" encoding="UTF-8" standalone="no"?>
<!DOCTYPE svg PUBLIC "-//W3C//DTD SVG 1.1//EN"
 "http://www.w3.org/Graphics/SVG/1.1/DTD/svg11.dtd">
<!-- Generated by graphviz version 2.49.3 (20211023.0002)
 -->
<!-- Pages: 1 -->
<svg width="954pt" height="260pt"
 viewBox="0.00 0.00 954.00 260.00" xmlns="http://www.w3.org/2000/svg" xmlns:xlink="http://www.w3.org/1999/xlink">
<g id="graph0" class="graph" transform="scale(1 1) rotate(0) translate(4 256)">
<polygon fill="white" stroke="transparent" points="-4,4 -4,-256 950,-256 950,4 -4,4"/>
<!-- blockwise -->
<g id="node1" class="node">
<title>blockwise</title>
<polygon fill="#dcbeff" stroke="black" points="331,-36 239,-36 239,0 331,0 331,-36"/>
<text text-anchor="middle" x="285" y="-14.3" font-family="Courier,monospace" font-size="14.00">blockwise</text>
</g>
<!-- rechunk -->
<g id="node2" class="node">
<title>rechunk</title>
<polygon fill="#aaffc3" stroke="black" points="731.5,-36 656.5,-36 656.5,0 731.5,0 731.5,-36"/>
<text text-anchor="middle" x="694" y="-14.3" font-family="Courier,monospace" font-size="14.00">rechunk</text>
</g>
<!-- elemwise -->
<g id="node3" class="node">
<title>elemwise</title>
<polygon fill="#ffd8b1" stroke="black" points="156,-108 72,-108 72,-72 156,-72 156,-108"/>
<text text-anchor="middle" x="114" y="-86.3" font-family="Courier,monospace" font-size="14.00">elemwise</text>
</g>
<!-- elemwise&#45;&gt;blockwise -->
<g id="edge1" class="edge">
<title>elemwise&#45;&gt;blockwise</title>
<path fill="none" stroke="black" d="M155.83,-71.88C179.42,-62.22 209.06,-50.09 234,-39.88"/>
<polygon fill="black" stroke="black" points="235.38,-43.1 243.3,-36.07 232.72,-36.62 235.38,-43.1"/>
</g>
<!-- map_blocks -->
<g id="node4" class="node">
<title>map_blocks</title>
<polygon fill="#ffd8b1" stroke="black" points="547.5,-108 446.5,-108 446.5,-72 547.5,-72 547.5,-108"/>
<text text-anchor="middle" x="497" y="-86.3" font-family="Courier,monospace" font-size="14.00">map_blocks</text>
</g>
<!-- map_blocks&#45;&gt;blockwise -->
<g id="edge2" class="edge">
<title>map_blocks&#45;&gt;blockwise</title>
<path fill="none" stroke="black" d="M446.49,-72.32C414.75,-61.84 373.76,-48.31 341.02,-37.5"/>
<polygon fill="black" stroke="black" points="341.74,-34.05 331.14,-34.24 339.54,-40.69 341.74,-34.05"/>
</g>
<!-- map_direct -->
<g id="node5" class="node">
<title>map_direct</title>
<polygon fill="#ffd8b1" stroke="black" points="547.5,-180 446.5,-180 446.5,-144 547.5,-144 547.5,-180"/>
<text text-anchor="middle" x="497" y="-158.3" font-family="Courier,monospace" font-size="14.00">map_direct</text>
</g>
<!-- map_direct&#45;&gt;map_blocks -->
<g id="edge3" class="edge">
<title>map_direct&#45;&gt;map_blocks</title>
<path fill="none" stroke="black" d="M497,-143.7C497,-135.98 497,-126.71 497,-118.11"/>
<polygon fill="black" stroke="black" points="500.5,-118.1 497,-108.1 493.5,-118.1 500.5,-118.1"/>
</g>
<!-- reduction -->
<g id="node6" class="node">
<title>reduction</title>
<polygon fill="#ffd8b1" stroke="black" points="783,-108 691,-108 691,-72 783,-72 783,-108"/>
<text text-anchor="middle" x="737" y="-86.3" font-family="Courier,monospace" font-size="14.00">reduction</text>
</g>
<!-- reduction&#45;&gt;blockwise -->
<g id="edge4" class="edge">
<title>reduction&#45;&gt;blockwise</title>
<path fill="none" stroke="black" d="M690.75,-81.84C607.23,-68.9 431.55,-41.7 341.23,-27.71"/>
<polygon fill="black" stroke="black" points="341.6,-24.22 331.18,-26.15 340.53,-31.14 341.6,-24.22"/>
</g>
<!-- reduction&#45;&gt;rechunk -->
<g id="edge5" class="edge">
<title>reduction&#45;&gt;rechunk</title>
<path fill="none" stroke="black" d="M726.37,-71.7C721.37,-63.56 715.31,-53.69 709.79,-44.7"/>
<polygon fill="black" stroke="black" points="712.72,-42.79 704.51,-36.1 706.76,-46.46 712.72,-42.79"/>
</g>
<!-- arg_reduction -->
<g id="node7" class="node">
<title>arg_reduction</title>
<polygon fill="#ffd8b1" stroke="black" points="812,-180 686,-180 686,-144 812,-144 812,-180"/>
<text text-anchor="middle" x="749" y="-158.3" font-family="Courier,monospace" font-size="14.00">arg_reduction</text>
</g>
<!-- arg_reduction&#45;&gt;reduction -->
<g id="edge6" class="edge">
<title>arg_reduction&#45;&gt;reduction</title>
<path fill="none" stroke="black" d="M746.03,-143.7C744.71,-135.98 743.12,-126.71 741.65,-118.11"/>
<polygon fill="black" stroke="black" points="745.07,-117.37 739.93,-108.1 738.17,-118.55 745.07,-117.37"/>
</g>
<!-- __getitem__ -->
<g id="node8" class="node">
<title>__getitem__</title>
<polygon fill="none" stroke="black" points="445.5,-252 336.5,-252 336.5,-216 445.5,-216 445.5,-252"/>
<text text-anchor="middle" x="391" y="-230.3" font-family="Courier,monospace" font-size="14.00">__getitem__</text>
</g>
<!-- __getitem__&#45;&gt;map_direct -->
<g id="edge7" class="edge">
<title>__getitem__&#45;&gt;map_direct</title>
<path fill="none" stroke="black" d="M416.93,-215.88C430.66,-206.81 447.71,-195.55 462.54,-185.76"/>
<polygon fill="black" stroke="black" points="464.55,-188.62 470.97,-180.19 460.7,-182.78 464.55,-188.62"/>
</g>
<!-- concat -->
<g id="node13" class="node">
<title>concat</title>
<polygon fill="none" stroke="black" points="530.5,-252 463.5,-252 463.5,-216 530.5,-216 530.5,-252"/>
<text text-anchor="middle" x="497" y="-230.3" font-family="Courier,monospace" font-size="14.00">concat</text>
</g>
<!-- __getitem__&#45;&gt;concat -->
<!-- add -->
<g id="node9" class="node">
<title>add</title>
<polygon fill="none" stroke="black" points="54,-252 0,-252 0,-216 54,-216 54,-252"/>
<text text-anchor="middle" x="27" y="-230.3" font-family="Courier,monospace" font-size="14.00">add</text>
</g>
<!-- add&#45;&gt;elemwise -->
<g id="edge8" class="edge">
<title>add&#45;&gt;elemwise</title>
<path fill="none" stroke="black" d="M37.49,-215.87C52.58,-191.24 80.52,-145.64 98.14,-116.88"/>
<polygon fill="black" stroke="black" points="101.23,-118.54 103.47,-108.19 95.26,-114.89 101.23,-118.54"/>
</g>
<!-- negative -->
<g id="node10" class="node">
<title>negative</title>
<polygon fill="none" stroke="black" points="156,-252 72,-252 72,-216 156,-216 156,-252"/>
<text text-anchor="middle" x="114" y="-230.3" font-family="Courier,monospace" font-size="14.00">negative</text>
</g>
<!-- add&#45;&gt;negative -->
<!-- negative&#45;&gt;elemwise -->
<g id="edge9" class="edge">
<title>negative&#45;&gt;elemwise</title>
<path fill="none" stroke="black" d="M114,-215.87C114,-191.67 114,-147.21 114,-118.39"/>
<polygon fill="black" stroke="black" points="117.5,-118.19 114,-108.19 110.5,-118.19 117.5,-118.19"/>
</g>
<!-- outer -->
<g id="node12" class="node">
<title>outer</title>
<polygon fill="none" stroke="black" points="233.5,-252 174.5,-252 174.5,-216 233.5,-216 233.5,-252"/>
<text text-anchor="middle" x="204" y="-230.3" font-family="Courier,monospace" font-size="14.00">outer</text>
</g>
<!-- negative&#45;&gt;outer -->
<!-- matmul -->
<g id="node11" class="node">
<title>matmul</title>
<polygon fill="none" stroke="black" points="318.5,-252 251.5,-252 251.5,-216 318.5,-216 318.5,-252"/>
<text text-anchor="middle" x="285" y="-230.3" font-family="Courier,monospace" font-size="14.00">matmul</text>
</g>
<!-- matmul&#45;&gt;blockwise -->
<g id="edge10" class="edge">
<title>matmul&#45;&gt;blockwise</title>
<path fill="none" stroke="black" d="M285,-215.85C285,-178.83 285,-91.18 285,-46.39"/>
<polygon fill="black" stroke="black" points="288.5,-46.23 285,-36.23 281.5,-46.23 288.5,-46.23"/>
</g>
<!-- matmul&#45;&gt;reduction -->
<g id="edge11" class="edge">
<title>matmul&#45;&gt;reduction</title>
<path fill="none" stroke="black" d="M308.16,-215.87C336.89,-195.5 388.06,-161.99 437,-144 518.65,-113.98 619.23,-100.66 680.7,-94.97"/>
<polygon fill="black" stroke="black" points="681.31,-98.43 690.97,-94.06 680.69,-91.46 681.31,-98.43"/>
</g>
<!-- matmul&#45;&gt;__getitem__ -->
<!-- outer&#45;&gt;blockwise -->
<g id="edge12" class="edge">
<title>outer&#45;&gt;blockwise</title>
<path fill="none" stroke="black" d="M210.49,-215.85C224.56,-178.68 257.96,-90.44 274.85,-45.82"/>
<polygon fill="black" stroke="black" points="278.21,-46.82 278.48,-36.23 271.66,-44.35 278.21,-46.82"/>
</g>
<!-- outer&#45;&gt;matmul -->
<!-- concat&#45;&gt;map_direct -->
<g id="edge13" class="edge">
<title>concat&#45;&gt;map_direct</title>
<path fill="none" stroke="black" d="M497,-215.7C497,-207.98 497,-198.71 497,-190.11"/>
<polygon fill="black" stroke="black" points="500.5,-190.1 497,-180.1 493.5,-190.1 500.5,-190.1"/>
</g>
<!-- reshape -->
<g id="node14" class="node">
<title>reshape</title>
<polygon fill="none" stroke="black" points="623.5,-252 548.5,-252 548.5,-216 623.5,-216 623.5,-252"/>
<text text-anchor="middle" x="586" y="-230.3" font-family="Courier,monospace" font-size="14.00">reshape</text>
</g>
<!-- concat&#45;&gt;reshape -->
<!-- reshape&#45;&gt;rechunk -->
<g id="edge14" class="edge">
<title>reshape&#45;&gt;rechunk</title>
<path fill="none" stroke="black" d="M594.66,-215.85C613.5,-178.52 658.32,-89.69 680.75,-45.26"/>
<polygon fill="black" stroke="black" points="683.92,-46.74 685.3,-36.23 677.67,-43.58 683.92,-46.74"/>
</g>
<!-- reshape&#45;&gt;map_direct -->
<g id="edge15" class="edge">
<title>reshape&#45;&gt;map_direct</title>
<path fill="none" stroke="black" d="M564,-215.7C552.79,-206.88 539,-196.03 526.85,-186.47"/>
<polygon fill="black" stroke="black" points="528.77,-183.54 518.75,-180.1 524.44,-189.04 528.77,-183.54"/>
</g>
<!-- squeeze -->
<g id="node15" class="node">
<title>squeeze</title>
<polygon fill="none" stroke="black" points="716.5,-252 641.5,-252 641.5,-216 716.5,-216 716.5,-252"/>
<text text-anchor="middle" x="679" y="-230.3" font-family="Courier,monospace" font-size="14.00">squeeze</text>
</g>
<!-- reshape&#45;&gt;squeeze -->
<!-- squeeze&#45;&gt;map_blocks -->
<g id="edge16" class="edge">
<title>squeeze&#45;&gt;map_blocks</title>
<path fill="none" stroke="black" d="M657.05,-215.87C624.66,-190.6 563.97,-143.25 527.35,-114.68"/>
<polygon fill="black" stroke="black" points="529.07,-111.58 519.03,-108.19 524.76,-117.1 529.07,-111.58"/>
</g>
<!-- argmax -->
<g id="node16" class="node">
<title>argmax</title>
<polygon fill="none" stroke="black" points="801.5,-252 734.5,-252 734.5,-216 801.5,-216 801.5,-252"/>
<text text-anchor="middle" x="768" y="-230.3" font-family="Courier,monospace" font-size="14.00">argmax</text>
</g>
<!-- squeeze&#45;&gt;argmax -->
<!-- argmax&#45;&gt;arg_reduction -->
<g id="edge17" class="edge">
<title>argmax&#45;&gt;arg_reduction</title>
<path fill="none" stroke="black" d="M763.3,-215.7C761.19,-207.9 758.64,-198.51 756.28,-189.83"/>
<polygon fill="black" stroke="black" points="759.64,-188.84 753.64,-180.1 752.88,-190.67 759.64,-188.84"/>
</g>
<!-- sum -->
<g id="node17" class="node">
<title>sum</title>
<polygon fill="none" stroke="black" points="874,-252 820,-252 820,-216 874,-216 874,-252"/>
<text text-anchor="middle" x="847" y="-230.3" font-family="Courier,monospace" font-size="14.00">sum</text>
</g>
<!-- argmax&#45;&gt;sum -->
<!-- sum&#45;&gt;reduction -->
<g id="edge18" class="edge">
<title>sum&#45;&gt;reduction</title>
<path fill="none" stroke="black" d="M845.63,-215.99C843.32,-196.8 837.18,-165.46 821,-144 811.55,-131.46 798.19,-121.14 784.91,-113.04"/>
<polygon fill="black" stroke="black" points="786.64,-110 776.23,-108.04 783.14,-116.07 786.64,-110"/>
</g>
<!-- all -->
<g id="node18" class="node">
<title>all</title>
<polygon fill="none" stroke="black" points="946,-252 892,-252 892,-216 946,-216 946,-252"/>
<text text-anchor="middle" x="919" y="-230.3" font-family="Courier,monospace" font-size="14.00">all</text>
</g>
<!-- sum&#45;&gt;all -->
<!-- all&#45;&gt;reduction -->
<g id="edge19" class="edge">
<title>all&#45;&gt;reduction</title>
<path fill="none" stroke="black" d="M907.52,-215.79C893.92,-196.41 869.73,-164.91 843,-144 826.99,-131.48 807.56,-120.73 789.72,-112.25"/>
<polygon fill="black" stroke="black" points="791.11,-109.03 780.57,-108.02 788.18,-115.39 791.11,-109.03"/>
</g>
</g>
</svg>
