<?xml version="1.0" encoding="UTF-8" standalone="no"?>
<!DOCTYPE svg PUBLIC "-//W3C//DTD SVG 1.1//EN"
 "http://www.w3.org/Graphics/SVG/1.1/DTD/svg11.dtd">
<!-- Generated by graphviz version 2.49.3 (20211023.0002)
 -->
<!-- Pages: 1 -->
<svg width="312pt" height="317pt"
 viewBox="0.00 0.00 312.00 317.00" xmlns="http://www.w3.org/2000/svg" xmlns:xlink="http://www.w3.org/1999/xlink">
<g id="graph0" class="graph" transform="scale(1 1) rotate(0) translate(4 313)">
<polygon fill="white" stroke="transparent" points="-4,4 -4,-313 308,-313 308,4 -4,4"/>
<text text-anchor="start" x="8" y="-40" font-family="Times,serif" font-size="10.00">num tasks: 5</text>
<text text-anchor="start" x="8" y="-29" font-family="Times,serif" font-size="10.00">max projected memory: 100.0 MB</text>
<text text-anchor="start" x="8" y="-18" font-family="Times,serif" font-size="10.00">total nbytes: 72 bytes</text>
<text text-anchor="start" x="8" y="-7" font-family="Times,serif" font-size="10.00">optimized: True</text>
<!-- op&#45;001 -->
<g id="node1" class="node">
<title>op&#45;001</title>
<g id="a_node1"><a xlink:title="name: op&#45;001&#10;op: full&#10;calls: &lt;module&gt; &#45;&gt; ones &#45;&gt; full&#10;line: 1 in &lt;module&gt;">
<path fill="none" stroke="black" d="M44.5,-309C44.5,-309 14.5,-309 14.5,-309 8.5,-309 2.5,-303 2.5,-297 2.5,-297 2.5,-285 2.5,-285 2.5,-279 8.5,-273 14.5,-273 14.5,-273 44.5,-273 44.5,-273 50.5,-273 56.5,-279 56.5,-285 56.5,-285 56.5,-297 56.5,-297 56.5,-303 50.5,-309 44.5,-309"/>
<text text-anchor="middle" x="29.5" y="-294" font-family="Helvetica,sans-Serif" font-size="10.00">op&#45;001</text>
<text text-anchor="middle" x="29.5" y="-283" font-family="Helvetica,sans-Serif" font-size="10.00">ones</text>
</a>
</g>
</g>
<!-- array&#45;001 -->
<g id="node2" class="node">
<title>array&#45;001</title>
<g id="a_node2"><a xlink:title="name: array&#45;001&#10;variable: a&#10;shape: (3, 3)&#10;chunks: (2, 2)&#10;dtype: float64&#10;chunk memory: 32 bytes">
<polygon fill="none" stroke="black" points="59,-237 0,-237 0,-201 59,-201 59,-237"/>
<text text-anchor="middle" x="29.5" y="-222" font-family="Helvetica,sans-Serif" font-size="10.00">array&#45;001</text>
<text text-anchor="middle" x="29.5" y="-211" font-family="Helvetica,sans-Serif" font-size="10.00">a</text>
</a>
</g>
</g>
<!-- op&#45;001&#45;&gt;array&#45;001 -->
<g id="edge1" class="edge">
<title>op&#45;001&#45;&gt;array&#45;001</title>
<path fill="none" stroke="black" d="M29.5,-272.7C29.5,-264.98 29.5,-255.71 29.5,-247.11"/>
<polygon fill="black" stroke="black" points="33,-247.1 29.5,-237.1 26,-247.1 33,-247.1"/>
</g>
<!-- op&#45;005 -->
<g id="node7" class="node">
<title>op&#45;005</title>
<g id="a_node7"><a xlink:title="name: op&#45;005&#10;op: blockwise&#10;projected memory: 100.0 MB&#10;tasks: 4&#10;num input blocks: (1, 1, 1)&#10;calls: &lt;module&gt; &#45;&gt; add &#45;&gt; elemwise &#45;&gt; blockwise&#10;line: 1 in &lt;module&gt;">
<path fill="#dcbeff" stroke="black" d="M121.5,-165C121.5,-165 91.5,-165 91.5,-165 85.5,-165 79.5,-159 79.5,-153 79.5,-153 79.5,-136 79.5,-136 79.5,-130 85.5,-124 91.5,-124 91.5,-124 121.5,-124 121.5,-124 127.5,-124 133.5,-130 133.5,-136 133.5,-136 133.5,-153 133.5,-153 133.5,-159 127.5,-165 121.5,-165"/>
<text text-anchor="middle" x="106.5" y="-153" font-family="Helvetica,sans-Serif" font-size="10.00">op&#45;005</text>
<text text-anchor="middle" x="106.5" y="-142" font-family="Helvetica,sans-Serif" font-size="10.00">add</text>
<text text-anchor="middle" x="106.5" y="-131" font-family="Helvetica,sans-Serif" font-size="10.00">tasks: 4</text>
</a>
</g>
</g>
<!-- array&#45;001&#45;&gt;op&#45;005 -->
<g id="edge2" class="edge">
<title>array&#45;001&#45;&gt;op&#45;005</title>
<path fill="none" stroke="black" d="M47.75,-200.82C56.82,-192.28 67.99,-181.76 78.15,-172.2"/>
<polygon fill="black" stroke="black" points="80.78,-174.52 85.66,-165.12 75.98,-169.43 80.78,-174.52"/>
</g>
<!-- op&#45;002 -->
<g id="node3" class="node">
<title>op&#45;002</title>
<g id="a_node3"><a xlink:title="name: op&#45;002&#10;op: full&#10;calls: &lt;module&gt; &#45;&gt; ones &#45;&gt; full&#10;line: 1 in &lt;module&gt;">
<path fill="none" stroke="black" d="M121.5,-309C121.5,-309 91.5,-309 91.5,-309 85.5,-309 79.5,-303 79.5,-297 79.5,-297 79.5,-285 79.5,-285 79.5,-279 85.5,-273 91.5,-273 91.5,-273 121.5,-273 121.5,-273 127.5,-273 133.5,-279 133.5,-285 133.5,-285 133.5,-297 133.5,-297 133.5,-303 127.5,-309 121.5,-309"/>
<text text-anchor="middle" x="106.5" y="-294" font-family="Helvetica,sans-Serif" font-size="10.00">op&#45;002</text>
<text text-anchor="middle" x="106.5" y="-283" font-family="Helvetica,sans-Serif" font-size="10.00">ones</text>
</a>
</g>
</g>
<!-- array&#45;002 -->
<g id="node4" class="node">
<title>array&#45;002</title>
<g id="a_node4"><a xlink:title="name: array&#45;002&#10;variable: b&#10;shape: (3, 3)&#10;chunks: (2, 2)&#10;dtype: float64&#10;chunk memory: 32 bytes">
<polygon fill="none" stroke="black" points="136,-237 77,-237 77,-201 136,-201 136,-237"/>
<text text-anchor="middle" x="106.5" y="-222" font-family="Helvetica,sans-Serif" font-size="10.00">array&#45;002</text>
<text text-anchor="middle" x="106.5" y="-211" font-family="Helvetica,sans-Serif" font-size="10.00">b</text>
</a>
</g>
</g>
<!-- op&#45;002&#45;&gt;array&#45;002 -->
<g id="edge3" class="edge">
<title>op&#45;002&#45;&gt;array&#45;002</title>
<path fill="none" stroke="black" d="M106.5,-272.7C106.5,-264.98 106.5,-255.71 106.5,-247.11"/>
<polygon fill="black" stroke="black" points="110,-247.1 106.5,-237.1 103,-247.1 110,-247.1"/>
</g>
<!-- array&#45;002&#45;&gt;op&#45;005 -->
<g id="edge4" class="edge">
<title>array&#45;002&#45;&gt;op&#45;005</title>
<path fill="none" stroke="black" d="M106.5,-200.82C106.5,-193.2 106.5,-184 106.5,-175.32"/>
<polygon fill="black" stroke="black" points="110,-175.12 106.5,-165.12 103,-175.12 110,-175.12"/>
</g>
<!-- op&#45;003 -->
<g id="node5" class="node">
<title>op&#45;003</title>
<g id="a_node5"><a xlink:title="name: op&#45;003&#10;op: full&#10;calls: &lt;module&gt; &#45;&gt; ones &#45;&gt; full&#10;line: 1 in &lt;module&gt;">
<path fill="none" stroke="black" d="M198.5,-309C198.5,-309 168.5,-309 168.5,-309 162.5,-309 156.5,-303 156.5,-297 156.5,-297 156.5,-285 156.5,-285 156.5,-279 162.5,-273 168.5,-273 168.5,-273 198.5,-273 198.5,-273 204.5,-273 210.5,-279 210.5,-285 210.5,-285 210.5,-297 210.5,-297 210.5,-303 204.5,-309 198.5,-309"/>
<text text-anchor="middle" x="183.5" y="-294" font-family="Helvetica,sans-Serif" font-size="10.00">op&#45;003</text>
<text text-anchor="middle" x="183.5" y="-283" font-family="Helvetica,sans-Serif" font-size="10.00">ones</text>
</a>
</g>
</g>
<!-- array&#45;003 -->
<g id="node6" class="node">
<title>array&#45;003</title>
<g id="a_node6"><a xlink:title="name: array&#45;003&#10;variable: c&#10;shape: (3, 3)&#10;chunks: (2, 2)&#10;dtype: float64&#10;chunk memory: 32 bytes">
<polygon fill="none" stroke="black" points="213,-237 154,-237 154,-201 213,-201 213,-237"/>
<text text-anchor="middle" x="183.5" y="-222" font-family="Helvetica,sans-Serif" font-size="10.00">array&#45;003</text>
<text text-anchor="middle" x="183.5" y="-211" font-family="Helvetica,sans-Serif" font-size="10.00">c</text>
</a>
</g>
</g>
<!-- op&#45;003&#45;&gt;array&#45;003 -->
<g id="edge5" class="edge">
<title>op&#45;003&#45;&gt;array&#45;003</title>
<path fill="none" stroke="black" d="M183.5,-272.7C183.5,-264.98 183.5,-255.71 183.5,-247.11"/>
<polygon fill="black" stroke="black" points="187,-247.1 183.5,-237.1 180,-247.1 187,-247.1"/>
</g>
<!-- array&#45;003&#45;&gt;op&#45;005 -->
<g id="edge6" class="edge">
<title>array&#45;003&#45;&gt;op&#45;005</title>
<path fill="none" stroke="black" d="M165.25,-200.82C156.18,-192.28 145.01,-181.76 134.85,-172.2"/>
<polygon fill="black" stroke="black" points="137.02,-169.43 127.34,-165.12 132.22,-174.52 137.02,-169.43"/>
</g>
<!-- array&#45;005 -->
<g id="node8" class="node">
<title>array&#45;005</title>
<g id="a_node8"><a xlink:title="name: array&#45;005&#10;variable: e&#10;shape: (3, 3)&#10;chunks: (2, 2)&#10;dtype: float64&#10;chunk memory: 32 bytes&#10;nbytes: 72 bytes">
<polygon fill="#ffd8b1" stroke="black" points="136,-88 77,-88 77,-52 136,-52 136,-88"/>
<text text-anchor="middle" x="106.5" y="-73" font-family="Helvetica,sans-Serif" font-size="10.00">array&#45;005</text>
<text text-anchor="middle" x="106.5" y="-62" font-family="Helvetica,sans-Serif" font-size="10.00">e</text>
</a>
</g>
</g>
<!-- op&#45;005&#45;&gt;array&#45;005 -->
<g id="edge7" class="edge">
<title>op&#45;005&#45;&gt;array&#45;005</title>
<path fill="none" stroke="black" d="M106.5,-123.69C106.5,-115.91 106.5,-106.84 106.5,-98.45"/>
<polygon fill="black" stroke="black" points="110,-98.32 106.5,-88.32 103,-98.32 110,-98.32"/>
</g>
<!-- create&#45;arrays -->
<g id="node9" class="node">
<title>create&#45;arrays</title>
<g id="a_node9"><a xlink:title="name: create&#45;arrays&#10;op: create&#45;arrays&#10;projected memory: 100.0 MB&#10;tasks: 1">
<path fill="none" stroke="black" d="M292,-309C292,-309 241,-309 241,-309 235,-309 229,-303 229,-297 229,-297 229,-285 229,-285 229,-279 235,-273 241,-273 241,-273 292,-273 292,-273 298,-273 304,-279 304,-285 304,-285 304,-297 304,-297 304,-303 298,-309 292,-309"/>
<text text-anchor="middle" x="266.5" y="-294" font-family="Helvetica,sans-Serif" font-size="10.00">create&#45;arrays</text>
<text text-anchor="middle" x="266.5" y="-283" font-family="Helvetica,sans-Serif" font-size="10.00">tasks: 1</text>
</a>
</g>
</g>
<!-- arrays -->
<g id="node10" class="node">
<title>arrays</title>
<g id="a_node10"><a xlink:title="name: arrays" target="None">
<polygon fill="none" stroke="black" points="293.5,-237 239.5,-237 239.5,-201 293.5,-201 293.5,-237"/>
<text text-anchor="middle" x="266.5" y="-216.5" font-family="Helvetica,sans-Serif" font-size="10.00">arrays</text>
</a>
</g>
</g>
<!-- create&#45;arrays&#45;&gt;arrays -->
<g id="edge8" class="edge">
<title>create&#45;arrays&#45;&gt;arrays</title>
<path fill="none" stroke="black" d="M266.5,-272.7C266.5,-264.98 266.5,-255.71 266.5,-247.11"/>
<polygon fill="black" stroke="black" points="270,-247.1 266.5,-237.1 263,-247.1 270,-247.1"/>
</g>
</g>
</svg>
