<?xml version="1.0" encoding="UTF-8" standalone="no"?>
<!DOCTYPE svg PUBLIC "-//W3C//DTD SVG 1.1//EN"
 "http://www.w3.org/Graphics/SVG/1.1/DTD/svg11.dtd">
<!-- Generated by graphviz version 10.0.1 (20240210.2158)
 -->
<!-- Pages: 1 -->
<svg width="268pt" height="469pt"
 viewBox="0.00 0.00 267.75 468.50" xmlns="http://www.w3.org/2000/svg" xmlns:xlink="http://www.w3.org/1999/xlink">
<g id="graph0" class="graph" transform="scale(1 1) rotate(0) translate(4 464.5)">
<polygon fill="white" stroke="none" points="-4,4 -4,-464.5 263.75,-464.5 263.75,4 -4,4"/>
<text text-anchor="start" x="8" y="-39.5" font-family="Times,serif" font-size="10.00">num tasks: 10</text>
<text text-anchor="start" x="8" y="-28.25" font-family="Times,serif" font-size="10.00">max projected memory: 100.0 MB</text>
<text text-anchor="start" x="8" y="-17" font-family="Times,serif" font-size="10.00">total nbytes written: 144 bytes</text>
<text text-anchor="start" x="8" y="-5.75" font-family="Times,serif" font-size="10.00">optimized: False</text>
<!-- op&#45;004 -->
<g id="node1" class="node">
<title>op&#45;004</title>
<g id="a_node1"><a xlink:title="name: op&#45;004&#10;op: full&#10;calls: &lt;module&gt; &#45;&gt; ones &#45;&gt; full&#10;line: 1 in &lt;module&gt;">
<path fill="none" stroke="black" d="M43.25,-313.62C43.25,-313.62 13.25,-313.62 13.25,-313.62 7.25,-313.62 1.25,-307.62 1.25,-301.62 1.25,-301.62 1.25,-289.62 1.25,-289.62 1.25,-283.62 7.25,-277.62 13.25,-277.62 13.25,-277.62 43.25,-277.62 43.25,-277.62 49.25,-277.62 55.25,-283.62 55.25,-289.62 55.25,-289.62 55.25,-301.62 55.25,-301.62 55.25,-307.62 49.25,-313.62 43.25,-313.62"/>
<text text-anchor="middle" x="28.25" y="-297.38" font-family="Helvetica,sans-Serif" font-size="10.00">op&#45;004</text>
<text text-anchor="middle" x="28.25" y="-286.12" font-family="Helvetica,sans-Serif" font-size="10.00">ones</text>
</a>
</g>
</g>
<!-- array&#45;004 -->
<g id="node2" class="node">
<title>array&#45;004</title>
<g id="a_node2"><a xlink:title="name: array&#45;004&#10;variable: a&#10;shape: (3, 3)&#10;chunks: (2, 2)&#10;dtype: float64&#10;chunk memory: 8 bytes">
<polygon fill="none" stroke="black" points="56.5,-238.75 0,-238.75 0,-202.75 56.5,-202.75 56.5,-238.75"/>
<text text-anchor="middle" x="28.25" y="-222.5" font-family="Helvetica,sans-Serif" font-size="10.00">array&#45;004</text>
<text text-anchor="middle" x="28.25" y="-211.25" font-family="Helvetica,sans-Serif" font-size="10.00">a</text>
</a>
</g>
</g>
<!-- op&#45;004&#45;&gt;array&#45;004 -->
<g id="edge1" class="edge">
<title>op&#45;004&#45;&gt;array&#45;004</title>
<path fill="none" stroke="black" d="M28.25,-277.35C28.25,-269.34 28.25,-259.59 28.25,-250.5"/>
<polygon fill="black" stroke="black" points="31.75,-250.66 28.25,-240.66 24.75,-250.66 31.75,-250.66"/>
</g>
<!-- op&#45;008 -->
<g id="node9" class="node">
<title>op&#45;008</title>
<g id="a_node9"><a xlink:title="name: op&#45;008&#10;op: blockwise&#10;projected memory: 100.0 MB&#10;tasks: 4&#10;num input blocks: (1, 1)&#10;calls: &lt;module&gt; &#45;&gt; add &#45;&gt; elemwise &#45;&gt; blockwise&#10;line: 1 in &lt;module&gt;">
<path fill="#dcbeff" stroke="black" d="M80.25,-166.75C80.25,-166.75 50.25,-166.75 50.25,-166.75 44.25,-166.75 38.25,-160.75 38.25,-154.75 38.25,-154.75 38.25,-137 38.25,-137 38.25,-131 44.25,-125 50.25,-125 50.25,-125 80.25,-125 80.25,-125 86.25,-125 92.25,-131 92.25,-137 92.25,-137 92.25,-154.75 92.25,-154.75 92.25,-160.75 86.25,-166.75 80.25,-166.75"/>
<text text-anchor="middle" x="65.25" y="-153.25" font-family="Helvetica,sans-Serif" font-size="10.00">op&#45;008</text>
<text text-anchor="middle" x="65.25" y="-142" font-family="Helvetica,sans-Serif" font-size="10.00">add</text>
<text text-anchor="middle" x="65.25" y="-130.75" font-family="Helvetica,sans-Serif" font-size="10.00">tasks: 4</text>
</a>
</g>
</g>
<!-- array&#45;004&#45;&gt;op&#45;008 -->
<g id="edge2" class="edge">
<title>array&#45;004&#45;&gt;op&#45;008</title>
<path fill="none" stroke="black" d="M37.02,-202.48C40.85,-194.94 45.45,-185.87 49.82,-177.26"/>
<polygon fill="black" stroke="black" points="52.88,-178.97 54.28,-168.47 46.64,-175.8 52.88,-178.97"/>
</g>
<!-- op&#45;005 -->
<g id="node3" class="node">
<title>op&#45;005</title>
<g id="a_node3"><a xlink:title="name: op&#45;005&#10;op: full&#10;calls: &lt;module&gt; &#45;&gt; ones &#45;&gt; full&#10;line: 1 in &lt;module&gt;">
<path fill="none" stroke="black" d="M81.25,-460.5C81.25,-460.5 51.25,-460.5 51.25,-460.5 45.25,-460.5 39.25,-454.5 39.25,-448.5 39.25,-448.5 39.25,-436.5 39.25,-436.5 39.25,-430.5 45.25,-424.5 51.25,-424.5 51.25,-424.5 81.25,-424.5 81.25,-424.5 87.25,-424.5 93.25,-430.5 93.25,-436.5 93.25,-436.5 93.25,-448.5 93.25,-448.5 93.25,-454.5 87.25,-460.5 81.25,-460.5"/>
<text text-anchor="middle" x="66.25" y="-444.25" font-family="Helvetica,sans-Serif" font-size="10.00">op&#45;005</text>
<text text-anchor="middle" x="66.25" y="-433" font-family="Helvetica,sans-Serif" font-size="10.00">ones</text>
</a>
</g>
</g>
<!-- array&#45;005 -->
<g id="node4" class="node">
<title>array&#45;005</title>
<g id="a_node4"><a xlink:title="name: array&#45;005&#10;variable: b&#10;shape: (3, 3)&#10;chunks: (2, 2)&#10;dtype: float64&#10;chunk memory: 8 bytes">
<polygon fill="none" stroke="black" points="94.5,-388.5 38,-388.5 38,-352.5 94.5,-352.5 94.5,-388.5"/>
<text text-anchor="middle" x="66.25" y="-372.25" font-family="Helvetica,sans-Serif" font-size="10.00">array&#45;005</text>
<text text-anchor="middle" x="66.25" y="-361" font-family="Helvetica,sans-Serif" font-size="10.00">b</text>
</a>
</g>
</g>
<!-- op&#45;005&#45;&gt;array&#45;005 -->
<g id="edge3" class="edge">
<title>op&#45;005&#45;&gt;array&#45;005</title>
<path fill="none" stroke="black" d="M66.25,-424.2C66.25,-416.91 66.25,-408.23 66.25,-400.04"/>
<polygon fill="black" stroke="black" points="69.75,-400.12 66.25,-390.12 62.75,-400.12 69.75,-400.12"/>
</g>
<!-- op&#45;007 -->
<g id="node7" class="node">
<title>op&#45;007</title>
<g id="a_node7"><a xlink:title="name: op&#45;007&#10;op: blockwise&#10;projected memory: 100.0 MB&#10;tasks: 4&#10;num input blocks: (1, 1)&#10;calls: &lt;module&gt; &#45;&gt; add &#45;&gt; elemwise &#45;&gt; blockwise&#10;line: 1 in &lt;module&gt;">
<path fill="#dcbeff" stroke="black" d="M118.25,-316.5C118.25,-316.5 88.25,-316.5 88.25,-316.5 82.25,-316.5 76.25,-310.5 76.25,-304.5 76.25,-304.5 76.25,-286.75 76.25,-286.75 76.25,-280.75 82.25,-274.75 88.25,-274.75 88.25,-274.75 118.25,-274.75 118.25,-274.75 124.25,-274.75 130.25,-280.75 130.25,-286.75 130.25,-286.75 130.25,-304.5 130.25,-304.5 130.25,-310.5 124.25,-316.5 118.25,-316.5"/>
<text text-anchor="middle" x="103.25" y="-303" font-family="Helvetica,sans-Serif" font-size="10.00">op&#45;007</text>
<text text-anchor="middle" x="103.25" y="-291.75" font-family="Helvetica,sans-Serif" font-size="10.00">add</text>
<text text-anchor="middle" x="103.25" y="-280.5" font-family="Helvetica,sans-Serif" font-size="10.00">tasks: 4</text>
</a>
</g>
</g>
<!-- array&#45;005&#45;&gt;op&#45;007 -->
<g id="edge4" class="edge">
<title>array&#45;005&#45;&gt;op&#45;007</title>
<path fill="none" stroke="black" d="M75.02,-352.23C78.85,-344.69 83.45,-335.62 87.82,-327.01"/>
<polygon fill="black" stroke="black" points="90.88,-328.72 92.28,-318.22 84.64,-325.55 90.88,-328.72"/>
</g>
<!-- op&#45;006 -->
<g id="node5" class="node">
<title>op&#45;006</title>
<g id="a_node5"><a xlink:title="name: op&#45;006&#10;op: full&#10;calls: &lt;module&gt; &#45;&gt; ones &#45;&gt; full&#10;line: 1 in &lt;module&gt;">
<path fill="none" stroke="black" d="M156.25,-460.5C156.25,-460.5 126.25,-460.5 126.25,-460.5 120.25,-460.5 114.25,-454.5 114.25,-448.5 114.25,-448.5 114.25,-436.5 114.25,-436.5 114.25,-430.5 120.25,-424.5 126.25,-424.5 126.25,-424.5 156.25,-424.5 156.25,-424.5 162.25,-424.5 168.25,-430.5 168.25,-436.5 168.25,-436.5 168.25,-448.5 168.25,-448.5 168.25,-454.5 162.25,-460.5 156.25,-460.5"/>
<text text-anchor="middle" x="141.25" y="-444.25" font-family="Helvetica,sans-Serif" font-size="10.00">op&#45;006</text>
<text text-anchor="middle" x="141.25" y="-433" font-family="Helvetica,sans-Serif" font-size="10.00">ones</text>
</a>
</g>
</g>
<!-- array&#45;006 -->
<g id="node6" class="node">
<title>array&#45;006</title>
<g id="a_node6"><a xlink:title="name: array&#45;006&#10;variable: c&#10;shape: (3, 3)&#10;chunks: (2, 2)&#10;dtype: float64&#10;chunk memory: 8 bytes">
<polygon fill="none" stroke="black" points="169.5,-388.5 113,-388.5 113,-352.5 169.5,-352.5 169.5,-388.5"/>
<text text-anchor="middle" x="141.25" y="-372.25" font-family="Helvetica,sans-Serif" font-size="10.00">array&#45;006</text>
<text text-anchor="middle" x="141.25" y="-361" font-family="Helvetica,sans-Serif" font-size="10.00">c</text>
</a>
</g>
</g>
<!-- op&#45;006&#45;&gt;array&#45;006 -->
<g id="edge5" class="edge">
<title>op&#45;006&#45;&gt;array&#45;006</title>
<path fill="none" stroke="black" d="M141.25,-424.2C141.25,-416.91 141.25,-408.23 141.25,-400.04"/>
<polygon fill="black" stroke="black" points="144.75,-400.12 141.25,-390.12 137.75,-400.12 144.75,-400.12"/>
</g>
<!-- array&#45;006&#45;&gt;op&#45;007 -->
<g id="edge6" class="edge">
<title>array&#45;006&#45;&gt;op&#45;007</title>
<path fill="none" stroke="black" d="M132.24,-352.23C128.31,-344.69 123.58,-335.62 119.09,-327.01"/>
<polygon fill="black" stroke="black" points="122.24,-325.46 114.51,-318.22 116.03,-328.7 122.24,-325.46"/>
</g>
<!-- array&#45;007 -->
<g id="node8" class="node">
<title>array&#45;007</title>
<g id="a_node8"><a xlink:title="name: array&#45;007&#10;variable: d&#10;shape: (3, 3)&#10;chunks: (2, 2)&#10;dtype: float64&#10;chunk memory: 32 bytes&#10;nbytes: 72 bytes">
<polygon fill="#ffd8b1" stroke="black" points="131.5,-238.75 75,-238.75 75,-202.75 131.5,-202.75 131.5,-238.75"/>
<text text-anchor="middle" x="103.25" y="-222.5" font-family="Helvetica,sans-Serif" font-size="10.00">array&#45;007</text>
<text text-anchor="middle" x="103.25" y="-211.25" font-family="Helvetica,sans-Serif" font-size="10.00">d</text>
</a>
</g>
</g>
<!-- op&#45;007&#45;&gt;array&#45;007 -->
<g id="edge7" class="edge">
<title>op&#45;007&#45;&gt;array&#45;007</title>
<path fill="none" stroke="black" d="M103.25,-274.33C103.25,-266.94 103.25,-258.45 103.25,-250.48"/>
<polygon fill="black" stroke="black" points="106.75,-250.49 103.25,-240.49 99.75,-250.49 106.75,-250.49"/>
</g>
<!-- array&#45;007&#45;&gt;op&#45;008 -->
<g id="edge8" class="edge">
<title>array&#45;007&#45;&gt;op&#45;008</title>
<path fill="none" stroke="black" d="M94.24,-202.48C90.31,-194.94 85.58,-185.87 81.09,-177.26"/>
<polygon fill="black" stroke="black" points="84.24,-175.71 76.51,-168.47 78.03,-178.95 84.24,-175.71"/>
</g>
<!-- array&#45;008 -->
<g id="node10" class="node">
<title>array&#45;008</title>
<g id="a_node10"><a xlink:title="name: array&#45;008&#10;variable: e&#10;shape: (3, 3)&#10;chunks: (2, 2)&#10;dtype: float64&#10;chunk memory: 32 bytes&#10;nbytes: 72 bytes">
<polygon fill="#ffd8b1" stroke="black" points="93.5,-89 37,-89 37,-53 93.5,-53 93.5,-89"/>
<text text-anchor="middle" x="65.25" y="-72.75" font-family="Helvetica,sans-Serif" font-size="10.00">array&#45;008</text>
<text text-anchor="middle" x="65.25" y="-61.5" font-family="Helvetica,sans-Serif" font-size="10.00">e</text>
</a>
</g>
</g>
<!-- op&#45;008&#45;&gt;array&#45;008 -->
<g id="edge9" class="edge">
<title>op&#45;008&#45;&gt;array&#45;008</title>
<path fill="none" stroke="black" d="M65.25,-124.58C65.25,-117.19 65.25,-108.7 65.25,-100.73"/>
<polygon fill="black" stroke="black" points="68.75,-100.74 65.25,-90.74 61.75,-100.74 68.75,-100.74"/>
</g>
<!-- create&#45;arrays -->
<g id="node11" class="node">
<title>create&#45;arrays</title>
<g id="a_node11"><a xlink:title="name: create&#45;arrays&#10;op: create&#45;arrays&#10;projected memory: 100.0 MB&#10;tasks: 2">
<path fill="none" stroke="black" d="M247.75,-460.5C247.75,-460.5 198.75,-460.5 198.75,-460.5 192.75,-460.5 186.75,-454.5 186.75,-448.5 186.75,-448.5 186.75,-436.5 186.75,-436.5 186.75,-430.5 192.75,-424.5 198.75,-424.5 198.75,-424.5 247.75,-424.5 247.75,-424.5 253.75,-424.5 259.75,-430.5 259.75,-436.5 259.75,-436.5 259.75,-448.5 259.75,-448.5 259.75,-454.5 253.75,-460.5 247.75,-460.5"/>
<text text-anchor="middle" x="223.25" y="-444.25" font-family="Helvetica,sans-Serif" font-size="10.00">create&#45;arrays</text>
<text text-anchor="middle" x="223.25" y="-433" font-family="Helvetica,sans-Serif" font-size="10.00">tasks: 2</text>
</a>
</g>
</g>
<!-- arrays -->
<g id="node12" class="node">
<title>arrays</title>
<g id="a_node12"><a xlink:title="name: arrays" target="None">
<polygon fill="none" stroke="black" points="250.25,-388.5 196.25,-388.5 196.25,-352.5 250.25,-352.5 250.25,-388.5"/>
<text text-anchor="middle" x="223.25" y="-366.62" font-family="Helvetica,sans-Serif" font-size="10.00">arrays</text>
</a>
</g>
</g>
<!-- create&#45;arrays&#45;&gt;arrays -->
<g id="edge10" class="edge">
<title>create&#45;arrays&#45;&gt;arrays</title>
<path fill="none" stroke="black" d="M223.25,-424.2C223.25,-416.91 223.25,-408.23 223.25,-400.04"/>
<polygon fill="black" stroke="black" points="226.75,-400.12 223.25,-390.12 219.75,-400.12 226.75,-400.12"/>
</g>
</g>
</svg>
