<?xml version="1.0" encoding="UTF-8" standalone="no"?>
<!DOCTYPE svg PUBLIC "-//W3C//DTD SVG 1.1//EN"
 "http://www.w3.org/Graphics/SVG/1.1/DTD/svg11.dtd">
<!-- Generated by graphviz version 2.49.3 (20211023.0002)
 -->
<!-- Pages: 1 -->
<svg width="163pt" height="466pt"
 viewBox="0.00 0.00 163.00 466.00" xmlns="http://www.w3.org/2000/svg" xmlns:xlink="http://www.w3.org/1999/xlink">
<g id="graph0" class="graph" transform="scale(1 1) rotate(0) translate(4 462)">
<polygon fill="white" stroke="transparent" points="-4,4 -4,-462 159,-462 159,4 -4,4"/>
<text text-anchor="start" x="8" y="-40" font-family="Times,serif" font-size="10.00">num tasks: 10</text>
<text text-anchor="start" x="8" y="-29" font-family="Times,serif" font-size="10.00">max projected memory: 100.0 MB</text>
<text text-anchor="start" x="8" y="-18" font-family="Times,serif" font-size="10.00">total nbytes: 108 bytes</text>
<text text-anchor="start" x="8" y="-7" font-family="Times,serif" font-size="10.00">optimized: False</text>
<!-- op&#45;001 -->
<g id="node1" class="node">
<title>op&#45;001</title>
<g id="a_node1"><a xlink:title="name: op&#45;001&#10;op: asarray&#10;calls: &lt;module&gt; &#45;&gt; asarray&#10;line: 1 in &lt;module&gt;">
<path fill="none" stroke="black" d="M47,-458C47,-458 17,-458 17,-458 11,-458 5,-452 5,-446 5,-446 5,-434 5,-434 5,-428 11,-422 17,-422 17,-422 47,-422 47,-422 53,-422 59,-428 59,-434 59,-434 59,-446 59,-446 59,-452 53,-458 47,-458"/>
<text text-anchor="middle" x="32" y="-443" font-family="Helvetica,sans-Serif" font-size="10.00">op&#45;001</text>
<text text-anchor="middle" x="32" y="-432" font-family="Helvetica,sans-Serif" font-size="10.00">asarray</text>
</a>
</g>
</g>
<!-- array&#45;001 -->
<g id="node2" class="node">
<title>array&#45;001</title>
<g id="a_node2"><a xlink:title="name: array&#45;001&#10;variable: a&#10;shape: (3, 3)&#10;chunks: (2, 2)&#10;dtype: int64&#10;chunk memory: 32 bytes">
<polygon fill="none" stroke="black" points="61.5,-386 2.5,-386 2.5,-350 61.5,-350 61.5,-386"/>
<text text-anchor="middle" x="32" y="-371" font-family="Helvetica,sans-Serif" font-size="10.00">array&#45;001</text>
<text text-anchor="middle" x="32" y="-360" font-family="Helvetica,sans-Serif" font-size="10.00">a</text>
</a>
</g>
</g>
<!-- op&#45;001&#45;&gt;array&#45;001 -->
<g id="edge1" class="edge">
<title>op&#45;001&#45;&gt;array&#45;001</title>
<path fill="none" stroke="black" d="M32,-421.7C32,-413.98 32,-404.71 32,-396.11"/>
<polygon fill="black" stroke="black" points="35.5,-396.1 32,-386.1 28.5,-396.1 35.5,-396.1"/>
</g>
<!-- op&#45;002 -->
<g id="node3" class="node">
<title>op&#45;002</title>
<g id="a_node3"><a xlink:title="name: op&#45;002&#10;op: blockwise&#10;projected memory: 100.0 MB&#10;tasks: 4&#10;num input blocks: (1,)&#10;calls: &lt;module&gt; &#45;&gt; negative &#45;&gt; elemwise &#45;&gt; blockwise&#10;line: 1 in &lt;module&gt;">
<path fill="#dcbeff" stroke="black" d="M47,-314C47,-314 17,-314 17,-314 11,-314 5,-308 5,-302 5,-302 5,-285 5,-285 5,-279 11,-273 17,-273 17,-273 47,-273 47,-273 53,-273 59,-279 59,-285 59,-285 59,-302 59,-302 59,-308 53,-314 47,-314"/>
<text text-anchor="middle" x="32" y="-302" font-family="Helvetica,sans-Serif" font-size="10.00">op&#45;002</text>
<text text-anchor="middle" x="32" y="-291" font-family="Helvetica,sans-Serif" font-size="10.00">negative</text>
<text text-anchor="middle" x="32" y="-280" font-family="Helvetica,sans-Serif" font-size="10.00">tasks: 4</text>
</a>
</g>
</g>
<!-- array&#45;001&#45;&gt;op&#45;002 -->
<g id="edge2" class="edge">
<title>array&#45;001&#45;&gt;op&#45;002</title>
<path fill="none" stroke="black" d="M32,-349.82C32,-342.2 32,-333 32,-324.32"/>
<polygon fill="black" stroke="black" points="35.5,-324.12 32,-314.12 28.5,-324.12 35.5,-324.12"/>
</g>
<!-- array&#45;002 -->
<g id="node4" class="node">
<title>array&#45;002</title>
<g id="a_node4"><a xlink:title="name: array&#45;002&#10;variable: b&#10;shape: (3, 3)&#10;chunks: (2, 2)&#10;dtype: int64&#10;chunk memory: 32 bytes&#10;nbytes: 72 bytes">
<polygon fill="#ffd8b1" stroke="black" points="61.5,-237 2.5,-237 2.5,-201 61.5,-201 61.5,-237"/>
<text text-anchor="middle" x="32" y="-222" font-family="Helvetica,sans-Serif" font-size="10.00">array&#45;002</text>
<text text-anchor="middle" x="32" y="-211" font-family="Helvetica,sans-Serif" font-size="10.00">b</text>
</a>
</g>
</g>
<!-- op&#45;002&#45;&gt;array&#45;002 -->
<g id="edge3" class="edge">
<title>op&#45;002&#45;&gt;array&#45;002</title>
<path fill="none" stroke="black" d="M32,-272.69C32,-264.91 32,-255.84 32,-247.45"/>
<polygon fill="black" stroke="black" points="35.5,-247.32 32,-237.32 28.5,-247.32 35.5,-247.32"/>
</g>
<!-- op&#45;003 -->
<g id="node5" class="node">
<title>op&#45;003</title>
<g id="a_node5"><a xlink:title="name: op&#45;003&#10;op: blockwise&#10;projected memory: 100.0 MB&#10;tasks: 4&#10;num input blocks: (1,)&#10;calls: &lt;module&gt; &#45;&gt; astype &#45;&gt; map_blocks &#45;&gt; _map_blocks &#45;&gt; blockwise&#10;line: 1 in &lt;module&gt;">
<path fill="#dcbeff" stroke="black" d="M47,-165C47,-165 17,-165 17,-165 11,-165 5,-159 5,-153 5,-153 5,-136 5,-136 5,-130 11,-124 17,-124 17,-124 47,-124 47,-124 53,-124 59,-130 59,-136 59,-136 59,-153 59,-153 59,-159 53,-165 47,-165"/>
<text text-anchor="middle" x="32" y="-153" font-family="Helvetica,sans-Serif" font-size="10.00">op&#45;003</text>
<text text-anchor="middle" x="32" y="-142" font-family="Helvetica,sans-Serif" font-size="10.00">astype</text>
<text text-anchor="middle" x="32" y="-131" font-family="Helvetica,sans-Serif" font-size="10.00">tasks: 4</text>
</a>
</g>
</g>
<!-- array&#45;002&#45;&gt;op&#45;003 -->
<g id="edge4" class="edge">
<title>array&#45;002&#45;&gt;op&#45;003</title>
<path fill="none" stroke="black" d="M32,-200.82C32,-193.2 32,-184 32,-175.32"/>
<polygon fill="black" stroke="black" points="35.5,-175.12 32,-165.12 28.5,-175.12 35.5,-175.12"/>
</g>
<!-- array&#45;003 -->
<g id="node6" class="node">
<title>array&#45;003</title>
<g id="a_node6"><a xlink:title="name: array&#45;003&#10;variable: c&#10;shape: (3, 3)&#10;chunks: (2, 2)&#10;dtype: float32&#10;chunk memory: 16 bytes&#10;nbytes: 36 bytes">
<polygon fill="#ffd8b1" stroke="black" points="61.5,-88 2.5,-88 2.5,-52 61.5,-52 61.5,-88"/>
<text text-anchor="middle" x="32" y="-73" font-family="Helvetica,sans-Serif" font-size="10.00">array&#45;003</text>
<text text-anchor="middle" x="32" y="-62" font-family="Helvetica,sans-Serif" font-size="10.00">c</text>
</a>
</g>
</g>
<!-- op&#45;003&#45;&gt;array&#45;003 -->
<g id="edge5" class="edge">
<title>op&#45;003&#45;&gt;array&#45;003</title>
<path fill="none" stroke="black" d="M32,-123.69C32,-115.91 32,-106.84 32,-98.45"/>
<polygon fill="black" stroke="black" points="35.5,-98.32 32,-88.32 28.5,-98.32 35.5,-98.32"/>
</g>
<!-- create&#45;arrays -->
<g id="node7" class="node">
<title>create&#45;arrays</title>
<g id="a_node7"><a xlink:title="name: create&#45;arrays&#10;op: create&#45;arrays&#10;projected memory: 100.0 MB&#10;tasks: 2">
<path fill="none" stroke="black" d="M140.5,-458C140.5,-458 89.5,-458 89.5,-458 83.5,-458 77.5,-452 77.5,-446 77.5,-446 77.5,-434 77.5,-434 77.5,-428 83.5,-422 89.5,-422 89.5,-422 140.5,-422 140.5,-422 146.5,-422 152.5,-428 152.5,-434 152.5,-434 152.5,-446 152.5,-446 152.5,-452 146.5,-458 140.5,-458"/>
<text text-anchor="middle" x="115" y="-443" font-family="Helvetica,sans-Serif" font-size="10.00">create&#45;arrays</text>
<text text-anchor="middle" x="115" y="-432" font-family="Helvetica,sans-Serif" font-size="10.00">tasks: 2</text>
</a>
</g>
</g>
<!-- arrays -->
<g id="node8" class="node">
<title>arrays</title>
<g id="a_node8"><a xlink:title="name: arrays" target="None">
<polygon fill="none" stroke="black" points="142,-386 88,-386 88,-350 142,-350 142,-386"/>
<text text-anchor="middle" x="115" y="-365.5" font-family="Helvetica,sans-Serif" font-size="10.00">arrays</text>
</a>
</g>
</g>
<!-- create&#45;arrays&#45;&gt;arrays -->
<g id="edge6" class="edge">
<title>create&#45;arrays&#45;&gt;arrays</title>
<path fill="none" stroke="black" d="M115,-421.7C115,-413.98 115,-404.71 115,-396.11"/>
<polygon fill="black" stroke="black" points="118.5,-396.1 115,-386.1 111.5,-396.1 118.5,-396.1"/>
</g>
</g>
</svg>
