<?xml version="1.0" encoding="UTF-8" standalone="no"?>
<!DOCTYPE svg PUBLIC "-//W3C//DTD SVG 1.1//EN"
 "http://www.w3.org/Graphics/SVG/1.1/DTD/svg11.dtd">
<!-- Generated by graphviz version 2.49.3 (20211023.0002)
 -->
<!-- Pages: 1 -->
<svg width="274pt" height="466pt"
 viewBox="0.00 0.00 274.00 466.00" xmlns="http://www.w3.org/2000/svg" xmlns:xlink="http://www.w3.org/1999/xlink">
<g id="graph0" class="graph" transform="scale(1 1) rotate(0) translate(4 462)">
<polygon fill="white" stroke="transparent" points="-4,4 -4,-462 270,-462 270,4 -4,4"/>
<text text-anchor="start" x="8" y="-40" font-family="Times,serif" font-size="10.00">num tasks: 10</text>
<text text-anchor="start" x="8" y="-29" font-family="Times,serif" font-size="10.00">max projected memory: 100.0 MB</text>
<text text-anchor="start" x="8" y="-18" font-family="Times,serif" font-size="10.00">total nbytes: 144 bytes</text>
<text text-anchor="start" x="8" y="-7" font-family="Times,serif" font-size="10.00">optimized: True</text>
<!-- op&#45;001 -->
<g id="node1" class="node">
<title>op&#45;001</title>
<g id="a_node1"><a xlink:title="name: op&#45;001&#10;op: full&#10;calls: &lt;module&gt; &#45;&gt; ones &#45;&gt; full&#10;line: 1 in &lt;module&gt;">
<path fill="none" stroke="black" d="M44.5,-311.5C44.5,-311.5 14.5,-311.5 14.5,-311.5 8.5,-311.5 2.5,-305.5 2.5,-299.5 2.5,-299.5 2.5,-287.5 2.5,-287.5 2.5,-281.5 8.5,-275.5 14.5,-275.5 14.5,-275.5 44.5,-275.5 44.5,-275.5 50.5,-275.5 56.5,-281.5 56.5,-287.5 56.5,-287.5 56.5,-299.5 56.5,-299.5 56.5,-305.5 50.5,-311.5 44.5,-311.5"/>
<text text-anchor="middle" x="29.5" y="-296.5" font-family="Helvetica,sans-Serif" font-size="10.00">op&#45;001</text>
<text text-anchor="middle" x="29.5" y="-285.5" font-family="Helvetica,sans-Serif" font-size="10.00">ones</text>
</a>
</g>
</g>
<!-- array&#45;001 -->
<g id="node2" class="node">
<title>array&#45;001</title>
<g id="a_node2"><a xlink:title="name: array&#45;001&#10;variable: a&#10;shape: (3, 3)&#10;chunks: (2, 2)&#10;dtype: float64&#10;chunk memory: 32 bytes">
<polygon fill="none" stroke="black" points="59,-237 0,-237 0,-201 59,-201 59,-237"/>
<text text-anchor="middle" x="29.5" y="-222" font-family="Helvetica,sans-Serif" font-size="10.00">array&#45;001</text>
<text text-anchor="middle" x="29.5" y="-211" font-family="Helvetica,sans-Serif" font-size="10.00">a</text>
</a>
</g>
</g>
<!-- op&#45;001&#45;&gt;array&#45;001 -->
<g id="edge1" class="edge">
<title>op&#45;001&#45;&gt;array&#45;001</title>
<path fill="none" stroke="black" d="M29.5,-275.32C29.5,-266.92 29.5,-256.62 29.5,-247.19"/>
<polygon fill="black" stroke="black" points="33,-247.06 29.5,-237.06 26,-247.06 33,-247.06"/>
</g>
<!-- op&#45;005 -->
<g id="node9" class="node">
<title>op&#45;005</title>
<g id="a_node9"><a xlink:title="name: op&#45;005&#10;op: blockwise&#10;projected memory: 100.0 MB&#10;tasks: 4&#10;num input blocks: (1, 1)&#10;calls: &lt;module&gt; &#45;&gt; add &#45;&gt; elemwise &#45;&gt; blockwise&#10;line: 1 in &lt;module&gt;">
<path fill="#dcbeff" stroke="black" d="M82.5,-165C82.5,-165 52.5,-165 52.5,-165 46.5,-165 40.5,-159 40.5,-153 40.5,-153 40.5,-136 40.5,-136 40.5,-130 46.5,-124 52.5,-124 52.5,-124 82.5,-124 82.5,-124 88.5,-124 94.5,-130 94.5,-136 94.5,-136 94.5,-153 94.5,-153 94.5,-159 88.5,-165 82.5,-165"/>
<text text-anchor="middle" x="67.5" y="-153" font-family="Helvetica,sans-Serif" font-size="10.00">op&#45;005</text>
<text text-anchor="middle" x="67.5" y="-142" font-family="Helvetica,sans-Serif" font-size="10.00">add</text>
<text text-anchor="middle" x="67.5" y="-131" font-family="Helvetica,sans-Serif" font-size="10.00">tasks: 4</text>
</a>
</g>
</g>
<!-- array&#45;001&#45;&gt;op&#45;005 -->
<g id="edge2" class="edge">
<title>array&#45;001&#45;&gt;op&#45;005</title>
<path fill="none" stroke="black" d="M38.51,-200.82C42.68,-192.86 47.74,-183.19 52.47,-174.18"/>
<polygon fill="black" stroke="black" points="55.67,-175.6 57.22,-165.12 49.47,-172.35 55.67,-175.6"/>
</g>
<!-- op&#45;002 -->
<g id="node3" class="node">
<title>op&#45;002</title>
<g id="a_node3"><a xlink:title="name: op&#45;002&#10;op: full&#10;calls: &lt;module&gt; &#45;&gt; ones &#45;&gt; full&#10;line: 1 in &lt;module&gt;">
<path fill="none" stroke="black" d="M83.5,-458C83.5,-458 53.5,-458 53.5,-458 47.5,-458 41.5,-452 41.5,-446 41.5,-446 41.5,-434 41.5,-434 41.5,-428 47.5,-422 53.5,-422 53.5,-422 83.5,-422 83.5,-422 89.5,-422 95.5,-428 95.5,-434 95.5,-434 95.5,-446 95.5,-446 95.5,-452 89.5,-458 83.5,-458"/>
<text text-anchor="middle" x="68.5" y="-443" font-family="Helvetica,sans-Serif" font-size="10.00">op&#45;002</text>
<text text-anchor="middle" x="68.5" y="-432" font-family="Helvetica,sans-Serif" font-size="10.00">ones</text>
</a>
</g>
</g>
<!-- array&#45;002 -->
<g id="node4" class="node">
<title>array&#45;002</title>
<g id="a_node4"><a xlink:title="name: array&#45;002&#10;variable: b&#10;shape: (3, 3)&#10;chunks: (2, 2)&#10;dtype: float64&#10;chunk memory: 32 bytes">
<polygon fill="none" stroke="black" points="98,-386 39,-386 39,-350 98,-350 98,-386"/>
<text text-anchor="middle" x="68.5" y="-371" font-family="Helvetica,sans-Serif" font-size="10.00">array&#45;002</text>
<text text-anchor="middle" x="68.5" y="-360" font-family="Helvetica,sans-Serif" font-size="10.00">b</text>
</a>
</g>
</g>
<!-- op&#45;002&#45;&gt;array&#45;002 -->
<g id="edge3" class="edge">
<title>op&#45;002&#45;&gt;array&#45;002</title>
<path fill="none" stroke="black" d="M68.5,-421.7C68.5,-413.98 68.5,-404.71 68.5,-396.11"/>
<polygon fill="black" stroke="black" points="72,-396.1 68.5,-386.1 65,-396.1 72,-396.1"/>
</g>
<!-- op&#45;004 -->
<g id="node7" class="node">
<title>op&#45;004</title>
<g id="a_node7"><a xlink:title="name: op&#45;004&#10;op: blockwise&#10;projected memory: 100.0 MB&#10;tasks: 4&#10;num input blocks: (1, 1)&#10;calls: &lt;module&gt; &#45;&gt; add &#45;&gt; elemwise &#45;&gt; blockwise&#10;line: 1 in &lt;module&gt;">
<path fill="#dcbeff" stroke="black" d="M121.5,-314C121.5,-314 91.5,-314 91.5,-314 85.5,-314 79.5,-308 79.5,-302 79.5,-302 79.5,-285 79.5,-285 79.5,-279 85.5,-273 91.5,-273 91.5,-273 121.5,-273 121.5,-273 127.5,-273 133.5,-279 133.5,-285 133.5,-285 133.5,-302 133.5,-302 133.5,-308 127.5,-314 121.5,-314"/>
<text text-anchor="middle" x="106.5" y="-302" font-family="Helvetica,sans-Serif" font-size="10.00">op&#45;004</text>
<text text-anchor="middle" x="106.5" y="-291" font-family="Helvetica,sans-Serif" font-size="10.00">add</text>
<text text-anchor="middle" x="106.5" y="-280" font-family="Helvetica,sans-Serif" font-size="10.00">tasks: 4</text>
</a>
</g>
</g>
<!-- array&#45;002&#45;&gt;op&#45;004 -->
<g id="edge4" class="edge">
<title>array&#45;002&#45;&gt;op&#45;004</title>
<path fill="none" stroke="black" d="M77.51,-349.82C81.68,-341.86 86.74,-332.19 91.47,-323.18"/>
<polygon fill="black" stroke="black" points="94.67,-324.6 96.22,-314.12 88.47,-321.35 94.67,-324.6"/>
</g>
<!-- op&#45;003 -->
<g id="node5" class="node">
<title>op&#45;003</title>
<g id="a_node5"><a xlink:title="name: op&#45;003&#10;op: full&#10;calls: &lt;module&gt; &#45;&gt; ones &#45;&gt; full&#10;line: 1 in &lt;module&gt;">
<path fill="none" stroke="black" d="M160.5,-458C160.5,-458 130.5,-458 130.5,-458 124.5,-458 118.5,-452 118.5,-446 118.5,-446 118.5,-434 118.5,-434 118.5,-428 124.5,-422 130.5,-422 130.5,-422 160.5,-422 160.5,-422 166.5,-422 172.5,-428 172.5,-434 172.5,-434 172.5,-446 172.5,-446 172.5,-452 166.5,-458 160.5,-458"/>
<text text-anchor="middle" x="145.5" y="-443" font-family="Helvetica,sans-Serif" font-size="10.00">op&#45;003</text>
<text text-anchor="middle" x="145.5" y="-432" font-family="Helvetica,sans-Serif" font-size="10.00">ones</text>
</a>
</g>
</g>
<!-- array&#45;003 -->
<g id="node6" class="node">
<title>array&#45;003</title>
<g id="a_node6"><a xlink:title="name: array&#45;003&#10;variable: c&#10;shape: (3, 3)&#10;chunks: (2, 2)&#10;dtype: float64&#10;chunk memory: 32 bytes">
<polygon fill="none" stroke="black" points="175,-386 116,-386 116,-350 175,-350 175,-386"/>
<text text-anchor="middle" x="145.5" y="-371" font-family="Helvetica,sans-Serif" font-size="10.00">array&#45;003</text>
<text text-anchor="middle" x="145.5" y="-360" font-family="Helvetica,sans-Serif" font-size="10.00">c</text>
</a>
</g>
</g>
<!-- op&#45;003&#45;&gt;array&#45;003 -->
<g id="edge5" class="edge">
<title>op&#45;003&#45;&gt;array&#45;003</title>
<path fill="none" stroke="black" d="M145.5,-421.7C145.5,-413.98 145.5,-404.71 145.5,-396.11"/>
<polygon fill="black" stroke="black" points="149,-396.1 145.5,-386.1 142,-396.1 149,-396.1"/>
</g>
<!-- array&#45;003&#45;&gt;op&#45;004 -->
<g id="edge6" class="edge">
<title>array&#45;003&#45;&gt;op&#45;004</title>
<path fill="none" stroke="black" d="M136.26,-349.82C131.98,-341.86 126.78,-332.19 121.93,-323.18"/>
<polygon fill="black" stroke="black" points="124.87,-321.27 117.05,-314.12 118.71,-324.58 124.87,-321.27"/>
</g>
<!-- array&#45;004 -->
<g id="node8" class="node">
<title>array&#45;004</title>
<g id="a_node8"><a xlink:title="name: array&#45;004&#10;variable: d&#10;shape: (3, 3)&#10;chunks: (2, 2)&#10;dtype: float64&#10;chunk memory: 32 bytes&#10;nbytes: 72 bytes">
<polygon fill="#ffd8b1" stroke="black" points="136,-237 77,-237 77,-201 136,-201 136,-237"/>
<text text-anchor="middle" x="106.5" y="-222" font-family="Helvetica,sans-Serif" font-size="10.00">array&#45;004</text>
<text text-anchor="middle" x="106.5" y="-211" font-family="Helvetica,sans-Serif" font-size="10.00">d</text>
</a>
</g>
</g>
<!-- op&#45;004&#45;&gt;array&#45;004 -->
<g id="edge7" class="edge">
<title>op&#45;004&#45;&gt;array&#45;004</title>
<path fill="none" stroke="black" d="M106.5,-272.69C106.5,-264.91 106.5,-255.84 106.5,-247.45"/>
<polygon fill="black" stroke="black" points="110,-247.32 106.5,-237.32 103,-247.32 110,-247.32"/>
</g>
<!-- array&#45;004&#45;&gt;op&#45;005 -->
<g id="edge8" class="edge">
<title>array&#45;004&#45;&gt;op&#45;005</title>
<path fill="none" stroke="black" d="M97.26,-200.82C92.98,-192.86 87.78,-183.19 82.93,-174.18"/>
<polygon fill="black" stroke="black" points="85.87,-172.27 78.05,-165.12 79.71,-175.58 85.87,-172.27"/>
</g>
<!-- array&#45;005 -->
<g id="node10" class="node">
<title>array&#45;005</title>
<g id="a_node10"><a xlink:title="name: array&#45;005&#10;variable: e&#10;shape: (3, 3)&#10;chunks: (2, 2)&#10;dtype: float64&#10;chunk memory: 32 bytes&#10;nbytes: 72 bytes">
<polygon fill="#ffd8b1" stroke="black" points="97,-88 38,-88 38,-52 97,-52 97,-88"/>
<text text-anchor="middle" x="67.5" y="-73" font-family="Helvetica,sans-Serif" font-size="10.00">array&#45;005</text>
<text text-anchor="middle" x="67.5" y="-62" font-family="Helvetica,sans-Serif" font-size="10.00">e</text>
</a>
</g>
</g>
<!-- op&#45;005&#45;&gt;array&#45;005 -->
<g id="edge9" class="edge">
<title>op&#45;005&#45;&gt;array&#45;005</title>
<path fill="none" stroke="black" d="M67.5,-123.69C67.5,-115.91 67.5,-106.84 67.5,-98.45"/>
<polygon fill="black" stroke="black" points="71,-98.32 67.5,-88.32 64,-98.32 71,-98.32"/>
</g>
<!-- create&#45;arrays -->
<g id="node11" class="node">
<title>create&#45;arrays</title>
<g id="a_node11"><a xlink:title="name: create&#45;arrays&#10;op: create&#45;arrays&#10;projected memory: 100.0 MB&#10;tasks: 2">
<path fill="none" stroke="black" d="M254,-458C254,-458 203,-458 203,-458 197,-458 191,-452 191,-446 191,-446 191,-434 191,-434 191,-428 197,-422 203,-422 203,-422 254,-422 254,-422 260,-422 266,-428 266,-434 266,-434 266,-446 266,-446 266,-452 260,-458 254,-458"/>
<text text-anchor="middle" x="228.5" y="-443" font-family="Helvetica,sans-Serif" font-size="10.00">create&#45;arrays</text>
<text text-anchor="middle" x="228.5" y="-432" font-family="Helvetica,sans-Serif" font-size="10.00">tasks: 2</text>
</a>
</g>
</g>
<!-- arrays -->
<g id="node12" class="node">
<title>arrays</title>
<g id="a_node12"><a xlink:title="name: arrays" target="None">
<polygon fill="none" stroke="black" points="255.5,-386 201.5,-386 201.5,-350 255.5,-350 255.5,-386"/>
<text text-anchor="middle" x="228.5" y="-365.5" font-family="Helvetica,sans-Serif" font-size="10.00">arrays</text>
</a>
</g>
</g>
<!-- create&#45;arrays&#45;&gt;arrays -->
<g id="edge10" class="edge">
<title>create&#45;arrays&#45;&gt;arrays</title>
<path fill="none" stroke="black" d="M228.5,-421.7C228.5,-413.98 228.5,-404.71 228.5,-396.11"/>
<polygon fill="black" stroke="black" points="232,-396.1 228.5,-386.1 225,-396.1 232,-396.1"/>
</g>
</g>
</svg>
