<svg version="1.1" viewBox="0.0 0.0 919.3674540682415 248.71391076115486" fill="none" stroke="none" stroke-linecap="square" stroke-miterlimit="10" xmlns:xlink="http://www.w3.org/1999/xlink" xmlns="http://www.w3.org/2000/svg"><clipPath id="p.0"><path d="m0 0l919.36743 0l0 248.71391l-919.36743 0l0 -248.71391z" clip-rule="nonzero"/></clipPath><g clip-path="url(#p.0)"><path fill="#000000" fill-opacity="0.0" d="m0 0l919.36743 0l0 248.71391l-919.36743 0z" fill-rule="evenodd"/><path fill="#d9d2e9" d="m52.1105 58.577164l14.173229 0l0 42.803154l-14.173229 0z" fill-rule="evenodd"/><path fill="#8e7cc3" d="m8.708661 58.577164l42.866142 0l0 42.803154l-42.866142 0z" fill-rule="evenodd"/><path fill="#d9d2e9" d="m66.59361 58.577164l28.377953 0l0 42.803154l-28.377953 0z" fill-rule="evenodd"/><path fill="#d9d2e9" d="m66.59361 101.95198l28.377953 0l0 42.803146l-28.377953 0z" fill-rule="evenodd"/><path fill="#d9d2e9" d="m66.59361 145.32677l28.377953 0l0 42.803146l-28.377953 0z" fill-rule="evenodd"/><path fill="#8e7cc3" d="m227.48557 58.23784l42.86615 0l0 129.5748l-42.86615 0z" fill-rule="evenodd"/><path stroke="#ffffff" stroke-width="1.0" stroke-linejoin="round" stroke-linecap="butt" d="m227.48557 58.23784l42.86615 0l0 129.5748l-42.86615 0z" fill-rule="evenodd"/><path fill="#000000" fill-opacity="0.0" d="m0 0l288.0 0l0 45.259842l-288.0 0z" fill-rule="evenodd"/><path fill="#000000" d="m14.953125 20.026875l0 1.328125q1.34375 -0.96875 2.125 -1.28125q0.78125 -0.328125 1.453125 -0.328125q1.046875 0 2.015625 0.765625q0.671875 0.515625 0.671875 1.0625q0 0.453125 -0.328125 0.78125q-0.3125 0.3125 -0.765625 0.3125q-0.390625 0 -0.828125 -0.390625q-0.4375 -0.40625 -0.78125 -0.40625q-0.4375 0 -1.328125 0.5625q-0.890625 0.5625 -2.234375 1.6875l0 3.21875l3.046875 0q0.765625 0 1.09375 0.296875q0.328125 0.296875 0.328125 0.78125q0 0.46875 -0.328125 0.765625q-0.328125 0.296875 -1.09375 0.296875l-6.453125 0q-0.765625 0 -1.09375 -0.296875q-0.328125 -0.296875 -0.328125 -0.78125q0 -0.46875 0.328125 -0.765625q0.328125 -0.296875 1.09375 -0.296875l1.28125 0l0 -5.1875l-0.78125 0q-0.765625 0 -1.09375 -0.296875q-0.328125 -0.296875 -0.328125 -0.765625q0 -0.46875 0.328125 -0.765625q0.328125 -0.296875 1.09375 -0.296875l2.90625 0zm18.59584 5.8125l-8.75 0q0.328125 0.828125 1.171875 1.34375q0.859375 0.5 2.3125 0.5q1.1875 0 3.15625 -0.5q0.8125 -0.21875 1.109375 -0.21875q0.4375 0 0.71875 0.3125q0.296875 0.296875 0.296875 0.75q0 0.421875 -0.3125 0.71875q-0.421875 0.375 -2.03125 0.734375q-1.609375 0.34375 -3.09375 0.34375q-2.5625 0 -4.109375 -1.4375q-1.53125 -1.453125 -1.53125 -3.578125q0 -2.25 1.65625 -3.65625q1.671875 -1.40625 3.828125 -1.40625q1.3125 0 2.390625 0.453125q1.09375 0.453125 1.625 0.984375q0.75 0.78125 1.234375 1.90625q0.328125 0.796875 0.328125 1.84375l0 0.90625zm-2.359375 -2.140625q-0.484375 -0.921875 -1.28125 -1.375q-0.78125 -0.453125 -1.875 -0.453125q-1.09375 0 -1.890625 0.453125q-0.78125 0.453125 -1.28125 1.375l6.328125 0zm13.142715 -3.296875q0.375 -0.359375 0.78125 -0.359375q0.453125 0 0.75 0.328125q0.296875 0.328125 0.296875 1.09375l0 1.375q0 0.765625 -0.296875 1.09375q-0.296875 0.3125 -0.765625 0.3125q-0.4375 0 -0.734375 -0.25q-0.21875 -0.1875 -0.34375 -0.765625q-0.125 -0.578125 -0.609375 -0.859375q-0.84375 -0.5 -2.15625 -0.5q-1.515625 0 -2.421875 0.890625q-0.90625 0.890625 -0.90625 2.234375q0 1.25 0.875 1.984375q0.875 0.71875 2.90625 0.71875q1.328125 0 2.171875 -0.265625q0.5 -0.171875 0.9375 -0.5625q0.453125 -0.40625 0.8125 -0.40625q0.4375 0 0.75 0.328125q0.328125 0.3125 0.328125 0.75q0 0.703125 -0.96875 1.34375q-1.4375 0.953125 -4.203125 0.953125q-2.484375 0 -3.875 -1.03125q-1.875 -1.390625 -1.875 -3.796875q0 -2.28125 1.515625 -3.765625q1.53125 -1.5 3.96875 -1.5q0.890625 0 1.640625 0.171875q0.765625 0.15625 1.421875 0.484375zm7.2677155 -4.421875l0 4.546875q0.65625 -0.40625 1.34375 -0.59375q0.6875 -0.1875 1.375 -0.1875q1.109375 0 1.96875 0.375q0.875 0.375 1.4375 1.1875q0.5625 0.796875 0.5625 2.03125l0 4.0q0.8125 0 1.0625 0.15625q0.5 0.328125 0.5 0.921875q0 0.46875 -0.328125 0.765625q-0.3125 0.296875 -1.09375 0.296875l-2.421875 0q-0.765625 0 -1.09375 -0.296875q-0.328125 -0.296875 -0.328125 -0.78125q0 -0.578125 0.5 -0.90625q0.265625 -0.15625 1.0625 -0.15625l0 -3.859375q0 -0.828125 -0.375 -1.15625q-0.484375 -0.453125 -1.453125 -0.453125q-0.703125 0 -1.25 0.28125q-0.546875 0.28125 -1.46875 1.1875l0 4.0q0.8125 0 1.0625 0.15625q0.5 0.328125 0.5 0.921875q0 0.46875 -0.328125 0.765625q-0.328125 0.296875 -1.09375 0.296875l-2.421875 0q-0.78125 0 -1.109375 -0.296875q-0.328125 -0.296875 -0.328125 -0.78125q0 -0.578125 0.515625 -0.90625q0.25 -0.15625 1.0625 -0.15625l0 -9.234375l-0.359375 0q-0.78125 0 -1.109375 -0.296875q-0.328125 -0.296875 -0.328125 -0.765625q0 -0.46875 0.328125 -0.765625q0.328125 -0.296875 1.109375 -0.296875l2.5 0zm19.53334 4.046875l0 7.3125q0.671875 0 0.984375 0.3125q0.328125 0.296875 0.328125 0.765625q0 0.46875 -0.328125 0.765625q-0.328125 0.296875 -1.09375 0.296875l-2.03125 0l0 -0.484375q-0.90625 0.40625 -1.75 0.609375q-0.828125 0.21875 -1.578125 0.21875q-1.046875 0 -1.828125 -0.4375q-0.765625 -0.453125 -1.21875 -1.234375q-0.3125 -0.5625 -0.3125 -1.40625l0 -4.59375l-0.375 0q-0.765625 0 -1.09375 -0.296875q-0.328125 -0.296875 -0.328125 -0.765625q0 -0.46875 0.328125 -0.765625q0.328125 -0.296875 1.09375 -0.296875l2.5 0l0 6.34375q0 0.6875 0.328125 1.0q0.328125 0.3125 1.015625 0.3125q0.640625 0 1.375 -0.25q0.75 -0.25 1.84375 -0.921875l0 -4.359375l-0.765625 0q-0.765625 0 -1.09375 -0.296875q-0.328125 -0.296875 -0.328125 -0.765625q0 -0.46875 0.328125 -0.765625q0.328125 -0.296875 1.09375 -0.296875l2.90625 0zm6.0958405 0l0 0.71875q0.59375 -0.5 1.296875 -0.75q0.703125 -0.25 1.515625 -0.25q1.90625 0 3.0 1.171875q0.875 0.9375 0.875 2.453125l0 3.96875q0.671875 0 1.0 0.296875q0.328125 0.296875 0.328125 0.78125q0 0.46875 -0.328125 0.765625q-0.328125 0.296875 -1.109375 0.296875l-1.921875 0q-0.765625 0 -1.09375 -0.296875q-0.328125 -0.296875 -0.328125 -0.78125q0 -0.46875 0.3125 -0.765625q0.328125 -0.296875 1.015625 -0.296875l0 -4.03125q0 -0.6875 -0.375 -1.015625q-0.5 -0.421875 -1.46875 -0.421875q-0.75 0 -1.3125 0.296875q-0.546875 0.28125 -1.40625 1.203125l0 3.96875q0.828125 0 1.0625 0.15625q0.515625 0.3125 0.515625 0.921875q0 0.46875 -0.328125 0.765625q-0.328125 0.296875 -1.09375 0.296875l-2.4375 0q-0.765625 0 -1.09375 -0.296875q-0.328125 -0.296875 -0.328125 -0.78125q0 -0.578125 0.5 -0.90625q0.25 -0.15625 1.078125 -0.15625l0 -5.1875q-0.6875 0 -1.015625 -0.296875q-0.3125 -0.296875 -0.3125 -0.765625q0 -0.46875 0.328125 -0.765625q0.328125 -0.296875 1.09375 -0.296875l2.03125 0zm13.205215 5.90625l0 3.546875l-2.5 0q-0.765625 0 -1.09375 -0.296875q-0.328125 -0.296875 -0.328125 -0.78125q0 -0.46875 0.328125 -0.765625q0.34375 -0.296875 1.09375 -0.296875l0.375 0l0 -9.234375l-0.375 0q-0.765625 0 -1.09375 -0.296875q-0.328125 -0.296875 -0.328125 -0.765625q0 -0.46875 0.328125 -0.765625q0.328125 -0.296875 1.09375 -0.296875l2.5 0l0 7.1875l1.671875 -1.34375q-0.265625 -0.453125 -0.265625 -0.734375q0 -0.46875 0.328125 -0.765625q0.328125 -0.296875 1.09375 -0.296875l2.4375 0q0.765625 0 1.09375 0.296875q0.328125 0.296875 0.328125 0.765625q0 0.46875 -0.328125 0.765625q-0.328125 0.296875 -1.09375 0.296875l-0.59375 0l-2.59375 2.109375l3.484375 3.078125l0.625 0q0.765625 0 1.09375 0.296875q0.328125 0.296875 0.328125 0.78125q0 0.46875 -0.328125 0.765625q-0.328125 0.296875 -1.09375 0.296875l-2.453125 0q-0.765625 0 -1.09375 -0.296875q-0.328125 -0.296875 -0.328125 -0.78125q0 -0.40625 0.34375 -0.796875l-2.25 -2.0l-0.40625 0.328125z" fill-rule="nonzero"/><path fill="#d9d2e9" d="m270.88852 57.7769l42.86612 0l0 129.5748l-42.86612 0z" fill-rule="evenodd"/><path stroke="#ffffff" stroke-width="1.0" stroke-linejoin="round" stroke-linecap="butt" d="m270.88852 57.7769l42.86612 0l0 129.5748l-42.86612 0z" fill-rule="evenodd"/><path fill="#8e7cc3" d="m314.29144 58.23784l28.37796 0l0 129.5748l-28.37796 0z" fill-rule="evenodd"/><path stroke="#ffffff" stroke-width="1.0" stroke-linejoin="round" stroke-linecap="butt" d="m314.29144 58.23784l28.37796 0l0 129.5748l-28.37796 0z" fill-rule="evenodd"/><path fill="#d9d2e9" d="m52.1105 101.95198l14.173229 0l0 42.803146l-14.173229 0z" fill-rule="evenodd"/><path fill="#8e7cc3" d="m8.708661 101.95198l42.866142 0l0 42.803146l-42.866142 0z" fill-rule="evenodd"/><path fill="#d9d2e9" d="m52.1105 145.32677l14.173229 0l0 42.803146l-14.173229 0z" fill-rule="evenodd"/><path fill="#8e7cc3" d="m8.708661 145.32677l42.866142 0l0 42.803146l-42.866142 0z" fill-rule="evenodd"/><path fill="#000000" fill-opacity="0.0" d="m8.981627 101.95198l57.07086 0l0 42.803146l-57.07086 0z" fill-rule="evenodd"/><path stroke="#ffffff" stroke-width="1.0" stroke-linejoin="round" stroke-linecap="butt" d="m8.981627 101.95198l57.07086 0l0 42.803146l-57.07086 0z" fill-rule="evenodd"/><path fill="#000000" fill-opacity="0.0" d="m8.981627 145.32677l57.07086 0l0 42.803146l-57.07086 0z" fill-rule="evenodd"/><path stroke="#ffffff" stroke-width="1.0" stroke-linejoin="round" stroke-linecap="butt" d="m8.981627 145.32677l57.07086 0l0 42.803146l-57.07086 0z" fill-rule="evenodd"/><path fill="#000000" fill-opacity="0.0" d="m8.981627 58.579403l57.07086 0l0 42.80315l-57.07086 0z" fill-rule="evenodd"/><path stroke="#ffffff" stroke-width="1.0" stroke-linejoin="round" stroke-linecap="butt" d="m8.981627 58.579403l57.07086 0l0 42.80315l-57.07086 0z" fill-rule="evenodd"/><path fill="#8e7cc3" d="m95.51238 59.00626l28.377953 0l0 42.80315l-28.377953 0z" fill-rule="evenodd"/><path fill="#000000" fill-opacity="0.0" d="m66.59361 57.46194l57.07087 0l0 42.80315l-57.07087 0z" fill-rule="evenodd"/><path stroke="#ffffff" stroke-width="1.0" stroke-linejoin="round" stroke-linecap="butt" d="m66.59361 57.46194l57.07087 0l0 42.80315l-57.07087 0z" fill-rule="evenodd"/><path fill="#8e7cc3" d="m95.51238 101.94997l28.377953 0l0 42.803146l-28.377953 0z" fill-rule="evenodd"/><path fill="#8e7cc3" d="m95.51238 145.32478l28.377953 0l0 42.80316l-28.377953 0z" fill-rule="evenodd"/><path fill="#000000" fill-opacity="0.0" d="m66.59361 101.394356l57.07087 0l0 42.803154l-57.07087 0z" fill-rule="evenodd"/><path stroke="#ffffff" stroke-width="1.0" stroke-linejoin="round" stroke-linecap="butt" d="m66.59361 101.394356l57.07087 0l0 42.803154l-57.07087 0z" fill-rule="evenodd"/><path fill="#000000" fill-opacity="0.0" d="m66.59361 145.32677l57.07087 0l0 42.803146l-57.07087 0z" fill-rule="evenodd"/><path stroke="#ffffff" stroke-width="1.0" stroke-linejoin="round" stroke-linecap="butt" d="m66.59361 145.32677l57.07087 0l0 42.803146l-57.07087 0z" fill-rule="evenodd"/><path fill="#000000" fill-opacity="0.0" d="m51.574802 79.97874c43.97726 0 65.966324 10.763786 87.95451 21.527565c21.98819 10.763779 43.97551 21.527557 87.951004 21.527557" fill-rule="evenodd"/><path stroke="#000000" stroke-width="1.0" stroke-linejoin="round" stroke-linecap="butt" d="m51.574802 79.978745c43.97726 0 65.966324 10.763771 87.95453 21.52755c10.994095 5.3818893 21.98796 10.763779 35.730255 14.800201c6.8711395 2.0182037 14.429398 3.7000427 23.018326 4.8773346c4.294449 0.58864594 8.846603 1.0511475 13.699356 1.3664932c2.426361 0.15766907 4.927902 0.27855682 7.509964 0.36001587c0.6455078 0.020370483 1.296051 0.038276672 1.9517059 0.05367279l0.041763306 8.9263916E-4" fill-rule="evenodd"/><path fill="#000000" stroke="#000000" stroke-width="1.0" stroke-linecap="butt" d="m221.46173 124.61653l4.556778 -1.5994797l-4.518814 -1.7037659z" fill-rule="evenodd"/><path fill="#000000" fill-opacity="0.0" d="m51.574802 123.35355c43.97726 0 65.966324 -0.07873535 87.95451 -0.15747833c21.98819 -0.07873535 43.97551 -0.15747833 87.951004 -0.15747833" fill-rule="evenodd"/><path stroke="#000000" stroke-width="1.0" stroke-linejoin="round" stroke-linecap="butt" d="m51.574802 123.35356c43.97726 0 65.966324 -0.07874298 87.95453 -0.15747833c10.994095 -0.039375305 21.98796 -0.07874298 35.730255 -0.10826874c6.8711395 -0.014762878 14.429398 -0.027069092 23.018326 -0.03568268c4.294449 -0.0043029785 8.846603 -0.0076828003 13.699356 -0.009994507l9.503052 -0.0021591187" fill-rule="evenodd"/><path fill="#000000" stroke="#000000" stroke-width="1.0" stroke-linecap="butt" d="m221.4807 124.6917l4.5377197 -1.652771l-4.5384827 -1.6506958z" fill-rule="evenodd"/><path fill="#000000" fill-opacity="0.0" d="m51.574802 166.72833c43.97726 0 65.966324 -10.929123 87.95451 -21.858261c21.98819 -10.929138 43.97551 -21.858269 87.951004 -21.858269" fill-rule="evenodd"/><path stroke="#000000" stroke-width="1.0" stroke-linejoin="round" stroke-linecap="butt" d="m51.574802 166.72833c43.97726 0 65.966324 -10.929123 87.95453 -21.858261c10.994095 -5.464569 21.98796 -10.929138 35.730255 -15.027557c6.8711395 -2.0492172 14.429398 -3.756897 23.018326 -4.9522705c4.294449 -0.59768677 8.846603 -1.0672989 13.699356 -1.3874893c2.426361 -0.16008759 4.927902 -0.2828369 7.509964 -0.36553955c0.6455078 -0.020683289 1.296051 -0.038864136 1.9517059 -0.054496765l0.041793823 -9.1552734E-4" fill-rule="evenodd"/><path fill="#000000" stroke="#000000" stroke-width="1.0" stroke-linecap="butt" d="m221.5 124.73343l4.518509 -1.7045746l-4.5570526 -1.598671z" fill-rule="evenodd"/><path fill="#000000" fill-opacity="0.0" d="m-12.364829 201.44882l156.12598 0l0 38.771652l-156.12598 0z" fill-rule="evenodd"/><path fill="#000000" d="m15.385667 218.99632q0.296875 -0.265625 0.59375 -0.265625q0.34374905 0 0.56249905 0.25q0.234375 0.234375 0.234375 0.8125l0 1.03125q0 0.578125 -0.234375 0.828125q-0.21875 0.234375 -0.57812405 0.234375q-0.328125 0 -0.546875 -0.1875q-0.171875 -0.140625 -0.265625 -0.578125q-0.09375 -0.4375 -0.453125 -0.640625q-0.625 -0.375 -1.609375 -0.375q-1.140625 0 -1.828125 0.671875q-0.671875 0.65625 -0.671875 1.671875q0 0.9375 0.65625 1.484375q0.65625 0.53125 2.171875 0.53125q1.0 0 1.640625 -0.203125q0.375 -0.125 0.703125 -0.421875q0.34374905 -0.296875 0.60937405 -0.296875q0.328125 0 0.5625 0.25q0.25 0.234375 0.25 0.5625q0 0.53125 -0.734375 1.0q-1.078124 0.71875 -3.156249 0.71875q-1.859375 0 -2.90625 -0.78125q-1.40625 -1.03125 -1.40625 -2.84375q0 -1.703125 1.140625 -2.828125q1.140625 -1.125 2.984375 -1.125q0.65625 0 1.21875 0.125q0.578125 0.125 1.0625 0.375zm5.4609365 -3.328125l0 3.421875q0.5 -0.296875 1.0 -0.4375q0.515625 -0.15625 1.046875 -0.15625q0.828125 0 1.46875 0.28125q0.65625 0.28125 1.078125 0.890625q0.421875 0.609375 0.421875 1.53125l0 3.0q0.609375 0 0.796875 0.125q0.375 0.234375 0.375 0.6875q0 0.34375 -0.25 0.578125q-0.234375 0.21875 -0.8125 0.21875l-1.828125 0q-0.5625 0 -0.8125 -0.21875q-0.25 -0.234375 -0.25 -0.59375q0 -0.4375 0.375 -0.671875q0.203125 -0.125 0.796875 -0.125l0 -2.890625q0 -0.625 -0.28125 -0.875q-0.359375 -0.328125 -1.078125 -0.328125q-0.53125 0 -0.953125 0.203125q-0.40625 0.203125 -1.09375 0.890625l0 3.0q0.609375 0 0.796875 0.125q0.375 0.234375 0.375 0.6875q0 0.34375 -0.25 0.578125q-0.234375 0.21875 -0.8125 0.21875l-1.828125 0q-0.578125 0 -0.828125 -0.21875q-0.234375 -0.234375 -0.234375 -0.59375q0 -0.4375 0.375 -0.671875q0.1875 -0.125 0.796875 -0.125l0 -6.921875l-0.265625 0q-0.578125 0 -0.828125 -0.21875q-0.25 -0.234375 -0.25 -0.59375q0 -0.34375 0.25 -0.5625q0.25 -0.234375 0.828125 -0.234375l1.875 0zm14.6484375 3.046875l0 5.484375q0.515625 0 0.75 0.234375q0.25 0.21875 0.25 0.578125q0 0.34375 -0.25 0.578125q-0.25 0.21875 -0.828125 0.21875l-1.515625 0l0 -0.375q-0.6875 0.3125 -1.3125 0.46875q-0.625 0.171875 -1.1875 0.171875q-0.796875 0 -1.375 -0.328125q-0.578125 -0.34375 -0.90625 -0.9375q-0.25 -0.421875 -0.25 -1.046875l0 -3.453125l-0.265625 0q-0.578125 0 -0.828125 -0.21875q-0.25 -0.21875 -0.25 -0.578125q0 -0.359375 0.25 -0.578125q0.25 -0.21875 0.828125 -0.21875l1.875 0l0 4.765625q0 0.5 0.234375 0.75q0.25 0.234375 0.765625 0.234375q0.484375 0 1.03125 -0.1875q0.5625 -0.203125 1.390625 -0.703125l0 -3.265625l-0.578125 0q-0.578125 0 -0.828125 -0.21875q-0.25 -0.21875 -0.25 -0.578125q0 -0.359375 0.25 -0.578125q0.25 -0.21875 0.828125 -0.21875l2.171875 0zm4.5859375 0l0 0.53125q0.4375 -0.375 0.953125 -0.5625q0.53125 -0.1875 1.15625 -0.1875q1.421875 0 2.25 0.890625q0.65625 0.703125 0.65625 1.84375l0 2.96875q0.5 0 0.734375 0.234375q0.25 0.21875 0.25 0.578125q0 0.34375 -0.25 0.578125q-0.234375 0.21875 -0.8125 0.21875l-1.453125 0q-0.578125 0 -0.828125 -0.21875q-0.234375 -0.234375 -0.234375 -0.59375q0 -0.34375 0.234375 -0.5625q0.25 -0.234375 0.75 -0.234375l0 -3.015625q0 -0.53125 -0.28125 -0.765625q-0.359375 -0.3125 -1.09375 -0.3125q-0.5625 0 -0.984375 0.21875q-0.40625 0.203125 -1.046875 0.90625l0 2.96875q0.609375 0 0.796875 0.125q0.375 0.234375 0.375 0.6875q0 0.34375 -0.25 0.578125q-0.234375 0.21875 -0.8125 0.21875l-1.828125 0q-0.578125 0 -0.828125 -0.21875q-0.234375 -0.234375 -0.234375 -0.59375q0 -0.4375 0.375 -0.671875q0.1875 -0.125 0.796875 -0.125l0 -3.890625q-0.5 0 -0.75 -0.21875q-0.234375 -0.234375 -0.234375 -0.578125q0 -0.359375 0.234375 -0.578125q0.25 -0.21875 0.828125 -0.21875l1.53125 0zm9.8984375 4.421875l0 2.671875l-1.875 0q-0.578125 0 -0.828125 -0.21875q-0.234375 -0.234375 -0.234375 -0.59375q0 -0.34375 0.25 -0.5625q0.25 -0.234375 0.8125 -0.234375l0.28125 0l0 -6.921875l-0.28125 0q-0.578125 0 -0.828125 -0.21875q-0.234375 -0.234375 -0.234375 -0.59375q0 -0.34375 0.234375 -0.5625q0.25 -0.234375 0.828125 -0.234375l1.875 0l0 5.40625l1.25 -1.015625q-0.1875 -0.328125 -0.1875 -0.546875q0 -0.359375 0.234375 -0.578125q0.25 -0.21875 0.828125 -0.21875l1.828125 0q0.578125 0 0.8125 0.21875q0.25 0.21875 0.25 0.578125q0 0.359375 -0.25 0.578125q-0.234375 0.21875 -0.8125 0.21875l-0.453125 0l-1.9375 1.578125l2.609375 2.3125l0.46875 0q0.578125 0 0.828125 0.234375q0.25 0.21875 0.25 0.578125q0 0.34375 -0.25 0.578125q-0.25 0.21875 -0.828125 0.21875l-1.84375 0q-0.578125 0 -0.828125 -0.21875q-0.234375 -0.234375 -0.234375 -0.59375q0 -0.296875 0.265625 -0.59375l-1.703125 -1.5l-0.296875 0.234375zm12.6484375 -2.546875q-0.390625 -0.25 -0.828125 -0.359375q-0.421875 -0.125 -0.890625 -0.125q-0.921875 0 -1.46875 0.296875q-0.25 0.140625 -0.25 0.296875q0 0.171875 0.328125 0.34375q0.25 0.125 1.125 0.25q1.59375 0.21875 2.21875 0.4375q0.8125 0.28125 1.25 0.859375q0.453125 0.5625 0.453125 1.203125q0 0.859375 -0.75 1.4375q-1.09375 0.84375 -2.828125 0.84375q-0.6875 0 -1.28125 -0.125q-0.59375 -0.125 -1.078125 -0.359375q-0.125 0.09375 -0.265625 0.15625q-0.125 0.046875 -0.265625 0.046875q-0.375 0 -0.59375 -0.234375q-0.21875 -0.25 -0.21875 -0.828125l0 -0.546875q0 -0.578125 0.21875 -0.8125q0.21875 -0.25 0.578125 -0.25q0.296875 0 0.484375 0.15625q0.203125 0.15625 0.3125 0.546875q0.359375 0.3125 0.875 0.484375q0.515625 0.15625 1.1875 0.15625q1.109375 0 1.71875 -0.34375q0.28125 -0.171875 0.28125 -0.359375q0 -0.3125 -0.40625 -0.515625q-0.421875 -0.203125 -1.71875 -0.34375q-1.921875 -0.203125 -2.578125 -0.78125q-0.640625 -0.578125 -0.640625 -1.40625q0 -0.859375 0.71875 -1.4375q0.984375 -0.78125 2.578125 -0.78125q0.5625 0 1.0625 0.109375q0.515625 0.109375 0.984375 0.328125q0.15625 -0.109375 0.28125 -0.15625q0.125 -0.0625 0.234375 -0.0625q0.328125 0 0.546875 0.25q0.21875 0.234375 0.21875 0.8125l0 0.390625q0 0.53125 -0.125 0.71875q-0.25 0.359375 -0.671875 0.359375q-0.296875 0 -0.515625 -0.171875q-0.21875 -0.1875 -0.28125 -0.484375zm16.90625 1.328125q0 -1.375 0.453125 -2.765625q0.328125 -1.03125 1.03125 -2.296875q0.515625 -0.90625 0.75 -1.109375q0.25 -0.21875 0.546875 -0.21875q0.34375 0 0.578125 0.234375q0.234375 0.234375 0.234375 0.5625q0 0.234375 -0.1875 0.546875q-0.84375 1.375 -1.234375 2.59375q-0.390625 1.203125 -0.390625 2.453125q0 1.25 0.390625 2.46875q0.390625 1.203125 1.234375 2.59375q0.1875 0.296875 0.1875 0.53125q0 0.328125 -0.234375 0.5625q-0.234375 0.234375 -0.578125 0.234375q-0.296875 0 -0.515625 -0.1875q-0.3125 -0.265625 -0.828125 -1.21875q-0.734375 -1.390625 -1.015625 -2.296875q-0.421875 -1.375 -0.421875 -2.6875zm12.4609375 -1.46875q0.703125 0.484375 1.046875 1.125q0.359375 0.640625 0.359375 1.421875q0 0.859375 -0.46875 1.578125q-0.453125 0.71875 -1.34375 1.09375q-0.875 0.375 -2.3125 0.375q-1.859375 0 -2.796875 -0.578125q-0.515625 -0.328125 -0.515625 -0.78125q0 -0.34375 0.21875 -0.578125q0.234375 -0.25 0.5625 -0.25q0.234375 0 0.46875 0.15625q0.34375 0.234375 0.65625 0.3125q0.46875 0.109375 1.28125 0.109375q1.40625 0 2.03125 -0.359375q0.625 -0.359375 0.625 -1.03125q0 -0.484375 -0.375 -0.9375q-0.359375 -0.46875 -0.96875 -0.71875q-0.34375 -0.140625 -1.1875 -0.1875q-0.390625 -0.03125 -0.609375 -0.25q-0.21875 -0.21875 -0.21875 -0.546875q0 -0.34375 0.234375 -0.578125q0.234375 -0.234375 0.59375 -0.234375q0.796875 0 0.859375 -0.015625q0.3125 -0.03125 0.625 -0.203125q0.3125 -0.171875 0.5 -0.46875q0.1875 -0.296875 0.1875 -0.625q0 -0.5 -0.453125 -0.875q-0.4375 -0.375 -1.34375 -0.375q-1.15625 0 -1.765625 0.671875q-0.171875 0.203125 -0.28125 0.25q-0.171875 0.09375 -0.375 0.09375q-0.328125 0 -0.5625 -0.234375q-0.234375 -0.234375 -0.234375 -0.578125q0 -0.546875 0.71875 -1.046875q1.046875 -0.75 2.625 -0.75q1.484375 0 2.375 0.84375q0.90625 0.84375 0.90625 2.03125q0 0.625 -0.265625 1.15625q-0.265625 0.53125 -0.796875 0.984375zm6.9296875 3.203125l2.140625 0l-2.296875 4.34375q-0.203125 0.390625 -0.515625 0.390625q-0.203125 0 -0.34375 -0.140625q-0.140625 -0.125 -0.140625 -0.296875q0 -0.109375 0.046875 -0.3125l1.109375 -3.984375zm12.3359375 -7.953125l0 6.265625q0.5 0 0.734375 0.21875q0.25 0.21875 0.25 0.578125q0 0.34375 -0.25 0.578125q-0.234375 0.21875 -0.734375 0.21875l0 0.640625q0.5 0 0.734375 0.234375q0.25 0.21875 0.25 0.578125q0 0.34375 -0.25 0.578125q-0.234375 0.21875 -0.8125 0.21875l-2.15625 0q-0.578125 0 -0.828125 -0.21875q-0.234375 -0.234375 -0.234375 -0.59375q0 -0.34375 0.234375 -0.5625q0.25 -0.234375 0.828125 -0.234375l0.625 0l0 -0.640625l-4.34375 0l0 -1.328125l3.828125 -6.53125l2.125 0zm-1.609375 6.265625l0 -3.9375l-2.3125 3.9375l2.3125 0zm9.539055 -0.046875q0 1.359375 -0.453125 2.765625q-0.328125 1.03125 -1.03125 2.296875q-0.515625 0.90625 -0.765625 1.109375q-0.234375 0.21875 -0.53125 0.21875q-0.34375 0 -0.578125 -0.234375q-0.23436737 -0.234375 -0.23436737 -0.5625q0 -0.234375 0.18749237 -0.53125q0.84375 -1.390625 1.234375 -2.59375q0.390625 -1.21875 0.390625 -2.46875q0 -1.25 -0.390625 -2.453125q-0.390625 -1.21875 -1.234375 -2.59375q-0.18749237 -0.3125 -0.18749237 -0.546875q0 -0.328125 0.23436737 -0.5625q0.234375 -0.234375 0.578125 -0.234375q0.296875 0 0.515625 0.1875q0.3125 0.265625 0.828125 1.234375q0.734375 1.375 1.015625 2.265625q0.421875 1.390625 0.421875 2.703125z" fill-rule="nonzero"/><path fill="#000000" fill-opacity="0.0" d="m210.02362 200.79265l156.12598 0l0 38.771652l-156.12598 0z" fill-rule="evenodd"/><path fill="#000000" d="m268.31708 221.26202q0 -1.375 0.453125 -2.765625q0.328125 -1.03125 1.03125 -2.296875q0.515625 -0.90625 0.75 -1.109375q0.25 -0.21875 0.546875 -0.21875q0.34375 0 0.578125 0.234375q0.234375 0.234375 0.234375 0.5625q0 0.234375 -0.1875 0.546875q-0.84375 1.375 -1.234375 2.59375q-0.390625 1.203125 -0.390625 2.453125q0 1.25 0.390625 2.46875q0.390625 1.203125 1.234375 2.59375q0.1875 0.296875 0.1875 0.53125q0 0.328125 -0.234375 0.5625q-0.234375 0.234375 -0.578125 0.234375q-0.296875 0 -0.515625 -0.1875q-0.3125 -0.265625 -0.828125 -1.21875q-0.734375 -1.390625 -1.015625 -2.296875q-0.421875 -1.375 -0.421875 -2.6875zm12.4296875 -0.3125q-0.609375 0.515625 -1.109375 0.734375q-0.5 0.203125 -1.046875 0.203125q-1.296875 0 -2.265625 -1.03125q-0.953125 -1.03125 -0.953125 -2.5625q0 -1.1875 0.65625 -2.171875q0.90625 -1.34375 2.5625 -1.34375q1.171875 0 2.046875 0.71875q0.890625 0.703125 1.296875 2.03125q0.421875 1.328125 0.421875 2.78125q0 2.453125 -1.890625 3.9375q-1.46875 1.140625 -3.21875 1.140625q-0.96875 0 -1.5 -0.390625q-0.359375 -0.265625 -0.359375 -0.6875q0 -0.34375 0.21875 -0.5625q0.234375 -0.234375 0.578125 -0.234375q0.1875 0 0.421875 0.109375q0.296875 0.15625 0.640625 0.15625q1.203125 0 2.21875 -0.8125q1.03125 -0.828125 1.28125 -2.015625zm-0.234375 -2.53125q-0.25 -1.109375 -0.765625 -1.5625q-0.5 -0.46875 -1.140625 -0.46875q-0.6875 0 -1.171875 0.515625q-0.46875 0.515625 -0.46875 1.375q0 0.90625 0.484375 1.46875q0.484375 0.546875 1.09375 0.546875q1.09375 0 1.96875 -1.875zm7.1953125 4.578125l2.140625 0l-2.296875 4.34375q-0.203125 0.390625 -0.515625 0.390625q-0.203125 0 -0.34375 -0.140625q-0.140625 -0.125 -0.140625 -0.296875q0 -0.109375 0.046875 -0.3125l1.109375 -3.984375zm12.2734375 -3.203125q0.703125 0.484375 1.046875 1.125q0.359375 0.640625 0.359375 1.421875q0 0.859375 -0.46875 1.578125q-0.453125 0.71875 -1.34375 1.09375q-0.875 0.375 -2.3125 0.375q-1.859375 0 -2.796875 -0.578125q-0.515625 -0.328125 -0.515625 -0.78125q0 -0.34375 0.21875 -0.578125q0.234375 -0.25 0.5625 -0.25q0.234375 0 0.46875 0.15625q0.34375 0.234375 0.65625 0.3125q0.46875 0.109375 1.28125 0.109375q1.40625 0 2.03125 -0.359375q0.625 -0.359375 0.625 -1.03125q0 -0.484375 -0.375 -0.9375q-0.359375 -0.46875 -0.96875 -0.71875q-0.34375 -0.140625 -1.1875 -0.1875q-0.390625 -0.03125 -0.609375 -0.25q-0.21875 -0.21875 -0.21875 -0.546875q0 -0.34375 0.234375 -0.578125q0.234375 -0.234375 0.59375 -0.234375q0.796875 0 0.859375 -0.015625q0.3125 -0.03125 0.625 -0.203125q0.3125 -0.171875 0.5 -0.46875q0.1875 -0.296875 0.1875 -0.625q0 -0.5 -0.453125 -0.875q-0.4375 -0.375 -1.34375 -0.375q-1.15625 0 -1.765625 0.671875q-0.171875 0.203125 -0.28125 0.25q-0.171875 0.09375 -0.375 0.09375q-0.328125 0 -0.5625 -0.234375q-0.234375 -0.234375 -0.234375 -0.578125q0 -0.546875 0.71875 -1.046875q1.046875 -0.75 2.625 -0.75q1.484375 0 2.375 0.84375q0.90625 0.84375 0.90625 2.03125q0 0.625 -0.265625 1.15625q-0.265625 0.53125 -0.796875 0.984375zm7.9921875 1.46875q0 1.359375 -0.453125 2.765625q-0.328125 1.03125 -1.03125 2.296875q-0.515625 0.90625 -0.765625 1.109375q-0.234375 0.21875 -0.53125 0.21875q-0.34375 0 -0.578125 -0.234375q-0.234375 -0.234375 -0.234375 -0.5625q0 -0.234375 0.1875 -0.53125q0.84375 -1.390625 1.234375 -2.59375q0.390625 -1.21875 0.390625 -2.46875q0 -1.25 -0.390625 -2.453125q-0.390625 -1.21875 -1.234375 -2.59375q-0.1875 -0.3125 -0.1875 -0.546875q0 -0.328125 0.234375 -0.5625q0.234375 -0.234375 0.578125 -0.234375q0.296875 0 0.515625 0.1875q0.3125 0.265625 0.828125 1.234375q0.734375 1.375 1.015625 2.265625q0.421875 1.390625 0.421875 2.703125z" fill-rule="nonzero"/></g></svg>
